<?xml version="1.0" encoding="UTF-8"?>
<svg width="19px" height="19px" viewBox="0 0 19 19" version="1.1" xmlns="http://www.w3.org/2000/svg" xmlns:xlink="http://www.w3.org/1999/xlink">
    <!-- Generator: Sketch 50.2 (55047) - http://www.bohemiancoding.com/sketch -->
    <title>flight</title>
    <desc>Created with Sketch.</desc>
    <defs></defs>
    <g id="Page-1" stroke="none" stroke-width="1" fill="none" fill-rule="evenodd">
        <g id="flight" fill="#00B0EB" fill-rule="nonzero">
            <path d="M9.8956839,11.173715 L7.3217007,13.744492 L6.614969,16.754492 C6.4050277,17.64864 5.8197276,17.75644 5.29669,16.996239 C5.29669,16.996239 4.2779832,15.418611 3.4867627,14.628376 C2.8042449,13.946708 1.3485732,13.036831 1.3485732,13.036831 C0.5834477,12.530595 0.6813137,11.904866 1.5610146,11.64107 L4.3717484,10.798214 L6.923893,8.249248 L5.3461043,7.468049 L4.666128,8.147178 C4.3406253,8.472276 3.8148772,8.474269 3.4867627,8.146564 C3.16092,7.821127 3.1617549,7.292655 3.4861471,6.968667 L3.7683156,6.68685 L2.5849741,6.100951 L2.011171,6.674039 C1.6856682,6.999137 1.1599201,7.00113 0.8318057,6.673424 C0.505963,6.347988 0.5067978,5.819516 0.8311901,5.495528 L1.0071855,5.319752 L0.3775896,5.008025 C-0.0342706,4.804103 -0.1238092,4.359179 0.181444,4.016161 L1.4590767,2.580467 C1.7657338,2.235872 2.3750935,2.047641 2.8232552,2.156518 L11.0283799,4.149873 L13.8116193,1.3701 C14.137449,1.044676 14.7610373,0.687148 15.2072257,0.570812 L17.1833794,0.055566 C18.07291,-0.176363 18.5460461,0.33898 18.2404425,1.20581 L17.6296629,2.938259 C17.476059,3.373949 17.0884201,3.989937 16.7615715,4.316378 L14.0171683,7.057364 L16.2067587,15.180622 C16.3260879,15.623326 16.1666829,16.249948 15.8475084,16.583575 L14.3765669,18.12112 C14.0588292,18.453244 13.62805,18.387716 13.4198365,17.985277 L12.9107282,17.00126 L12.6309992,17.280641 C12.3054965,17.605738 11.7797484,17.607732 11.4516339,17.280026 C11.1257912,16.954589 11.1266261,16.426118 11.4510183,16.10213 L12.1067164,15.447248 L11.5037075,14.281739 L11.1560231,14.628991 C10.8305204,14.954088 10.3047722,14.956082 9.9766578,14.628376 C9.6508151,14.302939 9.6516499,13.774467 9.9760422,13.450479 L10.6996957,12.727727 L9.8956839,11.173715 Z M8.1677338,7.006956 L9.6469904,5.529542 L2.5876065,3.814533 L2.3193322,4.122595 L8.1677338,7.006956 Z M11.1341135,9.936828 L14.214051,15.889801 L14.5705891,15.521893 L12.6555673,8.417269 L11.1341135,9.936828 Z M3.8085228,12.714114 C3.8085228,12.714114 4.4321244,13.215537 4.6667437,13.449864 C4.928054,13.710849 5.4603259,14.372107 5.4603259,14.372107 L5.8055658,12.901716 L15.5815906,3.137867 C15.7313745,2.98827 15.9846665,2.586041 16.0556441,2.384716 L16.1787848,2.040019 L15.6287368,2.183434 C15.4701691,2.224777 15.1082089,2.432148 14.9916002,2.548611 L5.2543761,12.273708 L3.8085228,12.714114 Z" id="Combined-Shape"></path>
        </g>
    </g>
</svg>