<?xml version="1.0" encoding="UTF-8"?>
<svg width="32px" height="32px" viewBox="0 0 32 32" version="1.1" xmlns="http://www.w3.org/2000/svg" xmlns:xlink="http://www.w3.org/1999/xlink">
    <!-- Generator: sketchtool 52.5 (67469) - http://www.bohemiancoding.com/sketch -->
    <title>FA3D5712-C80B-4D8B-B6D9-44C53FC7B8F0@2x</title>
    <desc>Created with sketchtool.</desc>
    <g id="Bestellabwicklung" stroke="none" stroke-width="1" fill="none" fill-rule="evenodd">
        <g id="warenkorb-copy-3" transform="translate(-1018.000000, -368.000000)">
            <g id="Group-Copy-4" transform="translate(1019.000000, 369.000000)">
                <g id="add-to-cart-copy" fill="#FFFFFF" stroke="#4A4A4A" stroke-width="1.5">
                    <circle id="Oval" cx="15" cy="15" r="15"></circle>
                </g>
                <path d="M22.2913643,8.45177686 C21.360962,7.51532286 20.1241067,7 18.8082633,7 C17.4922328,7 16.2552371,7.51532286 15.3245072,8.45177686 L14.866021,8.91331625 L14.4075348,8.45177686 C13.4770856,7.51532286 12.2398092,7 10.9240594,7 C9.60835645,7 8.37098641,7.51532286 7.44063088,8.45177686 C5.51978971,10.385203 5.51978971,13.5309707 7.44063088,15.4636434 L14.3235398,22.39102 C14.436079,22.5047094 14.5761798,22.574317 14.722551,22.6011146 C14.7716378,22.6108634 14.8210053,22.6153846 14.8704664,22.6153846 C15.0651757,22.6153846 15.2602125,22.5406435 15.4085022,22.39102 L22.2914111,15.4636434 C24.2123459,13.5309707 24.2123459,10.385203 22.2913643,8.45177686 Z" id="heart-copy" fill="#4A4A4A" fill-rule="nonzero"></path>
            </g>
        </g>
    </g>
</svg>