<?xml version="1.0" encoding="UTF-8"?>
<svg width="220px" height="131px" viewBox="0 0 220 131" version="1.1" xmlns="http://www.w3.org/2000/svg" xmlns:xlink="http://www.w3.org/1999/xlink">
    <!-- Generator: Sketch 49 (51002) - http://www.bohemiancoding.com/sketch -->
    <title>logo_v1</title>
    <desc>Created with Sketch.</desc>
    <defs>
        <path d="M2.03598739,0.767412371 C1.36289916,0.77242268 0.867071429,1.30351546 0.828609244,1.90725773 L0.828609244,2.05756701 C0.839478992,2.22374227 0.886302521,2.39576289 0.976605042,2.56026804 L43.611937,80.4238144 L90.4262689,80.4238144 L173.478668,71.9046186 C173.944395,71.8561856 174.341559,71.5480515 174.499588,71.1104845 L198.142962,5.38357732 C198.185605,5.26583505 198.207345,5.14558763 198.214034,5.02784536 L198.214034,4.91427835 C198.183933,4.30385567 197.683924,3.77276289 197.016689,3.76441237 L2.06190756,0.767412371 L2.03598739,0.767412371 Z" id="path-1"></path>
        <path d="M17.4960286,6.81403496 L0.156320316,29.7890384 C-0.299084453,30.3924436 0.316512949,31.2133553 1.0270817,30.9490732 L84,0 L17.4960286,6.81403496 Z" id="path-3"></path>
        <path d="M1.18231579,0.694615385 C0.366315789,0.694615385 -0.173473684,1.52567308 0.171789474,2.25584615 L19.2025263,42.2193846 C19.3953684,42.6204423 19.8130526,42.8701731 20.2652632,42.8478462 L143.088,37.5638077 C143.507368,37.5439615 143.881263,37.2958846 144.056421,36.9196346 L159.667368,3.14892308 C160.002526,2.42536538 159.464421,1.60257692 158.655158,1.59926923 L1.19073684,0.694615385 C1.18821053,0.694615385 1.184,0.694615385 1.18231579,0.694615385 Z" id="path-5"></path>
    </defs>
    <g id="logo_v1" stroke="none" stroke-width="1" fill="none" fill-rule="evenodd">
        <g id="f-3" transform="translate(21.000000, 28.000000)">
            <mask id="mask-2" fill="white">
                <use xlink:href="#path-1"></use>
            </mask>
            <g id="Clip-2"></g>
            <polygon id="Fill-1" fill="#320174" mask="url(#mask-2)" points="-7.69828992 93.4063608 206.740097 93.4063608 206.740097 -7.74760825 -7.69828992 -7.74760825"></polygon>
        </g>
        <g id="f-2" transform="translate(111.000000, 100.000000)">
            <mask id="mask-4" fill="white">
                <use xlink:href="#path-3"></use>
            </mask>
            <g id="Clip-8"></g>
            <polygon id="Fill-7" fill="#00FECC" mask="url(#mask-4)" points="-11.3513514 42.4814815 96.4864865 42.4814815 96.4864865 -11.4814815 -11.3513514 -11.4814815"></polygon>
        </g>
        <g id="f-1" transform="translate(0.000000, 6.000000)">
            <mask id="mask-6" fill="white">
                <use xlink:href="#path-5"></use>
            </mask>
            <g id="Clip-5"></g>
            <polygon id="Fill-4" fill="#00FECC" mask="url(#mask-6)" points="-8.52042105 51.2816346 168.354526 51.2816346 168.354526 -7.73751923 -8.52042105 -7.73751923"></polygon>
        </g>
        <g id="font" transform="translate(42.000000, 17.000000)">
            <path d="M42.1226455,57.9047018 L53.6412662,56.8885859 L54.8465536,70.7773975 C53.7008064,71.9249917 52.2879329,72.8128757 50.6079329,73.440238 C48.9279329,74.0651656 47.2503467,74.4539192 45.5727605,74.6000061 C43.6014961,74.7744989 41.7428754,74.6267888 39.9960938,74.1495714 C38.251726,73.6780351 36.70368,72.8339772 35.3527605,71.6230786 C34.0042547,70.4113685 32.8858639,68.8109047 32.0024156,66.8265569 C31.1181628,64.8438322 30.5541398,62.4415134 30.3087375,59.6196004 C30.05368,56.6808177 30.2572432,54.1453975 30.9162087,52.0084699 C31.5767835,49.872354 32.5342547,48.0973975 33.7910363,46.6852235 C35.0470133,45.2738612 36.501726,44.2041801 38.1583927,43.4753685 C39.8150593,42.7441221 41.5248294,42.3034264 43.2909214,42.1467888 C45.0562087,41.9917743 46.6187375,41.9869047 47.9809214,42.1370496 C49.3431053,42.2855714 50.4341398,42.4730496 51.2540248,42.6994844 L50.4623007,47.9293975 C49.7011513,47.6972815 48.8571283,47.5398322 47.9326455,47.456238 C47.0049444,47.3750786 45.8366685,47.3945569 44.423795,47.5187308 C43.159772,47.6307308 42.0140248,47.9261511 40.9881628,48.4049917 C39.9623007,48.886267 39.0973582,49.5964119 38.3941398,50.5419192 C37.6909214,51.4866148 37.1840248,52.6601801 36.8750593,54.0618033 C36.567703,55.464238 36.4985076,57.1450496 36.6682777,59.104238 C36.8300018,60.9741511 37.1751743,62.5656873 37.7054041,63.8796583 C38.2340248,65.1952525 38.9050593,66.2560061 39.7160938,67.0651656 C40.5271283,67.8767598 41.4435651,68.4456873 42.4654041,68.774383 C43.4864386,69.102267 44.5565536,69.218325 45.6749444,69.1193105 C46.4393122,69.0519482 47.1811513,68.8888177 47.9004616,68.6315424 C48.6181628,68.374267 49.2111513,68.0309627 49.6794271,67.6000061 L49.1693122,61.7256873 L42.4428754,61.5998902 L42.1226455,57.9047018 Z" id="Fill-26" fill="#FFFFFF"></path>
            <path d="M74.704454,40.9707295 L80.4420402,40.4634831 L82.1872127,60.5853382 C82.3634196,62.6053962 82.2483621,64.3641208 81.844454,65.8639469 C81.4421552,67.3645846 80.8089368,68.6322947 79.9520402,69.6646425 C79.0919253,70.6994251 78.0057184,71.4964106 76.6918104,72.0604686 C75.3754885,72.6261498 73.9095115,72.9783817 72.2914655,73.1220338 C64.4643391,73.8127005 60.238592,70.5525266 59.6142242,63.3407005 L57.8038793,42.4624396 L63.8488219,41.9292222 L65.5553736,61.6071353 C65.6615805,62.823715 65.8619253,63.8438889 66.1547989,64.667657 C66.4492816,65.4954831 66.8531897,66.149628 67.3689368,66.6260338 C67.8854885,67.1032512 68.5066379,67.4222077 69.2307759,67.583715 C69.9573276,67.7435991 70.7900862,67.781744 71.7322701,67.699773 C73.584454,67.5342077 74.8790517,66.8962947 75.6128448,65.7860338 C76.3474425,64.6741498 76.6129598,62.9633092 76.412615,60.6478309 L74.704454,40.9707295 Z" id="Fill-29" fill="#FFFFFF"></path>
            <path d="M96.4135039,45.0925525 C95.7947683,45.1461177 95.1840787,45.2151032 94.585458,45.3003206 C93.9844235,45.3822916 93.5258028,45.4821177 93.2104005,45.6006105 L93.9940787,54.6385235 L96.5543085,54.4120887 C98.2318947,54.263567 99.5361476,53.7579438 100.468676,52.8992772 C101.402814,52.0397989 101.79224,50.7193351 101.636952,48.9378858 C101.521895,47.6028134 101.018217,46.5931902 100.129136,45.9090163 C99.2400557,45.225654 98.0009752,44.9521467 96.4135039,45.0925525 Z M86.7406304,41.2366685 C87.4068373,41.0589293 88.1245384,40.8828134 88.895343,40.7099438 C89.6661476,40.5386974 90.4385614,40.3877409 91.2141936,40.2603206 C91.9882166,40.1312772 92.74132,40.0192772 93.4735039,39.9259438 C94.207297,39.8309873 94.8831591,39.7563206 95.5018947,39.7011322 C96.9421246,39.5737119 98.3735039,39.5834511 99.7944235,39.7254801 C101.213734,39.8707554 102.505113,40.2213641 103.665343,40.7748714 C104.825573,41.3300018 105.784653,42.1497119 106.546607,43.235625 C107.307757,44.3191032 107.762355,45.7231612 107.911205,47.4445525 C108.132469,49.9962047 107.723734,52.1250163 106.687412,53.8301757 C105.649481,55.5369583 104.171435,56.787625 102.255688,57.5870453 L104.536722,58.7752192 L112.628561,70.0377119 L105.655113,70.6537119 L97.5817798,59.0738858 L94.3529292,58.777654 L95.4616649,71.5537699 L89.4159177,72.0869873 L86.7406304,41.2366685 Z" id="Fill-32" fill="#FFFFFF"></path>
            <path d="M131.199726,37.9671883 L136.937312,37.4599419 L138.682485,57.5817969 C138.858692,59.6002317 138.742829,61.3605796 138.339726,62.8604056 C137.935818,64.3618549 137.304209,65.6287535 136.445703,66.6611013 C135.586393,67.6966955 134.500186,68.4928694 133.184669,69.057739 C131.869956,69.6226085 130.403174,69.9748404 128.786737,70.1184926 C120.959611,70.8091593 116.733864,67.5489854 116.109496,60.3371593 L114.299151,39.45971 L120.342485,38.9264926 L122.050646,58.6019709 C122.156048,59.8209854 122.354783,60.8387245 122.650071,61.6641158 C122.942944,62.4919419 123.348462,63.1460868 123.864209,63.6233042 C124.379956,64.09971 125.000301,64.4186665 125.726048,64.5785506 C126.451795,64.7400578 127.285358,64.7790143 128.225933,64.6954201 C130.079726,64.5314781 131.372714,63.8927535 132.106508,62.7824926 C132.840301,61.6706085 133.106623,59.959768 132.906278,57.6451013 L131.199726,37.9671883 Z" id="Fill-35" fill="#FFFFFF"></path>
            <path d="M5.1978855,5.45298348 C4.84841985,5.46485304 4.49812214,5.4860487 4.142,5.51487478 C3.78587786,5.54370087 3.52128244,5.57761391 3.34821374,5.61576609 L3.73761832,16.960527 C3.80085496,16.9757878 3.9090229,16.9825704 4.05879389,16.9868096 C4.21022901,16.989353 4.37248092,16.9910487 4.54638168,16.9927443 C4.7211145,16.99444 4.88752672,16.9978313 5.04561832,16.999527 C5.20454198,17.0012226 5.32352672,17.0029183 5.40257252,16.999527 C6.32033588,16.9673096 7.07834351,16.7740052 7.67576336,16.4221574 C8.27484733,16.0686139 8.74246565,15.6133313 9.07945038,15.0512226 C9.41643511,14.4908096 9.64441985,13.8490052 9.76174046,13.1249617 C9.88072519,12.4017661 9.92648855,11.6624617 9.90069466,10.9045052 C9.87739695,10.2440487 9.79169466,9.57850522 9.64192366,8.91550522 C9.49215267,8.25250522 9.23837405,7.65817913 8.87975573,7.13930957 C8.52196947,6.61789652 8.04353435,6.19907044 7.4461145,5.88198348 C6.84952672,5.5640487 6.09900763,5.42076609 5.1978855,5.45298348 Z M0,2.92561391 C0.331160305,2.86457044 0.705587786,2.81200522 1.12328244,2.76452696 C1.54180916,2.7170487 1.97281679,2.67889652 2.41464122,2.64413565 C2.85812977,2.61446174 3.28830534,2.58733131 3.70683206,2.56444 C4.1270229,2.53985304 4.50228244,2.5220487 4.83427481,2.50933131 C6.30619084,2.45761391 7.57258779,2.62463565 8.6301374,3.00615739 C9.69101527,3.38767913 10.5563588,3.94724435 11.2328244,4.68146174 C11.9067939,5.41737478 12.411855,6.30165739 12.7496718,7.3385487 C13.0849924,8.37883131 13.2755344,9.52509217 13.3188015,10.7824183 C13.3579084,11.9278313 13.2530687,13.0384835 13.0042824,14.1126791 C12.7571603,15.186027 12.3145038,16.1466139 11.6788092,16.99444 C11.0414504,17.838027 10.1894198,18.5307009 9.12271756,19.0699183 C8.05518321,19.60744 6.72222137,19.9067226 5.12383206,19.9643748 C4.87171756,19.972853 4.53473282,19.9762443 4.11454198,19.9745487 C3.69351908,19.9745487 3.25835115,19.9694617 2.80570992,19.9626791 C2.35390076,19.9525052 1.92206107,19.944027 1.51019084,19.9355487 C1.09665649,19.9253748 0.788793893,19.9067226 0.581610687,19.8838313 L0,2.92561391 Z" id="Fill-10" fill="#320174"></path>
            <polygon id="Fill-13" fill="#320174" points="18.5648634 2.26541174 28.4172985 1.91525957 28.5179779 4.86654217 21.9180695 5.10139 22.0536954 9.04378131 28.0595122 8.82928131 28.1601916 11.7814117 22.1543748 11.9959117 22.2958252 16.1316074 29.0155504 15.8916726 29.1162298 18.843803 19.1448099 19.1981943"></polygon>
            <path d="M38.4393076,12.0932422 L42.000529,11.9669161 L40.6367809,8.23648131 L40.0468496,5.59295957 L39.9286969,5.59804652 L39.5218191,8.30091609 L38.4393076,12.0932422 Z M42.8043,14.6019596 L37.6996053,14.7842422 L36.5696664,18.5774161 L33.3179718,18.6944161 L38.7147198,1.42589435 L41.1127198,1.34111174 L47.6801779,18.183177 L44.262071,18.3044161 L42.8043,14.6019596 Z" id="Fill-16" fill="#320174"></path>
            <polygon id="Fill-19" fill="#320174" points="62.8261855 17.6446378 52.3089336 18.0168335 51.728987 1.0848987 54.9798496 0.970442175 55.4599489 14.9510943 62.724674 14.6933552"></polygon>
            <path d="M74.7984626,12.6636596 C74.7801573,12.1473335 74.5796305,11.7369857 74.1968824,11.4258335 C73.8141344,11.1172248 73.3373634,10.8408335 72.7665695,10.5924204 C72.1957756,10.345703 71.5767221,10.0938987 70.9102412,9.83531174 C70.2445924,9.57672478 69.6230427,9.25370304 69.0464244,8.86031174 C68.4714702,8.47031174 67.9863786,7.97348565 67.5936458,7.37407261 C67.2000809,6.77465957 66.9887374,5.99974652 66.956287,5.04763783 C66.9279969,4.22524652 67.0369969,3.50713783 67.2849511,2.89331174 C67.5337374,2.27694217 67.9006763,1.76061609 68.3849359,1.34009435 C68.8700275,0.918724783 69.449142,0.599942175 70.1222794,0.382898696 C70.7970809,0.16331174 71.5525924,0.0395291312 72.3904779,0.0107030442 C73.3573328,-0.0249056514 74.2709359,0.0285073921 75.130455,0.168398696 C75.9916382,0.306594349 76.7030504,0.527876957 77.269684,0.831398696 L76.3444321,3.64957261 C75.9874779,3.43507261 75.457455,3.24770304 74.7551954,3.08746391 C74.0521038,2.92722478 73.2982565,2.86024652 72.4903252,2.88992044 C71.7314855,2.91705087 71.1548672,3.09085522 70.7613023,3.40963783 C70.3685695,3.73265957 70.1805237,4.14894217 70.198829,4.66526826 C70.2154702,5.14937696 70.4143328,5.54531174 70.798745,5.85476826 C71.1814931,6.16676826 71.6582641,6.4473987 72.2298901,6.7008987 C72.800684,6.9543987 73.4197374,7.21552913 74.0862183,7.48259435 C74.7526992,7.75050739 75.3742489,8.07861609 75.9500351,8.47031174 C76.5258214,8.86200739 77.0100809,9.35120304 77.4028137,9.94213783 C77.7955466,10.5347683 78.0068901,11.2842465 78.0393405,12.1863335 C78.0692947,13.0892683 77.9494779,13.8726596 77.679058,14.5365074 C77.4086382,15.1978117 77.0159053,15.7582248 76.5008595,16.2135074 C75.9849817,16.6670943 75.3551115,17.0130074 74.6112489,17.2478552 C73.8665542,17.4843987 73.0428137,17.6208987 72.1408595,17.6531161 C70.9543405,17.6955074 69.9059435,17.619203 68.9956687,17.4250509 C68.086226,17.2308987 67.4139206,17.0299639 66.9787527,16.8188552 L67.9264702,13.9506596 C68.1036992,14.041377 68.332516,14.1371813 68.6137527,14.2406161 C68.8941573,14.3448987 69.2103405,14.4381596 69.5614702,14.5220943 C69.9134321,14.6051813 70.2828672,14.674703 70.6739359,14.723877 C71.0641725,14.7755943 71.4643939,14.7950943 71.8762641,14.7789857 C72.841455,14.7450726 73.5753328,14.5534639 74.0787298,14.2033117 C74.5812947,13.855703 74.8217603,13.3410726 74.7984626,12.6636596" id="Fill-22" fill="#320174"></path>
        </g>
    </g>
</svg>