<?xml version="1.0" encoding="UTF-8"?>
<svg width="17px" height="14px" viewBox="0 0 17 14" version="1.1" xmlns="http://www.w3.org/2000/svg" xmlns:xlink="http://www.w3.org/1999/xlink">
    <!-- Generator: Sketch 50.2 (55047) - http://www.bohemiancoding.com/sketch -->
    <title>return</title>
    <desc>Created with Sketch.</desc>
    <defs></defs>
    <g id="Page-1" stroke="none" stroke-width="1" fill="none" fill-rule="evenodd">
        <g id="return" fill="#F2E010" fill-rule="nonzero">
            <path d="M11.2521108,5.242188 C13.0916012,5.242188 14.5826823,6.734132 14.5826823,8.575521 C14.5826823,10.415187 13.0890793,11.908854 11.2521108,11.908854 L1.249349,11.908854 C0.7891117,11.908854 0.4160156,12.28195 0.4160156,12.742188 C0.4160156,13.202425 0.7891117,13.575521 1.249349,13.575521 L11.2521108,13.575521 C14.00957,13.575521 16.249349,11.335645 16.249349,8.575521 C16.249349,5.813874 14.0122919,3.575521 11.2521108,3.575521 L3.2611936,3.575521 L5.1719379,1.664776 C5.4973749,1.33934 5.4973749,0.811702 5.1719379,0.486265 C4.846501,0.160828 4.3188636,0.160828 3.9934266,0.486265 L0.6600933,3.819599 C0.3346564,4.145035 0.3346564,4.672673 0.6600933,4.99811 L3.9934266,8.331443 C4.3188636,8.65688 4.846501,8.65688 5.1719379,8.331443 C5.4973749,8.006006 5.4973749,7.478369 5.1719379,7.152932 L3.2611936,5.242188 L11.2521108,5.242188 Z" id="Combined-Shape"></path>
        </g>
    </g>
</svg>