<?xml version="1.0" encoding="UTF-8"?>
<svg width="320px" height="190px" viewBox="0 0 320 190" version="1.1" xmlns="http://www.w3.org/2000/svg" xmlns:xlink="http://www.w3.org/1999/xlink">
    <!-- Generator: sketchtool 51.3 (57544) - http://www.bohemiancoding.com/sketch -->
    <title>762BC13D-C7C6-41C9-9ED1-32FE4E3E4245</title>
    <desc>Created with sketchtool.</desc>
    <defs>
        <linearGradient x1="69.1122929%" y1="26.8571703%" x2="25.9608777%" y2="143.439968%" id="linearGradient-1">
            <stop stop-color="#FCCB16" offset="0%"></stop>
            <stop stop-color="#F76B1C" offset="100%"></stop>
        </linearGradient>
    </defs>
    <g id="Page-1" stroke="none" stroke-width="1" fill="none" fill-rule="evenodd">
        <g id="PRODUCT_NOT_FOUND---MOBILE-2" transform="translate(0.000000, -95.000000)" fill="url(#linearGradient-1)">
            <g id="Group-2" transform="translate(-57.000000, 95.000000)">
                <path d="M150.660554,162.439063 L135.875938,162.301218 C135.732825,162.813732 135.59471,163.33232 135.44439,163.884145 C134.985276,165.569548 134.741465,167.815412 134.712959,170.621737 C134.741465,172.452608 135.097583,173.603771 135.781312,174.075225 C136.465041,174.546679 137.336641,174.546679 138.396113,174.075225 C139.054487,174.075225 140.840447,172.680561 143.753995,169.891234 C147.414064,166.387212 149.090518,163.670304 150.660554,162.439063 Z M153.388328,162.464495 C155.06023,163.802023 156.830849,166.852964 157.240773,167.928993 C157.61981,168.923949 157.397487,170.238038 156.573804,171.871262 C153.978783,175.154509 152.076719,177.363809 150.867612,178.49916 C146.800171,182.318488 143.304693,183.713486 142.452718,184.178155 C141.600743,184.642823 139.641748,185.151974 137.897606,185.469383 C136.672689,185.692301 136.242646,185.735021 134.137526,185.735021 C132.032406,185.735021 129.113129,185.09168 124.929963,180.975086 C120.746797,176.858492 120.936531,172.437719 121.586525,168.876513 C121.981343,166.713371 122.469298,164.427687 123.054946,162.181681 L25.9125789,161.275969 C18.6250568,160.894046 13.5896549,159.458144 10.8063732,156.968263 C6.63145069,153.233441 6.77512828,143.313234 8.81033657,133.888399 C10.8455449,124.463564 16.1257038,118.571804 19.7353269,115.619221 C22.1417423,113.650832 27.2276279,112.601635 34.9929835,112.471632 C33.2788806,106.34907 32.779073,101.316336 33.4935607,97.3734294 C34.2080485,93.430523 36.3182723,89.5761622 39.8242322,85.8103472 C32.1626524,86.4540239 26.0040047,86.1312628 21.3482893,84.842064 C14.3647162,82.9082659 14.6048685,84.4886563 11.7375956,78.0329694 C8.87032275,71.5772824 9.2560566,67.9005216 9.50102859,63.2261777 C9.66434324,60.1099484 10.828582,57.0559604 12.9937449,54.0642134 C7.92811214,53.470776 4.35719964,50.2209747 2.28100737,44.3148095 C-0.833281022,35.4555618 -0.470012221,32.87335 1.71475185,25.8852323 C3.89951592,18.8971147 3.70227837,17.1953434 12.1457584,12.7617273 C17.774745,9.8059832 30.0891535,7.89529466 49.0889839,7.02966165 C102.651858,4.7522543 148.361618,3.19083334 186.218263,2.34539878 C224.074909,1.49996422 262.135998,1.1905704 300.401531,1.41721733 C343.016072,-0.451920019 367.561462,-0.191168361 374.0377,2.1994723 C380.513938,4.59011296 383.549608,9.64839336 383.14471,17.3743135 L378.880709,34.8720301 C391.002084,32.5208671 399.970459,32.0273669 405.785835,33.3915295 C414.508898,35.4377735 414.186807,39.6780929 415.392772,43.4369787 C416.196749,45.9429026 415.744832,54.5659921 414.037021,69.3062473 C418.786781,70.4109099 421.914087,71.3474806 423.418937,72.1159593 C424.351372,72.5921236 426.994276,74.8335174 428.133457,77.0334776 C429.752054,80.1592717 429.755286,83.5692549 429.709744,84.8745954 C429.632151,87.0986456 428.281787,110.918328 426.065788,114.021352 C424.588456,116.090036 419.742454,117.144706 411.527783,117.185363 C414.088301,119.725533 414.812709,124.770038 413.701006,132.318878 C412.033452,143.64214 413.45233,149.056147 406.002436,154.704355 C401.035841,158.469827 390.904068,160.635082 375.607119,161.200121 L316.896245,161.723327 C316.460981,163.41142 316.064857,165.334388 315.443952,168.803476 C314.495559,174.102297 313.91658,179.515469 313.707017,185.042992 C313.707017,186.460878 313.707017,187.413224 313.707017,187.900032 C313.707017,188.630243 313.16657,189.326582 311.176127,189.326582 C309.849165,189.326582 308.000887,188.705535 305.631294,187.463441 C302.539269,186.002494 300.879844,184.961858 300.65302,184.341533 C300.426197,183.721208 300.426197,182.43172 300.65302,180.473068 L301.746313,173.306444 C302.403231,169.586464 302.654322,167.568865 302.499585,167.253648 C302.26748,166.780823 293.903552,167.253648 293.903552,168.171729 C293.903552,169.08981 291.847494,181.001869 291.560659,182.425812 C291.273824,183.849755 290.812312,184.604039 290.505051,185.042992 C290.19779,185.481946 289.765381,185.609383 285.800422,184.341533 C283.157116,183.496299 280.555567,182.396782 277.995774,181.042979 C277.737403,180.86233 277.737403,179.742595 277.995774,177.683772 C278.38333,174.595539 280.443158,167.434822 280.033333,165.812131 C279.863738,165.140622 278.68568,163.555676 277.995774,162.494476 C277.901148,162.348924 277.810454,162.208232 277.723671,162.072416 L267.490897,162.163606 C269.181144,163.384237 271.047911,166.351545 271.489016,167.397668 C271.892193,168.35384 271.720256,169.641305 270.973203,171.260065 C268.55627,174.546191 266.77803,176.762731 265.638484,177.909687 C261.805049,181.768048 258.446482,183.245693 257.632116,183.727262 C256.817751,184.208831 254.926212,184.771393 253.237505,185.139893 C252.05152,185.398691 251.633937,185.454933 249.582696,185.526564 C247.531454,185.598195 244.665011,185.070926 240.448894,181.203775 C236.232778,177.336625 236.267295,173.024413 236.779528,169.533744 C237.115965,167.241058 237.553639,164.805118 238.105138,162.42548 L227.025757,162.524214 C226.718108,164.090174 226.465571,165.572313 226.268144,166.970632 C225.18229,174.193967 224.558483,179.012596 224.396723,181.426518 C224.154083,185.047403 223.678544,184.883867 223.394129,185.451303 C223.20452,185.829594 222.341031,185.829594 220.803664,185.451303 C213.831542,182.544141 210.19007,180.674546 209.879249,179.842517 C209.413017,178.594475 211.351666,169.965813 212.063872,166.240254 C212.250751,165.262688 212.513491,164.066111 212.852091,162.650524 L203.393057,162.734819 C203.324917,164.33338 203.22336,166.137215 203.083674,168.250179 C202.455622,177.750417 201.062915,184.95423 200.660408,185.71302 C200.257902,186.471811 199.130778,187.661165 197.658608,187.150895 C196.186438,186.640625 188.08095,182.94085 187.732573,181.232091 C187.384196,179.523332 188.789179,172.286015 188.789179,171.305861 C188.789179,170.325707 188.343378,170.344405 187.732573,170.325707 C187.121768,170.307009 179.041338,169.893437 178.264472,170.983681 C177.746562,171.71051 176.313288,176.187296 173.964649,184.41404 C168.148696,182.83898 164.588857,181.48581 163.285132,180.354529 C161.329545,178.657608 161.526489,178.601103 161.764312,176.669876 C161.922861,175.382392 163.014976,171.85873 165.040657,166.098891 C163.938618,164.596445 163.106657,163.413436 162.544775,162.549866 L153.388328,162.464495 Z M264.998797,162.185815 L250.560192,162.314485 C250.40799,162.926832 250.268433,163.538964 250.112914,164.199722 C249.722875,165.856897 249.561692,168.052626 249.629364,170.786908 C249.719413,172.569175 250.10557,173.678269 250.787835,174.114192 C251.4701,174.550115 252.319392,174.520457 253.335713,174.025219 C253.977236,174.002816 255.670051,172.583667 258.414158,169.767771 C261.945066,166.144491 263.476221,163.396337 264.998797,162.185815 Z M150.660554,162.439063 L153.388328,162.464495 C152.741332,161.946897 152.109119,161.68589 151.576266,161.895222 C151.265891,162.017154 150.965226,162.200135 150.660554,162.439063 Z M123.054946,162.181681 L135.875938,162.301218 C136.388475,160.465726 136.965116,158.708128 138.396113,155.780614 C140.226679,152.035665 143.527947,146.881553 144.370253,145.623726 C144.931791,144.785176 146.299821,142.935857 148.474346,140.075772 C149.966613,138.17694 150.890428,137.074267 151.24579,136.767752 C151.778833,136.30798 152.348086,135.581766 153.047508,135.820232 C153.513789,135.97921 153.633975,136.540791 153.408066,137.504976 L150.436789,148.232273 C149.978363,149.669821 149.978363,150.57992 150.436789,150.96257 C151.124428,151.536545 152.687807,152.129603 154.929589,151.982429 C157.17137,151.835255 160.425634,151.630222 161.919223,150.208744 C163.412812,148.787266 163.958376,147.088344 164.733857,143.410869 C165.509338,139.733394 166.565872,135.039131 165.649864,132.517351 C164.733857,129.995572 160.133406,127.198075 158.353605,126.194818 C156.573804,125.191561 153.788608,125.191561 153.047508,125.191561 C152.306407,125.191561 149.278404,125.709001 148.170084,126.194818 C147.061764,126.680634 144.370253,128.869972 142.452718,130.404306 C140.795231,131.730561 137.897606,134.783375 137.086242,135.820232 C136.274878,136.857089 134.505367,138.659116 132.935092,140.834935 C131.733383,142.500058 129.961881,145.104112 128.902767,147.281195 C127.843654,149.458278 125.489325,154.418707 124.314134,157.920341 C123.852777,159.295017 123.433457,160.730062 123.054946,162.181681 Z M162.544775,162.549866 L192.650151,162.830555 L203.393057,162.734819 C203.631285,157.145987 203.461046,154.066258 203.083674,149.057469 C202.598363,142.616029 202.559918,131.469939 200.660408,129.066904 C198.760899,126.66387 190.378499,125.376206 189.546774,125.207844 C188.992291,125.095603 188.590362,125.563648 188.340987,126.611981 L188.789179,130.679187 L183.99288,129.066904 C182.727724,128.893339 181.904668,128.893339 181.523713,129.066904 C181.142757,129.24047 180.376718,130.335515 179.225594,132.352038 L173.280453,145.461006 L167.948922,159.261488 L161.764312,159.865206 C161.448629,160.051978 161.448629,160.500754 161.764312,161.211537 C161.89381,161.503112 162.153964,161.949221 162.544775,162.549866 Z M212.852091,162.650524 L227.025757,162.524214 C227.468853,160.268813 228.026268,157.839536 228.698004,155.236384 C230.405203,148.620544 232.883485,143.947512 232.635218,142.296556 C232.38695,140.645601 226.655155,139.46866 227.150391,138.658094 C227.480549,138.117717 232.969848,138.040755 243.61829,138.427209 L247.157237,127.702416 C247.157237,126.725418 245.74909,126.236919 242.932795,126.236919 C238.708353,126.236919 232.86943,126.110537 225.475506,126.506317 C218.081583,126.902098 211.779458,126.781246 210.630761,128.138905 C209.482064,129.496564 208.023984,135.265 207.563241,136.894362 C207.102498,138.523725 206.482942,139.951761 207.160862,140.409778 C207.838781,140.867795 219.058649,139.07108 219.328345,139.46866 C219.598041,139.866241 217.825522,144.222671 217.042856,146.922748 C216.52108,148.722799 215.825917,151.264509 214.957367,154.547877 C214.075532,157.76864 213.373774,160.469522 212.852091,162.650524 Z M264.998797,162.185815 L267.490897,162.163606 C266.863777,161.710725 266.260956,161.498287 265.764264,161.713627 C265.503299,161.826767 265.251166,161.985169 264.998797,162.185815 Z M238.105138,162.42548 L250.560192,162.314485 C250.980572,160.623193 251.497416,158.930259 252.713472,156.206585 C254.369813,152.496782 257.411286,147.364434 258.189252,146.110672 C258.707897,145.274831 259.978015,143.427077 261.999607,140.567411 C263.389097,138.667205 264.251764,137.561785 264.587605,137.251154 C265.091368,136.785206 265.621352,136.058515 266.310983,136.266978 C266.770738,136.405954 266.906948,136.948834 266.719615,137.895621 L264.189244,148.444925 C263.791445,149.860671 263.8224,150.747091 264.282108,151.104187 C264.97167,151.63983 266.515206,152.164261 268.694606,151.944635 C270.874006,151.725009 274.038007,151.414578 275.445021,149.97926 C276.852036,148.543943 277.325852,146.870659 277.956407,143.262475 C278.586961,139.654291 279.456792,135.04621 278.478457,132.621209 C277.500123,130.196209 272.922266,127.628035 271.153895,126.711442 C269.385523,125.794849 266.671611,125.889621 265.949478,125.914838 C265.227346,125.940055 262.29444,126.547067 261.23101,127.057957 C260.16758,127.568846 257.61942,129.792807 255.803148,131.35247 C254.233192,132.700618 251.513561,135.772604 250.758229,136.810092 C250.002897,137.847581 248.339965,139.662935 246.883884,141.835577 C245.769566,143.498268 244.131974,146.094851 243.174015,148.25133 C242.216055,150.407809 240.090698,155.319292 239.064684,158.76981 C238.71256,159.954015 238.39331,161.182061 238.105138,162.42548 Z M277.723671,162.072416 L316.896245,161.723327 C317.45824,159.54373 318.085485,157.755693 319.346062,153.536786 C320.837324,148.545826 322.554132,143.535701 324.496488,138.506411 C325.172962,136.728409 325.511199,135.625806 325.511199,135.198602 C325.511199,134.771399 322.502323,132.97587 316.484572,129.812015 C315.465943,129.247778 314.616246,129.164871 313.935482,129.563295 C312.914336,130.16093 310.254773,137.932773 309.267039,140.701377 C307.273014,146.290602 305.036899,155.296343 304.481045,155.67228 C303.925191,156.048216 296.961818,156.79812 296.736779,156.293786 C296.511739,155.789452 297.556276,151.259486 299.107079,146.637985 C300.140948,143.556985 301.93227,139.082768 304.481045,133.215335 C305.018254,131.787783 305.018254,130.821783 304.481045,130.317334 C303.943836,129.812886 301.121172,128.128359 296.013055,125.263754 C295.070335,124.635548 294.270028,124.513058 293.612136,124.896285 C292.625297,125.471125 292.144542,126.35951 291.560659,127.857303 C291.171404,128.855831 289.717248,133.137189 287.198193,140.701377 C284.330279,151.185985 282.715534,156.626727 282.353958,157.023603 C281.811594,157.618918 278.72742,157.940109 277.995774,158.279417 C277.264128,158.618725 276.024065,158.794238 276.299307,159.558468 C276.445024,159.963064 276.914211,160.805608 277.723671,162.072416 Z M181.720477,158.871696 C181.339194,158.459594 183.484887,152.383348 184.690374,149.383236 C185.89586,146.383124 188.985653,138.63605 189.473671,140.303306 C189.799015,141.414811 189.998052,147.338137 190.070779,158.073286 C190.070779,158.605559 189.70907,158.871696 188.985653,158.871696 C187.900528,158.871696 182.101761,159.283798 181.720477,158.871696 Z" id="Combined-Shape"></path>
            </g>
        </g>
    </g>
</svg>