<svg width="18" height="18" viewBox="0 0 18 18" fill="none" xmlns="http://www.w3.org/2000/svg">
<path d="M15.8587 1.17779C14.288 -0.392907 11.7321 -0.392287 10.161 1.17779L7.31222 4.02662C7.07017 4.26867 7.07017 4.66103 7.31222 4.90308C7.55427 5.14514 7.94664 5.14514 8.18869 4.90308L11.0375 2.05426C11.5616 1.53049 12.262 1.24164 13.0096 1.24164C13.7574 1.24164 14.4578 1.53049 14.9819 2.05457C15.506 2.57865 15.7949 3.27908 15.7949 4.02693C15.7949 4.77447 15.506 5.4749 14.9819 5.99898L11.2569 9.72489C10.1691 10.8121 8.39975 10.8121 7.31191 9.72489C7.06986 9.48284 6.6775 9.48284 6.43544 9.72489C6.19339 9.96694 6.19339 10.3596 6.43544 10.6014C7.22079 11.3867 8.25253 11.7794 9.28427 11.7794C10.316 11.7794 11.3477 11.3867 12.1331 10.6014L15.8587 6.87576C16.6171 6.11768 17.0349 5.10578 17.0349 4.02693C17.0349 2.94777 16.6171 1.93618 15.8587 1.17779Z" fill="white"/>
<path d="M8.40794 12.5735L5.99735 14.9841C5.47327 15.5082 4.77284 15.797 4.02499 15.797C3.27745 15.797 2.57671 15.5082 2.05263 14.9841C0.965105 13.8966 0.965105 12.1269 2.05263 11.0394L5.55912 7.53289C6.0832 7.00912 6.78363 6.72027 7.53148 6.72027C8.27902 6.72027 8.97945 7.00912 9.50353 7.53289C9.74558 7.77494 10.1379 7.77494 10.38 7.53289C10.622 7.29084 10.622 6.89847 10.38 6.65642C8.80961 5.08603 6.25366 5.08572 4.68234 6.65642L1.17585 10.1632C0.417778 10.9213 0 11.9332 0 13.012C0 14.0906 0.417778 15.1025 1.17616 15.8606C1.93424 16.6189 2.94614 17.0367 4.02468 17.0367C5.10353 17.0367 6.11543 16.6189 6.87351 15.8606L9.2841 13.45C9.52615 13.2079 9.52615 12.8156 9.2841 12.5735C9.04205 12.3315 8.65 12.3315 8.40794 12.5735Z" fill="white"/>
</svg>
