<svg width="46" height="47" viewBox="0 0 46 47" fill="none" xmlns="http://www.w3.org/2000/svg">
<path d="M42.2351 25.9316C42.2351 37.3235 32.832 46.559 21.234 46.559C18.3888 46.559 15.6768 46.003 13.203 44.9959C6.44122 42.2452 1.46141 36.1245 0.431539 28.7674C0.300464 27.8411 0.233887 26.8942 0.233887 25.9326C0.233887 14.5397 9.63591 5.3042 21.234 5.3042C32.832 5.3042 42.2351 14.5387 42.2351 25.9316Z" fill="#E3E3DB"/>
<path d="M42.079 26.2556C41.82 26.2556 41.6109 26.0471 41.6109 25.7889C41.6109 18.8 38.0708 12.392 32.1422 8.64657C31.9238 8.50862 31.8593 8.22027 31.9976 8.00245C32.136 7.78463 32.4252 7.72032 32.6437 7.85828C38.8448 11.7759 42.5471 18.4785 42.5471 25.7889C42.5471 26.0471 42.338 26.2556 42.079 26.2556Z" fill="black"/>
<path d="M44.1275 26.3974L31.3123 34.6569C30.3678 35.2813 29.856 35.5904 28.9093 36.0509C27.7879 35.8725 26.5375 36.5208 25.5908 37.1462L23.9201 37.9148L13.9834 23.3106L16.4208 12.8097C16.6101 11.9924 16.7048 11.1636 16.7048 10.339C16.7048 8.20442 16.0785 6.09677 14.877 4.2868C14.5816 3.84183 14.4411 3.33877 14.4411 2.84194C14.4411 1.99245 14.8541 1.15956 15.6177 0.655463C16.6465 -0.0249593 17.0751 0.101583 17.9614 0.958334L19.5572 2.50277C21.3631 4.2505 22.9485 6.56559 23.8234 8.91803L24.6795 11.2165L34.2272 5.19956C34.2272 5.19956 36.3972 4.46935 37.296 5.90695C38.1636 7.29269 38.0305 9.1234 36.6635 10.0258C36.6469 10.0372 37.4781 10.2612 37.4833 10.2747C37.4905 10.2892 37.5072 10.2986 37.5259 10.2913C37.8744 10.1575 37.3023 10.2996 37.6643 10.2996C38.2416 10.2996 38.8138 10.4656 39.3027 10.7809C39.6398 10.9987 39.9383 11.2871 40.1745 11.6418C40.6291 12.3274 40.8694 12.7174 40.7206 13.4642C40.4865 14.6425 39.0738 15.8706 38.9053 15.9847C38.8762 16.0044 38.9043 15.9847 38.9053 15.9847C38.924 16.0116 40.4377 15.7949 40.4657 15.7772C40.706 15.7191 42.2082 16.5655 42.4423 16.9182C43.3588 18.2987 42.3715 20.7756 40.9859 21.6894C40.9516 21.7122 42.6847 21.3565 42.6503 21.3783C42.6306 21.3938 43.5606 21.4104 44.3148 21.8969C44.6622 22.1188 45.0409 22.3896 45.2843 22.7567C46.2018 24.1414 45.5111 25.4826 44.1275 26.3974Z" fill="#FDD7BD"/>
<path d="M23.215 41.206L15.9996 45.8611C15.9996 45.8611 9.15461 44.2005 5.61767 39.7404C2.08073 35.2803 0.595215 28.0363 0.595215 28.0363L5.00495 25.103L10.7098 21.3358C11.3662 20.9012 12.5646 21.1854 12.9995 21.842L24.1377 39.1284C24.5746 39.785 23.8735 40.7704 23.215 41.206Z" fill="url(#paint0_linear)"/>
<path d="M39.4267 10.8866L35.8294 12.929C35.2032 13.2619 34.4271 13.0887 34.0068 12.5203L37.4845 10.2768C37.4918 10.2913 37.5084 10.3006 37.5271 10.2933C37.8756 10.1585 38.9367 10.5713 39.4267 10.8866Z" fill="#FAC5AA"/>
<path d="M42.0275 16.5053L38.4739 18.3858C37.8477 18.7197 37.0716 18.5465 36.6514 17.9781L40.129 15.7346L40.2788 15.6641C40.2975 15.691 40.336 15.6983 40.3631 15.6807C40.6044 15.6226 41.523 16.1848 42.0275 16.5053Z" fill="#FAC5AA"/>
<path d="M44.9401 21.7951L41.5228 23.5874C40.8986 23.9203 40.1215 23.7471 39.7002 23.1787L42.7128 21.235C42.7284 21.2474 42.7524 21.2474 42.7721 21.2329C43.6324 20.9404 44.1859 21.3086 44.9401 21.7951Z" fill="#FAC5AA"/>
<path d="M16.3947 0.933507C16.8524 0.933507 17.3081 1.10465 17.6514 1.43656L19.2305 2.96233C20.9386 4.6136 22.2785 6.66109 23.1055 8.88491L23.9658 11.1948C23.9679 11.199 23.969 11.2031 23.971 11.2073C23.9731 11.2125 23.9752 11.2187 23.9773 11.2239C23.9835 11.2384 23.9887 11.2508 23.995 11.2622C24.0116 11.2975 24.0303 11.3317 24.0522 11.3639C24.2114 11.6035 24.4745 11.7331 24.7419 11.7331C24.899 11.7331 25.0571 11.6885 25.1975 11.5962L34.0128 5.7753C34.3821 5.53155 34.8003 5.41434 35.2133 5.41434C35.9207 5.41434 36.6156 5.75663 37.0348 6.38726C37.6985 7.38715 37.4229 8.73866 36.4211 9.40041L35.6554 9.90555C35.6554 9.90555 35.6554 9.90555 35.6544 9.90555L33.9473 11.033C33.9452 11.0351 33.9431 11.0361 33.9411 11.0372C33.9317 11.0444 33.9223 11.0506 33.914 11.0569C33.5614 11.3151 33.4698 11.8068 33.7143 12.175C33.8734 12.4146 34.1356 12.5443 34.404 12.5443C34.5611 12.5443 34.7192 12.4997 34.8596 12.4073L36.5678 11.2788C36.9287 11.0413 37.3428 10.9179 37.7662 10.9179C37.9118 10.9179 38.0585 10.9324 38.2052 10.9625C38.7763 11.0776 39.2673 11.4085 39.5887 11.8929C39.9102 12.3773 40.0236 12.9571 39.9081 13.5265C39.7926 14.096 39.4608 14.5855 38.975 14.9071L36.5022 16.5407C36.1215 16.7917 36.0175 17.3031 36.2692 17.6827C36.4284 17.9223 36.6905 18.052 36.9589 18.052C37.1149 18.052 37.2741 18.0073 37.4145 17.915L37.7974 17.662L39.1216 16.7876C39.4909 16.5438 39.9091 16.4266 40.3221 16.4266C41.0295 16.4266 41.7244 16.7689 42.1436 17.3995C42.8073 18.3994 42.5317 19.7509 41.5299 20.4137L40.294 21.229C40.2878 21.2331 40.2815 21.2373 40.2743 21.2414L39.0561 22.0453C38.6754 22.2963 38.5713 22.8076 38.8231 23.1873C38.9822 23.4269 39.2444 23.5565 39.5128 23.5565C39.6688 23.5565 39.828 23.5119 39.9684 23.4196L40.3512 23.1665L41.6755 22.2921C42.0365 22.0536 42.4505 21.9302 42.8739 21.9302C43.0196 21.9302 43.1673 21.9447 43.3129 21.9748C43.884 22.0899 44.375 22.4208 44.6975 22.9051C45.019 23.3895 45.1324 23.9693 45.0158 24.5388C44.9004 25.1082 44.5685 25.5978 44.0827 25.9193L41.1814 27.8351C41.1803 27.8351 41.1793 27.8361 41.1783 27.8372C41.1783 27.8372 32.6282 33.3407 30.8233 34.4672C29.0185 35.5936 26.631 35.5905 23.7183 37.3538L14.1987 23.039L16.557 12.8834C17.1645 10.2675 16.8441 7.51162 15.6873 5.11043C15.6769 5.08554 15.6655 5.06065 15.652 5.03679C15.4293 4.58352 15.1776 4.1427 14.8957 3.71847C14.3475 2.89283 14.5753 1.77574 15.4033 1.22912C15.704 1.03101 16.0504 0.933507 16.3947 0.933507ZM16.3947 0C15.8548 0 15.3326 0.155584 14.8863 0.451195C13.6276 1.28202 13.2812 2.97892 14.1144 4.23397C14.3714 4.62086 14.6054 5.02953 14.8104 5.44649L14.8197 5.46516L14.8249 5.4745L14.8322 5.49213L14.8426 5.51391C15.9141 7.73877 16.1991 10.281 15.6436 12.6718L13.2853 22.8274L13.1948 23.2184L13.4174 23.5534L22.937 37.8682L23.4343 38.6161L24.203 38.1504C25.7094 37.2386 27.0992 36.8206 28.3256 36.4514C29.3971 36.1288 30.4093 35.8249 31.3237 35.2534C33.0079 34.2016 40.63 29.2976 41.5902 28.6804L41.6017 28.6763L41.7026 28.6078L44.6029 26.6931C45.2967 26.2347 45.7711 25.5345 45.9365 24.7203C46.1019 23.9071 45.9406 23.0784 45.4819 22.3865C45.021 21.6937 44.3189 21.2217 43.5022 21.0568C43.2973 21.0153 43.0861 20.9935 42.877 20.9935C42.6555 20.9935 42.437 21.0174 42.2227 21.063C43.5106 20.0797 43.8341 18.249 42.9249 16.8799C42.3465 16.0086 41.3738 15.489 40.3232 15.489C40.1005 15.489 39.88 15.5128 39.6657 15.5584C40.2659 15.1021 40.6748 14.4528 40.8256 13.7091C40.991 12.8959 40.8298 12.0671 40.37 11.3743C39.9112 10.6824 39.209 10.2105 38.3924 10.0445C38.1864 10.003 37.9763 9.98126 37.7672 9.98126C37.5456 9.98126 37.3272 10.0051 37.1129 10.0508C38.4018 9.06746 38.7242 7.23675 37.8161 5.86761C37.2377 4.99634 36.265 4.47668 35.2144 4.47668C34.6016 4.47668 34.0076 4.65509 33.4969 4.99323L24.796 10.7374L23.9846 8.55715C23.1087 6.20471 21.6908 4.03794 19.8828 2.2902L18.3036 0.766513C17.7918 0.272791 17.1146 0 16.3947 0Z" fill="black"/>
<path d="M11.5469 20.5508L24.8625 39.8433L20.3893 43.0587L7.07373 23.6625L11.5469 20.5508Z" fill="#BA644C"/>
<path d="M20.4111 43.5245C20.2623 43.5245 20.1167 43.4539 20.0251 43.3232L6.89891 24.3596L0.848664 28.412C0.634367 28.5562 0.34309 28.4991 0.198491 28.2844C0.0538926 28.0708 0.111108 27.7803 0.326445 27.6362L6.76056 23.3265C6.97277 23.1844 7.26093 23.2383 7.40657 23.4489L20.5297 42.4084L24.3704 39.7728L9.8585 18.3747C9.7139 18.1611 9.77008 17.8706 9.98438 17.7265C10.1987 17.5823 10.49 17.6383 10.6346 17.852L25.4065 39.6338C25.55 39.8464 25.4959 40.1348 25.2837 40.28L20.6763 43.4425C20.5952 43.4975 20.5026 43.5245 20.4111 43.5245Z" fill="black"/>
<path d="M30.8163 7.81768C30.7435 7.81768 30.6707 7.80108 30.602 7.76581C27.8391 6.3417 24.8535 5.58452 21.7264 5.5171C21.4674 5.51191 21.2625 5.29824 21.2687 5.03997C21.2739 4.78274 21.4903 4.57841 21.7472 4.58359C25.0178 4.65516 28.1428 5.44657 31.0327 6.93603C31.2626 7.05427 31.3521 7.3364 31.2335 7.56459C31.1492 7.72536 30.9859 7.81768 30.8163 7.81768Z" fill="black"/>
<path d="M21.2737 46.9999C9.5435 46.9999 0 37.4854 0 25.7885C0 21.1148 1.49488 16.6827 4.32235 12.9704C7.05828 9.37851 10.9427 6.70245 15.2588 5.43703C15.5064 5.36443 15.7675 5.50549 15.8403 5.75339C15.9131 6.00025 15.7716 6.26059 15.523 6.3332C11.3973 7.54365 7.68348 10.1015 5.06719 13.5357C2.36455 17.0841 0.936249 21.3212 0.936249 25.7885C0.936249 36.9699 10.0595 46.0664 21.2737 46.0664C26.3419 46.0664 31.1969 44.1962 34.945 40.8014C38.6671 37.4293 40.9973 32.8375 41.505 27.8713C41.531 27.6151 41.763 27.4294 42.0178 27.4543C42.2748 27.4802 42.462 27.7095 42.436 27.9657C41.9044 33.1611 39.4671 37.9646 35.5743 41.4922C31.6535 45.0447 26.5749 46.9999 21.2737 46.9999Z" fill="black"/>
<defs>
<linearGradient id="paint0_linear" x1="0.5956" y1="33.4946" x2="24.2736" y2="33.4946" gradientUnits="userSpaceOnUse">
<stop stop-color="#E37B5E"/>
<stop offset="1" stop-color="#E37B5E"/>
</linearGradient>
</defs>
</svg>
