<?xml version="1.0" encoding="UTF-8"?>
<svg width="17px" height="17px" viewBox="0 0 17 17" version="1.1" xmlns="http://www.w3.org/2000/svg" xmlns:xlink="http://www.w3.org/1999/xlink">
    <!-- Generator: Sketch 47.1 (45422) - http://www.bohemiancoding.com/sketch -->
    <title>Delete</title>
    <desc>Created with Sketch.</desc>
    <defs></defs>
    <g id="Page-1" stroke="none" stroke-width="1" fill="none" fill-rule="evenodd" opacity="0.200000003">
        <g id="Tag-manager-Parsing-3" transform="translate(-1125.000000, -972.000000)" fill="#000000">
            <g id="Group-7" transform="translate(364.000000, 946.000000)">
                <g id="Group-5" transform="translate(759.000000, 23.000000)">
                    <g id="Delete" transform="translate(0.000000, 1.000000)">
                        <path d="M10.5,9.29791847 L12.6063008,7.19161769 C12.9373183,6.86060019 13.4737786,6.86233015 13.8057242,7.1942758 C14.1399841,7.52853571 14.1388599,8.0632216 13.8083823,8.39369922 L11.7020815,10.5 L13.8083823,12.6063008 C14.1388599,12.9367784 14.1399841,13.4714643 13.8057242,13.8057242 C13.4737786,14.1376699 12.9373183,14.1393998 12.6063008,13.8083823 L10.5,11.7020815 L8.39369922,13.8083823 C8.06268172,14.1393998 7.52622145,14.1376699 7.1942758,13.8057242 C6.86001589,13.4714643 6.86114008,12.9367784 7.19161769,12.6063008 L9.29791847,10.5 L7.19161769,8.39369922 C6.86114008,8.0632216 6.86001589,7.52853571 7.1942758,7.1942758 C7.52622145,6.86233015 8.06268172,6.86060019 8.39369922,7.19161769 L10.5,9.29791847 Z M10.5,19 C5.80557963,19 2,15.1944204 2,10.5 C2,5.80557963 5.80557963,2 10.5,2 C15.1944204,2 19,5.80557963 19,10.5 C19,15.1944204 15.1944204,19 10.5,19 Z M10.5,17.3 C14.2555363,17.3 17.3,14.2555363 17.3,10.5 C17.3,6.7444637 14.2555363,3.7 10.5,3.7 C6.7444637,3.7 3.7,6.7444637 3.7,10.5 C3.7,14.2555363 6.7444637,17.3 10.5,17.3 Z" id="Combined-Shape-Copy-5"></path>
                    </g>
                </g>
            </g>
        </g>
    </g>
</svg>