<?xml version="1.0" encoding="UTF-8"?>
<svg width="50px" height="50px" viewBox="0 0 50 50" version="1.1" xmlns="http://www.w3.org/2000/svg" xmlns:xlink="http://www.w3.org/1999/xlink">
    <!-- Generator: Sketch 49 (51002) - http://www.bohemiancoding.com/sketch -->
    <title>Group 2</title>
    <desc>Created with Sketch.</desc>
    <defs></defs>
    <g id="Page-1" stroke="none" stroke-width="1" fill="none" fill-rule="evenodd">
        <g id="Main-page" transform="translate(-1348.000000, -1481.000000)">
            <g id="Group-2" transform="translate(1348.000000, 1481.000000)">
                <rect id="Rectangle-2" fill="#D4D4D4" x="0" y="0" width="50" height="50" rx="25"></rect>
                <path d="M34.5485599,28.4131479 L26.6095907,20.4525215 C26.3088801,20.1508405 25.9391662,20 25.5,20 C25.0529007,20 24.6869288,20.1508405 24.4023839,20.4525215 L16.4634146,28.4131479 C16.1544715,28.7229338 16,29.0939564 16,29.5260656 C16,29.94992 16.1546212,30.31674 16.4634146,30.6265259 L17.37797,31.5435761 C17.6707475,31.8532119 18.0365696,32.008405 18.4755861,32.008405 C18.9146026,32.008405 19.2804248,31.8532119 19.5732022,31.5435761 L23.1585287,27.9606264 L23.1585287,36.5693416 C23.1585287,36.9930458 23.3109047,37.3376526 23.6158064,37.6027116 C23.9207081,37.8676206 24.2886258,38 24.7194098,38 L26.2804405,38 C26.7113742,38 27.0791422,37.8676206 27.3840439,37.6027116 C27.6889456,37.3378027 27.8414713,36.9930458 27.8414713,36.5693416 L27.8414713,27.9606264 L31.4267978,31.5435761 C31.7194255,31.8532119 32.0852477,32.008405 32.5245636,32.008405 C32.9551979,32.008405 33.3253608,31.8532119 33.6341542,31.5435761 L34.5485599,30.6265259 C34.8494202,30.3084851 35,29.9418151 35,29.5260656 C35,29.1020612 34.8494202,28.7311887 34.5485599,28.4131479 L34.5485599,28.4131479 Z" id="Shape" fill="#FFFFFF"></path>
                <rect id="Rectangle-8" fill="#FFFFFF" x="12" y="15" width="27" height="3" rx="1"></rect>
            </g>
        </g>
    </g>
</svg>