<?xml version="1.0" encoding="UTF-8"?>
<svg width="19px" height="19px" viewBox="0 0 19 19" version="1.1" xmlns="http://www.w3.org/2000/svg" xmlns:xlink="http://www.w3.org/1999/xlink">
    <!-- Generator: sketchtool 52.5 (67469) - http://www.bohemiancoding.com/sketch -->
    <title>0EBBD4C7-B632-4CBF-92C6-5868F0FEE9DA</title>
    <desc>Created with sketchtool.</desc>
    <g id="Page-1" stroke="none" stroke-width="1" fill="none" fill-rule="evenodd">
        <g id="3-Opt-in-Email" transform="translate(-169.000000, -531.000000)" fill="#B6BFC4" fill-rule="nonzero">
            <g id="Group" transform="translate(133.000000, 531.000000)">
                <path d="M38.4204072,1.42108547e-14 L52.4369292,1.42108547e-14 C53.7680467,1.42108547e-14 54.8571429,0.985500869 54.8571429,2.42018877 L54.8571429,16.4369541 C54.8571429,17.871642 53.7680467,18.8571429 52.4369292,18.8571429 L38.4204072,18.8571429 C37.0889025,18.8571429 36,17.871642 36,16.4369541 L36,2.42018877 C36,0.985500869 37.0889025,1.42108547e-14 38.4204072,1.42108547e-14 Z M49.7367453,2.09510902 C49.2697409,2.09510902 48.8881216,2.476918 48.8881216,2.94411124 L48.8881216,4.97610174 C48.8881216,5.44310136 49.2697409,5.82510396 49.7367453,5.82510396 L51.8680822,5.82510396 C52.3350866,5.82510396 52.7170932,5.44310136 52.7170932,4.97610174 L52.7170932,2.94411124 C52.7170932,2.476918 52.3350866,2.09510902 51.8680822,2.09510902 L49.7367453,2.09510902 Z M52.7259995,7.97461882 L51.0663139,7.97461882 C51.2233373,8.48731161 51.3083352,9.03040197 51.3083352,9.592273 C51.3083352,12.7288376 48.6836619,15.2713912 45.4465778,15.2713912 C42.2096873,15.2713912 39.5854013,12.7288376 39.5854013,9.592273 C39.5854013,9.03001474 39.6702056,8.487118 39.8274226,7.97461882 L38.0955178,7.97461882 L38.0955178,15.9401377 C38.0955178,16.3523443 38.4327987,16.6898154 38.8452031,16.6898154 L51.9767014,16.6898154 C52.3891058,16.6898154 52.7263868,16.3525379 52.7263868,15.9401377 L52.7263868,7.97461882 L52.7259995,7.97461882 Z M45.4463842,5.71803481 C43.3549324,5.71803481 41.6592339,7.36085895 41.6592339,9.38762183 C41.6592339,11.4143847 43.3549324,13.0572089 45.4463842,13.0572089 C47.5380296,13.0572089 49.2339217,11.4143847 49.2339217,9.38762183 C49.2339217,7.36085895 47.5382232,5.71803481 45.4463842,5.71803481 Z" id="instagramm"></path>
            </g>
        </g>
    </g>
</svg>