<svg width="86" height="32" viewBox="0 0 86 32" fill="none" xmlns="http://www.w3.org/2000/svg">
<path d="M14.7838 1.50684H20.4595V20.0541H23.9054V25.5271H20.4595V30.5947H14.5811V25.5271H1V20.0541L14.7838 1.50684ZM14.5811 20.0541V10.4258L7.48649 20.1555H14.5811V20.0541Z" stroke="black"/>
<path d="M53.8041 23.9054C52.7906 26.1351 51.2703 27.9595 49.3446 29.1757C47.4189 30.3919 45.1892 31 42.7568 31C40.223 31 37.9933 30.3919 36.1689 29.1757C34.2433 27.9595 32.8243 26.2365 31.7095 23.9054C30.696 21.6757 30.0879 19.0405 30.0879 16C30.0879 12.9595 30.5946 10.4257 31.7095 8.09459C32.723 5.86486 34.2433 4.14189 36.1689 2.82432C38.0946 1.60811 40.3243 1 42.7568 1C45.2906 1 47.5203 1.60811 49.3446 2.82432C51.2703 4.04054 52.6892 5.76351 53.8041 8.09459C54.8176 10.3243 55.4257 12.9595 55.4257 16C55.3243 19.0405 54.8176 21.6757 53.8041 23.9054ZM47.6216 9.10811C46.5068 7.48649 44.7838 6.67568 42.6554 6.67568C40.527 6.67568 38.9054 7.48649 37.6892 9.10811C36.5743 10.7297 35.9662 13.0608 35.9662 16.1014C35.9662 19.1419 36.5743 21.473 37.6892 23.0946C38.8041 24.7162 40.527 25.527 42.6554 25.527C44.7838 25.527 46.4054 24.7162 47.6216 23.0946C48.7365 21.473 49.3446 19.1419 49.3446 16.1014C49.446 13.0608 48.8379 10.7297 47.6216 9.10811Z" stroke="black"/>
<path d="M75.4932 1.50684H81.1689V20.0541H84.6148V25.5271H81.1689V30.5947H75.2905V25.5271H61.7094V20.0541L75.4932 1.50684ZM75.2905 20.0541V10.4258L68.1959 20.1555H75.2905V20.0541Z" stroke="black"/>
</svg>
