<svg width="165" height="60" viewBox="0 0 165 60" fill="none" xmlns="http://www.w3.org/2000/svg">
<path d="M27.8703 1.98804H38.9346V38.1444H45.6521V48.8135H38.9346V58.6923H27.4752V48.8135H1V38.1444L27.8703 1.98804ZM27.4752 38.1444V19.3747L13.6449 38.342H27.4752V38.1444Z" stroke="black"/>
<path d="M103.937 45.6521C101.961 49.9988 98.9976 53.5552 95.2437 55.9261C91.4897 58.297 87.1431 59.4824 82.4012 59.4824C77.4618 59.4824 73.1152 58.297 69.5588 55.9261C65.8049 53.5552 63.0388 50.1964 60.8655 45.6521C58.8897 41.3055 57.7043 36.1685 57.7043 30.2412C57.7043 24.3139 58.6921 19.3745 60.8655 14.8303C62.8412 10.4836 65.8049 7.12485 69.5588 4.55636C73.3128 2.18545 77.6594 1 82.4012 1C87.3406 1 91.6873 2.18545 95.2437 4.55636C98.9976 6.92727 101.764 10.2861 103.937 14.8303C105.913 19.177 107.098 24.3139 107.098 30.2412C106.901 36.1685 105.913 41.3055 103.937 45.6521ZM91.8849 16.8061C89.7115 13.6448 86.3528 12.0642 82.2037 12.0642C78.0546 12.0642 74.8934 13.6448 72.5225 16.8061C70.3491 19.9673 69.1637 24.5115 69.1637 30.4388C69.1637 36.3661 70.3491 40.9103 72.5225 44.0715C74.6958 47.2327 78.0546 48.8133 82.2037 48.8133C86.3528 48.8133 89.514 47.2327 91.8849 44.0715C94.0582 40.9103 95.2437 36.3661 95.2437 30.4388C95.4412 24.5115 94.2558 19.9673 91.8849 16.8061Z" stroke="black"/>
<path d="M146.218 1.98804H157.282V38.1444H164V48.8135H157.282V58.6923H145.823V48.8135H119.348V38.1444L146.218 1.98804ZM145.823 38.1444V19.3747L131.993 38.342H145.823V38.1444Z" stroke="black"/>
</svg>
