<?xml version="1.0" encoding="utf-8"?>
<!-- Generator: Adobe Illustrator 23.0.2, SVG Export Plug-In . SVG Version: 6.00 Build 0)  -->
<svg version="1.1" id="Ebene_1" xmlns="http://www.w3.org/2000/svg" xmlns:xlink="http://www.w3.org/1999/xlink" x="0px" y="0px"
	 viewBox="0 0 30 30" style="enable-background:new 0 0 30 30;" xml:space="preserve">
<style type="text/css">
	.st0{fill:#F9B500;}
	.st1{fill:#B3B3B3;}
</style>
<g>
	<path class="st0" d="M15.04,14.87c3.74,0,6.78-3.04,6.78-6.78s-3.04-6.78-6.78-6.78c-3.74,0-6.78,3.04-6.78,6.78
		S11.3,14.87,15.04,14.87z M15.04,2.82c2.91,0,5.28,2.37,5.28,5.28s-2.37,5.28-5.28,5.28c-2.91,0-5.28-2.37-5.28-5.28
		S12.13,2.82,15.04,2.82z"/>
	<path class="st0" d="M25.58,19.99c-2.37-2.51-5.93-3.78-10.58-3.78c-13.42,0-13.58,11.61-13.58,11.72v0.75h27.12l0.04-0.71
		C28.59,27.79,28.79,23.39,25.58,19.99z M2.97,27.18c0.26-2.38,1.87-9.47,12.03-9.47c4.21,0,7.4,1.11,9.47,3.29
		c2.07,2.18,2.5,4.91,2.58,6.18H2.97z"/>
</g>
</svg>
