<?xml version="1.0" encoding="UTF-8"?>
<svg width="290px" height="62px" viewBox="0 0 290 62" version="1.1" xmlns="http://www.w3.org/2000/svg" xmlns:xlink="http://www.w3.org/1999/xlink">
    <!-- Generator: Sketch 51.2 (57519) - http://www.bohemiancoding.com/sketch -->
    <title>Rectangle</title>
    <desc>Created with Sketch.</desc>
    <defs></defs>
    <g id="Page-1" stroke="none" stroke-width="1" fill="none" fill-rule="evenodd">
        <g id="Artboard" fill="#43CCE0" fill-rule="nonzero">
            <path d="M3.73874848,-3.55271368e-15 C104.282771,-3.55271368e-15 271.57437,-2.54248709 276.107674,0.300582908 C279.129876,2.19596291 280.511381,8.8140601 280.252188,20.1548745 C285.428379,20.9670897 288.233039,21.805442 288.666166,22.6699313 C289.315857,23.9666653 290.627113,40.6098781 288.666166,43.063618 C286.705219,45.5173578 282.674587,42.519041 282.674587,46.58173 C282.674587,48.7295488 283.280954,60.4673824 278.955537,61.6659681 C268.978584,64.4306115 7.76534501,62 3.4106423,62 C-0.944060403,62 1.29694224,46.2661651 2.32120787,44.6923981 C3.34547351,43.118631 12.6256831,46.1961945 15.3438995,42.0338048 C16.2315979,40.6744772 18.438894,27.267608 15.3438995,24.2509204 C13.392159,22.3485612 6.00119271,23.4593091 2.93436515,21.2484808 C1.34935464,19.2630698 -1.552422,-3.55271368e-15 3.73874848,-3.55271368e-15 Z" id="Rectangle"></path>
        </g>
    </g>
</svg>