<?xml version="1.0" encoding="UTF-8"?>
<svg width="116px" height="116px" viewBox="0 0 116 116" version="1.1" xmlns="http://www.w3.org/2000/svg" xmlns:xlink="http://www.w3.org/1999/xlink">
    <!-- Generator: Sketch 50.2 (55047) - http://www.bohemiancoding.com/sketch -->
    <title>arrow-page-up</title>
    <desc>Created with Sketch.</desc>
    <defs></defs>
    <g id="Page-1" stroke="none" stroke-width="1" fill="none" fill-rule="evenodd">
        <g id="arrow-page-up">
            <circle id="Oval" stroke="#000000" stroke-width="8" cx="58" cy="58" r="54"></circle>
            <path d="M65.4246212,55.0814755 L42.1715729,31.8284271 C40.6094757,30.26633 40.6094757,27.73367 42.1715729,26.1715729 C43.73367,24.6094757 46.26633,24.6094757 47.8284271,26.1715729 L73.2331494,51.5762952 C73.5032245,51.7398907 73.7581217,51.9383166 73.991378,52.1715729 C74.793149,52.9733438 75.1833984,54.0308015 75.1621262,55.0814755 C75.1833984,56.1321494 74.793149,57.1896071 73.991378,57.991378 C73.7581217,58.2246343 73.5032245,58.4230602 73.2331494,58.5866557 L47.8284271,83.991378 C46.26633,85.5534752 43.73367,85.5534752 42.1715729,83.991378 C40.6094757,82.4292809 40.6094757,79.8966209 42.1715729,78.3345238 L65.4246212,55.0814755 Z" id="Combined-Shape" fill="#000000" transform="translate(58.081475, 55.081475) rotate(270.000000) translate(-58.081475, -55.081475) "></path>
        </g>
    </g>
</svg>