<?xml version="1.0" encoding="UTF-8"?>
<svg width="116px" height="116px" viewBox="0 0 116 116" version="1.1" xmlns="http://www.w3.org/2000/svg" xmlns:xlink="http://www.w3.org/1999/xlink">
    <!-- Generator: Sketch 50.2 (55047) - http://www.bohemiancoding.com/sketch -->
    <title>arrow-left</title>
    <desc>Created with Sketch.</desc>
    <defs></defs>
    <g id="Page-1" stroke="none" stroke-width="1" fill="none" fill-rule="evenodd">
        <g id="arrow-left">
            <circle id="Oval" stroke="#000000" stroke-width="8" cx="58" cy="58" r="54"></circle>
            <path d="M63.4246212,58.0814755 L40.1715729,34.8284271 C38.6094757,33.26633 38.6094757,30.73367 40.1715729,29.1715729 C41.73367,27.6094757 44.26633,27.6094757 45.8284271,29.1715729 L71.2331494,54.5762952 C71.5032245,54.7398907 71.7581217,54.9383166 71.991378,55.1715729 C72.793149,55.9733438 73.1833984,57.0308015 73.1621262,58.0814755 C73.1833984,59.1321494 72.793149,60.1896071 71.991378,60.991378 C71.7581217,61.2246343 71.5032245,61.4230602 71.2331494,61.5866557 L45.8284271,86.991378 C44.26633,88.5534752 41.73367,88.5534752 40.1715729,86.991378 C38.6094757,85.4292809 38.6094757,82.8966209 40.1715729,81.3345238 L63.4246212,58.0814755 Z" id="Combined-Shape" fill="#000000" transform="translate(56.081475, 58.081475) rotate(180.000000) translate(-56.081475, -58.081475) "></path>
        </g>
    </g>
</svg>