<?xml version="1.0" encoding="UTF-8"?>
<svg width="24px" height="29px" viewBox="0 0 24 29" version="1.1" xmlns="http://www.w3.org/2000/svg" xmlns:xlink="http://www.w3.org/1999/xlink">
    <!-- Generator: Sketch 51.2 (57519) - http://www.bohemiancoding.com/sketch -->
    <title>avatar white</title>
    <desc>Created with Sketch.</desc>
    <defs></defs>
    <g id="Page-1" stroke="none" stroke-width="1" fill="none" fill-rule="evenodd">
        <g id="avatar-white" transform="translate(1.000000, 1.000000)" fill="#FFFFFF" fill-rule="nonzero" stroke="#FFFFFF" stroke-width="0.5">
            <path d="M22.1134576,21.6492754 C22.1134576,21.6438923 22.1134576,21.6385093 22.1134576,21.6331263 C22.1134576,21.5900621 22.1080745,21.5469979 22.1080745,21.4985507 C22.0757764,20.4327122 22.0057971,17.9403727 19.6695652,17.1436853 C19.6534161,17.1383023 19.6318841,17.1329193 19.615735,17.1275362 C17.1879917,16.5084886 15.1693582,15.1089027 15.1478261,15.0927536 C14.8194617,14.8612836 14.3672878,14.942029 14.1358178,15.2703934 C13.9043478,15.5987578 13.9850932,16.0509317 14.3134576,16.2824017 C14.4049689,16.3469979 16.547412,17.8380952 19.2281573,18.5271222 C20.4824017,18.973913 20.6223602,20.3142857 20.6600414,21.5416149 C20.6600414,21.5900621 20.6600414,21.6331263 20.6654244,21.6761905 C20.6708075,22.1606625 20.6385093,22.9089027 20.552381,23.3395445 C19.6803313,23.8347826 16.2621118,25.5465839 11.0621118,25.5465839 C5.88364389,25.5465839 2.44389234,23.8293996 1.56645963,23.3341615 C1.48033126,22.9035197 1.4426501,22.1552795 1.45341615,21.6708075 C1.45341615,21.6277433 1.45879917,21.5846791 1.45879917,21.5362319 C1.49648033,20.3089027 1.63643892,18.96853 2.89068323,18.5217391 C5.57142857,17.8327122 7.71387164,16.3362319 7.80538302,16.2770186 C8.13374741,16.0455487 8.21449275,15.5933747 7.98302277,15.2650104 C7.7515528,14.936646 7.29937888,14.8559006 6.97101449,15.0873706 C6.9494824,15.1035197 4.94161491,16.5031056 2.50310559,17.1221532 C2.4815735,17.1275362 2.46542443,17.1329193 2.44927536,17.1383023 C0.113043478,17.9403727 0.0430641822,20.4327122 0.0107660455,21.4931677 C0.0107660455,21.5416149 0.0107660455,21.5846791 0.00538302277,21.6277433 C0.00538302277,21.6331263 0.00538302277,21.6385093 0.00538302277,21.6438923 C-3.38357814e-15,21.9238095 -0.00538302277,23.3610766 0.279917184,24.0824017 C0.333747412,24.2223602 0.430641822,24.3407867 0.559834369,24.4215321 C0.721325052,24.5291925 4.59171843,26.994617 11.0674948,26.994617 C17.5432712,26.994617 21.4136646,24.5238095 21.5751553,24.4215321 C21.6989648,24.3407867 21.8012422,24.2223602 21.8550725,24.0824017 C22.1242236,23.3664596 22.1188406,21.9291925 22.1134576,21.6492754 Z M10.9652174,14.0066253 C10.9921325,14.0066253 11.0190476,14.0066253 11.0513458,14.0066253 C11.0621118,14.0066253 11.0728778,14.0066253 11.0836439,14.0066253 C11.099793,14.0066253 11.1213251,14.0066253 11.1374741,14.0066253 C12.7146998,13.9797101 13.9904762,13.4252588 14.9325052,12.3648033 C17.0049689,10.0285714 16.6604555,6.02360248 16.6227743,5.64140787 C16.4881988,2.77225673 15.131677,1.39958592 14.0120083,0.759006211 C13.1776398,0.279917184 12.2033126,0.0215320911 11.115942,-5.32907052e-15 L11.0782609,-5.32907052e-15 C11.0728778,-5.32907052e-15 11.0621118,-5.32907052e-15 11.0567288,-5.32907052e-15 L11.0244306,-5.32907052e-15 C10.4269151,-5.32907052e-15 9.25341615,0.0968944099 8.12836439,0.73747412 C6.99792961,1.37805383 5.61987578,2.75072464 5.48530021,5.64140787 C5.44761905,6.02360248 5.10310559,10.0285714 7.17556936,12.3648033 C8.11221532,13.4252588 9.38799172,13.9797101 10.9652174,14.0066253 Z M6.92256729,5.77598344 C6.92256729,5.75983437 6.92795031,5.7436853 6.92795031,5.73291925 C7.10559006,1.87329193 9.84554865,1.45879917 11.0190476,1.45879917 L11.0405797,1.45879917 C11.0513458,1.45879917 11.0674948,1.45879917 11.0836439,1.45879917 C12.53706,1.49109731 15.0078675,2.08322981 15.1747412,5.73291925 C15.1747412,5.74906832 15.1747412,5.76521739 15.1801242,5.77598344 C15.1855072,5.8136646 15.5623188,9.47412008 13.8505176,11.4012422 C13.1722567,12.1656315 12.2679089,12.5424431 11.0782609,12.5532091 C11.0674948,12.5532091 11.0621118,12.5532091 11.0513458,12.5532091 C11.0405797,12.5532091 11.0351967,12.5532091 11.0244306,12.5532091 C9.84016563,12.5424431 8.93043478,12.1656315 8.25755694,11.4012422 C6.55113872,9.48488613 6.91718427,5.80828157 6.92256729,5.77598344 Z" id="Shape"></path>
        </g>
    </g>
</svg>