<?xml version="1.0" encoding="UTF-8"?>
<svg width="23px" height="27px" viewBox="0 0 23 27" version="1.1" xmlns="http://www.w3.org/2000/svg" xmlns:xlink="http://www.w3.org/1999/xlink">
    <!-- Generator: Sketch 51.2 (57519) - http://www.bohemiancoding.com/sketch -->
    <title>avatar yellow</title>
    <desc>Created with Sketch.</desc>
    <defs></defs>
    <g id="Page-1" stroke="none" stroke-width="1" fill="none" fill-rule="evenodd">
        <g id="avatar-yellow" transform="translate(1.000000, 1.000000)" fill="#FFD903" fill-rule="nonzero" stroke="#FFD903" stroke-width="0.525">
            <path d="M21.1520029,20.0456253 C21.1520029,20.0406411 21.1520029,20.0356568 21.1520029,20.0306725 C21.1520029,19.9907983 21.1468539,19.950924 21.1468539,19.9060655 C21.11596,18.919178 21.0490233,16.6114562 18.8143667,15.8737827 C18.7989198,15.8687984 18.7783239,15.8638141 18.7628769,15.8588298 C16.4406877,15.2856376 14.5098209,13.9897247 14.489225,13.9747719 C14.1751373,13.7604478 13.7426231,13.835212 13.521217,14.1392531 C13.299811,14.4432942 13.3770456,14.8619738 13.6911333,15.0762978 C13.7786659,15.1361092 15.8279593,16.5167549 18.3921505,17.1547427 C19.5918625,17.568438 19.7257359,18.8095238 19.7617787,19.9459397 C19.7617787,19.9907983 19.7617787,20.0306725 19.7669277,20.0705467 C19.7720767,20.519132 19.7411828,21.2119469 19.6587992,21.6106894 C18.8246647,22.0692432 15.5550635,23.6542443 10.5811504,23.6542443 C5.62783329,23.6542443 2.33763615,22.0642589 1.49835269,21.6057051 C1.41596903,21.2069627 1.37992619,20.5141477 1.39022414,20.0655625 C1.39022414,20.0256882 1.39537312,19.985814 1.39537312,19.9409554 C1.43141597,18.8045395 1.5652894,17.5634537 2.76500135,17.1497585 C5.32919255,16.5117706 7.37848591,15.1261406 7.46601854,15.0713135 C7.78010622,14.8569895 7.85734089,14.4383099 7.63593483,14.1342688 C7.41452876,13.8302277 6.98201458,13.7554635 6.66792691,13.9697876 C6.64733099,13.9847404 4.72676208,15.2806533 2.39427491,15.8538456 C2.373679,15.8588298 2.35823206,15.8638141 2.34278513,15.8687984 C0.108128544,16.6114562 0.0411918264,18.919178 0.0102979566,19.9010812 C0.0102979566,19.9459397 0.0102979566,19.985814 0.00514897831,20.0256882 C0.00514897831,20.0306725 0.00514897831,20.0356568 0.00514897831,20.0406411 C-3.39181808e-15,20.2998236 -0.00514897831,21.6306265 0.267746872,22.2985201 C0.319236655,22.4281113 0.411918264,22.5377655 0.535493744,22.6125297 C0.689963093,22.7122153 4.39207849,24.9950157 10.5862994,24.9950157 C16.7805203,24.9950157 20.4826357,22.707231 20.637105,22.6125297 C20.7555316,22.5377655 20.8533621,22.4281113 20.9048519,22.2985201 C21.1623008,21.6356108 21.1571519,20.3048079 21.1520029,20.0456253 Z M10.4884688,12.9690975 C10.5142137,12.9690975 10.5399586,12.9690975 10.5708525,12.9690975 C10.5811504,12.9690975 10.5914484,12.9690975 10.6017463,12.9690975 C10.6171933,12.9690975 10.6377892,12.9690975 10.6532361,12.9690975 C12.1618868,12.9441761 13.3821946,12.4307952 14.2832658,11.448892 C16.2656225,9.28571429 15.9360879,5.57740971 15.900045,5.2235258 C15.7713206,2.56690438 14.473778,1.29591289 13.4027905,0.702783529 C12.6046989,0.259182578 11.6727338,0.0199371214 10.6326402,-6.16395823e-13 L10.5965974,-6.16395823e-13 C10.5914484,-6.16395823e-13 10.5811504,-6.16395823e-13 10.5760014,-6.16395823e-13 L10.5451076,-6.16395823e-13 C9.97357098,-6.16395823e-13 8.85109371,0.0897170462 7.77495724,0.682846407 C6.6936718,1.27597577 5.37553335,2.54696726 5.24680889,5.2235258 C5.21076605,5.57740971 4.88123143,9.28571429 6.86358808,11.448892 C7.75951031,12.4307952 8.97981817,12.9441761 10.4884688,12.9690975 Z M6.6215861,5.34813281 C6.6215861,5.33317997 6.62673508,5.31822713 6.62673508,5.30825857 C6.79665136,1.73452956 9.41748132,1.35073997 10.5399586,1.35073997 L10.5605545,1.35073997 C10.5708525,1.35073997 10.5862994,1.35073997 10.6017463,1.35073997 C11.9919705,1.38064566 14.3553515,1.92891649 14.5149698,5.30825857 C14.5149698,5.32321141 14.5149698,5.33816425 14.5201188,5.34813281 C14.5252678,5.38302277 14.8856963,8.77233341 13.2483212,10.5567058 C12.5995499,11.2644736 11.7345216,11.6133732 10.5965974,11.6233418 C10.5862994,11.6233418 10.5811504,11.6233418 10.5708525,11.6233418 C10.5605545,11.6233418 10.5554055,11.6233418 10.5451076,11.6233418 C9.41233234,11.6133732 8.54215501,11.2644736 7.89853272,10.5567058 C6.2663066,8.78230197 6.61643712,5.37803849 6.6215861,5.34813281 Z" id="Shape-Copy-3"></path>
        </g>
    </g>
</svg>