<svg width="24" height="18" viewBox="0 0 24 18" fill="none" xmlns="http://www.w3.org/2000/svg">
<path d="M0 1C0 0.447715 0.447715 0 1 0H22.25C22.8023 0 23.25 0.447715 23.25 1C23.25 1.55228 22.8023 2 22.25 2H1C0.447716 2 0 1.55228 0 1Z" fill="black"/>
<path d="M0 8.5625C0 8.01022 0.447715 7.5625 1 7.5625H22.25C22.8023 7.5625 23.25 8.01022 23.25 8.5625C23.25 9.11478 22.8023 9.5625 22.25 9.5625H1C0.447716 9.5625 0 9.11478 0 8.5625Z" fill="black"/>
<path d="M0 16.1255C0 15.5732 0.447715 15.1255 1 15.1255H22.25C22.8023 15.1255 23.25 15.5732 23.25 16.1255C23.25 16.6778 22.8023 17.1255 22.25 17.1255H1C0.447716 17.1255 0 16.6778 0 16.1255Z" fill="black"/>
</svg>
