<?xml version="1.0" encoding="UTF-8"?>
<svg width="23px" height="23px" viewBox="0 0 23 23" version="1.1" xmlns="http://www.w3.org/2000/svg" xmlns:xlink="http://www.w3.org/1999/xlink">
    <!-- Generator: sketchtool 52.2 (67145) - http://www.bohemiancoding.com/sketch -->
    <title>6862FC39-131A-40FE-88FD-19A9DB99FE56</title>
    <desc>Created with sketchtool.</desc>
    <g id="Page-1" stroke="none" stroke-width="1" fill="none" fill-rule="evenodd">
        <g id="HOMEPAGE---DESKTOP---ACCOUNT---LOGGED-IN" transform="translate(-1296.000000, -30.000000)" fill="#000000" fill-rule="nonzero">
            <g id="header" transform="translate(0.000000, 2.000000)">
                <g id="header-icons" transform="translate(1252.000000, 28.000000)">
                    <g id="warenkorb" transform="translate(44.000000, 0.000000)">
                        <path d="M0,-7.10542736e-15 L0,1.66397652 L2.59151424,1.66397652 L5.05090255,15.8090095 L19.6751065,15.8090095 L19.6751065,14.145033 L6.42608096,14.145033 L6.03067466,11.8692061 L20.3503088,11.8692061 L22.309853,1.66397652 L4.2562039,1.66397652 L3.96717841,-7.10542736e-15 L0,-7.10542736e-15 Z M4.54571514,3.32844607 L20.3192204,3.32844607 L18.9999041,10.2052296 L5.74116342,10.2052296 L4.54571514,3.32844607 Z" id="Fill-1"></path>
                        <g id="Group-6" transform="translate(5.343329, 16.042522)">
                            <path d="M10.6425499,4.25213793 C9.96346146,4.25213793 9.41309868,3.69353485 9.41309868,3.00427879 C9.41309868,2.31452971 9.96346146,1.75641967 10.6425499,1.75641967 C11.3216383,1.75641967 11.8724869,2.31452971 11.8724869,3.00427879 C11.8724869,3.69353485 11.3216383,4.25213793 10.6425499,4.25213793 M10.6425499,0.0919501101 C9.06043895,0.0919501101 7.77318261,1.39798679 7.77318261,3.00427879 C7.77318261,4.61007777 9.06043895,5.91611446 10.6425499,5.91611446 C12.2246609,5.91611446 13.5119172,4.61007777 13.5119172,3.00427879 C13.5119172,1.39798679 12.2246609,0.0919501101 10.6425499,0.0919501101" id="Fill-2"></path>
                            <path d="M3.26438501,4.25213793 C2.58529655,4.25213793 2.03493373,3.69353485 2.03493373,3.00427879 C2.03493373,2.31452971 2.58529655,1.75641967 3.26438501,1.75641967 C3.94347346,1.75641967 4.49432204,2.31452971 4.49432204,3.00427879 C4.49432204,3.69353485 3.94347346,4.25213793 3.26438501,4.25213793 M3.26438501,0.0919501101 C1.68227407,0.0919501101 0.395017691,1.39798679 0.395017691,3.00427879 C0.395017691,4.61007777 1.68227407,5.91611446 3.26438501,5.91611446 C4.84649595,5.91611446 6.13375232,4.61007777 6.13375232,3.00427879 C6.13375232,1.39798679 4.84649595,0.0919501101 3.26438501,0.0919501101" id="Fill-4"></path>
                        </g>
                    </g>
                </g>
            </g>
        </g>
    </g>
</svg>