<?xml version="1.0" encoding="UTF-8"?>
<svg width="337px" height="171px" viewBox="0 0 337 171" version="1.1" xmlns="http://www.w3.org/2000/svg" xmlns:xlink="http://www.w3.org/1999/xlink">
    <!-- Generator: Sketch 54.1 (76490) - https://sketchapp.com -->
    <title>Catch_Logo_yellow</title>
    <desc>Created with Sketch.</desc>
    <g id="Page-1" stroke="none" stroke-width="1" fill="none" fill-rule="evenodd">
        <g id="Catch_Logo_yellow" fill="#F9B500">
            <path d="M249.52,101.27 C249.86,99.4 252.35,83.73 252.35,82.53 C252.35,81.33 262.49,80.7 262.77,81.32 C262.96,81.73 262.66,84.39 261.86,89.32 L260.54,98.74 C260.239876,100.423394 260.239876,102.146606 260.54,103.83 C260.81,104.65 262.82,106.01 266.54,107.94 C269.413333,109.566667 271.653333,110.383333 273.26,110.39 C275.67,110.39 276.33,109.47 276.33,108.51 L276.33,104.75 C276.568925,97.5954981 277.27039,90.4639427 278.43,83.4 C280.16,72.95 280.43,73.17 283.16,63.32 C284.966667,56.76 287.05,50.1733333 289.41,43.56 C289.983804,42.1579413 290.396451,40.6952271 290.64,39.2 C290.64,38.64 286.993333,36.28 279.7,32.12 C278.46,31.38 277.43,31.27 276.61,31.79 C275.37,32.58 272.14,42.79 270.95,46.44 C268.53,53.79 265.82,65.64 265.15,66.13 C264.48,66.62 256.03,67.61 255.76,66.95 C255.49,66.29 256.76,60.33 258.63,54.25 C259.883333,50.1966667 262.056667,44.3133333 265.15,36.6 C265.816667,34.72 265.816667,33.45 265.15,32.79 C264.483333,32.13 261.06,29.9133333 254.88,26.14 C253.74,25.3066667 252.77,25.1466667 251.97,25.66 C250.77,26.41 250.19,27.58 249.49,29.55 C249.01,30.8833333 247.246667,36.5133333 244.2,46.44 C240.72,60.2266667 238.76,67.3833333 238.32,67.91 C237.67,68.69 233.93,69.11 233.04,69.56 C232.15,70.01 230.65,70.23 230.99,71.24 C231.564929,72.5813755 232.250634,73.8725095 233.04,75.1 C233.994118,76.4752531 234.820873,77.934626 235.51,79.46 C236.01,81.6 233.51,91.01 233.04,95.08 C232.733333,97.78 232.733333,99.25 233.04,99.49 C236.050722,101.229225 239.217923,102.682254 242.5,103.83 C247.31,105.5 247.83,105.33 248.21,104.75 C248.868439,103.703434 249.304165,102.532419 249.49,101.31 M209.44,84 C206.14,87.68 204.103333,89.5366667 203.33,89.57 C202.417042,90.2091774 201.212619,90.2484094 200.26,89.67 C199.44,89.1 198.97,87.67 198.85,85.3 C198.706888,82.4080705 198.894774,79.5092594 199.41,76.66 C200.058237,73.0641119 201.097749,69.5498918 202.51,66.18 C204.475418,61.678255 206.668244,57.2792535 209.08,53 C209.7,51.9066667 211.223333,49.4866667 213.65,45.74 C214.602431,44.2347888 215.640819,42.7857196 216.76,41.4 C217.36,40.79 218,39.84 218.83,40.12 C219.39,40.3 219.55,41.01 219.33,42.26 L216.33,56.09 C215.86,57.95 215.9,59.09 216.45,59.58 C218.015007,60.6195629 219.918698,61.0203398 221.77,60.7 C224.4,60.42 228.21,60.02 229.9,58.14 C231.59,56.26 232.16,54.07 232.9,49.34 C233.64,44.61 234.68,38.56 233.49,35.34 C232.3,32.12 226.77,28.77 224.63,27.56 C222.49,26.35 219.23,26.46 218.36,26.49 C216.40726,26.7349233 214.494597,27.2324173 212.67,27.97 C211.39,28.64 208.33,31.55 206.15,33.59 C203.943006,35.8075496 201.913442,38.1948784 200.08,40.73 C199.18,42.09 197.18,44.47 195.43,47.31 C193.739857,49.998924 192.252407,52.8100384 190.98,55.72 C189.109519,60.226638 187.470712,64.8259769 186.07,69.5 C184.860708,74.1432941 183.952156,78.8597505 183.35,83.62 C182.75,88.2 182.72,93.86 187.82,98.95 C192.92,104.04 196.38,104.74 198.82,104.66 C200.301965,104.681191 201.780576,104.513167 203.22,104.16 C205.060411,103.784285 206.842695,103.165529 208.52,102.32 C212.134833,100.346671 215.390583,97.7772319 218.15,94.72 C220.463684,91.9536 222.60123,89.0445336 224.55,86.01 C225.45,83.89 225.653333,82.2033333 225.16,80.95 C224.43,79.06 220.45,72.43 218.24,73.47 C216.03,74.51 214.35,78.47 209.41,84.01 M151.02,97.62 C151.4,98.72 155.766667,101.173333 164.12,104.98 C165.97,105.47 167,105.47 167.23,104.98 C167.57,104.24 168.14,104.45 168.43,99.7 C168.63,96.54 169.38,90.2066667 170.68,80.7 C171.380548,75.5226976 172.351879,70.385656 173.59,65.31 C175.64,56.64 178.59,50.51 178.31,48.31 C178.03,46.11 171.14,44.61 171.73,43.54 C172.13,42.8333333 178.713333,42.7333333 191.48,43.24 L195.72,29.18 C195.72,27.9 194.033333,27.26 190.66,27.26 C185.59,27.26 178.59,27.09 169.73,27.61 C160.87,28.13 153.3,27.97 151.92,29.75 C150.54,31.53 148.8,39.09 148.25,41.23 C147.7,43.37 146.95,45.23 147.76,45.84 C148.57,46.45 162.03,44.08 162.35,44.61 C162.67,45.14 160.55,50.84 159.61,54.38 C158.99,56.74 158.156667,60.0733333 157.11,64.38 C155.37,71.34 154.213333,76.45 153.64,79.71 C152.79,84.59 150.46,95.91 151.02,97.54 M116.83,70 C116.37,69.46 118.97,61.53 120.43,57.61 C121.89,53.69 125.63,43.61 126.22,45.76 C126.62,47.2066667 126.863333,54.94 126.95,68.96 C126.95,69.65 126.51,69.96 125.63,69.96 C124.32,69.96 117.3,70.5 116.83,69.96 M93,93.15 C92.71,95.69 92.47,95.76 94.82,97.99 C96.38,99.47 100.646667,101.246667 107.62,103.32 C110.44,92.52 112.156667,86.6433333 112.77,85.69 C113.71,84.26 123.39,84.8 124.12,84.82 C124.85,84.84 125.39,84.82 125.39,86.11 C125.39,87.4 123.71,96.9 124.12,99.11 C124.53,101.32 134.26,106.21 136.02,106.88 C137.78,107.55 139.14,105.99 139.62,104.99 C140.1,103.99 141.77,94.54 142.53,82.07 C143.204692,73.6868866 143.204692,65.2631134 142.53,56.88 C141.94,48.42 141.9,33.79 139.62,30.64 C137.34,27.49 127.3,25.79 126.3,25.57 C125.63,25.42 125.15,26.04 124.85,27.42 L125.39,32.75 L119.64,30.64 C118.656133,30.3859667 117.623867,30.3859667 116.64,30.64 C116.18,30.86 115.27,32.3 113.89,34.95 L106.76,52.16 L100.37,70.27 L92.96,71.06 C92.58,71.3133333 92.58,71.9033333 92.96,72.83 C94.1075483,75.0631855 95.4177472,77.2089705 96.88,79.25 C94.46,86.81 93.1533333,91.4333333 92.96,93.12 M71.37,84.36 C67.84,88.02 65.68,89.86 64.88,89.86 C63.9160618,90.4860451 62.6739382,90.4860451 61.71,89.86 C60.89,89.24 60.45,87.73 60.42,85.32 C60.374833,82.3455684 60.6734799,79.3758778 61.31,76.47 C62.1448576,72.8048287 63.3823752,69.2431929 65,65.85 C67.1836056,61.2791977 69.6001105,56.8233495 72.24,52.5 C72.9066667,51.4 74.5733333,48.97 77.24,45.21 C78.2759916,43.6970112 79.3978304,42.2446306 80.6,40.86 C81.25,40.26 81.94,39.31 82.78,39.62 C83.35,39.83 83.49,40.57 83.22,41.83 L79.62,55.93 C79.07,57.82 79.07,59.01 79.62,59.52 C81.1969491,60.6422048 83.1422423,61.1213763 85.06,60.86 C87.78,60.66 91.72,60.39 93.53,58.53 C95.34,56.67 96,54.43 96.93,49.59 C97.86,44.75 99.15,38.59 98.04,35.28 C96.93,31.97 91.36,28.28 89.21,26.97 C87.06,25.66 83.68,25.65 82.78,25.65 C80.7638188,25.8284749 78.7800174,26.2723084 76.88,26.97 C75.53,27.61 72.28,30.49 69.95,32.5 C67.6049513,34.7010961 65.4350456,37.0816398 63.46,39.62 C62.46,40.98 60.33,43.35 58.46,46.21 C56.62314,48.9087448 54.9886699,51.7398208 53.57,54.68 C51.4810395,59.2483597 49.6285891,63.9212074 48.02,68.68 C46.6084217,73.4032348 45.5060868,78.2134234 44.72,83.08 C43.93,87.75 43.72,93.57 48.72,98.97 C53.72,104.37 57.32,105.23 59.87,105.23 C61.3986466,105.303843 62.9305283,105.186264 64.43,104.88 C66.3335396,104.558551 68.1862474,103.986935 69.94,103.18 C73.7332647,101.286117 77.1785954,98.7638236 80.13,95.72 C82.6004867,92.9601842 84.8950129,90.0477725 87,87 C88,84.85 88.27,83.13 87.81,81.82 C87.12,79.82 83.26,72.91 80.95,73.89 C78.64,74.87 76.77,78.89 71.48,84.4 M11.81,131.47 C8.45,128.68 8.29,120.94 9.62,113.55 C10.5728993,107.943469 13.3919863,102.823302 17.62,99.02 C19.44,97.42 23.3733333,96.4633333 29.42,96.15 C27.92,91.43 27.3933333,87.5233333 27.84,84.43 C28.4617825,80.9882579 30.0663273,77.8000065 32.46,75.25 C26.5133333,75.9566667 21.7066667,75.8733333 18.04,75 C12.54,73.68 12.77,74.91 10.36,70 C7.95,65.09 8.15,62.17 8.22,58.52 C8.31498003,55.9196434 9.17408981,53.4049213 10.69,51.29 C6.73,50.97 3.86,48.5366667 2.08,43.99 C-0.59,37.17 -0.38,35.15 1.13,29.65 C2.64,24.15 2.45,22.82 8.91,19.14 C13.21,16.68 22.7533333,14.8566667 37.54,13.67 C79.22,10.4433333 114.796667,7.98333333 144.27,6.29 C173.743333,4.59666667 203.41,3.32 233.27,2.46 C266.423333,-0.173333333 285.55,-0.66 290.65,1 C295.75,2.66 298.253333,6.51666667 298.16,12.57 L295.31,26.32 C304.69,24.16 311.663333,23.5333333 316.23,24.44 C323.09,25.79 322.95,29.1 323.99,32 C324.656667,33.9266667 324.54,40.6566667 323.64,52.19 C326.161379,52.5860137 328.636967,53.2325477 331.03,54.12 C332.570616,55.0400515 333.875222,56.3069918 334.84,57.82 C335.812485,59.6938971 336.30713,61.7789621 336.28,63.89 C336.28,65.62 335.87,84.21 334.28,86.69 C333.186667,88.3366667 329.44,89.29 323.04,89.55 C325.1,91.4566667 325.803333,95.3666667 325.15,101.28 C324.15,110.15 325.41,114.33 319.75,118.93 C315.99,121.996667 308.156667,123.96 296.25,124.82 L153.72,131.06 L23.72,134.39 C18.0333333,134.29 14.07,133.306667 11.83,131.44" id="Shape" fill-rule="nonzero"></path>
            <path d="M248.58,143.33 C242.53,143.33 237.49,145.89 237.49,153.61 C237.49,159.73 240.88,163.61 248.74,163.61 C258,163.61 258.59,157.53 258.59,157.53 L254.1,157.53 C254.1,157.53 253.1,160.8 248.47,160.8 C244.66,160.8 241.92,158.24 241.92,154.65 L259.06,154.65 L259.06,152.39 C259.06,148.81 256.79,143.33 248.58,143.33 Z M248.43,146.21 C252.05,146.21 254.52,148.42 254.52,151.74 L242,151.74 C242,148.22 245.24,146.21 248.43,146.21 Z" id="Shape"></path>
            <path d="M260.91,135.7 L260.91,159.54 C260.91,160.9 260.81,162.8 260.81,162.8 L265.09,162.8 C265.09,162.8 265.24,161.43 265.24,160.19 C265.24,160.19 267.35,163.48 273.1,163.48 C279.1,163.48 283.26,159.29 283.26,153.3 C283.26,147.72 279.49,143.23 273.11,143.23 C267.11,143.23 265.28,146.44 265.28,146.44 L265.28,135.7 L260.91,135.7 Z M272,146.18 C276.1,146.18 278.72,149.18 278.72,153.3 C278.72,157.67 275.72,160.53 272.03,160.53 C267.64,160.53 265.27,157.12 265.27,153.34 C265.28,149.81 267.41,146.18 272,146.18 Z" id="Shape"></path>
            <path d="M295.82,143.33 C286.72,143.33 286.13,148.33 286.13,149.09 L290.66,149.09 C290.66,149.09 290.9,146.19 295.51,146.19 C298.51,146.19 300.82,147.56 300.82,150.19 L300.82,151.13 L295.51,151.13 C288.45,151.13 284.72,153.13 284.72,157.36 C284.72,161.59 288.17,163.7 292.83,163.7 C299.18,163.7 301.22,160.2 301.22,160.2 C301.22,161.59 301.33,162.96 301.33,162.96 L305.33,162.96 C305.33,162.96 305.17,161.27 305.17,160.18 L305.17,150.79 C305.2,144.62 300.22,143.33 295.82,143.33 Z M300.82,153.92 L300.82,155.17 C300.82,156.79 299.82,160.83 293.89,160.83 C290.65,160.83 289.26,159.22 289.26,157.35 C289.26,153.94 293.94,153.92 300.82,153.92 L300.82,153.92 Z" id="Shape"></path>
            <polyline id="Path" points="304.65 144.11 309.75 144.11 317.07 158.72 324.38 144.11 329 144.11 315.69 170.12 310.85 170.12 314.69 162.87 304.65 144.11"></polyline>
            <path d="M217.16,151.09 C217.854751,150.484576 218.748563,150.156964 219.67,150.17 C220.328253,150.165482 220.977448,150.323487 221.56,150.63 C222.163658,150.936004 222.664319,151.412327 223,152 C223.369022,152.705661 223.551468,153.493964 223.53,154.29 C223.553097,155.089849 223.35961,155.881075 222.97,156.58 C222.318826,157.741164 221.091288,158.460096 219.76,158.46 C218.803546,158.504309 217.873176,158.140883 217.2,157.46 L217.2,158.33 L214.95,158.33 L214.95,146.63 L217.2,146.63 L217.16,151.09 Z M217.16,154.72 C217.139661,155.24403 217.347605,155.751121 217.73,156.11 C218.568234,156.847507 219.8337,156.812598 220.63,156.03 C221.041786,155.563054 221.250516,154.95126 221.21,154.33 C221.247211,153.709182 221.0389,153.098615 220.63,152.63 C220.238996,152.230579 219.698688,152.013006 219.14,152.03 C218.616853,152.010811 218.107037,152.197505 217.72,152.55 C217.344065,152.916686 217.140658,153.425204 217.16,153.95 L217.16,154.72 Z" id="Shape" fill-rule="nonzero"></path>
            <polygon id="Path" fill-rule="nonzero" points="233.14 150.33 228.58 161.55 226.25 161.55 227.62 158.13 224.32 150.33 227 150.33 228.63 154.33 228.72 155.33 228.84 155.33 230.84 150.33"></polygon>
        </g>
    </g>
</svg>