<?xml version="1.0" encoding="UTF-8"?>
<svg width="633px" height="302px" viewBox="0 0 633 302" version="1.1" xmlns="http://www.w3.org/2000/svg" xmlns:xlink="http://www.w3.org/1999/xlink">
    <!-- Generator: Sketch 51.2 (57519) - http://www.bohemiancoding.com/sketch -->
    <title>CATCH LOGO 5</title>
    <desc>Created with Sketch.</desc>
    <defs></defs>
    <g id="Page-1" stroke="none" stroke-width="1" fill="none" fill-rule="evenodd">
        <g id="CATCH-LOGOS" transform="translate(-216.000000, -2196.000000)" fill="#FFFFFF">
            <g id="CATCH-LOGO-5" transform="translate(216.000000, 2196.000000)">
                <g id="Group-5-Copy" transform="translate(419.000000, 248.000000)">
                    <g id="Logo-eBay">
                        <path d="M54.1675836,16.4925 C59.854145,16.4925 63.7320074,19.964 63.7320074,25.167 L44.112342,25.167 C44.112342,19.643 49.1720818,16.4925 54.1675836,16.4925 Z M54.4129926,11.9715 C44.9148141,11.9715 37,15.986 37,28.099 C37,37.6945 42.3222119,43.736 54.6568959,43.736 C69.1776766,43.736 70.1076208,34.207 70.1076208,34.207 L63.0715613,34.207 C63.0715613,34.207 61.5644796,39.3375 54.2288104,39.3375 C48.2541822,39.3375 43.9567658,35.317 43.9567658,29.6805 L70.8448513,29.6805 L70.8448513,26.144 C70.8438476,20.5675 67.2911896,11.9715 54.4129926,11.9715 Z" id="Fill-1"></path>
                        <path d="M88.1905948,16.447 C94.6354647,16.447 98.7356506,21.214 98.7356506,27.611 C98.7356506,34.471 94.0026208,38.9575 88.2367658,38.9575 C81.3562825,38.9575 77.6445353,33.6045 77.6445353,27.6715 C77.6440335,22.1425 80.9748699,16.447 88.1905948,16.447 Z M70.7771004,0 L70.7771004,37.4105 C70.7771004,39.5335 70.6245353,42.516 70.6245353,42.516 L77.3353903,42.516 C77.3353903,42.516 77.5757807,40.374 77.5757807,38.417 C77.5757807,38.417 80.8915613,43.5845 89.9069517,43.5845 C99.3986059,43.5845 105.846989,37.0185 105.846989,27.611 C105.846989,18.859 99.9235502,11.82 89.9225093,11.82 C80.5543123,11.82 77.6435316,16.8595 77.6435316,16.8595 L77.6435316,0 L70.7771004,0 Z" id="Fill-4"></path>
                        <path d="M130.433048,28.5875 L130.433048,30.541 C130.433048,33.091 128.85671,39.4295 119.558271,39.4295 C114.467918,39.4295 112.28684,36.898 112.28684,33.9625 C112.28684,28.622 119.636059,28.5875 130.433048,28.5875 Z M122.587491,11.9715 C108.297063,11.9715 107.380669,19.767 107.380669,21.013 L114.493011,21.013 C114.493011,21.013 114.86539,16.461 122.096171,16.461 C126.793569,16.461 130.432546,18.604 130.432546,22.7225 L130.432546,24.1885 L122.096171,24.1885 C111.026171,24.1885 105.173996,27.415 105.173996,33.962 C105.173996,40.405 110.581022,43.911 117.888086,43.911 C127.84697,43.911 131.055855,38.4295 131.055855,38.4295 C131.055855,40.6095 131.223476,42.7585 131.223476,42.7585 L137.546896,42.7585 C137.546896,42.7585 137.301487,40.0955 137.301487,38.3905 L137.301487,23.6615 C137.301487,14.004 129.48303,11.9715 122.587491,11.9715 Z" id="Fill-5"></path>
                        <polyline id="Fill-7" points="133.470799 13.195 141.473941 13.195 152.95697 36.1145 164.4129 13.195 171.660743 13.195 150.792955 54 143.189294 54 149.211097 42.6255 133.470799 13.195"></polyline>
                        <text id="by" font-family="Roboto-Medium, Roboto" font-size="25.147584" font-weight="400">
                            <tspan x="0" y="28">by</tspan>
                        </text>
                    </g>
                </g>
                <path d="M22.1389439,247.445738 C15.8227271,242.182288 15.525199,227.626674 18.0280351,213.700685 C20.5308712,199.774697 27.9752658,190.863909 33.1194944,186.34904 C36.5489801,183.339127 43.9564977,181.540039 55.3420471,180.951776 C52.5136424,172.060638 51.5225195,164.705586 52.3686786,158.886622 C53.2148376,153.067657 56.1131566,147.307081 61.0636355,141.604894 C49.8566517,142.94116 40.8050331,142.783163 33.9087799,141.130904 C23.5644001,138.652516 23.997696,140.957906 19.4604572,131.637276 C14.9232185,122.316646 15.3007145,116.904825 15.4205889,110.037227 C15.5005051,105.458829 17.0520222,100.920459 20.0751401,96.4221171 C12.6131661,95.8112004 7.20791813,91.2281189 3.85939632,82.6728725 C-1.1633864,69.8400028 -0.762763213,66.0345176 2.08433686,55.6743843 C4.93143693,45.3142509 4.55487971,42.8286557 16.7147584,35.8943039 C24.8213442,31.2714028 42.7893662,27.8387905 70.6188242,25.5964671 C149.08186,19.5140056 216.060626,14.883661 271.55512,11.7054333 C327.049614,8.52720563 382.871506,6.12462831 439.020796,4.49770133 C501.442935,-0.425433293 537.465754,-1.29983192 547.089254,1.87450545 C556.712753,5.04884282 561.425437,12.3115148 561.227304,23.6625213 L555.868359,49.541734 C573.530621,45.4730377 586.662442,44.2900982 595.263822,45.9929154 C608.165893,48.5471412 607.910641,54.7821784 609.872465,60.2329389 C611.180347,63.8667792 610.959207,76.5359168 609.209043,98.2403517 C616.233809,99.6171678 620.86973,100.830547 623.116807,101.880489 C624.509139,102.531054 628.501276,105.682795 630.285245,108.850768 C632.819983,113.351954 632.999451,118.352622 632.999525,120.269272 C632.999651,123.534876 632.239112,158.536238 629.147117,163.200375 C627.085786,166.3098 620.030472,168.104633 607.981175,168.584874 C611.867756,172.178996 613.188982,179.539809 611.944855,190.667314 C610.078663,207.358572 612.43765,215.225713 601.797654,223.890422 C594.704323,229.666894 579.951394,233.361078 557.538867,234.972973 L289.214313,246.731999 L44.5213188,252.989624 C33.8105468,252.802667 26.3497552,250.954705 22.1389439,247.445738 Z M134.404966,158.808498 C127.762831,165.708855 123.691302,169.159034 122.19038,169.159034 C119.775058,170.325337 117.788034,170.325337 116.229309,169.159034 C114.670584,167.99273 113.858728,165.144935 113.79374,160.615649 C113.858728,153.673242 114.414552,148.117328 115.461213,143.947907 C117.031205,137.693776 118.017162,133.16546 122.19038,123.901047 C126.363597,114.636634 133.889636,101.886172 135.809876,98.7745078 C137.090036,96.7000652 140.208792,92.1251436 145.166146,85.0497428 C148.56813,80.3523322 150.674189,77.6244923 151.484322,76.8662233 C152.699523,75.7288197 153.997273,73.9322791 155.591774,74.5222075 C156.654775,74.9154931 156.928768,76.3047568 156.413754,78.6899986 L149.640011,105.227641 C148.594918,108.783909 148.594918,111.03535 149.640011,111.981966 C151.20765,113.40189 154.771749,114.869022 159.882432,114.504937 C164.993115,114.140852 172.411996,113.633632 175.816993,110.117119 C179.221989,106.600606 180.465734,102.397742 182.23363,93.3002481 C184.001527,84.2027543 186.410152,72.5898858 184.321891,66.3514007 C182.23363,60.1129156 171.74579,53.1923483 167.688304,50.7104492 C163.630818,48.2285501 157.281291,48.2285501 155.591774,48.2285501 C153.902257,48.2285501 146.999191,49.5086155 144.472508,50.7104492 C141.945826,51.9122829 135.809876,57.3283578 131.438391,61.1240596 C127.659749,64.405005 121.053911,71.9571873 119.204211,74.5222075 C117.354511,77.0872277 113.320483,81.5451583 109.740662,86.9277913 C107.001076,91.0470445 102.96251,97.489064 100.548005,102.874824 C98.1334992,108.260584 92.7662372,120.531904 90.087107,129.194396 C87.4079768,137.856887 85.350679,147.488378 83.8688613,156.29824 C82.3870437,165.108101 81.9544999,176.044397 91.4910373,186.228202 C101.027575,196.412007 107.682773,198.003532 112.481903,198.003532 C117.281032,198.003532 118.261417,197.89785 121.053911,197.346386 C125.030106,196.561164 129.496108,195.301606 131.438391,194.15209 C133.380675,193.002574 141.34946,189.551567 150.622174,180.103153 C153.378626,177.294471 157.714841,171.829013 163.630818,163.706777 C165.508604,159.666438 166.015442,156.415587 165.151335,153.954224 C163.855173,150.262179 156.591572,137.171579 152.237723,139.027625 C147.883873,140.883671 144.368169,148.457962 134.404966,158.808498 Z M175.044086,175.305211 C174.507378,180.07763 174.062921,180.217265 178.47621,184.410672 C181.418403,187.206277 189.4521,190.550211 202.577301,194.442476 C207.877613,174.112667 211.112168,163.049698 212.280966,161.253568 C214.034164,158.559374 232.269743,159.581387 233.648183,159.627593 C235.026623,159.673799 236.032688,159.627593 236.032688,162.049736 C236.032688,164.471878 232.861981,182.356629 233.648183,186.579289 C234.434386,190.801949 252.726517,199.94478 256.048849,201.205752 C259.371181,202.466725 261.914829,199.527609 262.823188,197.652497 C263.731548,195.777384 266.874552,177.975427 268.291914,154.49858 C269.709276,131.021733 269.387143,122.98783 268.291914,107.069836 C267.196685,91.1518421 267.109922,63.6077885 262.823188,57.6694445 C258.536454,51.7311005 239.619399,48.549044 237.742398,48.1329906 C236.491064,47.8556216 235.584007,49.0122498 235.021228,51.6028752 L236.032688,61.653693 L225.208599,57.6694445 C222.353448,57.2405316 220.496009,57.2405316 219.636285,57.6694445 C218.77656,58.0983574 217.047794,60.8044156 214.449986,65.787619 L201.033237,98.1823095 L189.001259,132.285858 L175.044086,133.777758 C174.331667,134.239304 174.331667,135.348315 175.044086,137.10479 C175.756506,138.861266 178.221146,142.887119 182.438006,149.182348 C177.866532,163.415978 175.401892,172.123599 175.044086,175.305211 Z M219.866917,131.792459 C218.997648,130.77982 223.889507,115.848939 226.637836,108.476902 C229.386166,101.104864 236.430432,82.0683351 237.543038,86.1652074 C238.284775,88.8964556 238.738548,103.451574 238.904355,129.830563 C238.904355,131.138494 238.079714,131.792459 236.430432,131.792459 C233.956508,131.792459 220.736186,132.805098 219.866917,131.792459 Z M284.290086,183.744681 C284.991756,185.798561 293.212271,190.413698 308.951633,197.590091 C312.422196,198.523909 314.371496,198.523909 314.799534,197.590091 C315.441591,196.189363 316.515107,196.593053 317.062859,187.654822 C317.428027,181.696001 318.836253,169.801111 321.287538,151.970152 C322.37513,143.546884 324.203576,133.891468 326.772876,123.003905 C330.626827,106.67256 336.221477,95.1370798 335.661021,91.0616597 C335.100565,86.9862395 322.161205,84.0809364 323.279186,82.0800363 C324.024506,80.7461028 336.41644,80.5561213 360.454987,81.5100917 L368.444056,55.035706 C368.444056,52.6239648 365.265204,51.4180942 358.907502,51.4180942 C349.370948,51.4180942 336.189748,51.106118 319.498182,52.0831107 C302.806615,53.0601034 288.579751,52.7617786 285.986602,56.1131888 C283.393453,59.4645991 280.10188,73.7041091 279.061765,77.7262257 C278.02165,81.7483424 276.623022,85.2734807 278.153406,86.4041063 C279.683789,87.5347319 305.012314,83.0995007 305.621144,84.0809364 C306.229975,85.0623721 302.228564,95.8163158 300.46172,102.481514 C299.283825,106.92498 297.714514,113.199245 295.753789,121.30431 C292.470991,134.415152 290.293665,144.036114 289.221809,150.167197 C287.614025,159.363821 283.237581,180.66386 284.290086,183.744681 Z M394.203759,158.109768 C387.995305,165.047014 384.163133,168.541057 382.707243,168.591898 C380.404007,169.808223 378.4766,169.875529 376.925023,168.793818 C375.373446,167.712106 374.489212,164.969441 374.272319,160.565822 C374.099531,153.810461 374.449952,148.387171 375.323579,144.295954 C376.634021,138.159127 377.436575,133.720854 381.169882,124.567625 C384.903189,115.414397 391.770306,102.756577 393.527233,99.6646919 C394.698517,97.6034349 397.568297,93.047582 402.136572,85.9971331 C405.27692,81.3125365 407.227129,78.5877179 407.987199,77.8226772 C409.127304,76.6751163 410.325091,74.8835899 411.891791,75.4034265 C412.936258,75.7499842 413.249223,77.0920961 412.830685,79.4297623 L407.161627,105.473447 C406.268692,108.968172 406.345171,111.158241 407.391063,112.043651 C408.959902,113.371768 412.466904,114.678179 417.411884,114.150905 C422.356863,113.623631 429.535926,112.878937 432.71931,109.342945 C435.902695,105.806954 436.966357,101.676528 438.37218,92.7671446 C439.778003,83.8577608 441.719886,72.4798669 439.482365,66.4821761 C437.244845,60.4844853 426.836588,54.1078249 422.816531,51.8310208 C418.796475,49.5542167 412.637453,49.7692945 410.998626,49.8265235 C409.3598,49.8837526 402.707329,51.3627517 400.297279,52.6174104 C397.88723,53.872069 392.119355,59.3483472 388.007964,63.1886552 C384.454141,66.5081575 378.303038,74.0782301 376.595965,76.6359839 C374.888892,79.1937376 371.127328,83.6667917 367.837755,89.0239557 C365.320291,93.1237178 361.621722,99.526929 359.462607,104.847662 C357.303492,110.168395 352.514107,122.28701 350.209613,130.804115 C347.90512,139.321221 346.236718,148.759848 345.09862,157.37975 C343.960522,165.999652 343.912449,176.652481 353.508794,186.235648 C363.105138,195.818815 369.614723,197.141524 374.269864,196.978962 C378.925005,196.816401 379.872386,196.680392 382.562364,196.04937 C386.392588,195.150867 390.681811,193.774367 392.526772,192.590395 C394.371733,191.406423 401.984204,187.779563 410.657757,178.274613 C413.2361,175.449126 417.256559,169.985773 422.719137,161.884554 C424.403337,157.890747 424.784542,154.711344 423.86275,152.346347 C422.480063,148.798851 414.989719,136.311135 410.829546,138.264064 C406.669373,140.216993 403.51644,147.703899 394.203759,158.109768 Z M469.655544,190.591816 C470.310112,187.066467 475.002112,157.575013 475.002112,155.302061 C475.002112,153.029108 494.088902,151.858504 494.618575,153.029108 C494.97169,153.809511 494.398692,158.804611 492.899581,168.014407 L490.404646,185.757282 C489.887026,190.606442 489.887026,193.798911 490.404646,195.33469 C490.922266,196.870469 494.709134,199.446839 501.765249,203.063801 C507.172748,206.138933 511.390586,207.6765 514.418761,207.6765 C518.961025,207.6765 520.194345,205.952527 520.194345,204.144696 C520.194345,202.939476 520.194345,200.58169 520.194345,197.071339 C520.672576,183.386491 521.993827,169.98475 524.158096,156.866117 C527.404501,137.188167 527.958184,137.604051 533.062854,119.069386 C536.465968,106.712943 540.383788,94.3090522 544.816314,81.857714 C546.360053,77.4557987 547.131922,74.7260131 547.131922,73.6683573 C547.131922,72.6107015 540.265558,68.1653944 526.532829,60.3324359 C524.208279,58.9355172 522.26924,58.7302592 520.715711,59.7166618 C518.385418,61.1962656 512.316199,80.4375204 510.062154,87.2919326 C505.511714,101.129539 500.408817,123.425635 499.140339,124.356365 C497.87186,125.287096 481.981187,127.143681 481.467639,125.895069 C480.954091,124.646457 483.337762,113.431326 486.876751,101.989578 C489.236078,94.3617456 493.32394,83.2846376 499.140339,68.7582537 C500.36627,65.223971 500.36627,62.8323817 499.140339,61.583486 C497.914407,60.3345903 491.472986,56.1640981 479.816076,49.0720095 C477.664753,47.5167203 475.838424,47.2134649 474.337089,48.1622435 C472.085087,49.5854113 470.987987,51.7848448 469.655544,55.4930268 C468.767248,57.9651481 465.448812,68.5647834 459.700235,87.2919326 C453.155551,113.249354 449.470643,126.719351 448.645514,127.701925 C447.407819,129.175785 440.36962,129.970977 438.699978,130.811023 C437.030336,131.65107 434.200466,132.085598 434.828577,133.977653 C435.196761,135.086729 436.469878,137.525012 438.699978,141.246517 C440.274369,143.873801 442.96274,147.797752 443.349762,149.460251 C444.284997,153.477653 439.584395,171.205901 438.699978,178.851641 C438.110367,183.948801 438.110367,186.721003 438.699978,187.168248 C444.541518,190.519944 450.478349,193.242091 456.510471,195.33469 C465.558654,198.473588 466.545426,198.158085 467.246607,197.071339 C467.947788,195.984593 469.000975,194.117164 469.655544,190.591816 Z" id="Combined-Shape"></path>
            </g>
        </g>
    </g>
</svg>