<?xml version="1.0" encoding="UTF-8"?>
<svg width="14px" height="14px" viewBox="0 0 14 14" version="1.1" xmlns="http://www.w3.org/2000/svg" xmlns:xlink="http://www.w3.org/1999/xlink">
    <!-- Generator: Sketch 50.2 (55047) - http://www.bohemiancoding.com/sketch -->
    <title>Close Icon</title>
    <desc>Created with Sketch.</desc>
    <defs></defs>
    <g id="Page-1" stroke="none" stroke-width="1" fill="none" fill-rule="evenodd">
        <g id="Search-2.0---2" transform="translate(-613.000000, -26.000000)" fill="#8E8E93">
            <path d="M622.781,34.738 C623.071,35.028 623.073,35.493 622.783,35.784 C622.496,36.071 622.029,36.073 621.738,35.782 L619.999,34.044 L618.261,35.782 C617.97,36.071 617.506,36.073 617.216,35.784 C616.928,35.495 616.927,35.03 617.218,34.738 L618.956,33 L617.218,31.262 C616.93,30.973 616.927,30.508 617.216,30.217 C617.504,29.928 617.969,29.927 618.261,30.217 L619.999,31.955 L621.738,30.217 C622.027,29.929 622.494,29.927 622.783,30.217 C623.071,30.505 623.073,30.969 622.781,31.262 L621.044,33 L622.781,34.738 Z M620,26 C616.135,26 613,29.135 613,33 C613,36.865 616.135,40 620,40 C623.866,40 627,36.865 627,33 C627,29.135 623.866,26 620,26 L620,26 Z" id="Close-Icon"></path>
        </g>
    </g>
</svg>