<?xml version="1.0" encoding="UTF-8"?>
<svg width="14px" height="14px" viewBox="0 0 14 14" version="1.1" xmlns="http://www.w3.org/2000/svg" xmlns:xlink="http://www.w3.org/1999/xlink">
    <!-- Generator: sketchtool 52.2 (67145) - http://www.bohemiancoding.com/sketch -->
    <title>0D4AFD66-6CB6-4EED-A2C4-98848272BAFC</title>
    <desc>Created with sketchtool.</desc>
    <g id="Page-1" stroke="none" stroke-width="1" fill="none" fill-rule="evenodd">
        <g id="HOMEPAGE---DESKTOP---Hamburger-SEARCH-2" transform="translate(-1248.000000, -28.000000)" fill="#010101">
            <g id="Group-5" transform="translate(234.000000, 24.000000)">
                <path d="M1020.65685,9.24264069 L1025.6066,4.29289322 C1025.99713,3.90236893 1026.63029,3.90236893 1027.02082,4.29289322 C1027.41134,4.68341751 1027.41134,5.31658249 1027.02082,5.70710678 L1022.07107,10.6568542 L1027.02082,15.6066017 C1027.41134,15.997126 1027.41134,16.630291 1027.02082,17.0208153 C1026.63029,17.4113396 1025.99713,17.4113396 1025.6066,17.0208153 L1020.65685,12.0710678 L1015.70711,17.0208153 C1015.31658,17.4113396 1014.68342,17.4113396 1014.29289,17.0208153 C1013.90237,16.630291 1013.90237,15.997126 1014.29289,15.6066017 L1019.24264,10.6568542 L1014.29289,5.70710678 C1013.90237,5.31658249 1013.90237,4.68341751 1014.29289,4.29289322 C1014.68342,3.90236893 1015.31658,3.90236893 1015.70711,4.29289322 L1020.65685,9.24264069 Z" id="cross-gray"></path>
            </g>
        </g>
    </g>
</svg>