<?xml version="1.0" encoding="UTF-8"?>
<svg width="20px" height="19px" viewBox="0 0 20 19" version="1.1" xmlns="http://www.w3.org/2000/svg" xmlns:xlink="http://www.w3.org/1999/xlink">
    <!-- Generator: Sketch 50.2 (55047) - http://www.bohemiancoding.com/sketch -->
    <title>Combined Shape</title>
    <desc>Created with Sketch.</desc>
    <defs></defs>
    <g id="Page-1" stroke="none" stroke-width="1" fill="none" fill-rule="evenodd">
        <g id="POP-DESKTOP-POP-FILTERS-Expanded" transform="translate(-1364.000000, -771.000000)" fill="#FFFFFF">
            <g id="Group-8" transform="translate(1339.000000, 474.000000)">
                <g id="Group-6" transform="translate(12.000000, 0.000000)">
                    <path d="M23.2917102,314.543577 C23.0858479,314.442176 22.7528225,314.44181 22.5462168,314.543577 L21.3240934,315.145558 C20.4982621,315.552337 19.482955,315.22529 19.0510702,314.405067 L18.4111398,313.189729 C18.3037434,312.985765 18.0345338,312.788224 17.8080229,312.748187 L16.4731165,312.512233 C15.564982,312.351715 14.9321341,311.485387 15.060481,310.571039 L15.2524048,309.203767 C15.2844961,308.975147 15.1819312,308.655885 15.0220347,308.489335 L14.0727061,307.500509 C13.4355117,306.836803 13.4378937,305.758242 14.0727061,305.097018 L15.0220347,304.108191 C15.1813559,303.942241 15.284612,303.623205 15.2524048,303.39376 L15.060481,302.026488 C14.9325235,301.114914 15.5639147,300.246 16.4731165,300.085293 L17.8080229,299.84934 C18.0337188,299.809447 18.3033555,299.612498 18.4111398,299.407797 L19.0510702,298.19246 C19.4805949,297.376719 20.4993144,297.045708 21.3240934,297.451969 L22.5462168,298.053949 C22.7520791,298.155351 23.0851044,298.155717 23.2917102,298.053949 L24.5138336,297.451969 C25.3396649,297.04519 26.3549719,297.372236 26.7868568,298.19246 L27.4267872,299.407797 C27.5341836,299.611761 27.8033931,299.809303 28.029904,299.84934 L29.3648104,300.085293 C30.2729449,300.245812 30.9057929,301.112139 30.7774459,302.026488 L30.5855221,303.39376 C30.5534308,303.622379 30.6559957,303.941642 30.8158923,304.108191 L31.7652208,305.097018 C32.4024153,305.760723 32.4000332,306.839284 31.7652208,307.500509 L30.8158923,308.489335 C30.6565711,308.655285 30.553315,308.974321 30.5855221,309.203767 L30.7774459,310.571039 C30.9054034,311.482612 30.2740122,312.351526 29.3648104,312.512233 L28.029904,312.748187 C27.8042082,312.78808 27.5345714,312.985029 27.4267872,313.189729 L26.7868568,314.405067 C26.357332,315.220808 25.3386126,315.551819 24.5138336,315.145558 L23.2917102,314.543577 Z M25.3121327,313.628557 L25.9520631,312.41322 C26.2994236,311.753523 27.0058879,311.236686 27.739807,311.106961 C27.739807,311.106961 29.1301475,310.825423 29.1269603,310.802717 L28.9350365,309.435445 C28.8318489,308.700333 29.0998163,307.870255 29.6136135,307.335081 C29.6136135,307.335081 30.5797824,306.268813 30.5629421,306.251272 L29.6136135,305.262446 C29.0993527,304.726788 28.8319416,303.896533 28.9350365,303.162082 C28.9350365,303.162082 29.101096,301.731182 29.0747135,301.726519 L27.739807,301.490566 C27.0052246,301.360723 26.2991113,300.84341 25.9520631,300.184306 C25.9520631,300.184306 25.2678678,298.938439 25.2502884,298.947098 L24.028165,299.549079 C23.3572951,299.879529 22.4800272,299.879231 21.8097619,299.549079 C21.8097619,299.549079 20.5345936,298.952258 20.5257943,298.968969 L19.8858639,300.184306 C19.5385034,300.844003 18.8320391,301.360841 18.0981199,301.490566 L16.7632135,301.726519 C16.7376506,301.731037 16.9028905,303.162082 16.9028905,303.162082 C17.0060781,303.897194 16.7381106,304.727271 16.2243134,305.262446 L15.2749849,306.251272 C15.2581855,306.268771 16.2243134,307.335081 16.2243134,307.335081 C16.7385742,307.870738 17.0059853,308.700994 16.9028905,309.435445 L16.7109667,310.802717 C16.7076562,310.826301 18.0981199,311.106961 18.0981199,311.106961 C18.8327024,311.236803 19.5388156,311.754116 19.8858639,312.41322 C19.8858639,312.41322 20.5700592,313.659087 20.5876385,313.650428 L21.8097619,313.048448 C22.4806319,312.717998 23.3578998,312.718296 24.028165,313.048448 C24.028165,313.048448 25.3033333,313.645269 25.3121327,313.628557 Z M21.0082191,309.315251 C20.6827822,309.640688 20.1551447,309.640688 19.8297078,309.315251 C19.5042709,308.989814 19.5042709,308.462176 19.8297078,308.136739 L24.8297078,303.136739 C25.1551447,302.811303 25.6827822,302.811303 26.0082191,303.136739 C26.333656,303.462176 26.333656,303.989814 26.0082191,304.315251 L21.0082191,309.315251 Z M20.8356301,305.392662 C20.1452742,305.392662 19.5856301,304.833018 19.5856301,304.142662 C19.5856301,303.452306 20.1452742,302.892662 20.8356301,302.892662 C21.5259861,302.892662 22.0856301,303.452306 22.0856301,304.142662 C22.0856301,304.833018 21.5259861,305.392662 20.8356301,305.392662 Z M25.0022968,309.559328 C24.3119409,309.559328 23.7522968,308.999684 23.7522968,308.309328 C23.7522968,307.618972 24.3119409,307.059328 25.0022968,307.059328 C25.6926527,307.059328 26.2522968,307.618972 26.2522968,308.309328 C26.2522968,308.999684 25.6926527,309.559328 25.0022968,309.559328 Z" id="Combined-Shape"></path>
                </g>
            </g>
        </g>
    </g>
</svg>