<?xml version="1.0" encoding="UTF-8"?>
<svg width="16px" height="10px" viewBox="0 0 16 10" version="1.1" xmlns="http://www.w3.org/2000/svg" xmlns:xlink="http://www.w3.org/1999/xlink">
    <!-- Generator: Sketch 52.5 (67469) - http://www.bohemiancoding.com/sketch -->
    <title>free-delivery-grey</title>
    <desc>Created with Sketch.</desc>
    <g id="Page-1" stroke="none" stroke-width="1" fill="none" fill-rule="evenodd">
        <g id="free-delivery-grey" transform="translate(-4.000000, -8.000000)" fill="#919194">
            <path d="M18.6643,12.4838 L18.2758,10.9198 C18.3821,10.8971 18.4617,10.8023 18.4617,10.6887 L18.4617,10.4365 C18.4617,9.889 18.0192,9.4436 17.4753,9.4436 L15.706,9.4436 L15.706,8.92351 C15.706,8.6541 15.4883,8.43494 15.2206,8.43494 L6.20182,8.43494 C5.93416,8.43494 5.71643,8.6541 5.71643,8.92351 L5.71643,13.2103 C5.71643,13.3409 5.82157,13.4467 5.9513,13.4467 C6.081,13.4467 6.18617,13.3409 6.18617,13.2103 L6.18617,8.92351 C6.18617,8.91481 6.19317,8.90776 6.20182,8.90776 L15.2206,8.90776 C15.2292,8.90776 15.2362,8.91481 15.2362,8.92351 L15.2362,13.2104 C15.2362,13.3409 15.3414,13.4468 15.4711,13.4468 C15.6008,13.4468 15.706,13.3409 15.706,13.2104 L15.706,12.9424 L18.4765,12.9424 L18.478,12.9424 C18.8189,12.9427 19.1083,13.1679 19.2077,13.4782 L18.4774,13.4782 C18.3477,13.4782 18.2425,13.5841 18.2425,13.7147 L18.2425,14.219 C18.2425,14.6274 18.5726,14.9597 18.9784,14.9597 L19.2446,14.9597 L19.2446,15.9999 L18.6305,15.9999 C18.4288,15.4136 17.875,14.9912 17.2248,14.9912 C16.5745,14.9912 16.0208,15.4135 15.819,15.9999 L15.706,15.9999 L15.706,14.2189 C15.706,14.0884 15.6008,13.9825 15.4711,13.9825 C15.3414,13.9825 15.2362,14.0884 15.2362,14.2189 L15.2362,15.9998 L10.3633,15.9998 C10.1616,15.4135 9.60781,14.9912 8.95757,14.9912 C8.30732,14.9912 7.75355,15.4135 7.55185,15.9998 L6.20182,15.9998 C6.19317,15.9998 6.18617,15.9928 6.18617,15.9841 L6.18617,15.464 L7.20392,15.464 C7.33361,15.464 7.43879,15.3582 7.43879,15.2276 C7.43879,15.097 7.33364,14.9912 7.20392,14.9912 L4.94923,14.9912 C4.81953,14.9912 4.71436,15.097 4.71436,15.2276 C4.71436,15.3582 4.8195,15.464 4.94923,15.464 L5.71646,15.464 L5.71646,15.9841 C5.71646,16.2535 5.93419,16.4727 6.20185,16.4727 L7.47052,16.4727 L7.47032,16.4798 L7.47011,16.4884 C7.47011,17.3139 8.1374,17.9856 8.95757,17.9856 C9.77773,17.9856 10.445,17.3139 10.445,16.4884 L10.4448,16.4798 L10.4446,16.4727 L15.7377,16.4727 C15.7376,16.4779 15.7373,16.4831 15.7373,16.4884 C15.7373,17.3139 16.4046,17.9856 17.2247,17.9856 C18.0449,17.9856 18.7122,17.3139 18.7122,16.4884 L18.712,16.4798 L18.7118,16.4727 L19.4795,16.4727 C19.6091,16.4727 19.7143,16.3668 19.7143,16.2362 L19.7143,13.7146 C19.7144,13.092 19.258,12.5747 18.6643,12.4838 Z M17.4754,9.91637 L15.7061,9.91637 L15.7061,10.4522 L17.9921,10.4522 L17.9921,10.4365 C17.9921,10.1497 17.7603,9.91637 17.4754,9.91637 Z M15.7061,12.4696 L15.7061,10.925 L17.793,10.925 L18.1766,12.4696 L15.7061,12.4696 Z M7.93989,16.4884 C7.93989,17.0533 8.39645,17.5128 8.95763,17.5128 C9.51882,17.5128 9.97538,17.0533 9.97538,16.4884 C9.97538,15.9236 9.51882,15.464 8.95763,15.464 C8.39645,15.464 7.93989,15.9236 7.93989,16.4884 Z M17.2248,17.5128 C16.6637,17.5128 16.2071,17.0533 16.2071,16.4884 C16.2071,15.9236 16.6637,15.464 17.2248,15.464 C17.786,15.464 18.2426,15.9236 18.2426,16.4884 C18.2426,17.0533 17.786,17.5128 17.2248,17.5128 Z M18.9785,14.4869 L19.2447,14.4869 L19.2447,13.951 L18.7123,13.951 L18.7123,14.2189 C18.7123,14.3667 18.8317,14.4869 18.9785,14.4869 Z" id="Shape"></path>
            <path d="M8.95756,15.9998 C8.6899,15.9998 8.47217,16.219 8.47217,16.4884 C8.47217,16.7578 8.6899,16.977 8.95756,16.977 C9.22521,16.977 9.44295,16.7578 9.44295,16.4884 C9.44295,16.219 9.22521,15.9998 8.95756,15.9998 Z" id="Path"></path>
            <path d="M17.2246,15.9998 C16.957,15.9998 16.7393,16.219 16.7393,16.4884 C16.7393,16.7578 16.957,16.977 17.2246,16.977 C17.4923,16.977 17.71,16.7578 17.71,16.4884 C17.71,16.219 17.4923,15.9998 17.2246,15.9998 Z" id="Path"></path>
            <path d="M14.4692,14.9912 L10.9619,14.9912 C10.8322,14.9912 10.7271,15.097 10.7271,15.2276 C10.7271,15.3582 10.8322,15.464 10.9619,15.464 L14.4692,15.464 C14.5989,15.464 14.7041,15.3582 14.7041,15.2276 C14.7041,15.097 14.599,14.9912 14.4692,14.9912 Z" id="Path"></path>
            <path d="M8.45647,13.9825 L5.45021,13.9825 C5.32051,13.9825 5.21533,14.0884 5.21533,14.219 C5.21533,14.3495 5.32048,14.4554 5.45021,14.4554 L8.45647,14.4554 C8.58617,14.4554 8.69135,14.3495 8.69135,14.219 C8.69135,14.0884 8.58617,13.9825 8.45647,13.9825 Z" id="Path"></path>
            <path d="M8.4567,10.4522 L7.4546,10.4522 C7.3249,10.4522 7.21973,10.5581 7.21973,10.6886 L7.21973,12.7059 C7.21973,12.8365 7.32487,12.9423 7.4546,12.9423 C7.58433,12.9423 7.68947,12.8365 7.68947,12.7059 L7.68947,11.9337 L8.20618,11.9337 C8.33588,11.9337 8.44105,11.8278 8.44105,11.6973 C8.44105,11.5667 8.33591,11.4609 8.20618,11.4609 L7.68947,11.4609 L7.68947,10.925 L8.4567,10.925 C8.5864,10.925 8.69157,10.8192 8.69157,10.6886 C8.69154,10.5581 8.5864,10.4522 8.4567,10.4522 Z" id="Path"></path>
            <path d="M10.6955,11.319 C10.6955,11.6223 10.5398,11.8896 10.3048,12.0445 L10.656,12.5748 C10.728,12.6834 10.6988,12.8302 10.5909,12.9026 C10.5508,12.9295 10.5056,12.9423 10.4608,12.9423 C10.3849,12.9423 10.3105,12.9054 10.2652,12.837 L9.83389,12.1858 L9.44289,12.1858 L9.44289,12.7059 C9.44289,12.8365 9.33774,12.9423 9.20802,12.9423 C9.07829,12.9423 8.97314,12.8365 8.97314,12.7059 L8.97314,10.6886 C8.97314,10.5581 9.07832,10.4522 9.20802,10.4522 L9.83433,10.4522 C10.3092,10.4522 10.6955,10.8411 10.6955,11.319 Z M9.44291,11.713 L9.83434,11.713 C10.0502,11.713 10.2258,11.5363 10.2258,11.319 C10.2258,11.1018 10.0502,10.925 9.83434,10.925 L9.44291,10.925 L9.44291,11.713 Z" id="Shape"></path>
            <path d="M12.2145,12.4695 L11.4473,12.4695 L11.4473,11.9329 C11.4525,11.9333 11.4577,11.9337 11.4629,11.9337 L11.964,11.9337 C12.0937,11.9337 12.1988,11.8279 12.1988,11.6973 C12.1988,11.5667 12.0937,11.4609 11.964,11.4609 L11.4629,11.4609 C11.4576,11.4609 11.4525,11.4613 11.4473,11.4617 L11.4473,10.925 L12.2145,10.925 C12.3442,10.925 12.4494,10.8192 12.4494,10.6886 C12.4494,10.5581 12.3442,10.4522 12.2145,10.4522 L11.2124,10.4522 C11.0827,10.4522 10.9775,10.5581 10.9775,10.6886 L10.9775,12.7059 C10.9775,12.8365 11.0827,12.9423 11.2124,12.9423 L12.2145,12.9423 C12.3442,12.9423 12.4494,12.8365 12.4494,12.7059 C12.4494,12.5754 12.3442,12.4695 12.2145,12.4695 Z" id="Path"></path>
            <path d="M13.9679,12.4695 L13.2007,12.4695 L13.2007,11.9337 L13.4669,11.9337 C13.5966,11.9337 13.7018,11.8279 13.7018,11.6973 C13.7018,11.5667 13.5966,11.4609 13.4669,11.4609 L13.2007,11.4609 L13.2007,10.925 L13.9679,10.925 C14.0976,10.925 14.2028,10.8192 14.2028,10.6886 C14.2028,10.5581 14.0977,10.4522 13.9679,10.4522 L12.9658,10.4522 C12.8361,10.4522 12.731,10.5581 12.731,10.6886 L12.731,12.7059 C12.731,12.8365 12.8361,12.9423 12.9658,12.9423 L13.9679,12.9423 C14.0976,12.9423 14.2028,12.8365 14.2028,12.7059 C14.2028,12.5754 14.0976,12.4695 13.9679,12.4695 Z" id="Path"></path>
        </g>
    </g>
</svg>