<?xml version="1.0" encoding="UTF-8"?>
<svg width="20px" height="20px" viewBox="0 0 20 20" version="1.1" xmlns="http://www.w3.org/2000/svg" xmlns:xlink="http://www.w3.org/1999/xlink">
    <!-- Generator: sketchtool 51.2 (57519) - http://www.bohemiancoding.com/sketch -->
    <title>FEF9C397-5A01-4BF2-89C5-4DBEF52AE161</title>
    <desc>Created with sketchtool.</desc>
    <defs></defs>
    <g id="Page-1" stroke="none" stroke-width="1" fill="none" fill-rule="evenodd">
        <g id="CATCH-MOBILE-Einloggen-Wunschliste-Mobile" transform="translate(-188.000000, -499.000000)" fill="#FFFFFF" fill-rule="nonzero">
            <g id="Group-3" transform="translate(15.000000, 420.000000)">
                <g id="Social-networks" transform="translate(0.000000, 62.000000)">
                    <path d="M183.507368,28.3791753 L182.553053,27.6529897 C182.262526,27.4171134 181.864632,27.1053608 181.864632,26.5350515 C181.864632,25.962268 182.262316,25.5981443 182.607158,25.2608247 C183.718526,24.4037113 184.829684,23.4915464 184.829684,21.5694845 C184.829684,19.5929897 183.56,18.5531959 182.951158,18.0597938 L184.592211,18.0597938 L186.314526,17 L181.096632,17 C179.664842,17 177.601263,17.3315464 176.090526,18.5531959 C174.952,19.5152577 174.396632,20.8416495 174.396632,22.0360825 C174.396632,24.0630928 175.985684,26.1181443 178.792421,26.1181443 C179.057474,26.1181443 179.347368,26.0925773 179.639158,26.0661856 C179.508,26.3785567 179.375579,26.6387629 179.375579,27.08 C179.375579,27.8851546 179.797895,28.3787629 180.170105,28.8463918 C178.977895,28.9268041 176.751789,29.0562887 175.110526,30.0441237 C173.547579,30.954433 173.071789,32.2791753 173.071789,33.2146392 C173.071789,35.1391753 174.924421,36.9317526 178.765474,36.9317526 C183.320421,36.9317526 185.731579,34.4635052 185.731579,32.0197938 C185.732,30.2245361 184.673053,29.3410309 183.507368,28.3791753 Z M180.038105,25.3898969 C177.759368,25.3898969 176.727158,22.5049485 176.727158,20.7643299 C176.727158,20.0863918 176.858316,19.3865979 177.308842,18.84 C177.733895,18.3195876 178.473684,17.9818557 179.164421,17.9818557 C181.361053,17.9818557 182.500421,20.8927835 182.500421,22.7647423 C182.500421,23.2329897 182.447579,24.0628866 181.838526,24.6630928 C181.412632,25.0797938 180.699789,25.3898969 180.038105,25.3898969 Z M180.064211,35.8426804 C177.230526,35.8426804 175.403368,34.5152577 175.403368,32.6690722 C175.403368,30.8239175 177.097684,30.1993814 177.680421,29.9929897 C178.792211,29.6265979 180.222737,29.5756701 180.461474,29.5756701 C180.726316,29.5756701 180.858737,29.5756701 181.069684,29.6016495 C183.084,31.0057732 183.958316,31.7053608 183.958316,33.0346392 C183.958526,34.6439175 182.607368,35.8426804 180.064211,35.8426804 Z M190.195579,25.3503093 L192.858526,25.3503093 L192.858526,26.6480412 L190.195579,26.6480412 L190.195579,29.263299 L188.885263,29.263299 L188.885263,26.6480412 L186.235579,26.6480412 L186.235579,25.3503093 L188.885263,25.3503093 L188.885263,22.7513402 L190.195579,22.7513402 L190.195579,25.3503093 Z" id="google-plus"></path>
                </g>
            </g>
        </g>
    </g>
</svg>