<?xml version="1.0" encoding="UTF-8"?>
<svg width="23px" height="20px" viewBox="0 0 23 20" version="1.1" xmlns="http://www.w3.org/2000/svg" xmlns:xlink="http://www.w3.org/1999/xlink">
    <!-- Generator: Sketch 52.1 (67048) - http://www.bohemiancoding.com/sketch -->
    <title>heart-white</title>
    <desc>Created with Sketch.</desc>
    <g id="Page-1" stroke="none" stroke-width="1" fill="none" fill-rule="evenodd">
        <g id="heart-white" fill="#000000" fill-rule="nonzero">
            <path d="M21.13124,1.8594186 C19.92443,0.6600194 18.32013,0 16.61337,0 C14.90637,0 13.30189,0.6600194 12.09465,1.8594186 L11.49996,2.4505528 L10.90526,1.8594186 C9.69839,0.6600194 8.09355,0 6.38691,0 C4.68034,0 3.07536,0.6600194 1.86862,1.8594186 C-0.62287,4.335728 -0.62287,8.3647901 1.86862,10.8401344 L10.79632,19.7126364 C10.94229,19.8582484 11.12401,19.9474011 11.31387,19.9817231 C11.37754,19.9942093 11.44157,20 11.50572,20 C11.75828,20 12.01126,19.9042725 12.2036,19.7126364 L21.1313,10.8401344 C23.62291,8.3647901 23.62291,4.335728 21.13124,1.8594186 Z M19.73549,9.4530802 L11.50002,17.6376951 L3.26437,9.4530802 C1.54256,7.742169 1.54256,4.9584095 3.26437,3.2465934 C4.09839,2.4178595 5.20766,1.9620226 6.38691,1.9620226 C7.56628,1.9620226 8.67525,2.4178595 9.50896,3.2465934 L10.80208,4.5321293 C11.17275,4.8999596 11.82765,4.8999596 12.19826,4.5321293 L13.49089,3.2465934 C14.32467,2.4178595 15.43369,1.9620226 16.61343,1.9620226 C17.79281,1.9620226 18.90171,2.4178595 19.73549,3.2465934 C21.45748,4.9584095 21.45748,7.7421087 19.73549,9.4530802 Z" id="heart"></path>
        </g>
    </g>
</svg>