<?xml version="1.0" encoding="utf-8"?>
<!-- Generator: Adobe Illustrator 23.0.2, SVG Export Plug-In . SVG Version: 6.00 Build 0)  -->
<svg version="1.1" id="Ebene_1" xmlns="http://www.w3.org/2000/svg" xmlns:xlink="http://www.w3.org/1999/xlink" x="0px" y="0px"
	 viewBox="0 0 30 30" style="enable-background:new 0 0 30 30;" xml:space="preserve">
<style type="text/css">
	.st0{fill:#F9B500;}
	.st1{fill:#B3B3B3;}
</style>
<path class="st0" d="M15,27.33c-0.39,0-0.78-0.14-1.07-0.4c-1.12-0.98-2.2-1.9-3.15-2.71l0,0c-2.79-2.38-5.21-4.44-6.88-6.46
	C2.01,15.49,1.14,13.34,1.14,11c0-2.28,0.78-4.38,2.2-5.92c1.44-1.56,3.4-2.41,5.55-2.41c1.6,0,3.07,0.51,4.36,1.5
	c0.65,0.5,1.24,1.12,1.76,1.84c0.52-0.72,1.11-1.34,1.76-1.84c1.29-1,2.76-1.5,4.36-1.5c2.14,0,4.11,0.86,5.55,2.41
	c1.42,1.54,2.2,3.64,2.2,5.92c0,2.34-0.87,4.49-2.75,6.75c-1.68,2.03-4.09,4.08-6.88,6.46c-0.95,0.81-2.04,1.73-3.16,2.72
	C15.78,27.19,15.39,27.33,15,27.33z M8.88,4.29c-1.68,0-3.23,0.67-4.35,1.89C3.39,7.42,2.76,9.13,2.76,11
	c0,1.97,0.73,3.74,2.38,5.72c1.59,1.92,3.95,3.93,6.69,6.26l0.01,0c0.96,0.82,2.04,1.74,3.17,2.73c1.14-0.99,2.22-1.91,3.18-2.73
	c2.74-2.33,5.1-4.34,6.69-6.26c1.64-1.98,2.38-3.75,2.38-5.72c0-1.87-0.63-3.58-1.77-4.82c-1.12-1.22-2.67-1.89-4.35-1.89
	c-1.23,0-2.36,0.39-3.36,1.16c-0.89,0.69-1.51,1.56-1.87,2.17c-0.19,0.31-0.52,0.5-0.88,0.5s-0.69-0.19-0.88-0.5
	c-0.36-0.61-0.98-1.48-1.87-2.17C11.25,4.68,10.11,4.29,8.88,4.29z"/>
</svg>
