<?xml version="1.0" encoding="UTF-8"?>
<svg width="28px" height="26px" viewBox="0 0 28 26" version="1.1" xmlns="http://www.w3.org/2000/svg" xmlns:xlink="http://www.w3.org/1999/xlink">
    <!-- Generator: Sketch 54.1 (76490) - https://sketchapp.com -->
    <title>heart-new</title>
    <desc>Created with Sketch.</desc>
    <g id="Page-1" stroke="none" stroke-width="1" fill="none" fill-rule="evenodd">
        <g id="heart-new" fill="#000000" fill-rule="nonzero">
            <path d="M14,25.33 C13.61,25.33 13.22,25.19 12.93,24.93 C11.81,23.95 10.73,23.03 9.78,22.22 L9.78,22.22 C6.99,19.84 4.57,17.78 2.9,15.76 C1.01,13.49 0.14,11.34 0.14,9 C0.14,6.72 0.92,4.62 2.34,3.08 C3.78,1.52 5.74,0.67 7.89,0.67 C9.49,0.67 10.96,1.18 12.25,2.17 C12.9,2.67 13.49,3.29 14.01,4.01 C14.53,3.29 15.12,2.67 15.77,2.17 C17.06,1.17 18.53,0.67 20.13,0.67 C22.27,0.67 24.24,1.53 25.68,3.08 C27.1,4.62 27.88,6.72 27.88,9 C27.88,11.34 27.01,13.49 25.13,15.75 C23.45,17.78 21.04,19.83 18.25,22.21 C17.3,23.02 16.21,23.94 15.09,24.93 C14.78,25.19 14.39,25.33 14,25.33 Z M7.88,2.29 C6.2,2.29 4.65,2.96 3.53,4.18 C2.39,5.42 1.76,7.13 1.76,9 C1.76,10.97 2.49,12.74 4.14,14.72 C5.73,16.64 8.09,18.65 10.83,20.98 L10.84,20.98 C11.8,21.8 12.88,22.72 14.01,23.71 C15.15,22.72 16.23,21.8 17.19,20.98 C19.93,18.65 22.29,16.64 23.88,14.72 C25.52,12.74 26.26,10.97 26.26,9 C26.26,7.13 25.63,5.42 24.49,4.18 C23.37,2.96 21.82,2.29 20.14,2.29 C18.91,2.29 17.78,2.68 16.78,3.45 C15.89,4.14 15.27,5.01 14.91,5.62 C14.72,5.93 14.39,6.12 14.03,6.12 C13.67,6.12 13.34,5.93 13.15,5.62 C12.79,5.01 12.17,4.14 11.28,3.45 C10.25,2.68 9.11,2.29 7.88,2.29 Z" id="Shape"></path>
        </g>
    </g>
</svg>