<?xml version="1.0" encoding="UTF-8"?>
<svg width="20px" height="20px" viewBox="0 0 20 20" version="1.1" xmlns="http://www.w3.org/2000/svg" xmlns:xlink="http://www.w3.org/1999/xlink">
    <!-- Generator: sketchtool 51.2 (57519) - http://www.bohemiancoding.com/sketch -->
    <title>CFE03BEB-6595-4401-A5FE-886E9CEE2E3C</title>
    <desc>Created with sketchtool.</desc>
    <defs></defs>
    <g id="Page-1" stroke="none" stroke-width="1" fill="none" fill-rule="evenodd">
        <g id="HOMEPAGE---DESKTOP" transform="translate(-1238.000000, -34.000000)">
            <g id="About-us" transform="translate(1239.000000, 35.000000)">
                <path d="M9,18 C13.9705627,18 18,13.9705627 18,9 C18,4.02943725 13.9705627,0 9,0 C4.02943725,0 -1.42108547e-14,4.02943725 -1.42108547e-14,9 C-1.42108547e-14,10.5428514 -1.42108547e-14,13.5428514 -1.42108547e-14,18 C4.22914295,18 7.22914295,18 9,18 Z" id="Oval-2-Copy" stroke="#FFFFFF" stroke-width="1.8" fill-rule="nonzero"></path>
                <path d="M8.11428571,14 L8.11428571,6.01660027 L9.89285714,6.01660027 L9.89285714,14 L8.11428571,14 Z M9,5.00132802 C8.45,5.00132802 8,4.56308101 8,4.00066401 C8,3.4309429 8.45,3 9,3 C9.55714286,3 10,3.4309429 10,4.00066401 C10,4.56308101 9.55714286,5.00132802 9,5.00132802 Z" id="i-copy" fill="#FFFFFF"></path>
            </g>
        </g>
    </g>
</svg>