<?xml version="1.0" encoding="UTF-8"?>
<svg width="20px" height="30px" viewBox="0 0 20 30" version="1.1" xmlns="http://www.w3.org/2000/svg" xmlns:xlink="http://www.w3.org/1999/xlink">
    <!-- Generator: sketchtool 52.5 (67469) - http://www.bohemiancoding.com/sketch -->
    <title>F7A414A1-AD2B-4D4F-8F43-047C3F76216C</title>
    <desc>Created with sketchtool.</desc>
    <g id="Page-1" stroke="none" stroke-width="1" fill="none" fill-rule="evenodd">
        <g id="desktop-menu-abgemeldet" transform="translate(-1159.000000, -310.000000)" fill="#000">
            <path d="M1174.11111,324.532586 L1163.44444,324.532586 C1163.2037,324.532586 1162.99537,324.622264 1162.81945,324.801629 C1162.64352,324.980991 1162.55556,325.19339 1162.55556,325.438836 C1162.55556,325.684281 1162.64352,325.89668 1162.81945,326.076042 C1162.99537,326.255407 1163.2037,326.345086 1163.44444,326.345086 L1174.11111,326.345086 C1174.35185,326.345086 1174.56018,326.255407 1174.73611,326.076042 C1174.91204,325.89668 1175,325.684281 1175,325.438836 C1175,325.19339 1174.91204,324.980991 1174.73611,324.801629 C1174.56018,324.622264 1174.35185,324.532586 1174.11111,324.532586 Z M1174.11111,329.970086 L1163.44444,329.970086 C1163.2037,329.970086 1162.99537,330.059764 1162.81945,330.239129 C1162.64352,330.418491 1162.55556,330.63089 1162.55556,330.876336 C1162.55556,331.121781 1162.64352,331.33418 1162.81945,331.513542 C1162.99537,331.692907 1163.2037,331.782586 1163.44444,331.782586 L1174.11111,331.782586 C1174.35185,331.782586 1174.56018,331.692907 1174.73611,331.513542 C1174.91204,331.33418 1175,331.121781 1175,330.876336 C1175,330.63089 1174.91204,330.418491 1174.73611,330.239129 C1174.56018,330.059764 1174.35185,329.970086 1174.11111,329.970086 Z M1175,311.845086 L1175,310.032586 L1173.22222,310.032586 L1173.22222,311.845086 L1169.66667,311.845086 L1169.66667,310.032586 L1167.88889,310.032586 L1167.88889,311.845086 L1164.33333,311.845086 L1164.33333,310.032586 L1162.55556,310.032586 L1162.55556,311.845086 C1161.57407,311.845086 1160.73611,312.199085 1160.04167,312.907098 C1159.34722,313.615108 1159,314.46943 1159,315.470086 L1159,335.407586 C1159,336.408241 1159.34722,337.262563 1160.04167,337.970574 C1160.73611,338.678585 1161.57407,339.032586 1162.55556,339.032586 L1175,339.032586 C1175.98149,339.032586 1176.81944,338.678585 1177.51389,337.970574 C1178.20834,337.262563 1178.55556,336.408241 1178.55556,335.407586 L1178.55556,315.470086 C1178.55556,314.46943 1178.20834,313.615108 1177.51389,312.907098 C1176.81944,312.199085 1175.98149,311.845086 1175,311.845086 Z M1176.77778,335.407586 C1176.77778,335.898473 1176.60185,336.323274 1176.25,336.682 C1175.89815,337.040725 1175.48148,337.220086 1175,337.220086 L1162.55556,337.220086 C1162.07407,337.220086 1161.65741,337.040725 1161.30556,336.682 C1160.9537,336.323274 1160.77778,335.898473 1160.77778,335.407586 L1160.77778,315.470086 C1160.77778,314.979199 1160.9537,314.554396 1161.30556,314.195673 C1161.65741,313.836947 1162.07407,313.657586 1162.55556,313.657586 L1175,313.657586 C1175.48148,313.657586 1175.89815,313.836947 1176.25,314.195673 C1176.60185,314.554396 1176.77778,314.979199 1176.77778,315.470086 L1176.77778,335.407586 Z M1174.11111,319.095086 L1163.44444,319.095086 C1163.2037,319.095086 1162.99537,319.184764 1162.81945,319.364129 C1162.64352,319.543491 1162.55556,319.75589 1162.55556,320.001336 C1162.55556,320.246781 1162.64352,320.45918 1162.81945,320.638542 C1162.99537,320.817907 1163.2037,320.907586 1163.44444,320.907586 L1174.11111,320.907586 C1174.35185,320.907586 1174.56018,320.817907 1174.73611,320.638542 C1174.91204,320.45918 1175,320.246781 1175,320.001336 C1175,319.75589 1174.91204,319.543491 1174.73611,319.364129 C1174.56018,319.184764 1174.35185,319.095086 1174.11111,319.095086 Z" id="Fill-1"></path>
        </g>
    </g>
</svg>