<svg width="13" height="14" viewBox="0 0 13 14" fill="none" xmlns="http://www.w3.org/2000/svg">
<path d="M6.5 1.49194C8.2355 1.49194 8.44133 1.49844 9.12708 1.52985C10.8886 1.61002 11.7114 2.44581 11.7915 4.19431C11.823 4.87952 11.8289 5.08535 11.8289 6.82085C11.8289 8.5569 11.8224 8.76219 11.7915 9.4474C11.7108 11.1943 10.8902 12.0317 9.12708 12.1119C8.44133 12.1433 8.23658 12.1498 6.5 12.1498C4.7645 12.1498 4.55867 12.1433 3.87346 12.1119C2.10763 12.0311 1.28917 11.1916 1.209 9.44685C1.17758 8.76165 1.17108 8.55635 1.17108 6.82031C1.17108 5.08481 1.17813 4.87952 1.209 4.19377C1.28971 2.44581 2.11033 1.60948 3.87346 1.52931C4.55921 1.49844 4.7645 1.49194 6.5 1.49194ZM6.5 0.320313C4.73471 0.320313 4.51371 0.327896 3.82038 0.359313C1.45979 0.467646 0.147875 1.7774 0.0395417 4.14015C0.00758333 4.83402 0 5.05502 0 6.82031C0 8.5856 0.00758333 8.80715 0.039 9.50048C0.147333 11.8611 1.45708 13.173 3.81983 13.2813C4.51371 13.3127 4.73471 13.3203 6.5 13.3203C8.26529 13.3203 8.48683 13.3127 9.18017 13.2813C11.5386 13.173 12.8538 11.8632 12.9605 9.50048C12.9924 8.80715 13 8.5856 13 6.82031C13 5.05502 12.9924 4.83402 12.961 4.14069C12.8548 1.78227 11.5435 0.468188 9.18071 0.359854C8.48683 0.327896 8.26529 0.320312 6.5 0.320312V0.320313ZM6.5 3.48256C4.65671 3.48256 3.16225 4.97702 3.16225 6.82031C3.16225 8.6636 4.65671 10.1586 6.5 10.1586C8.34329 10.1586 9.83775 8.66415 9.83775 6.82031C9.83775 4.97702 8.34329 3.48256 6.5 3.48256ZM6.5 8.98698C5.30346 8.98698 4.33333 8.0174 4.33333 6.82031C4.33333 5.62377 5.30346 4.65365 6.5 4.65365C7.69654 4.65365 8.66667 5.62377 8.66667 6.82031C8.66667 8.0174 7.69654 8.98698 6.5 8.98698ZM9.96992 2.57094C9.53875 2.57094 9.18938 2.92031 9.18938 3.35094C9.18938 3.78156 9.53875 4.13094 9.96992 4.13094C10.4005 4.13094 10.7494 3.78156 10.7494 3.35094C10.7494 2.92031 10.4005 2.57094 9.96992 2.57094Z" fill="#DE326A"/>
</svg>
