<?xml version="1.0" encoding="UTF-8"?>
<svg width="40px" height="40px" viewBox="0 0 40 40" version="1.1" xmlns="http://www.w3.org/2000/svg" xmlns:xlink="http://www.w3.org/1999/xlink">
    <!-- Generator: sketchtool 53.2 (72643) - https://sketchapp.com -->
    <title>137A28AE-4565-4BAE-8034-EEE698B70D42@2x</title>
    <desc>Created with sketchtool.</desc>
    <defs>
        <polygon id="path-1" points="0 0 39.9994 0 39.9994 39.9994 0 39.9994"></polygon>
    </defs>
    <g id="Page-1" stroke="none" stroke-width="1" fill="none" fill-rule="evenodd">
        <g id="Artboard" transform="translate(-730.000000, -5469.000000)">
            <g id="Group-4" transform="translate(389.000000, 5213.000000)">
                <g id="Group-8-Copy" transform="translate(341.000000, 256.000000)">
                    <g id="Group-3">
                        <mask id="mask-2" fill="white">
                            <use xlink:href="#path-1"></use>
                        </mask>
                        <g id="Clip-2"></g>
                        <path d="M36.4514,28.9614 C36.4514,33.0914 33.0914,36.4514 28.9614,36.4514 L11.0394,36.4514 C6.9094,36.4514 3.5494,33.0914 3.5494,28.9614 L3.5494,11.0394 C3.5494,6.9094 6.9094,3.5494 11.0394,3.5494 L28.9614,3.5494 C33.0914,3.5494 36.4514,6.9094 36.4514,11.0394 L36.4514,28.9614 Z M28.9614,-0.0006 L11.0394,-0.0006 C4.9514,-0.0006 -0.0006,4.9514 -0.0006,11.0394 L-0.0006,28.9614 C-0.0006,35.0474 4.9514,39.9994 11.0394,39.9994 L28.9614,39.9994 C35.0494,39.9994 39.9994,35.0474 39.9994,28.9614 L39.9994,11.0394 C39.9994,4.9514 35.0494,-0.0006 28.9614,-0.0006 L28.9614,-0.0006 Z" id="Fill-1" fill="#F9B500" mask="url(#mask-2)"></path>
                    </g>
                    <path d="M20.0002,26.7564 C16.2742,26.7564 13.2422,23.7264 13.2422,20.0004 C13.2422,16.2744 16.2742,13.2404 20.0002,13.2404 C23.7262,13.2404 26.7582,16.2744 26.7582,20.0004 C26.7582,23.7264 23.7262,26.7564 20.0002,26.7564 M20.0002,9.6924 C14.3162,9.6924 9.6942,14.3164 9.6942,20.0004 C9.6942,25.6824 14.3162,30.3064 20.0002,30.3064 C25.6842,30.3064 30.3062,25.6824 30.3062,20.0004 C30.3062,14.3164 25.6842,9.6924 20.0002,9.6924" id="Fill-4" fill="#F9B500"></path>
                    <path d="M30.7404,6.6842 C30.0544,6.6842 29.3844,6.9602 28.9004,7.4462 C28.4144,7.9282 28.1364,8.6002 28.1364,9.2862 C28.1364,9.9702 28.4164,10.6422 28.9004,11.1282 C29.3824,11.6102 30.0544,11.8902 30.7404,11.8902 C31.4264,11.8902 32.0944,11.6102 32.5804,11.1282 C33.0644,10.6422 33.3424,9.9702 33.3424,9.2862 C33.3424,8.6002 33.0644,7.9282 32.5804,7.4462 C32.0964,6.9602 31.4264,6.6842 30.7404,6.6842" id="Fill-6" fill="#F9B500"></path>
                </g>
            </g>
        </g>
    </g>
</svg>