<?xml version="1.0" encoding="UTF-8"?>
<svg width="17px" height="17px" viewBox="0 0 17 17" version="1.1" xmlns="http://www.w3.org/2000/svg" xmlns:xlink="http://www.w3.org/1999/xlink">
    <!-- Generator: Sketch 51.3 (57544) - http://www.bohemiancoding.com/sketch -->
    <title>instagram</title>
    <desc>Created with Sketch.</desc>
    <defs></defs>
    <g id="Page-1" stroke="none" stroke-width="1" fill="none" fill-rule="evenodd">
        <g id="about_1" transform="translate(-166.000000, -4636.000000)" fill="#00C2D3" fill-rule="nonzero">
            <g id="Group-5" transform="translate(166.000000, 4592.000000)">
                <path d="M2.1820338,44 L14.8181407,44 C16.0181633,44 17,44.888444 17,46.1818368 L17,58.8181632 C17,60.111556 16.0181633,61 14.8181407,61 L2.1820338,61 C0.981662115,61 0,60.111556 0,58.8181632 L0,46.1818368 C0,44.888444 0.981662115,44 2.1820338,44 Z M12.383884,45.8887725 C11.9628725,45.8887725 11.6188369,46.2329791 11.6188369,46.6541609 L11.6188369,48.4860311 C11.6188369,48.9070383 11.9628725,49.2514195 12.383884,49.2514195 L14.3053165,49.2514195 C14.7263281,49.2514195 15.0707128,48.9070383 15.0707128,48.4860311 L15.0707128,46.6541609 C15.0707128,46.2329791 14.7263281,45.8887725 14.3053165,45.8887725 L12.383884,45.8887725 Z M15.078742,51.1892397 L13.5825102,51.1892397 C13.7240692,51.65144 13.8006961,52.1410442 13.8006961,52.6475794 C13.8006961,55.47524 11.4345134,57.7673905 8.51623303,57.7673905 C5.59812719,57.7673905 3.23229357,55.47524 3.23229357,52.6475794 C3.23229357,52.1406951 3.30874592,51.6512655 3.4504795,51.1892397 L1.88914101,51.1892397 L1.88914101,58.3702757 C1.88914101,58.7418861 2.19320492,59.0461215 2.56499374,59.0461215 L14.4032384,59.0461215 C14.7750272,59.0461215 15.0790911,58.7420607 15.0790911,58.3702757 L15.0790911,51.1892397 L15.078742,51.1892397 Z M8.51605848,49.154895 C6.63058299,49.154895 5.10188513,50.6359259 5.10188513,52.4630833 C5.10188513,54.2902408 6.63058299,55.7712716 8.51605848,55.7712716 C10.4017085,55.7712716 11.9305809,54.2902408 11.9305809,52.4630833 C11.9305809,50.6359259 10.4018831,49.154895 8.51605848,49.154895 Z" id="instagram"></path>
            </g>
        </g>
    </g>
</svg>