<?xml version="1.0" encoding="UTF-8"?>
<svg width="24px" height="24px" viewBox="0 0 24 24" version="1.1" xmlns="http://www.w3.org/2000/svg" xmlns:xlink="http://www.w3.org/1999/xlink">
    <!-- Generator: sketchtool 52.2 (67145) - http://www.bohemiancoding.com/sketch -->
    <title>04AD8CF8-D4D5-46BC-B071-1A595FE35971</title>
    <desc>Created with sketchtool.</desc>
    <g id="Page-1" stroke="none" stroke-width="1" fill="none" fill-rule="evenodd">
        <g id="HOMEPAGE---DESKTOP---ACCOUNT---LOGGED-IN" transform="translate(-1342.000000, -30.000000)" fill="#F9B500" fill-rule="nonzero">
            <g id="header" transform="translate(0.000000, 2.000000)">
                <g id="header-icons" transform="translate(1252.000000, 28.000000)">
                    <path d="M106.8,8.4 C106.137258,8.4 105.6,7.59411255 105.6,6.6 C105.6,5.60588745 106.137258,4.8 106.8,4.8 C107.462742,4.8 108,5.60588745 108,6.6 C108,7.59411255 107.462742,8.4 106.8,8.4 Z M113.741055,7.7771471 C114.285881,9.16486145 113.955085,10.7413428 112.898293,11.7934401 L109.172403,15.5028108 C108.091001,16.5793831 106.479305,16.8953545 105.066405,16.3074385 C104.390189,16.0261165 103.734692,15.6915778 103.118194,15.313106 C102.676915,15.042193 102.538775,14.4647328 102.809617,14.0233386 C103.08046,13.5819445 103.65777,13.4437216 104.099002,13.7146347 C104.632438,14.0421403 105.200232,14.3319019 105.786495,14.5758081 C106.497352,14.8715243 107.307161,14.7136089 107.849736,14.1735177 L111.575627,10.4641 C112.102359,9.93971591 112.267311,9.15412433 111.995859,8.46263495 C111.560861,7.35469529 110.76938,5.76227233 109.469308,4.46800376 C108.177157,3.18151843 106.608351,2.41547872 105.519825,1.99930977 C104.826687,1.73439826 104.039284,1.90126907 103.513677,2.42448103 L99.8322706,6.08959043 C99.2883823,6.63108832 99.1307892,7.46234783 99.440116,8.1581977 C99.7037868,8.75145883 100.002239,9.32385525 100.327128,9.85949226 C100.551143,10.228868 100.493908,10.703505 100.188472,11.0090207 L91.874992,19.3246165 L91.874992,22.1245203 L94.1249824,22.1245203 L94.1249824,20.4365885 C94.1249824,19.9186748 94.5446994,19.4988486 95.0624784,19.4988486 L96.7499713,19.4988017 L96.7499713,17.8109168 C96.7499713,17.2930031 97.1696882,16.873177 97.6874673,16.873177 L100.312456,16.873177 C100.830235,16.873177 101.249952,17.2930031 101.249952,17.8109168 C101.249952,18.3288306 100.830235,18.7486567 100.312456,18.7486567 L98.6249633,18.7486567 L98.6249633,20.4365416 C98.6249633,20.9544553 98.2052463,21.3742815 97.6874673,21.3742815 L95.9999744,21.3743284 L95.9999744,23.0622601 C95.9999744,23.5801739 95.5802575,24 95.0624784,24 L90.937496,24 C90.419717,24 90,23.5801739 90,23.0622601 L90,18.9362047 C90,18.6874692 90.0987652,18.4489551 90.2745926,18.2730819 L98.3546363,10.1909833 C98.130106,9.78015947 97.9199663,9.35494132 97.7267483,8.92020512 C97.1036416,7.51851845 97.4181715,5.84680958 98.5094638,4.76039105 L102.190917,1.09523476 C103.238569,0.0522335865 104.807984,-0.280570294 106.189103,0.247424141 C107.447129,0.728390921 109.266855,1.62036909 110.791927,3.13875749 C112.322436,4.66239723 113.240432,6.5021022 113.741055,7.7771471 Z" id="key"></path>
                </g>
            </g>
        </g>
    </g>
</svg>