<?xml version="1.0" encoding="UTF-8"?>
<svg width="13px" height="19px" viewBox="0 0 13 19" version="1.1" xmlns="http://www.w3.org/2000/svg" xmlns:xlink="http://www.w3.org/1999/xlink">
    <!-- Generator: Sketch 50.2 (55047) - http://www.bohemiancoding.com/sketch -->
    <title>Light Bulb</title>
    <desc>Created with Sketch.</desc>
    <defs></defs>
    <g id="Symbols" stroke="none" stroke-width="1" fill="none" fill-rule="evenodd">
        <g id="-header-with-categories" transform="translate(-1259.000000, -25.000000)" fill="#000000">
            <g id="-header">
                <g id="Light-Bulb" transform="translate(1253.000000, 23.000000)">
                    <path d="M13.9011943,15.3 C13.9083854,15.1569185 13.92175,14.9590515 13.9445442,14.8310136 C14.0210817,14.4010925 14.0744116,14.1662862 14.1907906,13.8585901 C14.3914689,13.328014 14.7101224,12.871049 15.1852435,12.5256165 C16.4054334,11.6384883 17.1428571,10.2091845 17.1428571,8.65 C17.1428571,6.02664744 15.0641792,3.9 12.5,3.9 C9.9358208,3.9 7.85714286,6.02664744 7.85714286,8.65 C7.85714286,10.2828893 8.55221286,11.6487438 9.77874842,12.5048586 C10.2636301,12.8433032 10.5880827,13.2997282 10.7916913,13.8316282 C10.9083756,14.1364503 10.9624184,14.3715124 11.0387341,14.7955507 C11.0646637,14.9396249 11.0845757,15.1508918 11.0971828,15.3 L11.5714286,15.3 L11.5714286,10.5550092 L10.0874261,9.40800113 C9.67823643,9.09173225 9.59712612,8.495977 9.90626112,8.07734453 C10.2153961,7.65871207 10.7977133,7.57572999 11.2069029,7.89199887 L12.5046474,8.89571799 L13.8047722,7.89199887 C14.2139619,7.57572999 14.796279,7.65871207 15.105414,8.07734453 C15.414549,8.495977 15.3334387,9.09173225 14.9242491,9.40800113 L13.4285714,10.5640331 L13.4285714,15.3 L13.9011943,15.3 Z M10.1812915,20.05 C9.66695342,20.05 9.25,19.6284692 9.25,19.1001829 L9.25,15.3470468 C9.15130413,14.8223347 9.10185135,14.3324598 8.73209926,14.074375 C7.01690163,12.8771769 6,10.9345388 6,8.65 C6,4.97730641 8.91014913,2 12.5,2 C16.0898509,2 19,4.97730641 19,8.65 C19,10.8888306 17.9185951,12.8692569 16.2610299,14.0743749 C15.9004224,14.3365514 15.8387089,14.800978 15.7487126,15.3 L15.75,19.1001829 C15.75,19.6247524 15.3335078,20.05 14.8187085,20.05 L13.8136009,20.05 C13.6223912,20.6034664 13.1064587,21 12.5,21 C11.8935413,21 11.3776088,20.6034664 11.1863991,20.05 L10.1812915,20.05 Z M11.1071429,17.2 L11.1071429,18.15 L13.8928571,18.15 L13.8928571,17.2 L11.1071429,17.2 Z" id="Rectangle-849"></path>
                </g>
            </g>
        </g>
    </g>
</svg>