<?xml version="1.0" encoding="UTF-8"?>
<svg width="17px" height="16px" viewBox="0 0 17 16" version="1.1" xmlns="http://www.w3.org/2000/svg" xmlns:xlink="http://www.w3.org/1999/xlink">
    <!-- Generator: Sketch 51.2 (57519) - http://www.bohemiancoding.com/sketch -->
    <title>like-black</title>
    <desc>Created with Sketch.</desc>
    <defs></defs>
    <g id="Page-1" stroke="none" stroke-width="1" fill="none" fill-rule="evenodd">
        <g id="like-black" stroke="#919194" stroke-width="0.75">
            <path d="M0.37841797,0.47705078 L15.9460449,0.47705078 L15.9460449,12.0229492 L13.067627,12.0229492 L13.067627,15.0170898 L9.1213379,12.0229492 L0.37841797,12.0229492 L0.37841797,0.47705078 Z M8,10 L7.475,9.486413 C5.525,7.798913 4.25,6.6616848 4.25,5.267663 C4.25,4.1304348 5.15,3.25 6.3125,3.25 C6.95,3.25 7.5875,3.5434783 8,4.0203804 C8.4125,3.5434783 9.05,3.25 9.6875,3.25 C10.85,3.25 11.75,4.1304348 11.75,5.267663 C11.75,6.6616848 10.475,7.798913 8.525,9.486413 L8,10 Z" id="Path-2"></path>
        </g>
    </g>
</svg>