<?xml version="1.0" encoding="UTF-8"?>
<svg width="233px" height="92px" viewBox="0 0 233 92" version="1.1" xmlns="http://www.w3.org/2000/svg" xmlns:xlink="http://www.w3.org/1999/xlink">
    <!-- Generator: Sketch 51.3 (57544) - http://www.bohemiancoding.com/sketch -->
    <title>3</title>
    <desc>Created with Sketch.</desc>
    <defs>
        <linearGradient x1="50%" y1="60.193274%" x2="-61.8233442%" y2="190.129769%" id="linearGradient-1">
            <stop stop-color="#FCCB16" offset="0%"></stop>
            <stop stop-color="#F76B1C" offset="100%"></stop>
        </linearGradient>
    </defs>
    <g id="Page-1" stroke="none" stroke-width="1" fill="none" fill-rule="evenodd">
        <g id="LOGO_ORANGE_ALL" transform="translate(-1143.000000, -65.000000)">
            <g id="3" transform="translate(1143.000000, 65.000000)">
                <g id="CATCH-LOGO-1">
                    <path d="M6.2136267,69.449358 C4.4408857,67.9720918 4.35737999,63.8868404 5.05983847,59.9783029 C5.76229696,56.0697653 7.85167798,53.568819 9.2954829,52.3016533 C10.2580195,51.4568762 12.3370504,50.9519352 15.5325756,50.7868303 C14.7387414,48.2913989 14.4605679,46.2270934 14.6980552,44.5939137 C14.9355424,42.9607339 15.7489991,41.3439419 17.1384253,39.7435375 C13.9930171,40.1185805 11.4525446,40.0742364 9.51700771,39.6105052 C6.61370235,38.9149084 6.73531334,39.5619505 5.46186923,36.945976 C4.18842513,34.3300015 4.29437504,32.8110926 4.32801958,30.8835984 C4.35044927,29.5986023 4.78590581,28.3248407 5.6343892,27.0623135 C3.54007425,26.8908506 2.02301034,25.60454 1.08319747,23.2033818 C-0.326521843,19.6016444 -0.214080937,18.5335779 0.585000405,15.6258511 C1.38408175,12.7181242 1.27839531,12.0205046 4.69124767,10.0742748 C6.96648258,8.77678825 12.0094775,7.81337413 19.8202323,7.18403245 C41.8420604,5.47689838 60.6406555,4.1773227 76.2160178,3.28530544 C91.79138,2.39328817 107.458631,1.7189688 123.217772,1.26234735 C140.737481,-0.119404235 150.847826,-0.364817327 153.548805,0.526108071 C156.249785,1.41703347 157.57247,3.45541129 157.516861,6.64124154 L156.012793,13.9046308 C160.969972,12.7626901 164.655614,12.4306804 167.069721,12.9086016 C170.69088,13.6254834 170.61924,15.3754401 171.169855,16.9052778 C171.536932,17.9251696 171.474866,21.4809531 170.983656,27.5726283 C172.955262,27.9590524 174.256403,28.2996055 174.887079,28.5942875 C175.277858,28.7768782 176.398311,29.6614616 176.899008,30.5506007 C177.61042,31.813926 177.660791,33.2174387 177.660812,33.7553752 C177.660847,34.6719159 177.44739,44.4955732 176.579575,45.8046332 C176.001032,46.6773399 174.020853,47.1810867 170.639036,47.3158736 C171.729864,48.3246178 172.100686,50.3905405 171.751503,53.5136418 C171.227728,58.1982937 171.889813,60.4063248 168.903539,62.8382053 C166.912689,64.4594589 162.772058,65.496287 156.481646,65.9486895 L81.1723352,69.2490366 L12.4955759,71.0053328 C9.48943711,70.9528605 7.39545403,70.4342022 6.2136267,69.449358 Z M37.7227697,44.571987 C35.8585548,46.5086758 34.7158192,47.4770202 34.294563,47.4770202 C33.6166666,47.8043608 33.0589787,47.8043608 32.6214991,47.4770202 C32.1840194,47.1496797 31.9561598,46.3504033 31.93792,45.0791911 C31.9561598,43.1307004 32.1121602,41.5713498 32.4059214,40.4011393 C32.8465632,38.6458235 33.1232869,37.3748838 34.294563,34.7746873 C35.465839,32.1744908 37.5781347,28.5958824 38.1170788,27.7225472 C38.4763749,27.1403238 39.3517007,25.8563034 40.7430563,23.8704861 C41.6978741,22.5520873 42.2889711,21.7864781 42.5163473,21.5736586 C42.8574117,21.2544292 43.2216446,20.7502031 43.6691652,20.9157754 C43.9675123,21.0261569 44.0444127,21.4160746 43.8998663,22.0855285 L41.9987136,29.5337159 C41.7053925,30.5318357 41.7053925,31.1637366 41.9987136,31.4294185 C42.4386951,31.8279413 43.4390129,32.2397139 44.8734028,32.1375281 C46.3077926,32.0353422 48.3900129,31.8929832 49.3456762,30.9060212 C50.3013396,29.9190592 50.6504152,28.7394622 51.1466018,26.1861141 C51.6427885,23.632766 52.3188052,20.3734403 51.7327035,18.6225159 C51.1466018,16.8715914 48.2030323,14.9292304 47.0642379,14.2326482 C45.9254436,13.536066 44.1433535,13.536066 43.6691652,13.536066 C43.1949769,13.536066 41.257528,13.8953356 40.5483765,14.2326482 C39.8392251,14.5699609 38.1170788,16.0900635 36.8901561,17.1553842 C35.8296233,18.0762307 33.9755961,20.195864 33.4564499,20.9157754 C32.9373038,21.6356868 31.8050933,22.8868719 30.800363,24.3975886 C30.0314571,25.5537188 28.8979729,27.3617681 28.2203057,28.8733625 C27.5426385,30.3849569 26.036236,33.8290869 25.2842979,36.2603451 C24.5323598,38.6916032 23.9549483,41.3948256 23.539054,43.8674454 C23.1231596,46.3400652 23.0017597,49.4095007 25.678332,52.2677383 C28.3549043,55.1259759 30.2227855,55.5726613 31.5697332,55.5726613 C32.9166809,55.5726613 33.1918407,55.543 33.9755961,55.3882235 C35.0915746,55.1678392 36.3450252,54.8143254 36.8901561,54.4916964 C37.4352871,54.1690674 39.6718461,53.2004905 42.2743725,50.5486513 C43.0480121,49.7603527 44.2650358,48.2263898 45.9254436,45.9467625 C46.4524723,44.8127809 46.5947242,43.9003808 46.3521993,43.2095622 C45.9884121,42.1733345 43.9497736,38.4992613 42.7278004,39.0201884 C41.5058272,39.5411155 40.5190921,41.6669538 37.7227697,44.571987 Z M49.1287485,49.2020372 C48.9781132,50.541488 48.8533698,50.5806788 50.0920255,51.7576213 C50.917796,52.5422497 53.1725735,53.4807751 56.8563583,54.5731975 C58.3439702,48.8673317 59.2517966,45.7623435 59.5798374,45.2582328 C60.0718986,44.5020667 65.1899875,44.7889101 65.5768674,44.8018785 C65.9637472,44.8148468 66.2461145,44.8018785 66.2461145,45.481689 C66.2461145,46.1614996 65.3562078,51.1811234 65.5768674,52.3662762 C65.7975269,53.551429 70.9314878,56.1175017 71.8639501,56.4714125 C72.7964124,56.8253232 73.5103254,56.0004165 73.7652702,55.474138 C74.0202149,54.9478596 74.9023461,49.9514732 75.30015,43.362344 C75.6979539,36.7732148 75.6075424,34.5183793 75.30015,30.0507555 C74.9927576,25.5831318 74.9684064,17.85248 73.7652702,16.1857946 C72.5621339,14.5191093 67.2527787,13.6260174 66.7259701,13.5092458 C66.3747644,13.431398 66.1201853,13.7560231 65.962233,14.483121 L66.2461145,17.3040338 L63.2081715,16.1857946 C62.4068304,16.0654138 61.8855125,16.0654138 61.6442178,16.1857946 C61.4029232,16.3061755 60.917719,17.0656713 60.1886054,18.4642821 L56.4229933,27.5563379 L53.0460383,37.1280104 L49.1287485,37.5467343 C48.9287972,37.6762742 48.9287972,37.9875347 49.1287485,38.480516 C49.3286998,38.9734972 50.020438,40.1034132 51.2039631,41.8702638 C49.9209103,45.8651455 49.2291721,48.30907 49.1287485,49.2020372 Z M61.7089483,36.9895305 C61.4649748,36.7053182 62.8379485,32.5147425 63.6093083,30.4456696 C64.3806681,28.3765967 66.3577471,23.0337093 66.6700167,24.1835579 C66.8781964,24.9501237 67.0055545,29.035236 67.0520909,36.4388949 C67.0520909,36.8059853 66.820643,36.9895305 66.3577471,36.9895305 C65.6634032,36.9895305 61.9529218,37.2737428 61.7089483,36.9895305 Z M79.7902769,51.5707008 C79.9872111,52.1471532 82.2944221,53.4424605 86.7119101,55.4566228 C87.6859755,55.7187129 88.2330759,55.7187129 88.3532112,55.4566228 C88.5334142,55.0634876 88.8347125,55.1767893 88.9884474,52.6681406 C89.0909373,50.9957081 89.4861771,47.6572288 90.1741667,42.6527028 C90.4794158,40.2885862 90.9925966,37.578649 91.7137093,34.5228909 C92.7953784,29.9392539 94.365601,26.7016485 94.2083005,25.5578207 C94.051,24.4139929 90.4193745,23.598576 90.7331526,23.0369934 C90.9423381,22.6626049 94.4203201,22.6092838 101.167099,22.8770299 L103.409351,15.4465964 C103.409351,14.7697051 102.517159,14.4312594 100.732774,14.4312594 C98.056197,14.4312594 94.3566955,14.3436986 89.6719571,14.6179063 C84.9872187,14.8921139 80.9942359,14.8083846 80.2664297,15.7490081 C79.5386235,16.6896317 78.6147941,20.6861638 78.3228703,21.8150311 C78.0309465,22.9438985 77.6384006,23.9332815 78.0679256,24.2506085 C78.4974506,24.5679355 85.606281,23.3231214 85.7771584,23.598576 C85.9480359,23.8740307 84.8249799,26.8922863 84.3290887,28.7629743 C83.9984946,30.0100996 83.5580441,31.7710662 83.0077372,34.0458741 C82.0863708,37.7256285 81.4752714,40.4258959 81.174439,42.1466763 C80.7231903,44.7278469 79.4948756,50.7060223 79.7902769,51.5707008 Z M110.639198,44.3758781 C108.896702,46.3229202 107.821146,47.3035758 107.412528,47.3178451 C106.76609,47.6592249 106.225135,47.6781155 105.789662,47.3745168 C105.354188,47.0709182 105.106015,46.3011481 105.04514,45.0652064 C104.996645,43.169213 105.094996,41.6470855 105.340192,40.4988238 C105.707988,38.7764313 105.933236,37.5307634 106.981045,34.9617726 C108.028854,32.3927817 109.956213,28.8401748 110.449321,27.9723908 C110.778059,27.3938681 111.583506,26.1151996 112.865661,24.1363854 C113.747047,22.8215831 114.294402,22.0568218 114.507727,21.8421017 C114.827715,21.5200215 115.163892,21.0172028 115.60361,21.1631027 C115.896755,21.2603693 115.984593,21.6370532 115.867124,22.2931542 L114.276018,29.6027049 C114.025402,30.5835521 114.046867,31.1982276 114.340413,31.4467314 C114.780731,31.8194872 115.765024,32.1861512 117.152906,32.0381638 C118.540789,31.8901763 120.555701,31.6811669 121.449165,30.6887378 C122.34263,29.6963087 122.641163,28.5370429 123.035728,26.0364906 C123.430293,23.5359384 123.975312,20.3425618 123.347318,18.65922 C122.719324,16.9758781 119.798091,15.1861727 118.669802,14.5471534 C117.541513,13.9081342 115.812891,13.968499 115.352929,13.9845612 C114.892968,14.0006234 113.025853,14.4157267 112.349436,14.7678655 C111.673019,15.1200043 110.054179,16.6570039 108.900255,17.7348439 C107.902822,18.666512 106.176422,20.7911665 105.697307,21.5090384 C105.218191,22.2269104 104.162452,23.4823401 103.239184,24.9859085 C102.532619,26.1365683 101.494561,27.9337255 100.888573,29.4270691 C100.282585,30.9204126 98.9383717,34.3216836 98.2915811,36.712137 C97.6447905,39.1025905 97.1765284,41.7516828 96.8571042,44.1709876 C96.53768,46.5902924 96.5241876,49.5801684 99.2175456,52.269828 C101.910904,54.9594876 103.737916,55.3307257 105.044451,55.2851005 C106.350987,55.2394753 106.616883,55.2013021 107.371866,55.0241965 C108.446876,54.7720182 109.65071,54.3856828 110.168526,54.0533833 C110.686342,53.7210838 112.822897,52.7031509 115.257259,50.0354443 C115.98091,49.2424289 117.109312,47.7090569 118.642467,45.4353283 C119.115163,44.3144064 119.222153,43.4220595 118.963439,42.7582874 C118.575367,41.7626294 116.47309,38.2577648 115.305475,38.8058836 C114.13786,39.3540025 113.252942,41.4553149 110.639198,44.3758781 Z M131.815873,53.4924519 C131.999588,52.50301 133.316468,44.225791 133.316468,43.5878528 C133.316468,42.9499147 138.673462,42.6213669 138.822122,42.9499147 C138.921229,43.1689465 138.760409,44.5708961 138.339661,47.1557636 L137.63942,52.1355676 C137.494142,53.4965571 137.494142,54.3925715 137.63942,54.8236108 C137.784698,55.2546501 138.847539,55.977747 140.827944,56.9929016 C142.345639,57.8559837 143.529439,58.2875247 144.379342,58.2875247 C145.654196,58.2875247 146.000346,57.803666 146.000346,57.2962712 C146.000346,56.958008 146.000346,56.29626 146.000346,55.3110273 C146.134569,51.4701695 146.505397,47.70877 147.112832,44.0268287 C148.023984,38.5039169 148.179384,38.620641 149.612086,33.4186093 C150.567221,29.9505881 151.666816,26.4692501 152.910871,22.9745953 C153.344144,21.7391317 153.560781,20.9729765 153.560781,20.6761295 C153.560781,20.3792825 151.633633,19.1316404 147.779336,16.9332031 C147.126917,16.5411369 146.582696,16.4835282 146.146675,16.7603769 C145.492643,17.1756499 143.789226,22.5759966 143.156594,24.4997903 C141.879445,28.383522 140.447241,34.6412557 140.091223,34.9024792 C139.735206,35.1637027 135.27525,35.6847813 135.131115,35.3343396 C134.98698,34.9838978 135.655993,31.8362031 136.649263,28.6249048 C137.311444,26.4840393 138.458764,23.3750828 140.091223,19.2980353 C140.435299,18.3060858 140.435299,17.6348504 140.091223,17.2843291 C139.747147,16.9338078 137.939266,15.7632966 134.667579,13.7727955 C134.063778,13.3362803 133.551191,13.2511671 133.129819,13.5174561 C132.497761,13.9168895 132.189843,14.5341935 131.815873,15.5749504 C131.56656,16.2687883 130.635191,19.2437349 129.021766,24.4997903 C127.184903,31.78513 126.150678,35.5656868 125.919093,35.8414607 C125.571715,36.2551216 123.596339,36.4783042 123.127729,36.7140758 C122.659119,36.9498475 121.864874,37.0718044 122.041163,37.6028378 C122.144499,37.9141167 122.501818,38.5984575 123.127729,39.6429537 C123.569606,40.3803402 124.324137,41.4816562 124.432761,41.9482614 C124.695249,43.0758055 123.375954,48.0515043 123.127729,50.1973959 C122.962246,51.6279903 122.962246,52.4060504 123.127729,52.5315764 C124.767245,53.47228 126.433506,54.2362915 128.126511,54.8236108 C130.666019,55.7045897 130.942972,55.6160389 131.139769,55.3110273 C131.336566,55.0060157 131.632159,54.4818938 131.815873,53.4924519 Z" id="Combined-Shape" fill="url(#linearGradient-1)"></path>
                    <g id="Logo-eBay" transform="translate(113.000000, 73.000000)" fill="#BAB6BA">
                        <path d="M18.2435338,5.55464101 C20.1587563,5.55464101 21.4648126,6.72383527 21.4648126,8.47619527 L14.8569486,8.47619527 C14.8569486,6.61572311 16.5610588,5.55464101 18.2435338,5.55464101 Z M18.3261871,4.03197726 C15.1272196,4.03197726 12.461526,5.38405283 12.461526,9.463687 C12.461526,12.6954322 14.2540363,14.7301973 18.4083332,14.7301973 C23.2989031,14.7301973 23.6121065,11.5208492 23.6121065,11.5208492 L21.2423757,11.5208492 C21.2423757,11.5208492 20.7347936,13.2487913 18.2641549,13.2487913 C16.251912,13.2487913 14.8045508,11.894695 14.8045508,9.99633304 L23.8604042,9.99633304 L23.8604042,8.80524691 C23.8600662,6.92709286 22.6635381,4.03197726 18.3261871,4.03197726 Z" id="Fill-1"></path>
                        <path d="M30.7024159,5.53931671 C32.8730352,5.53931671 34.2539696,7.14483277 34.2539696,9.29932958 C34.2539696,11.6097639 32.6598947,13.1208081 30.7179662,13.1208081 C28.4006332,13.1208081 27.1505242,11.3179284 27.1505242,9.31970586 C27.1503552,7.45754972 28.2721742,5.53931671 30.7024159,5.53931671 Z M24.8375859,0 L24.8375859,12.5997816 C24.8375859,13.3148037 24.7862022,14.3193038 24.7862022,14.3193038 L27.0464048,14.3193038 C27.0464048,14.3193038 27.1273678,13.5978825 27.1273678,12.9387688 C27.1273678,12.9387688 28.2441161,14.6791724 31.2804815,14.6791724 C34.4772517,14.6791724 36.6490541,12.4677568 36.6490541,9.29932958 C36.6490541,6.35167348 34.6540519,3.98095236 31.2857213,3.98095236 C28.1305313,3.98095236 27.1501862,5.67824588 27.1501862,5.67824588 L27.1501862,0 L24.8375859,0 Z" id="Fill-4"></path>
                        <path d="M45.9295898,9.62821282 L45.9295898,10.2861477 C45.9295898,11.1449826 45.3986822,13.2797767 42.2669867,13.2797767 C40.5525659,13.2797767 39.8179832,12.4271726 39.8179832,11.4385021 C39.8179832,9.63983236 42.2931856,9.62821282 45.9295898,9.62821282 Z M43.2872217,4.03197726 C38.4742343,4.03197726 38.1655946,6.65748607 38.1655946,7.07713637 L40.5610172,7.07713637 C40.5610172,7.07713637 40.6864337,5.54403188 43.1217462,5.54403188 C44.7038204,5.54403188 45.9294208,6.26578999 45.9294208,7.65289255 L45.9294208,8.14663842 L43.1217462,8.14663842 C39.3933923,8.14663842 37.4223916,9.23331717 37.4223916,11.4383337 C37.4223916,13.6083232 39.2434672,14.789137 41.7044714,14.789137 C45.0586039,14.789137 46.1393499,12.9429787 46.1393499,12.9429787 C46.1393499,13.6771984 46.1958042,14.4009773 46.1958042,14.4009773 L48.3255194,14.4009773 C48.3255194,14.4009773 48.2428662,13.5040842 48.2428662,12.9298436 L48.2428662,7.96914588 C48.2428662,4.71651919 45.6096255,4.03197726 43.2872217,4.03197726 Z" id="Fill-5"></path>
                        <polyline id="Fill-7" points="47.9526982 4.44404961 50.6481402 4.44404961 54.5156017 12.1632914 58.3739358 4.44404961 60.8149951 4.44404961 53.7867658 18.187092 51.2258677 18.187092 53.2539989 14.3561831 47.9526982 4.44404961"></polyline>
                        <text id="by" font-family="Roboto-Medium, Roboto" font-size="8.469656" font-weight="400">
                            <tspan x="0" y="9.68399">by</tspan>
                        </text>
                    </g>
                </g>
                <text id="BETA" font-family="Roboto-Black, Roboto" font-size="10" font-weight="700" letter-spacing="1" fill="#FAB417">
                    <tspan x="198" y="14">BET</tspan>
                    <tspan x="218.861328" y="14" letter-spacing="1.058201">A</tspan>
                </text>
                <rect id="Rectangle-4" stroke="#F5A623" stroke-width="1.155" x="190.5775" y="2.5775" width="41.58" height="15.275"></rect>
            </g>
        </g>
    </g>
</svg>