<svg fill="none" height="164" viewBox="0 0 411 164" width="411" xmlns="http://www.w3.org/2000/svg"><path d="m304.573 123.541c.367-2.32 3.419-21.365 3.419-22.831 0-1.4646 12.33-2.1971 12.697-1.4645.244.4883-.122 3.7845-1.099 9.7665l-1.587 11.476c-.366 3.175-.366 5.25 0 6.227s2.808 2.686 7.325 5.005c3.54 1.954 6.226 3.053 8.18 3.053 2.93 0 3.784-1.099 3.784-2.32v-4.639c.367-8.913 1.221-17.581 2.564-26.127 2.076-12.8189 2.442-12.4526 5.738-24.5392 2.198-8.0577 4.762-16.1154 7.57-24.1731.976-2.808 1.465-4.6393 1.465-5.3719 0-.7325-4.395-3.5405-13.308-8.6681-1.465-.8546-2.808-1.0988-3.784-.3663-1.465.9767-5.494 13.4296-6.959 17.8247-2.93 8.9123-6.227 23.4406-7.081 24.051-.855.6105-11.11 1.8313-11.476.9767-.367-.8546 1.22-8.0577 3.54-15.505 1.587-5.0055 4.151-12.0865 7.936-21.6093.854-2.3196.854-3.7847 0-4.6393-.855-.8546-5.006-3.5405-12.575-8.0577-1.343-.9767-2.564-1.2209-3.541-.6104-1.465.9767-2.197 2.3196-3.052 4.7614-.61 1.5871-2.686 8.4239-6.471 20.6326-4.273 16.8479-6.592 25.5161-7.203 26.2486-.854.9767-5.371 1.465-6.47 2.0755-1.099.4883-2.93.8546-2.564 2.0754.244.7325 1.099 2.3197 2.564 4.7614.976 1.7092 2.808 4.273 3.052 5.3718.61 2.5638-2.442 14.1622-3.052 19.0452-.366 3.297-.366 5.128 0 5.372 3.784 2.198 7.691 3.907 11.598 5.25 5.86 2.075 6.471 1.831 6.959 1.099.732-.611 1.343-1.832 1.831-4.151zm-48.956-20.999c-4.029 4.517-6.471 6.715-7.448 6.837-1.465.732-2.686.854-3.784.122-.977-.733-1.588-2.442-1.71-5.372-.122-4.3952.122-7.9357.733-10.4995.855-4.0289 1.343-6.8369 3.785-12.8191 2.441-5.9823 6.836-14.1621 8.057-16.1154.733-1.343 2.564-4.2731 5.616-8.9124 2.076-3.0521 3.297-4.7613 3.785-5.2497.732-.7325 1.465-1.9534 2.564-1.5871.732.2442.854 1.0988.61 2.5638l-3.662 16.848c-.611 2.3196-.489 3.6625.122 4.273.976.8546 3.296 1.7092 6.47 1.3429 3.175-.3662 7.814-.8546 9.889-3.1742 2.076-2.3197 2.808-5.0056 3.663-10.7436.854-5.7381 2.197-13.1854.732-17.0921-1.465-3.9068-8.179-8.0578-10.865-9.5228-2.564-1.465-6.593-1.3429-7.692-1.3429s-5.372.9766-6.959 1.8313c-1.587.8546-5.249 4.3951-7.935 6.8368-2.32 2.1976-6.349 7.081-7.448 8.6681-1.098 1.7093-3.54 4.5172-5.738 8.0578-1.587 2.6859-4.028 6.8368-5.371 10.2552s-4.518 11.3541-5.983 16.848-2.564 11.5982-3.296 17.2139c-.733 5.616-.733 12.453 5.494 18.679 6.226 6.227 10.499 7.082 13.429 6.959 3.053-.122 3.663-.244 5.372-.61 2.442-.61 5.25-1.465 6.471-2.198 1.221-.732 6.104-3.174 11.72-9.278 1.709-1.831 4.273-5.372 7.814-10.622 1.098-2.563 1.343-4.639.732-6.2261-.854-2.3196-5.738-10.3773-8.424-9.1565-2.686 1.5872-4.761 6.4706-10.743 13.1856zm-71.299 16.604c.488 1.343 5.738 4.273 15.993 9.034 2.198.61 3.541.61 3.785 0 .366-.855 1.099-.61 1.465-6.471.244-3.906 1.099-11.598 2.686-23.1961.733-5.4939 1.831-11.7203 3.541-18.8013 2.441-10.6215 6.104-18.0688 5.738-20.7547-.367-2.6859-8.791-4.5172-8.058-5.8602.488-.8546 8.546-.9767 24.051-.3662l5.128-17.2142c0-1.5871-2.076-2.3197-6.227-2.3197-6.226 0-14.772-.2441-25.516.4884-10.866.6104-20.022.4883-21.731 2.5638-1.71 2.1976-3.785 11.354-4.518 14.0399-.732 2.5639-1.587 4.8835-.61 5.616s17.458-2.1975 17.825-1.465c.366.6104-2.198 7.5694-3.297 11.9645-.732 2.9301-1.831 6.9589-3.052 12.2086-2.075 8.5461-3.54 14.7725-4.273 18.6793-.732 5.9819-3.662 19.8999-2.93 21.8539zm-41.754-33.6963c-.61-.6105 2.564-10.3774 4.396-15.1388 1.831-4.7613 6.348-17.0921 7.081-14.4062.488 1.8313.732 11.232.854 28.3241 0 .8546-.488 1.2209-1.587 1.2209-1.587 0-10.255.6104-10.744 0zm-29.056 28.2023c-.366 3.052-.611 3.174 2.197 5.86 1.954 1.831 7.081 4.029 15.627 6.47 3.419-13.185 5.494-20.388 6.349-21.487 1.099-1.709 12.941-1.099 13.918-1.099.854 0 1.587 0 1.587 1.588 0 1.587-2.075 13.185-1.587 15.871s12.331 8.668 14.528 9.523c2.198.854 3.785-1.099 4.395-2.32.611-1.221 2.686-12.819 3.541-27.958.976-15.2608.732-20.3884 0-30.7658-.733-10.3773-.733-28.2019-3.541-31.9866-2.808-3.9068-15.016-5.8602-16.237-6.2264-.855-.1221-1.343.6104-1.709 2.1975l.61 6.4706-6.959-2.5638c-1.831-.2442-3.052-.2442-3.663 0-.61.2442-1.709 2.0755-3.418 5.2497l-8.668 20.9989-7.814 22.0977-9.156 1.2208c-.488.2442-.488.9767 0 2.1976.488 1.0988 2.075 3.7847 4.761 7.8135-2.93 9.1563-4.517 14.7723-4.761 16.8483zm-26.3708-10.744c-4.2731 4.517-6.959 6.715-7.9357 6.715-1.5871.732-2.8079.732-3.9067 0-.9767-.733-1.5872-2.564-1.5872-5.494 0-4.5173.3663-8.0578 1.0988-10.8658.9767-4.0288 1.7092-6.9589 4.3951-12.9412 2.686-5.9822 7.5694-14.2841 8.7903-16.2375.8546-1.3429 2.808-4.273 6.1043-8.9123 2.1976-3.0522 3.5405-4.7614 4.1509-5.2497.7326-.7325 1.5872-1.9534 2.686-1.465.732.2441.855 1.0987.488 2.6859l-4.3948 17.2142c-.7325 2.3196-.7325 3.7846 0 4.3951.9767.9767 3.2968 1.8313 6.5928 1.5871s8.18-.6104 10.377-2.808c2.198-2.3196 3.052-5.0055 4.151-10.8657 1.099-5.8601 2.686-13.4295 1.343-17.4584-1.343-4.0288-8.18-8.546-10.744-10.1332-2.685-1.5871-6.714-1.5871-7.813-1.5871-1.0988 0-5.616.8546-7.2032 1.5871-1.5871.7326-5.6159 4.2731-8.4239 6.7148-2.4418 2.0755-6.7148 7.081-7.9357 8.6682-1.2208 1.7092-3.7846 4.5172-6.1043 8.0577-1.8313 2.6859-4.3951 6.8368-5.9822 10.3773s-5.0056 11.4762-6.8369 17.0921c-1.7092 5.616-3.0521 11.8424-4.0288 17.5804s-1.2209 12.819 4.8834 19.412c6.2264 6.593 10.4995 7.691 13.6737 7.691 3.0522 0 3.7847-.122 5.616-.366 2.5638-.488 5.4939-1.343 6.7148-2.075 1.2208-.733 6.4706-2.931 12.4528-9.157 1.8313-1.831 4.6393-5.372 8.4243-10.621 1.221-2.564 1.587-4.762.976-6.349-.854-2.4417-5.494-10.8656-8.4236-9.6448-2.808.8546-5.1276 5.8602-11.5982 12.4528zm-72.7636 57.503c-4.1509-3.419-4.273-12.819-2.6859-21.854 1.5871-9.034 6.4706-14.772 9.7669-17.702 2.1976-1.954 7.081-3.174 14.4062-3.541-1.8313-5.738-2.4417-10.499-1.9534-14.284.4884-3.7846 2.4418-7.5692 5.616-11.2318-7.3252.8546-13.1853.7325-17.5804-.3663-6.7148-1.5871-6.4706-.1221-9.4007-6.1043-2.93008-6.1043-2.68591-9.5228-2.56382-14.04 0-2.93 1.09882-5.8601 3.05212-8.7902-4.88342-.3663-8.30184-3.4184-10.4994-8.9123-3.296333-8.3019-3.05216-10.7436-1.09878-17.4584 1.8313-6.7147 1.58713-8.3019 9.52278-12.8191 5.2497-3.0521 16.97-5.2497 34.9167-6.7147 50.9101-3.9068 94.3731-6.95896 130.2661-9.03444 36.016-2.07547 72.153-3.66259 108.657-4.63928 40.533-3.174252 63.852-3.784686 70.078-1.70921 6.226 2.07547 9.279 6.71475 9.156 14.16203l-3.418 16.7259c11.476-2.6859 20.022-3.4185 25.516-2.3197 8.424 1.7092 8.18 5.7381 9.523 9.2786.854 2.3196.732 10.6215-.489 24.6615 4.518.8546 7.57 1.7092 9.035 2.3196.855.3663 3.54 2.4417 4.639 4.5172 1.587 2.9301 1.709 6.1043 1.709 7.4473 0 2.0755-.488 24.7836-2.441 27.8356-1.343 2.076-5.861 3.174-13.674 3.541 2.564 2.319 3.418 7.081 2.564 14.284-1.221 10.865.366 15.871-6.593 21.487-4.639 3.785-14.162 6.104-28.69 7.203l-173.974 7.569-158.712 4.029c-7.081 0-11.9645-1.221-14.6504-3.54z" fill="#fab60d"/><script xmlns=""/></svg>