<svg width="123" height="59" viewBox="0 0 123 59" fill="none" xmlns="http://www.w3.org/2000/svg">
<path fill-rule="evenodd" clip-rule="evenodd" d="M91.04 52.7488C91.9877 52.7488 92.634 53.3273 92.634 54.1945H89.3641C89.3641 53.2738 90.2074 52.7488 91.04 52.7488ZM91.0809 51.9952C89.4978 51.9952 88.1787 52.6643 88.1787 54.6832C88.1787 56.2824 89.0657 57.2893 91.1215 57.2893C93.5417 57.2893 93.6966 55.7012 93.6966 55.7012H92.524C92.524 55.7012 92.2728 56.5562 91.0502 56.5562C90.0544 56.5562 89.3382 55.8862 89.3382 54.9467H93.8195V54.3573C93.8194 53.4279 93.2272 51.9952 91.0809 51.9952V51.9952Z" fill="#BAB6BA"/>
<path fill-rule="evenodd" clip-rule="evenodd" d="M97.2055 52.7412C98.2796 52.7412 98.963 53.5357 98.963 54.6018C98.963 55.7452 98.1741 56.4929 97.2132 56.4929C96.0664 56.4929 95.4478 55.6008 95.4478 54.6119C95.4477 53.6904 96.0028 52.7412 97.2055 52.7412ZM94.3033 50V56.2351C94.3033 56.5889 94.2778 57.086 94.2778 57.086H95.3963C95.3963 57.086 95.4364 56.729 95.4364 56.4028C95.4364 56.4028 95.989 57.2641 97.4916 57.2641C99.0735 57.2641 100.148 56.1698 100.148 54.6018C100.148 53.1432 99.161 51.97 97.4942 51.97C95.9328 51.97 95.4477 52.8099 95.4477 52.8099V50H94.3033V50Z" fill="#BAB6BA"/>
<path fill-rule="evenodd" clip-rule="evenodd" d="M104.741 54.7646V55.0902C104.741 55.5152 104.478 56.5716 102.928 56.5716C102.08 56.5716 101.716 56.1497 101.716 55.6604C101.716 54.7703 102.941 54.7646 104.741 54.7646ZM103.433 51.9952C101.051 51.9952 100.899 53.2945 100.899 53.5022H102.084C102.084 53.5022 102.146 52.7435 103.351 52.7435C104.134 52.7435 104.741 53.1007 104.741 53.7871V54.0314H103.351C101.506 54.0314 100.531 54.5692 100.531 55.6603C100.531 56.7342 101.432 57.3185 102.65 57.3185C104.31 57.3185 104.844 56.4049 104.844 56.4049C104.844 56.7682 104.872 57.1264 104.872 57.1264H105.926C105.926 57.1264 105.885 56.6826 105.885 56.3984V53.9436C105.885 52.334 104.582 51.9952 103.433 51.9952V51.9952Z" fill="#BAB6BA"/>
<path fill-rule="evenodd" clip-rule="evenodd" d="M105.742 52.1992H107.076L108.989 56.0191L110.899 52.1992H112.107L108.629 59H107.361L108.365 57.1042L105.742 52.1992" fill="#BAB6BA"/>
<path d="M80.3067 54.0905C80.5942 53.8416 80.9311 53.7172 81.3173 53.7172C81.5876 53.7172 81.8387 53.7794 82.0704 53.9038C82.3064 54.0283 82.4953 54.2171 82.6369 54.4703C82.7785 54.7235 82.8493 55.0303 82.8493 55.3908C82.8493 55.7512 82.7742 56.0581 82.624 56.3112C82.4781 56.5601 82.2893 56.749 82.0575 56.8777C81.8258 57.0021 81.5855 57.0644 81.3366 57.0644C80.9161 57.0644 80.5728 56.927 80.3067 56.6524V57H79.4055V52.301H80.3067V54.0905ZM80.3067 55.5453C80.3067 55.777 80.3839 55.9637 80.5384 56.1053C80.6929 56.2469 80.8774 56.3177 81.092 56.3177C81.3409 56.3177 81.5426 56.2361 81.6971 56.0731C81.8559 55.91 81.9352 55.6826 81.9352 55.3908C81.9352 55.099 81.858 54.8715 81.7035 54.7084C81.549 54.5454 81.3495 54.4638 81.1049 54.4638C80.8774 54.4638 80.6865 54.5347 80.532 54.6763C80.3818 54.8179 80.3067 55.0045 80.3067 55.2363V55.5453ZM86.4646 53.7815L84.6365 58.2874H83.6968L84.2503 56.9163L82.9243 53.7815H83.98L84.6365 55.3843L84.6687 55.8027H84.7202L85.512 53.7815H86.4646Z" fill="#BAB6BA"/>
<path fill-rule="evenodd" clip-rule="evenodd" d="M4.30228 48.0802C3.07496 47.0575 3.01714 44.2291 3.50348 41.5231C3.98981 38.8171 5.43635 37.0857 6.43593 36.2084C7.10232 35.6235 8.5417 35.2739 10.754 35.1596C10.2045 33.432 10.0119 32.0028 10.1763 30.8721C10.3407 29.7414 10.9039 28.622 11.8658 27.514C9.68817 27.7737 7.92933 27.743 6.5893 27.4219C6.17175 27.3219 5.84458 27.262 5.58034 27.2136L5.58032 27.2136C4.57256 27.029 4.48031 27.0121 3.78181 25.5772C2.948 23.8643 2.96838 22.8308 2.99274 21.5949C2.99414 21.524 2.99555 21.4524 2.99682 21.38C3.01235 20.4904 3.31382 19.6085 3.90125 18.7345C2.4513 18.6158 1.40099 17.7252 0.750336 16.0628C-0.225653 13.5692 -0.147807 12.8298 0.40542 10.8167C0.455819 10.6333 0.501019 10.4626 0.543336 10.3028C0.965531 8.7084 1.10073 8.19785 3.24829 6.97317C4.8235 6.07488 8.31491 5.40788 13.7225 4.97217C28.9688 3.79027 41.9836 2.89054 52.7669 2.27297C63.5502 1.6554 74.397 1.18855 85.3075 0.87242C97.4369 -0.0842058 104.437 -0.254112 106.307 0.362701C108.177 0.979513 109.092 2.39074 109.054 4.59638L108.012 9.62503C111.444 8.83443 113.996 8.60457 115.667 8.93545C117.807 9.35897 118.084 10.3033 118.357 11.2293L118.357 11.2294C118.404 11.3885 118.45 11.5471 118.506 11.7025C118.76 12.4086 118.717 14.8703 118.377 19.0878C119.742 19.3553 120.643 19.5911 121.08 19.7951C121.35 19.9215 122.126 20.5339 122.473 21.1495C122.965 22.0241 123 22.9958 123 23.3683C123 24.0028 122.852 30.804 122.251 31.7103C121.851 32.3145 120.48 32.6633 118.139 32.7566C118.894 33.455 119.151 34.8853 118.909 37.0475C118.829 37.7631 118.789 38.3952 118.753 38.964V38.9641C118.625 40.973 118.548 42.191 116.937 43.5031C115.559 44.6256 112.692 45.3434 108.337 45.6566L56.1983 47.9415L8.65145 49.1575C6.57021 49.1211 5.12049 48.762 4.30228 48.0802ZM26.117 30.8569C24.8263 32.1977 24.0352 32.8681 23.7435 32.8681C23.2742 33.0948 22.8881 33.0948 22.5852 32.8681C22.2823 32.6415 22.1246 32.0882 22.112 31.2081C22.1246 29.8591 22.2326 28.7795 22.436 27.9693L22.4997 27.7144L22.4997 27.7143C22.7715 26.6241 22.9904 25.746 23.7435 24.074C24.5544 22.2738 26.0168 19.7962 26.39 19.1916C26.6387 18.7885 27.2447 17.8995 28.208 16.5247C28.869 15.6119 29.2783 15.0819 29.4357 14.9345C29.4773 14.8956 29.5194 14.8527 29.5622 14.809C29.7625 14.6049 29.9786 14.3846 30.2338 14.479C30.4404 14.5555 30.4936 14.8254 30.3935 15.2889L29.0773 20.4455C28.8742 21.1365 28.8742 21.574 29.0773 21.7579C29.3819 22.0338 30.0745 22.3189 31.0676 22.2482L31.0867 22.2468C32.079 22.1761 33.5064 22.0745 34.1638 21.3956C34.8255 20.7123 35.0671 19.8956 35.4107 18.1278L35.4542 17.9041C35.7917 16.1736 36.2053 14.053 35.8164 12.8914C35.4107 11.6791 33.3727 10.3344 32.5843 9.85212C31.7959 9.36986 30.5621 9.36986 30.2338 9.36986C29.9055 9.36986 28.5642 9.61859 28.0732 9.85212C27.6185 10.0684 26.5623 10.987 25.734 11.7075L25.5405 11.8756C24.8063 12.5131 23.5227 13.9806 23.1633 14.479C23.0371 14.654 22.8587 14.8742 22.6501 15.1316L22.6501 15.1317C22.2645 15.6077 21.7758 16.2108 21.3244 16.8896C20.7921 17.69 20.0073 18.9418 19.5381 19.9883C19.069 21.0348 18.026 23.4193 17.5055 25.1025C16.9849 26.7857 16.5851 28.6573 16.2972 30.3691C16.0092 32.081 15.9252 34.2061 17.7783 36.1849C19.6313 38.1637 20.9245 38.473 21.857 38.473C22.7896 38.473 22.9801 38.4524 23.5227 38.3453C24.2953 38.1927 25.1631 37.948 25.5405 37.7246C25.5939 37.693 25.6706 37.6525 25.7682 37.601L25.7688 37.6007L25.7693 37.6004L25.7694 37.6004C26.3626 37.2874 27.7221 36.57 29.2682 34.9947C29.8038 34.449 30.6464 33.3869 31.7959 31.8087C32.1608 31.0236 32.2593 30.3919 32.0914 29.9137C31.8395 29.1962 30.4281 26.6526 29.5821 27.0132C29.1154 27.2122 28.6983 27.7492 28.0931 28.5284C27.6012 29.1618 26.985 29.9551 26.117 30.8569ZM33.9894 34.2686C33.9971 34.2051 34.0053 34.1366 34.0136 34.0624C34.0832 33.4442 34.5621 31.7522 35.4504 28.9864C34.631 27.7632 34.1521 26.9809 34.0136 26.6396C33.8752 26.2983 33.8752 26.0828 34.0136 25.9931L36.7257 25.7032L39.0637 19.0765L41.6707 12.7818C42.1755 11.8135 42.5114 11.2877 42.6785 11.2043C42.8455 11.121 43.2064 11.121 43.7612 11.2043L45.8645 11.9785L45.6679 10.0255C45.7773 9.52215 45.9535 9.2974 46.1967 9.3513C46.2296 9.35859 46.2894 9.37025 46.3717 9.38629C47.2013 9.54803 50.3124 10.1545 51.0702 11.2043C51.7121 12.0936 51.8694 15.4761 52.0051 18.3966V18.3966L52.0051 18.3967L52.0051 18.3969L52.0052 18.3971L52.0052 18.3972C52.0456 19.2662 52.084 20.0942 52.1328 20.8035C52.3457 23.8965 52.4083 25.4576 52.1328 30.0194C51.8574 34.5813 51.2467 38.0404 51.0702 38.4048C50.8937 38.7691 50.3994 39.3402 49.7539 39.0952C49.1083 38.8502 45.5539 37.0736 45.4011 36.2531C45.299 35.7044 45.5407 33.9686 45.712 32.7379L45.712 32.7379C45.7969 32.1283 45.8645 31.6426 45.8645 31.4867C45.8645 31.0308 45.681 31.025 45.426 31.0169L45.4011 31.0161C45.3826 31.0154 45.3482 31.0139 45.3002 31.0118C44.6569 30.983 41.5663 30.8448 41.2492 31.332C41.0221 31.681 40.3936 33.8307 39.3637 37.781C36.8133 37.0247 35.2523 36.375 34.6805 35.8317C33.8916 35.0821 33.9016 34.9991 33.9894 34.2686ZM42.7232 25.6073C42.5543 25.4106 43.5048 22.5093 44.0389 21.0768L44.0696 20.9944L44.0696 20.9943C44.6236 19.5078 45.9457 15.9602 46.1579 16.7414C46.302 17.2721 46.3902 20.1004 46.4224 25.2261C46.4224 25.4803 46.2622 25.6073 45.9417 25.6073C45.8196 25.6073 45.5629 25.62 45.2451 25.6357C44.3111 25.6819 42.8492 25.7542 42.7232 25.6073ZM60.0335 38.3927C56.9751 36.9982 55.3778 36.1014 55.2414 35.7023C55.0782 35.2246 55.5868 32.4922 55.9577 30.4998L55.9579 30.4989C56.0517 29.995 56.1367 29.5385 56.1997 29.1778C56.408 27.9865 56.8311 26.117 57.469 23.5694C57.8499 21.9945 58.1549 20.7753 58.3838 19.9119C58.5155 19.4149 58.7112 18.8009 58.8957 18.2221L58.8957 18.222L58.8957 18.222C59.1919 17.2926 59.4592 16.4539 59.3863 16.3364C59.3305 16.2464 58.205 16.3908 57.0006 16.5453C55.6527 16.7183 54.206 16.9039 54.049 16.7878C53.8054 16.6079 53.9437 16.1157 54.1128 15.514C54.1501 15.3812 54.1889 15.243 54.2255 15.1016C54.2513 15.0018 54.2842 14.8696 54.3231 14.7136C54.5887 13.6479 55.1315 11.47 55.5711 10.9019C55.9642 10.3938 57.7338 10.3175 60.0333 10.2182L60.0334 10.2182C60.6808 10.1903 61.3702 10.1606 62.0828 10.1189C64.735 9.96361 66.9311 9.97586 68.6568 9.98548L68.6572 9.98548C69.0417 9.98762 69.4029 9.98963 69.7405 9.98963C70.9759 9.98963 71.5936 10.2239 71.5936 10.6926L70.0412 15.8369C65.3702 15.6515 62.9623 15.6884 62.8175 15.9476C62.7201 16.1219 63.1717 16.3316 63.7095 16.5812C64.3712 16.8883 65.1633 17.256 65.2234 17.6929C65.2804 18.1073 65.0098 18.9189 64.6315 20.0532C64.287 21.0863 63.8533 22.3871 63.4963 23.8996C62.9971 26.0152 62.6418 27.8914 62.4305 29.5281C61.9542 32.9929 61.6805 35.3042 61.6096 36.4621C61.5238 37.8623 61.3716 38.0827 61.2504 38.2581C61.2213 38.3003 61.194 38.3399 61.1698 38.3927C61.0866 38.5741 60.7078 38.5741 60.0335 38.3927ZM76.599 30.7211C75.3926 32.0691 74.648 32.7481 74.3651 32.7579C73.9175 32.9943 73.543 33.0074 73.2415 32.7972C72.94 32.587 72.7682 32.0541 72.7261 31.1984C72.6925 29.8857 72.7606 28.8319 72.9303 28.0369L72.9835 27.7868C73.2101 26.717 73.3926 25.8554 74.0663 24.2035C74.7918 22.4249 76.1261 19.9653 76.4675 19.3645C76.6951 18.964 77.2528 18.0788 78.1404 16.7088C78.7506 15.7985 79.1296 15.269 79.2773 15.1204C79.3163 15.0811 79.3557 15.0379 79.3957 14.994C79.583 14.7887 79.7852 14.5671 80.036 14.6503C80.2389 14.7176 80.2998 14.9784 80.2184 15.4326L79.1169 20.4933C78.9434 21.1723 78.9582 21.5979 79.1614 21.7699C79.4663 22.028 80.1477 22.2818 81.1086 22.1794L81.1271 22.1774C82.0873 22.0751 83.4684 21.9278 84.083 21.2451C84.7016 20.5581 84.9083 19.7555 85.1815 18.0243L85.2161 17.8051C85.4847 16.1104 85.8138 14.0336 85.3972 12.9168C84.9624 11.7513 82.9399 10.5123 82.1588 10.0699C81.3777 9.62746 80.1809 9.66926 79.8624 9.68038C79.544 9.6915 78.2513 9.97888 77.783 10.2227C77.3493 10.4485 76.3561 11.3778 75.5771 12.1066L75.5771 12.1066L75.3951 12.2768C74.7045 12.9218 73.5093 14.3928 73.1776 14.8898C73.0612 15.0642 72.8957 15.2843 72.7022 15.5417L72.702 15.542L72.7019 15.5421C72.344 16.0182 71.8906 16.6214 71.4758 17.2969C70.9866 18.0936 70.2679 19.3378 69.8484 20.3717C69.4288 21.4055 68.4982 23.7603 68.0504 25.4153C67.6026 27.0703 67.2784 28.9043 67.0573 30.5793C66.8361 32.2542 66.8268 34.3242 68.6915 36.1863C70.5561 38.0485 71.821 38.3055 72.7256 38.2739C73.6301 38.2423 73.8142 38.2159 74.3369 38.0933C75.0812 37.9187 75.9146 37.6512 76.2731 37.4212C76.324 37.3885 76.3975 37.3463 76.4909 37.2926C77.0557 36.968 78.3501 36.2242 79.7962 34.6394C80.2972 34.0904 81.0784 33.0288 82.1399 31.4546C82.4671 30.6786 82.5412 30.0608 82.3621 29.6012C82.0934 28.9119 80.638 26.4854 79.8296 26.8649C79.3837 27.0742 78.9973 27.6108 78.4367 28.3892C77.9811 29.022 77.4104 29.8145 76.599 30.7211ZM92.2992 30.1756C92.2992 30.6172 91.3874 36.3478 91.2603 37.0328C91.1331 37.7178 90.9284 38.0807 90.7922 38.2918C90.6559 38.503 90.4642 38.5643 88.706 37.9544C87.5339 37.5478 86.3803 37.0188 85.2452 36.3675C85.1306 36.2806 85.1306 35.742 85.2452 34.7515C85.311 34.183 85.4853 33.3276 85.6653 32.4444C85.9557 31.0196 86.2609 29.5223 86.1487 29.0404C86.0926 28.7993 85.7874 28.3135 85.509 27.8704C85.4144 27.7197 85.3228 27.5739 85.2452 27.4444C84.8119 26.7213 84.5645 26.2475 84.493 26.032C84.3995 25.7503 84.7002 25.6349 84.9919 25.5229C85.081 25.4887 85.1693 25.4548 85.2452 25.4166C85.3703 25.3537 85.6503 25.2921 85.961 25.2237C86.4565 25.1147 87.0299 24.9885 87.1777 24.8125C87.3381 24.6216 88.0541 22.0042 89.3258 16.9603C90.4428 13.3214 91.0876 11.2618 91.2603 10.7814C91.5192 10.0609 91.7323 9.63351 92.1699 9.35697C92.4617 9.17261 92.8165 9.23153 93.2346 9.53375C95.4996 10.9118 96.7513 11.7222 96.9895 11.9649C97.2277 12.2076 97.2277 12.6723 96.9895 13.359C95.8593 16.1817 95.065 18.3341 94.6065 19.8163C93.9189 22.0396 93.4557 24.2188 93.5555 24.4614C93.6553 24.704 96.743 24.3433 96.9895 24.1624C97.1195 24.0671 97.4566 22.8173 97.876 21.2628C98.2519 19.8694 98.6938 18.2313 99.1118 16.9603C99.1542 16.8312 99.2036 16.6795 99.2587 16.5105C99.7715 14.9361 100.773 11.8618 101.182 11.6021C101.484 11.4105 101.861 11.4503 102.312 11.7218C104.981 13.2438 106.315 14.1076 106.315 14.3131C106.315 14.5186 106.165 15.0491 105.865 15.9044C105.004 18.3239 104.242 20.7341 103.581 23.1351C103.362 23.9298 103.186 24.5451 103.039 25.0627C102.516 26.891 102.342 27.4995 101.851 30.4795C101.43 33.0286 101.173 35.6327 101.081 38.2918V39.6663C101.081 40.0176 100.841 40.3525 99.9583 40.3525C99.3699 40.3525 98.5503 40.0538 97.4996 39.4562C96.1285 38.7534 95.3926 38.2528 95.2921 37.9544C95.1915 37.656 95.1915 37.0356 95.2921 36.0934L95.7769 32.6457C96.0682 30.8561 96.1795 29.8855 96.1109 29.7339C96.008 29.5064 92.2992 29.7339 92.2992 30.1756Z" fill="url(#paint0_linear)"/>
<defs>
<linearGradient id="paint0_linear" x1="14.6115" y1="3.6368" x2="5.14414" y2="66.4756" gradientUnits="userSpaceOnUse">
<stop stop-color="#FCCB16"/>
<stop offset="1" stop-color="#F76B1C"/>
</linearGradient>
</defs>
</svg>
