<?xml version="1.0" encoding="UTF-8"?>
<svg width="18px" height="18px" viewBox="0 0 18 18" version="1.1" xmlns="http://www.w3.org/2000/svg" xmlns:xlink="http://www.w3.org/1999/xlink">
    <!-- Generator: sketchtool 51 (57462) - http://www.bohemiancoding.com/sketch -->
    <title>000BC720-0FBE-4CEF-AC18-1FA351517686</title>
    <desc>Created with sketchtool.</desc>
    <defs></defs>
    <g id="Page-1" stroke="none" stroke-width="1" fill="none" fill-rule="evenodd">
        <g id="POP-DESKTOP-New-Main---warenkorb-with-item" transform="translate(-1287.000000, -26.000000)">
            <rect fill="#FFFFFF" x="0" y="0" width="1440" height="2511"></rect>
            <g id="Group" fill="#000000">
                <g id="cart" transform="translate(1287.000000, 26.000000)">
                    <g id="Shopping-Cart">
                        <path d="M3.80496538,2.78171001 L17.0595404,3.59447983 C17.518345,3.62006621 17.8213354,4.00988405 17.7375184,4.45857817 L16.6527612,10.2655632 C16.5683935,10.7172052 16.1273593,11.0833333 15.6674109,11.0833333 L5.72155377,11.0833333 L5.91394469,11.9166667 L15.25,11.9166667 C15.7102373,11.9166667 16.0833333,12.2897627 16.0833333,12.75 C16.0833333,13.2102373 15.7102373,13.5833333 15.25,13.5833333 L5.25,13.5833333 C4.86195335,13.5833333 4.52526332,13.3154922 4.43800734,12.9373829 L2.02757814,2.49218975 L0.724535433,1.83758717 C0.312691773,1.63215308 0.145363755,1.13175059 0.350797843,0.719906933 C0.556231932,0.308063274 1.05663442,0.140735256 1.46847808,0.346169344 L3.12197132,1.17095776 C3.34465005,1.2820334 3.5060376,1.48681179 3.56199266,1.72928374 L3.80496538,2.78171001 Z M15.1159075,9.41630748 L15.9050909,5.19160482 L4.19597848,4.4753671 L5.33677118,9.41666348 L15.1159075,9.41630748 Z M13.5833333,17.75 C12.6628588,17.75 11.9166667,17.0038079 11.9166667,16.0833333 C11.9166667,15.1628588 12.6628588,14.4166667 13.5833333,14.4166667 C14.5038079,14.4166667 15.25,15.1628588 15.25,16.0833333 C15.25,17.0038079 14.5038079,17.75 13.5833333,17.75 Z M6.08333333,17.75 C5.16285875,17.75 4.41666667,17.0038079 4.41666667,16.0833333 C4.41666667,15.1628588 5.16285875,14.4166667 6.08333333,14.4166667 C7.00380792,14.4166667 7.75,15.1628588 7.75,16.0833333 C7.75,17.0038079 7.00380792,17.75 6.08333333,17.75 Z" id="cart"></path>
                    </g>
                </g>
            </g>
        </g>
    </g>
</svg>