<svg width="18" height="16" viewBox="0 0 18 16" fill="none" xmlns="http://www.w3.org/2000/svg">
<path fill-rule="evenodd" clip-rule="evenodd" d="M13.0018 0C14.3375 0 15.593 0.528015 16.5375 1.48753C18.4875 3.46858 18.4875 6.69183 16.5375 8.67211L9.55064 15.7701C9.40011 15.9234 9.20213 16 9.00448 16C8.95427 16 8.90416 15.9954 8.85433 15.9854C8.70575 15.9579 8.56353 15.8866 8.44929 15.7701L1.4624 8.67211C-0.487465 6.69183 -0.487465 3.46858 1.4624 1.48753C2.40681 0.528015 3.66287 0 4.99845 0C6.33408 0 7.59005 0.528015 8.53455 1.48753L8.99997 1.96044L9.46538 1.48753C10.4102 0.528015 11.6659 0 13.0018 0ZM9.00002 14.1102L15.4452 7.56246C16.7928 6.19369 16.7928 3.96673 15.4452 2.59727C14.7926 1.93429 13.9248 1.56962 13.0018 1.56962C12.0785 1.56962 11.2106 1.93429 10.5581 2.59727L9.54646 3.6257C9.25642 3.91997 8.74389 3.91997 8.4538 3.6257L7.4418 2.59727C6.78933 1.93429 5.92144 1.56962 4.99845 1.56962C4.07556 1.56962 3.20743 1.93429 2.55472 2.59727C1.20722 3.96673 1.20722 6.19374 2.55472 7.56246L9.00002 14.1102Z" fill="#4A4A4A"/>
</svg>
