<?xml version="1.0" encoding="UTF-8"?>
<svg width="19px" height="20px" viewBox="0 0 19 20" version="1.1" xmlns="http://www.w3.org/2000/svg" xmlns:xlink="http://www.w3.org/1999/xlink">
    <!-- Generator: Sketch 49 (51002) - http://www.bohemiancoding.com/sketch -->
    <title>Group</title>
    <desc>Created with Sketch.</desc>
    <defs></defs>
    <g id="Page-1" stroke="none" stroke-width="1" fill="none" fill-rule="evenodd">
        <g id="Main-page" transform="translate(-711.000000, -1636.000000)" fill="#4A4A4A">
            <g id="Group-6" transform="translate(658.000000, 1635.000000)">
                <g id="Group" transform="translate(53.000000, 0.000000)">
                    <path d="M4.38915079,15.2113846 C3.89756349,15.2113846 3.47986508,15.3867692 3.13590476,15.7378462 C2.79194444,16.0889231 2.61988889,16.5150769 2.61988889,17.0166154 C2.61988889,17.5181538 2.79179365,17.9441538 3.13590476,18.2953846 C3.48001587,18.6463077 3.89771429,18.8218462 4.38915079,18.8218462 C4.87244444,18.8218462 5.28803175,18.6463077 5.63621429,18.2953846 C5.98424603,17.9446154 6.1582619,17.5181538 6.1582619,17.0166154 C6.1582619,16.5150769 5.98424603,16.0892308 5.63621429,15.7378462 C5.28803175,15.3870769 4.87244444,15.2113846 4.38915079,15.2113846 L4.38915079,15.2113846 Z" id="Shape"></path>
                    <path d="M3.99603175,11.4010769 C3.99603175,10.8495385 3.80361905,10.3775385 3.41864286,9.98446154 C3.03366667,9.59169231 2.57088095,9.39538462 2.03028571,9.39538462 C1.48969048,9.39538462 1.02690476,9.59169231 0.641928571,9.98446154 C0.256952381,10.3772308 0.0645396825,10.8493846 0.0645396825,11.4010769 C0.0645396825,11.9524615 0.256952381,12.4243077 0.641928571,12.8172308 C1.02690476,13.2101538 1.48969048,13.4064615 2.03028571,13.4064615 C2.57088095,13.4064615 3.03366667,13.2101538 3.41864286,12.8172308 C3.80361905,12.4246154 3.99603175,11.9524615 3.99603175,11.4010769 L3.99603175,11.4010769 Z" id="Shape"></path>
                    <path d="M15.3970873,6.78861538 C15.6671587,6.78861538 15.8989286,6.69030769 16.0911905,6.494 C16.2836032,6.29753846 16.3799603,6.06138462 16.3799603,5.78569231 C16.3799603,5.50984615 16.2836032,5.27384615 16.0911905,5.07753846 C15.8987778,4.88107692 15.6671587,4.78292308 15.3970873,4.78292308 C15.1267143,4.78292308 14.895246,4.88123077 14.7028333,5.07753846 C14.5104206,5.27384615 14.4140635,5.50984615 14.4140635,5.78569231 C14.4140635,6.06153846 14.5104206,6.29753846 14.7028333,6.494 C14.895246,6.69046154 15.1267143,6.78861538 15.3970873,6.78861538 L15.3970873,6.78861538 Z" id="Shape"></path>
                    <path d="M4.38930159,3.57969231 C3.79125397,3.57969231 3.28142063,3.79492308 2.85965079,4.22523077 C2.43773016,4.65553846 2.22692063,5.17569231 2.22692063,5.78569231 C2.22692063,6.39584615 2.43773016,6.91584615 2.85965079,7.34630769 C3.28157143,7.77676923 3.79140476,7.99184615 4.38930159,7.99184615 C4.98719841,7.99184615 5.49703175,7.77661538 5.91880159,7.34630769 C6.34057143,6.91584615 6.55153175,6.39569231 6.55153175,5.78569231 C6.55153175,5.17569231 6.34057143,4.65553846 5.91880159,4.22523077 C5.49703175,3.79492308 4.98719841,3.57969231 4.38930159,3.57969231 L4.38930159,3.57969231 Z" id="Shape"></path>
                    <path d="M18.5913492,10.5486154 C18.3619921,10.3146154 18.083627,10.1976923 17.7559524,10.1976923 C17.4282778,10.1976923 17.1497619,10.3146154 16.9205556,10.5486154 C16.6913492,10.7826154 16.576746,11.0667692 16.576746,11.4012308 C16.576746,11.7353846 16.6913492,12.0198462 16.9205556,12.2533846 C17.1499127,12.4873846 17.4282778,12.6043077 17.7559524,12.6043077 C18.083627,12.6043077 18.3621429,12.4873846 18.5913492,12.2533846 C18.8207063,12.0195385 18.9351587,11.7353846 18.9351587,11.4012308 C18.9351587,11.0669231 18.8208571,10.7827692 18.5913492,10.5486154 L18.5913492,10.5486154 Z" id="Shape"></path>
                    <path d="M15.3970873,15.6126154 C15.0201032,15.6126154 14.6965,15.7504615 14.4262778,16.0261538 C14.1560556,16.3018462 14.0209444,16.632 14.0209444,17.0166154 C14.0209444,17.4009231 14.1560556,17.7312308 14.4262778,18.0069231 C14.6966508,18.2827692 15.0201032,18.4204615 15.3970873,18.4204615 C15.7737698,18.4204615 16.097373,18.2826154 16.367746,18.0069231 C16.6379683,17.7312308 16.7730794,17.4010769 16.7730794,17.0166154 C16.7730794,16.632 16.6379683,16.302 16.367746,16.0261538 C16.097373,15.7504615 15.7737698,15.6126154 15.3970873,15.6126154 L15.3970873,15.6126154 Z" id="Shape"></path>
                    <path d="M9.89311905,17.8184615 C9.45898413,17.8184615 9.08833333,17.9753846 8.78101587,18.2887692 C8.474,18.6021538 8.32034127,18.9801538 8.32034127,19.4230769 C8.32034127,19.866 8.47384921,20.244 8.78101587,20.5573846 C9.08833333,20.8707692 9.45883333,21.0276923 9.89311905,21.0276923 C10.327254,21.0276923 10.697754,20.8707692 11.0049206,20.5573846 C11.3120873,20.244 11.465746,19.866 11.465746,19.4230769 C11.465746,18.9801538 11.3120873,18.6021538 11.0049206,18.2887692 C10.697754,17.9753846 10.327254,17.8184615 9.89311905,17.8184615 L9.89311905,17.8184615 Z" id="Shape"></path>
                    <path d="M9.89311905,0.972461538 C9.23792063,0.972461538 8.6807381,1.20630769 8.22202381,1.67430769 C7.76346032,2.14230769 7.53410317,2.71061538 7.53410317,3.37907692 C7.53410317,4.04753846 7.76330952,4.61569231 8.22202381,5.08369231 C8.6807381,5.55153846 9.23776984,5.78553846 9.89311905,5.78553846 C10.548619,5.78553846 11.1053492,5.55169231 11.5639127,5.08369231 C12.0224762,4.61584615 12.2518333,4.04753846 12.2518333,3.37907692 C12.2518333,2.71061538 12.0224762,2.14246154 11.5639127,1.67430769 C11.1053492,1.20646154 10.548619,0.972461538 9.89311905,0.972461538 L9.89311905,0.972461538 Z" id="Shape"></path>
                </g>
            </g>
        </g>
    </g>
</svg>