<?xml version="1.0" encoding="UTF-8"?>
<svg width="16px" height="20px" viewBox="0 0 16 20" version="1.1" xmlns="http://www.w3.org/2000/svg" xmlns:xlink="http://www.w3.org/1999/xlink">
    <!-- Generator: Sketch 51.2 (57519) - http://www.bohemiancoding.com/sketch -->
    <title>4</title>
    <desc>Created with Sketch.</desc>
    <defs></defs>
    <g id="Page-1" stroke="none" stroke-width="1" fill="none" fill-rule="evenodd">
        <g id="4" transform="translate(-9.000000, -5.000000)">
            <path d="M11.6660767,24.1329346 L9.77423096,22.2813721 L11.6660767,20.5198975 M9.78613281,22.2626953 C13.5302734,22.2626953 16.6003418,22.2626953 18.9963379,22.2626953 C22.9029944,22.2626953 24.161377,17.0159912 24.161377,14.7469482 C24.161377,12.4779053 22.899764,7.23120117 18.9963379,7.23120117 C16.505127,7.23120117 13.4350586,7.23120117 9.78613281,7.23120117 M11.7563477,9.09008789 L9.86450195,7.23852539 L11.7563477,5.47705078" id="Path-10" stroke="#000000" stroke-width="0.75"></path>
            <path d="M14.1132812,16.2567694 C14.1132812,17.0678086 13.9454362,17.6881637 13.6097412,18.1178533 C13.2740462,18.547543 12.782596,18.7623846 12.135376,18.7623846 C11.4962126,18.7623846 11.007448,18.5515713 10.6690674,18.1299383 C10.3306868,17.7083053 10.1574707,17.1040633 10.1494141,16.3171942 L10.1494141,15.2376043 C10.1494141,14.4185084 10.3192732,13.7968105 10.6589966,13.372492 C10.99872,12.9481735 11.488156,12.7360174 12.1273193,12.7360174 C12.7664827,12.7360174 13.2552473,12.9461593 13.5936279,13.3664495 C13.9320085,13.7867397 14.1052246,14.3903103 14.1132812,15.1771795 L14.1132812,16.2567694 Z M12.9490967,15.0724432 C12.9490967,14.5863568 12.8826301,14.2325395 12.7496948,14.0109808 C12.6167596,13.7894221 12.4093032,13.6786444 12.1273193,13.6786444 C11.8533922,13.6786444 11.6513068,13.784051 11.5210571,13.9948675 C11.3908075,14.205684 11.3216553,14.5353316 11.3135986,14.9838201 L11.3135986,16.4098455 C11.3135986,16.8878753 11.3787225,17.2430353 11.5089722,17.4753362 C11.6392218,17.7076372 11.848021,17.823786 12.135376,17.823786 C12.4200454,17.823786 12.6254877,17.7123369 12.751709,17.4894354 C12.8779303,17.2665339 12.9437256,16.9254728 12.9490967,16.466242 L12.9490967,15.0724432 Z M18.1013184,16.6032049 L16.7518311,16.6032049 C16.7652589,16.9979823 16.8706655,17.2947322 17.0680542,17.4934637 C17.2654429,17.6921952 17.5722635,17.7915594 17.9885254,17.7915594 C18.2705092,17.7915594 18.5256336,17.7499338 18.7539062,17.6666815 L18.8989258,18.641535 C18.5659163,18.7194162 18.2221697,18.7583563 17.8676758,18.7583563 C17.1613734,18.7583563 16.6021139,18.5683557 16.1898804,18.1883489 C15.7776469,17.8083422 15.5607911,17.2799661 15.5393066,16.6032049 L14.8585205,16.6032049 L14.8585205,15.9909002 L15.5393066,15.9909002 L15.5393066,15.4913885 L14.8585205,15.4913885 L14.8585205,14.8790838 L15.5473633,14.8790838 C15.5930178,14.2023226 15.8286722,13.6766321 16.2543335,13.3019964 C16.6799948,12.9273607 17.2446254,12.7400457 17.9482422,12.7400457 C18.230226,12.7400457 18.5471174,12.7816713 18.8989258,12.8649237 L18.7539062,13.8438055 C18.5014636,13.7578676 18.253053,13.7148992 18.008667,13.7148992 C17.2486534,13.7148992 16.8323978,14.1029569 16.7598877,14.8790838 L18.1013184,14.8790838 L18.1013184,15.4913885 L16.7518311,15.4913885 L16.7518311,15.9909002 L18.1013184,15.9909002 L18.1013184,16.6032049 Z" id="0€" fill="#000000" fill-rule="nonzero"></path>
        </g>
    </g>
</svg>