<?xml version="1.0" encoding="UTF-8"?>
<svg width="20px" height="21px" viewBox="0 0 20 21" version="1.1" xmlns="http://www.w3.org/2000/svg" xmlns:xlink="http://www.w3.org/1999/xlink">
    <!-- Generator: sketchtool 52.2 (67145) - http://www.bohemiancoding.com/sketch -->
    <title>4DF97A6A-B909-4115-973E-0CB633D573CB</title>
    <desc>Created with sketchtool.</desc>
    <g id="Page-1" stroke="none" stroke-width="1" fill="none" fill-rule="evenodd">
        <g id="HOMEPAGE---DESKTOP---Hamburger-SEARCH-2" transform="translate(-234.000000, -24.000000)" stroke="#000000" stroke-width="1.98">
            <g id="Group-5" transform="translate(234.000000, 24.000000)">
                <g id="Group-8">
                    <path d="M7.32353735,14.3732216 C10.8106038,14.3732216 13.6570747,11.3875767 13.6570747,7.68161078 C13.6570747,3.9756449 10.8106038,0.99 7.32353735,0.99 C3.83647095,0.99 0.99,3.9756449 0.99,7.68161078 C0.99,11.3875767 3.83647095,14.3732216 7.32353735,14.3732216 Z M14.1664649,14.7645611 L14.8911843,14.0208937 L13.4582041,14.0052022 L14.1664649,14.7645611 Z M18.6322455,19.5525295 L19.2760298,20.2427601 L19.29099,18.8765618 L18.6322455,19.5525295 Z M18.6197149,19.5653877 L17.8949956,20.3090551 L19.3279757,20.3247466 L18.6197149,19.5653877 Z M14.1539343,14.7774193 L13.51015,14.0871886 L13.4951898,15.4533869 L14.1539343,14.7774193 Z" id="searh_big"></path>
                </g>
            </g>
        </g>
    </g>
</svg>