<?xml version="1.0" encoding="UTF-8"?>
<svg width="19px" height="17px" viewBox="0 0 19 17" version="1.1" xmlns="http://www.w3.org/2000/svg" xmlns:xlink="http://www.w3.org/1999/xlink">
    <!-- Generator: Sketch 50.2 (55047) - http://www.bohemiancoding.com/sketch -->
    <title>Settings 2</title>
    <desc>Created with Sketch.</desc>
    <defs></defs>
    <g id="Page-1" stroke="none" stroke-width="1" fill="none" fill-rule="evenodd">
        <g id="POP-DESKTOP-POP-FILTERS--Despanded" transform="translate(-1363.000000, -892.000000)" fill="#FFFFFF">
            <g id="Group-7" transform="translate(1350.000000, 877.000000)">
                <g id="Settings-2" transform="translate(12.000000, 13.000000)">
                    <path d="M13.125,14 C13.125,15.1429415 12.3945433,16.1152756 11.375,16.4756325 L11.375,17.5001281 C11.375,17.9833065 10.9866183,18.375 10.5,18.375 C10.0167508,18.375 9.625,17.985672 9.625,17.5001281 L9.625,16.4756325 C8.60545667,16.1152756 7.875,15.1429415 7.875,14 C7.875,12.8570585 8.60545667,11.8847244 9.625,11.5243675 L9.625,3.49987193 C9.625,3.01669351 10.0133817,2.625 10.5,2.625 C10.9832492,2.625 11.375,3.014328 11.375,3.49987193 L11.375,11.5243675 C12.3945433,11.8847244 13.125,12.8570585 13.125,14 Z M19.25,8.75 C19.25,9.89294147 18.5195433,10.8652756 17.5,11.2256325 L17.5,17.5001281 C17.5,17.9833065 17.1116183,18.375 16.625,18.375 C16.1417508,18.375 15.75,17.985672 15.75,17.5001281 L15.75,11.2256325 C14.7304567,10.8652756 14,9.89294147 14,8.75 C14,7.60705853 14.7304567,6.63472435 15.75,6.27436749 L15.75,3.49987193 C15.75,3.01669351 16.1383817,2.625 16.625,2.625 C17.1082492,2.625 17.5,3.014328 17.5,3.49987193 L17.5,6.27436749 C18.5195433,6.63472435 19.25,7.60705853 19.25,8.75 Z M7,7 C7,8.14294147 6.26954333,9.11527565 5.25,9.47563251 L5.25,17.5001281 C5.25,17.9833065 4.86161828,18.375 4.375,18.375 C3.89175084,18.375 3.5,17.985672 3.5,17.5001281 L3.5,9.47563251 C2.48045667,9.11527565 1.75,8.14294147 1.75,7 C1.75,5.85705853 2.48045667,4.88472435 3.5,4.52436749 L3.5,3.49987193 C3.5,3.01669351 3.88838172,2.625 4.375,2.625 C4.85824916,2.625 5.25,3.014328 5.25,3.49987193 L5.25,4.52436749 C6.26954333,4.88472435 7,5.85705853 7,7 Z M4.375,7.875 C4.85824916,7.875 5.25,7.48324916 5.25,7 C5.25,6.51675084 4.85824916,6.125 4.375,6.125 C3.89175084,6.125 3.5,6.51675084 3.5,7 C3.5,7.48324916 3.89175084,7.875 4.375,7.875 Z M10.5,14.875 C10.9832492,14.875 11.375,14.4832492 11.375,14 C11.375,13.5167508 10.9832492,13.125 10.5,13.125 C10.0167508,13.125 9.625,13.5167508 9.625,14 C9.625,14.4832492 10.0167508,14.875 10.5,14.875 Z M16.625,9.625 C17.1082492,9.625 17.5,9.23324916 17.5,8.75 C17.5,8.26675084 17.1082492,7.875 16.625,7.875 C16.1417508,7.875 15.75,8.26675084 15.75,8.75 C15.75,9.23324916 16.1417508,9.625 16.625,9.625 Z" id="Combined-Shape"></path>
                </g>
            </g>
        </g>
    </g>
</svg>