<svg width="18" height="21" viewBox="0 0 18 21" fill="none" xmlns="http://www.w3.org/2000/svg">
<path fill-rule="evenodd" clip-rule="evenodd" d="M8.90796 0C6.97496 0 5.40796 1.567 5.40796 3.5H2.32361C1.80539 3.5 1.37302 3.89589 1.32748 4.41211L0.00394712 19.4121C-0.0476444 19.9968 0.413102 20.5 1.00008 20.5H16.8158C17.4028 20.5 17.8636 19.9968 17.812 19.4121L16.4884 4.41211C16.4429 3.89589 16.0105 3.5 15.4923 3.5H12.408C12.408 1.567 10.841 0 8.90796 0ZM11.408 4.5V6C11.408 6.27614 11.6318 6.5 11.908 6.5C12.1841 6.5 12.408 6.27614 12.408 6V4.5H15.4923L16.8158 19.5H1.00008L2.32361 4.5H5.40796V6C5.40796 6.27614 5.63181 6.5 5.90796 6.5C6.1841 6.5 6.40796 6.27614 6.40796 6V4.5H11.408ZM11.408 3.5C11.408 2.11929 10.2887 1 8.90796 1C7.52725 1 6.40796 2.11929 6.40796 3.5H11.408Z" fill="black"/>
</svg>
