<svg width="56" height="10" viewBox="0 0 56 10" fill="none" xmlns="http://www.w3.org/2000/svg">
<path d="M5 0L6.46946 2.97746L9.75528 3.45492L7.37764 5.77254L7.93893 9.04508L5 7.5L2.06107 9.04508L2.62236 5.77254L0.244718 3.45492L3.53054 2.97746L5 0Z" fill="#FDCB35"/>
<path d="M16 0L17.4695 2.97746L20.7553 3.45492L18.3776 5.77254L18.9389 9.04508L16 7.5L13.0611 9.04508L13.6224 5.77254L11.2447 3.45492L14.5305 2.97746L16 0Z" fill="#FDCB35"/>
<path d="M28 0L29.4695 2.97746L32.7553 3.45492L30.3776 5.77254L30.9389 9.04508L28 7.5L25.0611 9.04508L25.6224 5.77254L23.2447 3.45492L26.5305 2.97746L28 0Z" fill="#FDCB35"/>
<path d="M39 0L40.4695 2.97746L43.7553 3.45492L41.3776 5.77254L41.9389 9.04508L39 7.5L36.0611 9.04508L36.6224 5.77254L34.2447 3.45492L37.5305 2.97746L39 0Z" fill="#FDCB35"/>
<path d="M51 0L52.4695 2.97746L55.7553 3.45492L53.3776 5.77254L53.9389 9.04508L51 7.5L48.0611 9.04508L48.6224 5.77254L46.2447 3.45492L49.5305 2.97746L51 0Z" fill="#FDCB35"/>
<path fill-rule="evenodd" clip-rule="evenodd" d="M48.0688 9L48.0611 9.04507L48.1468 9H48.0688ZM51 7.5L53.9389 9.04507L53.3777 5.77255L55.7553 3.45493L52.4695 2.97745L51 0V7.5Z" fill="#B6B6B6"/>
</svg>
