<svg width="13" height="12" viewBox="0 0 13 12" fill="none" xmlns="http://www.w3.org/2000/svg">
<path d="M5.81185 0.547491C6.05468 -0.182496 7.11197 -0.182498 7.3548 0.547489L8.31347 3.42944C8.42206 3.7559 8.73352 3.97693 9.08494 3.97693H12.1873C12.9731 3.97693 13.2998 4.95912 12.6641 5.41028L10.1542 7.19142C9.86992 7.39318 9.75096 7.75082 9.85955 8.07728L10.8182 10.9592C11.061 11.6892 10.2057 12.2962 9.56995 11.8451L7.06012 10.0639C6.77581 9.86218 6.39083 9.86218 6.10653 10.0639L3.5967 11.8451C2.96097 12.2962 2.1056 11.6892 2.34843 10.9592L3.3071 8.07728C3.41569 7.75082 3.29673 7.39318 3.01242 7.19142L0.50259 5.41028C-0.133139 4.95912 0.193582 3.97693 0.979387 3.97693H4.0817C4.43313 3.97693 4.74458 3.7559 4.85318 3.42944L5.81185 0.547491Z" fill="#F9B500"/>
</svg>
