<?xml version="1.0" encoding="UTF-8"?>
<svg width="63px" height="72px" viewBox="0 0 63 72" version="1.1" xmlns="http://www.w3.org/2000/svg" xmlns:xlink="http://www.w3.org/1999/xlink">
    <!-- Generator: sketchtool 52.5 (67469) - http://www.bohemiancoding.com/sketch -->
    <title>3CD4D48F-3C91-438A-8D97-12C5A60CE74F@2x</title>
    <desc>Created with sketchtool.</desc>
    <g id="Page-1" stroke="none" stroke-width="1" fill="none" fill-rule="evenodd">
        <g id="Artboard" transform="translate(-1110.000000, -4477.000000)" fill="#FBB603">
            <path d="M1157.58511,4514.00935 C1155.73532,4514.00935 1154.23404,4512.50206 1154.23404,4510.64486 C1154.23404,4508.78766 1155.73532,4507.28037 1157.58511,4507.28037 C1159.43489,4507.28037 1160.93617,4508.78766 1160.93617,4510.64486 C1160.93617,4512.50206 1159.43489,4514.00935 1157.58511,4514.00935 Z M1126.08511,4514.00935 C1124.23532,4514.00935 1122.73404,4512.50206 1122.73404,4510.64486 C1122.73404,4508.78766 1124.23532,4507.28037 1126.08511,4507.28037 C1127.93489,4507.28037 1129.43617,4508.78766 1129.43617,4510.64486 C1129.43617,4512.50206 1127.93489,4514.00935 1126.08511,4514.00935 Z M1128.09574,4495.03364 C1128.09574,4487.68803 1134.10979,4481.71028 1141.5,4481.71028 C1148.89021,4481.71028 1154.90426,4487.68803 1154.90426,4495.03364 L1154.90426,4503.91589 L1128.09574,4503.91589 L1128.09574,4495.03364 Z M1168.5,4504 L1159.5,4504 L1159.5,4495 C1159.5,4485.0595 1151.4405,4477 1141.5,4477 C1131.5595,4477 1123.5,4485.0595 1123.5,4495 L1123.5,4504 L1114.5,4504 L1110,4549 L1173,4549 L1168.5,4504 Z" id="Fill-1"></path>
        </g>
    </g>
</svg>