<?xml version="1.0" encoding="UTF-8"?>
<svg width="18px" height="14px" viewBox="0 0 18 14" version="1.1" xmlns="http://www.w3.org/2000/svg" xmlns:xlink="http://www.w3.org/1999/xlink">
    <!-- Generator: sketchtool 51.2 (57519) - http://www.bohemiancoding.com/sketch -->
    <title>B750687F-4E84-434C-B9E7-ACCA177B0071</title>
    <desc>Created with sketchtool.</desc>
    <defs></defs>
    <g id="Page-1" stroke="none" stroke-width="1" fill="none" fill-rule="evenodd">
        <g id="CATCH-MOBILE-Einloggen-Wunschliste-Mobile" transform="translate(-115.000000, -502.000000)" fill="#FFFFFF" fill-rule="nonzero">
            <g id="Group-3" transform="translate(15.000000, 420.000000)">
                <g id="Social-networks" transform="translate(0.000000, 62.000000)">
                    <path d="M117.97898,21.667572 C117.95317,21.6385263 117.910584,21.6286684 117.874266,21.6445115 C117.336132,21.8724758 116.769975,22.0363636 116.186858,22.1331824 C116.805925,21.6885201 117.267183,21.0727524 117.503711,20.3666792 C117.515141,20.3328807 117.503342,20.2959135 117.474398,20.2739092 C117.44527,20.2519049 117.404896,20.2490884 117.373003,20.2672199 C116.67577,20.6620646 115.920649,20.9403747 115.12755,21.0947567 C114.424786,20.3983654 113.443461,20 112.427845,20 C110.362324,20 108.682106,21.6043757 108.682106,23.5764869 C108.682106,23.8150132 108.706256,24.0512511 108.754189,24.2806237 C105.893357,24.1119829 103.218356,22.8005281 101.399502,20.6703382 C101.380882,20.64851 101.352676,20.6363636 101.323179,20.6391802 C101.293866,20.6412926 101.267688,20.6571357 101.252939,20.6812524 C100.921099,21.224846 100.745777,21.8467748 100.745777,22.4794417 C100.745777,23.5759588 101.267503,24.6011819 102.155914,25.2776814 C101.698527,25.2252232 101.251833,25.0877405 100.849016,24.874211 C100.821916,24.8596002 100.788179,24.8597762 100.761078,24.8747391 C100.733978,24.889526 100.716833,24.9169873 100.716095,24.9469131 L100.715727,24.992682 C100.715727,26.567484 101.802504,27.9502326 103.348695,28.4093298 C102.941453,28.471998 102.51891,28.4677732 102.103557,28.3920785 C102.072953,28.3866214 102.040876,28.3966554 102.019859,28.4191877 C101.999027,28.4417201 101.992021,28.4732302 102.001608,28.5017478 C102.465262,29.8836162 103.75354,30.8526845 105.25309,30.973444 C104.002236,31.84851 102.523703,32.3095436 100.961473,32.3095436 C100.673694,32.3095436 100.383886,32.2931724 100.099979,32.2613102 C100.05942,32.2569093 100.019231,32.2799698 100.00522,32.317113 C99.9912088,32.3546083 100.006142,32.3965045 100.041169,32.4178046 C101.731711,33.4530617 103.686435,34 105.694253,34 C112.261925,34 116.186489,28.9059223 116.186489,23.9811895 C116.186489,23.8440588 116.183724,23.7076323 116.178009,23.5715579 C116.886488,23.0767258 117.494678,22.4709921 117.985064,21.7698479 C118.007002,21.7385138 118.004606,21.6967937 117.97898,21.667572 Z" id="twitter"></path>
                </g>
            </g>
        </g>
    </g>
</svg>