<?xml version="1.0" encoding="UTF-8"?>
<svg width="20px" height="20px" viewBox="0 0 20 20" version="1.1" xmlns="http://www.w3.org/2000/svg" xmlns:xlink="http://www.w3.org/1999/xlink">
    <!-- Generator: sketchtool 52.2 (67145) - http://www.bohemiancoding.com/sketch -->
    <title>563480E1-AB35-42F3-928F-21135C022B62</title>
    <desc>Created with sketchtool.</desc>
    <g id="Page-1" stroke="none" stroke-width="1" fill="none" fill-rule="evenodd">
        <g id="CATCH-MOBILE-Einloggen-Mobile" transform="translate(-113.000000, -425.000000)" fill="#FFFFFF">
            <g id="Group-3" transform="translate(15.000000, 292.000000)">
                <g id="Social-login-mobile" transform="translate(0.000000, 62.000000)">
                    <g id="Social-networks">
                        <g id="Glitch_White_RGB" transform="translate(98.000000, 71.000000)">
                            <path d="M1.34328358,0 L0,3.43283582 L0,17.4626866 L4.7761194,17.4626866 L4.7761194,20 L7.46268657,20 L10,17.4626866 L13.880597,17.4626866 L19.1044776,12.238806 L19.1044776,0 L1.34328358,0 Z M17.3134328,11.3432836 L14.3283582,14.3283582 L9.55223881,14.3283582 L7.01492537,16.8656716 L7.01492537,14.3283582 L2.98507463,14.3283582 L2.98507463,1.79104478 L17.3134328,1.79104478 L17.3134328,11.3432836 Z M14.3283582,5.2238806 L14.3283582,10.4477612 L12.5373134,10.4477612 L12.5373134,5.2238806 L14.3283582,5.2238806 Z M9.55223881,5.2238806 L9.55223881,10.4477612 L7.76119403,10.4477612 L7.76119403,5.2238806 L9.55223881,5.2238806 Z" id="Shape"></path>
                        </g>
                    </g>
                </g>
            </g>
        </g>
    </g>
</svg>