<svg width="18" height="19" viewBox="0 0 18 19" fill="none" xmlns="http://www.w3.org/2000/svg">
<path d="M9.00111 8.96315C11.4732 8.96315 13.4827 6.95371 13.4827 4.48158C13.4827 2.00944 11.4732 0 9.00111 0C6.52897 0 4.51953 2.00944 4.51953 4.48158C4.51953 6.95371 6.52897 8.96315 9.00111 8.96315ZM9.00111 0.998109C10.9246 0.998109 12.4912 2.56468 12.4912 4.48819C12.4912 6.4117 10.9246 7.97826 9.00111 7.97826C7.0776 7.97826 5.51103 6.4117 5.51103 4.48819C5.51103 2.56468 7.0776 0.998109 9.00111 0.998109Z" fill="#FAB60D"/>
<path d="M15.9697 12.3482C14.4032 10.6891 12.05 9.84961 8.97637 9.84961C0.10576 9.84961 0 17.5238 0 17.5965V18.0923H17.9263L17.9527 17.623C17.9527 17.504 18.0916 14.5956 15.9697 12.3482ZM1.02455 17.1008C1.19641 15.5276 2.26062 10.8411 8.97637 10.8411C11.7592 10.8411 13.8678 11.5748 15.236 13.0158C16.6043 14.4568 16.8885 16.2613 16.9414 17.1008H1.02455Z" fill="#FAB60D"/>
</svg>
