<svg width="160" height="94" viewBox="0 0 160 94" fill="none" xmlns="http://www.w3.org/2000/svg">

<path d="M0.556121 8.39341C0.42901 8.63856 0.524697 8.94034 0.769845 9.06745L4.76476 11.1388C5.0099 11.266 5.31168 11.1703 5.43879 10.9251C5.5659 10.68 5.47021 10.3782 5.22507 10.2511L1.67403 8.40985L3.51528 4.85881C3.64239 4.61367 3.5467 4.31189 3.30155 4.18478C3.0564 4.05767 2.75463 4.15336 2.62752 4.3985L0.556121 8.39341ZM1.15113 9.10018C31.8189 -0.623997 67.3187 -1.88387 97.1217 10.4232C126.896 22.7184 151.037 48.5737 159.008 93.2119L159.992 93.0361C151.963 48.0742 127.604 21.9291 97.5033 9.49892C67.4313 -2.91931 31.6811 -1.62939 0.848874 8.14696L1.15113 9.10018Z" fill="black"/>
</svg>
