<?xml version="1.0" encoding="UTF-8"?>
<svg width="17px" height="15px" viewBox="0 0 17 15" version="1.1" xmlns="http://www.w3.org/2000/svg" xmlns:xlink="http://www.w3.org/1999/xlink">
    <!-- Generator: Sketch 50.2 (55047) - http://www.bohemiancoding.com/sketch -->
    <title>Combined Shape</title>
    <desc>Created with Sketch.</desc>
    <defs></defs>
    <g id="Page-1" stroke="none" stroke-width="1" fill="none" fill-rule="evenodd">
        <g id="POP-DESKTOP-POP-FILTERS-Expanded" transform="translate(-1366.000000, -657.000000)" fill="#FFFFFF" fill-rule="nonzero">
            <g id="Group-8" transform="translate(1339.000000, 474.000000)">
                <g id="Group-6" transform="translate(12.000000, 0.000000)">
                    <path d="M25.2729185,188.833333 L20.9464402,188.833333 C18.6010992,188.833333 16.7,190.698302 16.7,193 L16.7,197.166667 C16.7,197.626904 16.319442,198 15.85,198 C15.380558,198 15,197.626904 15,197.166667 L15,193 C15,189.778056 17.6619812,187.166667 20.9464402,187.166667 L25.2729185,187.166667 L22.4739592,184.422589 C22.1420136,184.097152 22.1420136,183.569515 22.4739592,183.244078 C22.8059049,182.918641 23.3440951,182.918641 23.6760408,183.244078 L27.9260408,187.410744 C28.2579864,187.736181 28.2579864,188.263819 27.9260408,188.589256 L23.6760408,192.755922 C23.3440951,193.081359 22.8059049,193.081359 22.4739592,192.755922 C22.1420136,192.430485 22.1420136,191.902848 22.4739592,191.577411 L25.2729185,188.833333 Z M26.2989592,191.577411 L29.9479185,188 L26.2989592,184.422589 C25.9670136,184.097152 25.9670136,183.569515 26.2989592,183.244078 C26.6309049,182.918641 27.1690951,182.918641 27.5010408,183.244078 L31.7510408,187.410744 C32.0829864,187.736181 32.0829864,188.263819 31.7510408,188.589256 L27.5010408,192.755922 C27.1690951,193.081359 26.6309049,193.081359 26.2989592,192.755922 C25.9670136,192.430485 25.9670136,191.902848 26.2989592,191.577411 Z" id="Combined-Shape"></path>
                </g>
            </g>
        </g>
    </g>
</svg>