<svg fill="none" height="18" viewBox="0 0 20 18" width="20" xmlns="http://www.w3.org/2000/svg"><path d="m9.99279 18c-.28118 0-.56236-.1022-.77145-.292-.8075-.7153-1.58616-1.3868-2.27109-1.9781-2.01153-1.7372-3.75631-3.2408-4.96034-4.7153-1.362657-1.65694-1.98991-3.22628-1.98991-4.93431 0-1.66423.562365-3.19708 1.58616-4.32117 1.03821-1.138682 2.45133-1.75912 4.00144-1.75912 1.15357 0 2.21341.372263 3.14347 1.09489.46864.36496.89402.81752 1.26893 1.34307.3749-.52555.8003-.97811 1.2689-1.34307.9301-.729926 1.9899-1.09489 3.1435-1.09489 1.5429 0 2.9632.627737 4.0014 1.75912 1.0238 1.12409 1.5862 2.65694 1.5862 4.32117 0 1.70803-.6273 3.27737-1.9827 4.92701-1.2112 1.4818-2.9488 2.9781-4.9603 4.7153-.685.5913-1.4708 1.2628-2.2783 1.9854-.2235.1898-.5047.292-.78591.292zm-4.4124-16.81752c-1.21125 0-2.32877.48905-3.13627 1.37956-.82191.90511-1.27613 2.15329-1.27613 3.51825 0 1.43796.52631 2.72993 1.71593 4.17521 1.14636 1.4014 2.84787 2.8686 4.82336 4.5693h.00721c.69214.5986 1.4708 1.2701 2.28551 1.9927.8219-.7226 1.6006-1.3941 2.2927-1.9927 1.9755-1.7007 3.677-3.1679 4.8234-4.5693 1.1824-1.44528 1.7159-2.73725 1.7159-4.17521 0-1.36496-.4542-2.61314-1.2761-3.51825-.8075-.89051-1.925-1.37956-3.1363-1.37956-.8868 0-1.7015.28467-2.4225.84672-.6417.50365-1.0887 1.13868-1.3482 1.58394-.137.22628-.3749.36496-.6345.36496-.25953 0-.49746-.13868-.63444-.36496-.25956-.44526-.70656-1.08029-1.34824-1.58394-.74261-.56205-1.56452-.84672-2.45133-.84672z" fill="#fff"/></svg>