<svg width="20" height="18" viewBox="0 0 20 18" fill="none" xmlns="http://www.w3.org/2000/svg">
<path d="M9.99279 18C9.71161 18 9.43043 17.8978 9.22134 17.708C8.41384 16.9927 7.63518 16.3212 6.95025 15.7299C4.93872 13.9927 3.19394 12.4891 1.98991 11.0146C0.627253 9.35766 0 7.78832 0 6.08029C0 4.41606 0.562365 2.88321 1.58616 1.75912C2.62437 0.620438 4.03749 0 5.5876 0C6.74117 0 7.80101 0.372263 8.73107 1.09489C9.19971 1.45985 9.62509 1.91241 10 2.43796C10.3749 1.91241 10.8003 1.45985 11.2689 1.09489C12.199 0.364964 13.2588 0 14.4124 0C15.9553 0 17.3756 0.627737 18.4138 1.75912C19.4376 2.88321 20 4.41606 20 6.08029C20 7.78832 19.3727 9.35766 18.0173 11.0073C16.8061 12.4891 15.0685 13.9854 13.057 15.7226C12.372 16.3139 11.5862 16.9854 10.7787 17.708C10.5552 17.8978 10.274 18 9.99279 18ZM5.58039 1.18248C4.36914 1.18248 3.25162 1.67153 2.44412 2.56204C1.62221 3.46715 1.16799 4.71533 1.16799 6.08029C1.16799 7.51825 1.6943 8.81022 2.88392 10.2555C4.03028 11.6569 5.73179 13.1241 7.70728 14.8248H7.71449C8.40663 15.4234 9.18529 16.0949 10 16.8175C10.8219 16.0949 11.6006 15.4234 12.2927 14.8248C14.2682 13.1241 15.9697 11.6569 17.1161 10.2555C18.2985 8.81022 18.832 7.51825 18.832 6.08029C18.832 4.71533 18.3778 3.46715 17.5559 2.56204C16.7484 1.67153 15.6309 1.18248 14.4196 1.18248C13.5328 1.18248 12.7181 1.46715 11.9971 2.0292C11.3554 2.53285 10.9084 3.16788 10.6489 3.61314C10.5119 3.83942 10.274 3.9781 10.0144 3.9781C9.75487 3.9781 9.51694 3.83942 9.37996 3.61314C9.1204 3.16788 8.6734 2.53285 8.03172 2.0292C7.28911 1.46715 6.4672 1.18248 5.58039 1.18248Z" fill="#FAB60D"/>
</svg>
