<?xml version="1.0" encoding="UTF-8"?>
<svg width="32px" height="32px" viewBox="0 0 32 32" version="1.1" xmlns="http://www.w3.org/2000/svg" xmlns:xlink="http://www.w3.org/1999/xlink">
    <!-- Generator: sketchtool 52.5 (67469) - http://www.bohemiancoding.com/sketch -->
    <title>06D34ADA-BEBC-4719-895C-550C0BEE59AF@2x</title>
    <desc>Created with sketchtool.</desc>
    <g id="Bestellabwicklung" stroke="none" stroke-width="1" fill="none" fill-rule="evenodd">
        <g id="warenkorb" transform="translate(-399.000000, -595.000000)">
            <g id="&lt;3-copy-2" transform="translate(400.000000, 596.000000)">
                <g id="&lt;3">
                    <g id="add-to-cart-copy" fill="#FFFFFF" stroke="#4A4A4A" stroke-width="1.5">
                        <circle id="Oval" cx="15" cy="15" r="15"></circle>
                    </g>
                    <path d="M22.2913643,8.45177686 C21.360962,7.51532286 20.1241067,7 18.8082633,7 C17.4922328,7 16.2552371,7.51532286 15.3245072,8.45177686 L14.866021,8.91331625 L14.4075348,8.45177686 C13.4770856,7.51532286 12.2398092,7 10.9240594,7 C9.60835645,7 8.37098641,7.51532286 7.44063088,8.45177686 C5.51978971,10.385203 5.51978971,13.5309707 7.44063088,15.4636434 L14.3235398,22.39102 C14.436079,22.5047094 14.5761798,22.574317 14.722551,22.6011146 C14.7716378,22.6108634 14.8210053,22.6153846 14.8704664,22.6153846 C15.0651757,22.6153846 15.2602125,22.5406435 15.4085022,22.39102 L22.2914111,15.4636434 C24.2123459,13.5309707 24.2123459,10.385203 22.2913643,8.45177686 Z M21.2152927,14.3806742 L14.8660678,20.7709696 L8.51670249,14.3806742 C7.18925426,13.0448473 7.18925426,10.8713736 8.51670249,9.53484026 C9.15969692,8.88779029 10.0149015,8.53188691 10.9240594,8.53188691 C11.8333109,8.53188691 12.6882815,8.88779029 13.331042,9.53484026 L14.3279852,10.5385471 C14.6137553,10.8257377 15.1186611,10.8257377 15.4043844,10.5385471 L16.4009532,9.53484026 C17.0437605,8.88779029 17.8987779,8.53188691 18.8083101,8.53188691 C19.7175616,8.53188691 20.5724855,8.88779029 21.2152927,9.53484026 C22.5428813,10.8713736 22.5428813,13.0448002 21.2152927,14.3806742 Z" id="heart-copy" fill="#4A4A4A" fill-rule="nonzero"></path>
                </g>
            </g>
        </g>
    </g>
</svg>