<svg width="75" height="116" viewBox="0 0 75 116" fill="none" xmlns="http://www.w3.org/2000/svg">
<g clip-path="url(#clip0)">
<path d="M20.261 38.659C21.1368 37.6749 16.7048 36.9658 15.5562 36.3493C11.9017 34.3878 8.89097 30.2675 11.6601 26.0449C15.7041 19.8405 22.0537 12.6924 24.713 10.4843C27.8593 7.91824 31.6441 5.26403 34.9434 2.91469C37.4318 1.12653 39.9723 1.25131 42.3544 3.23C43.3911 4.0557 44.4248 4.9875 45.351 5.96938C48.59 9.51203 51.882 13.0562 55.012 16.702C57.8363 19.9143 59.9043 23.6363 61.4352 27.6087C63.802 33.8877 65.8579 38.0342 56.3747 39.7842C57.0347 40.8117 58.8842 42.8815 59.6502 43.912C62.5564 47.9762 65.5701 51.9904 68.4219 56.1062C69.5436 57.6776 70.6108 59.3006 71.3557 61.0738C73.4981 65.913 71.7412 69.9518 66.8697 71.6727C65.0497 72.3116 60.4804 72.7136 61.1949 73.6895C61.9093 74.6654 62.2531 75.6309 62.9101 76.7644C64.6812 79.7347 66.6143 82.6034 68.2221 85.7283C70.7821 90.7916 69.237 94.8364 63.9344 96.8107C62.0055 97.5527 59.8268 97.7567 57.754 97.9637C53.5539 98.4292 47.0692 99.0958 45.473 99.3162C43.8768 99.5367 43.717 101.444 43.6242 104.733C43.449 110.94 42.2376 112.552 39.1681 114.271C33.5627 115.706 28.288 114.813 26.0531 109.494C25.4081 107.936 25.1927 106.177 24.8699 104.469C24.5941 102.975 24.3712 101.482 24.1454 100.095C20.883 99.2595 17.8824 98.5377 14.9393 97.6582C10.7871 96.426 7.30186 94.0976 4.59095 90.623C0.396681 85.2481 1.00204 80.6989 5.29792 76.8379C7.14786 75.1379 8.9963 73.491 10.7948 71.7364C11.722 70.8069 12.6507 69.8242 13.4176 68.9432C14.1315 68.0607 11.3262 67.9285 10.329 67.5818C4.70904 65.7772 2.81044 61.6883 5.76986 56.356C7.61325 53.0098 9.92727 49.8893 12.2912 46.8765C14.4919 44.0183 19.3852 39.6431 20.261 38.659ZM27.3744 90.8411C27.7582 94.1439 27.8937 96.8556 28.4558 99.4732C29.0195 102.038 30.84 103.257 33.4849 103.438C35.865 103.611 37.644 102.547 38.6041 100.45C39.2256 99.0869 39.5867 97.5573 39.8949 96.0262C40.2016 94.5481 40.298 93.011 40.5093 91.1586C42.3658 91.1048 44.0634 91.0465 45.7595 91.0413C48.6222 91.0159 51.5333 91.1511 54.4005 90.9665C56.0996 90.8552 57.8576 90.5331 59.4628 89.9943C62.6217 88.8623 64.0415 85.5042 62.694 82.5458C61.8476 80.6105 60.679 78.8253 59.5633 77.0417C58.3462 75.0959 55.6473 71.1968 54.4847 69.1994C54.082 68.4447 59.1443 67.4725 60.9114 66.8321C63.6951 65.8487 64.9745 63.7079 64.1521 60.9237C63.572 58.9427 62.5123 57.0545 61.3966 55.2708C58.4568 50.5154 55.3552 45.8616 52.361 41.1577C51.2438 39.4271 50.2871 37.6479 49.5241 36.5113C48.7083 35.3733 52.0655 34.7247 53.1851 34.4908C57.3472 33.4932 59.1666 30.9959 57.9035 26.925C57.0781 24.2469 55.6157 21.6039 53.984 19.3278C51.1261 15.4242 47.9416 11.83 44.8645 8.18569C43.9927 7.15226 42.9575 6.27351 41.9208 5.44781C39.3283 3.4101 37.7986 3.15455 35.0953 5.04283C28.2835 9.78859 21.8304 14.9692 17.0241 21.8954C15.7522 23.771 14.9294 24.7566 13.5336 27.2659C12.2078 31.0514 13.6717 33.6413 17.5516 35.1313C19.4915 35.8763 25.2489 36.5697 24.1009 37.8116C23.2251 38.7958 21.8578 40.297 20.8716 41.4373C18.5726 44.0272 16.1176 46.5066 13.7671 49.042C11.2533 51.732 8.99818 54.6418 7.73432 58.1105C6.07731 62.3646 8.63534 65.6225 13.3045 65.4357C14.9492 65.3759 18.7911 66.3339 14.3214 70.7209C11.8754 72.8819 9.37655 75.0415 7.08648 77.3131C5.9974 78.3443 5.05971 79.6452 4.3853 81.0067C3.49008 82.6805 3.96875 84.4993 5.47307 85.6568C6.40833 86.3203 7.39655 86.9854 8.50116 87.282C12.0238 88.2841 15.5495 89.18 19.0796 89.9168C21.6626 90.4144 24.3619 90.5437 27.3744 90.8411Z" fill="#2F5B52"/>
<path d="M23.4716 26.3797C23.512 24.9473 27.3782 21.2865 29.0034 21.9165C30.6286 22.5464 27.6656 26.1264 25.9865 27.4064C25.1742 28.0207 23.4311 27.8122 23.4716 26.3797Z" fill="#2F5B52"/>
<path d="M34.7406 66.5204C34.5742 66.7812 34.1416 67.0875 33.8783 67.027C33.4032 66.9605 32.7193 66.7819 32.5179 66.4046C31.6066 64.8921 31.8149 63.1458 33.0174 61.8523C33.4545 61.3868 34.5591 61.6835 34.8604 62.276C35.7142 63.9461 35.0174 66.1034 34.7406 66.5204Z" fill="#2F5B52"/>
<path d="M20.734 80.1963C19.499 78.8871 22.1526 73.1214 23.8358 75.452C25.572 77.7842 21.9705 81.4524 20.734 80.1963Z" fill="#2F5B52"/>
<path d="M39.6115 12.2342C40.6266 11.9443 41.9072 13.5202 42.5731 14.3354C43.6508 15.5871 43.7238 16.7572 42.81 17.2093C41.4667 17.8617 40.6992 16.8843 39.9788 16.1206C39.054 15.0857 38.1697 12.6183 39.6115 12.2342Z" fill="#2F5B52"/>
<path d="M48.0187 59.8863C46.6403 59.9005 46.7786 56.8779 46.4423 55.6472C46.1985 54.897 46.4358 54.001 47.336 54.0264C47.8656 54.0414 48.6435 54.6474 48.9463 55.1869C49.6517 56.4811 49.45 59.8736 48.0187 59.8863Z" fill="#2F5B52"/>
<path d="M38.6638 45.8174C37.5152 45.201 37.5306 40.9006 38.6696 39.977C39.8087 39.0534 40.5626 40.5083 40.5886 41.4648C40.7361 43.7521 39.8124 46.4339 38.6638 45.8174Z" fill="#2F5B52"/>
<path d="M24.6942 52.5382C26.1725 52.7393 25.0196 57.9102 23.4824 57.9199C21.9451 57.9296 23.163 52.3358 24.6942 52.5382Z" fill="#2F5B52"/>
<path d="M46.0738 78.0963C47.3053 77.6531 48.2082 81.3422 47.768 81.9139C46.4961 83.7894 44.8423 78.5394 46.0738 78.0963Z" fill="#2F5B52"/>
</g>
<defs>
<clipPath id="clip0">
<rect width="69.984" height="113.209" fill="white" transform="translate(4.10889 0.719238) rotate(1.6163)"/>
</clipPath>
</defs>
</svg>
