<svg width="45" height="45" viewBox="0 0 45 45" fill="none" xmlns="http://www.w3.org/2000/svg">
<g clip-path="url(#clip0)">
<path d="M26.1846 3.07353C27.7416 4.73513 27.9023 5.98887 27.8941 7.47878C27.8549 8.68576 27.3718 9.91858 26.8135 10.9879C23.3337 17.6812 20.4328 23.9101 16.8336 30.5593C16.4051 31.3509 14.1224 35.9084 11.4857 34.0103C9.12403 32.3225 10.4905 27.4534 11.0802 25.4185C12.974 19.1972 14.995 12.7786 15.8781 10.3908C17.6443 5.61521 19.1087 3.93098 20.3549 2.76323C22.3046 1.01422 25.0169 1.82733 26.1846 3.07353Z" fill="#2F5B52"/>
<path d="M33.2138 22.2315C35.6801 20.7006 36.1681 20.5554 37.0611 20.3428C38.6861 19.9123 40.1603 20.4032 41.1619 21.8051C42.1634 23.207 42.3084 24.9436 41.1816 26.1555C37.757 29.9106 33.9978 32.809 29.1876 34.5859C27.5989 35.1384 25.6912 34.3514 24.8506 32.9548C24.0489 31.5996 24.1427 29.9514 25.2332 28.6175C25.9835 27.8364 30.8696 23.726 33.2138 22.2315Z" fill="#2F5B52"/>
</g>
<defs>
<clipPath id="clip0">
<rect width="31.9363" height="31.4808" fill="white" transform="translate(0 21.8369) rotate(-43.1385)"/>
</clipPath>
</defs>
</svg>
