<svg width="104" height="101" viewBox="0 0 104 101" fill="none" xmlns="http://www.w3.org/2000/svg">
    <path d="M81.9883 29.6184C80.1713 29.8171 78.3966 29.5161 77.5207 27.6105C76.5466 25.5772 77.4935 23.9559 78.9437 22.699C80.4735 21.3606 82.1181 20.1979 83.8775 19.211C87.0281 17.4187 90.2454 15.8188 93.4793 14.267C94.4395 13.7726 95.5626 13.4372 96.608 13.3443C98.8433 13.1085 100.772 14.1644 101.583 16.0386C102.476 17.9923 102.193 19.976 100.697 21.4106C99.3112 22.699 96.8469 23.9841 95.1337 24.7933C92.1403 26.2618 83.6129 29.4864 81.9883 29.6184Z" fill="#2F5B52"/>
    <path d="M73.5979 2.29828C76.4913 0.541201 79.2657 2.32769 81.019 4.89913C82.3631 6.91188 82.0531 9.28237 79.8556 11.3371C76.7498 14.1916 73.4163 16.8555 69.3608 18.3688C67.6457 19.017 65.8953 19.4081 64.4774 17.9597C62.9947 16.4799 63.0051 14.6443 63.7724 12.8159C64.2734 11.6185 65.6198 9.75091 66.4947 8.855C68.4813 6.65784 70.7045 4.05537 73.5979 2.29828Z" fill="#2F5B52"/>
    <path d="M82.1126 40.0823C84.4459 39.9742 90.41 40.5475 94.829 41.1713C96.9256 41.4685 97.9792 43.4203 97.7597 45.2745C97.5882 47.112 96.2046 48.5614 94.0823 48.8119C92.7316 48.9568 91.2994 49.0221 89.9448 48.8449C86.7675 48.3834 83.122 47.8148 80.6977 47.0385C78.2734 46.2622 76.9221 45.0063 77.0159 43.4112C77.1116 41.9771 78.4118 40.2872 82.1126 40.0823Z" fill="#2F5B52"/>
    <path d="M59.6789 87.8647C58.769 82.4933 57.7521 77.1757 56.6281 71.8043C53.4167 56.3885 47.7432 42.8527 38.9653 29.8003C38.1089 28.5112 35.7539 25.9867 34.6299 24.9661C30.7226 21.2062 23.1758 18.4668 17.8234 19.4336C6.52996 21.5285 2.0875 32.486 1.28465 35.5477C0.481791 38.6094 -1.01687 46.5052 1.07055 52.0915C2.19455 55.0457 4.65664 56.5497 7.92158 56.5497C11.5612 56.5497 14.3979 54.616 15.6825 50.7486C16.4854 48.3852 16.6995 45.807 17.3417 43.3899C18.3587 39.4688 20.232 38.0722 24.0857 38.8779C26.3337 39.3613 27.6183 40.8116 28.6887 42.3693C30.1874 44.679 30.9367 48.4389 31.472 49.8892C32.3819 52.3063 35.0581 61.8136 37.0384 69.3335C38.9653 76.6385 40.8386 83.9973 42.5514 91.4097C43.3007 94.6326 44.7458 97.2108 47.5291 98.9834C52.6138 102.152 59.1437 99.0908 59.8395 93.1286C60.1071 91.4097 59.9466 89.5835 59.6789 87.8647ZM10.5978 50.6412C10.4907 52.736 8.99205 54.3474 7.01168 54.24C4.38902 54.1326 1.87341 52.1989 1.39169 49.0835C1.07055 47.1498 0.856456 43.0139 1.65931 38.9316C3.63969 41.0802 5.45949 42.3156 7.27929 43.6584C8.29624 44.4104 9.58081 44.7864 10.6513 45.2161C10.6513 45.2698 10.7048 48.5464 10.5978 50.6412ZM10.6513 44.0881C7.0652 42.423 4.28197 39.8448 2.30159 37.5888C3.05093 33.99 3.96083 31.7877 6.42292 28.7261C6.42292 28.7261 8.56386 32.0026 10.7048 34.2586C11.4006 35.0106 13.1134 36.1922 13.1134 36.1922C12.364 38.4482 11.2936 40.3282 10.6513 44.0881ZM18.4122 31.1969C16.3783 32.11 15.5219 32.486 13.5416 35.2254C11.1865 33.4529 8.885 30.1763 7.38634 27.7055C7.38634 27.7055 11.9358 21.0987 19.1615 20.5616C24.4069 20.1856 28.3676 22.6027 28.3676 22.6027C28.4747 22.7102 22.7476 26.309 22.48 31.2506C22.48 31.1969 20.5532 30.2838 18.4122 31.1969ZM26.9225 35.7088C26.0661 34.3123 25.2632 33.4529 23.3364 31.8415C23.1758 29.4243 26.7084 24.8587 29.3846 23.1399C35.7003 25.8255 37.7342 31.5729 40.7316 36.7294C36.3426 35.2791 32.1678 34.9568 26.9225 35.7088ZM27.7253 36.7831C32.2213 35.87 37.199 36.6757 40.9457 38.0185C41.4809 38.8779 43.5683 43.3899 44.6923 47.4721C39.6076 45.3235 35.7539 46.2367 32.0072 46.4515C31.2579 44.4104 28.7423 38.3408 27.7253 36.7831ZM32.4889 47.9018C33.72 47.8481 38.5906 46.5052 45.067 49.0298C47.5291 54.5623 48.2784 59.0742 49.2418 62.1896C43.3542 59.8799 38.7512 59.3965 35.8609 59.6113C34.8975 55.5828 33.8805 51.8766 32.4889 47.9018ZM39.0723 70.5689C39.0723 70.5689 37.3061 64.2844 36.6102 61.2228C40.464 61.2765 47.2615 62.5656 49.4024 64.2307C49.8306 64.553 51.2757 70.0855 51.9715 74.3826C48.5995 73.4694 45.7628 72.0192 42.6584 71.1598C41.3739 70.73 39.0723 70.5689 39.0723 70.5689ZM42.0161 81.8487C42.1232 82.171 40.4639 76.4237 39.7146 72.234C43.1937 72.1803 50.0447 75.0271 52.1321 76.1551C52.1321 76.1551 53.042 79.9688 54.0054 84.7493C50.0982 83.2453 46.6192 82.0099 42.0161 81.8487ZM54.4871 92.9137C54.2195 94.9011 52.6673 96.4588 50.7405 96.8348C48.8672 97.2108 46.9403 96.9422 45.2276 93.8806C44.6388 92.86 43.3007 87.9721 42.5514 83.3527C46.8868 84.051 50.9546 84.6956 54.1125 86.1995C54.4336 88.5629 54.7012 91.1949 54.4871 92.9137Z" fill="#2F5B52"/>
</svg>
