<?xml version="1.0" encoding="UTF-8"?>
<svg width="228px" height="196px" viewBox="0 0 228 196" version="1.1" xmlns="http://www.w3.org/2000/svg" xmlns:xlink="http://www.w3.org/1999/xlink">
    <!-- Generator: Sketch 51.2 (57519) - http://www.bohemiancoding.com/sketch -->
    <title>fav</title>
    <desc>Created with Sketch.</desc>
    <defs>
        <linearGradient x1="52.6167978%" y1="0.0685232623%" x2="47.3832022%" y2="99.9314767%" id="linearGradient-1">
            <stop stop-color="#F9B500" offset="0%"></stop>
            <stop stop-color="#F17E00" offset="100%"></stop>
        </linearGradient>
        <linearGradient x1="50%" y1="0%" x2="50%" y2="100%" id="linearGradient-2">
            <stop stop-color="#F9B500" offset="0%"></stop>
            <stop stop-color="#F17E00" offset="100%"></stop>
        </linearGradient>
    </defs>
    <g id="Page-1" stroke="none" stroke-width="1" fill="none" fill-rule="evenodd">
        <g id="fav" transform="translate(-1948.000000, -75.000000)" fill="url(#linearGradient-1)" stroke="url(#linearGradient-2)" stroke-width="5">
            <path d="M1958.53653,108.830618 C1959.9641,102.785738 1972.3014,96.278109 1995.54841,89.3077312 C2053.56774,76.2284661 2100.41762,74.495016 2136.09807,84.1073812 C2189.61873,98.5259288 2133.50466,108.301207 2141.4543,128.614999 C2149.40394,148.928792 2163.69131,140.019669 2161.49984,149.016775 C2159.30836,158.013881 2129.54138,160.882316 2131.65768,168.835034 C2133.77398,176.787752 2159.72699,171.726187 2170.4331,182.586515 C2177.5705,189.826734 2169.82198,196.422584 2147.18752,202.374065 C2145.82786,203.138994 2141.59131,205.901375 2134.47787,210.661207 C2127.36442,215.42104 2127.13799,219.741685 2133.79856,223.623143 C2139.88108,226.605276 2142.828,229.896378 2142.63933,233.496448 C2142.35632,238.896555 2140.9632,246.718447 2132.20675,253.99669 C2123.4503,261.274934 2118.54327,266.310958 2102.02864,267.251526 C2085.51401,268.192094 2047.85123,269.621611 1996.54279,261.723247 C1945.23435,253.824882 1950.92208,254.122963 1951.42522,244.522332 C1951.76066,238.121911 1963.0254,233.734784 1985.21945,231.360949 C1993.41997,232.597716 1997.81955,230.790113 1998.41821,225.93814 C1999.31619,218.66018 1979.17201,215.123712 1976.4357,202.378569 C1973.69939,189.633425 1990.05298,182.544521 1988.0376,177.587492 C1985.84433,172.192923 1964.4137,175.209783 1964.29378,171.783211 C1964.17064,168.264862 1964.92386,161.670586 1969.47441,156.455713 C1977.2539,147.540511 1990.64366,140.054836 1990.00594,140.029161 C1982.0436,139.708588 1959.45391,144.36834 1956.99215,138.298981 C1952.75695,127.857276 1956.39516,117.897938 1958.53653,108.830618 Z M2061.60951,206.803931 C2054.97649,213.711115 2050.91055,217.164706 2049.41169,217.164706 C2046.99969,218.332164 2045.01539,218.332164 2043.4588,217.164706 C2041.90222,215.997249 2041.09148,213.146637 2041.02658,208.61287 C2041.09148,201.663595 2041.64654,196.102185 2042.69176,191.928639 C2044.2596,185.668321 2045.2442,181.135526 2049.41169,171.861948 C2053.57918,162.58837 2061.09489,149.825295 2063.01249,146.710553 C2064.29089,144.634058 2067.40537,140.054611 2072.35592,132.972211 C2075.75323,128.270153 2077.8564,125.539615 2078.66542,124.780596 C2079.87895,123.642067 2081.17492,121.843749 2082.76724,122.434261 C2083.82878,122.827936 2084.10239,124.218574 2083.58809,126.606175 L2076.82364,153.17007 C2075.77998,156.729855 2075.77998,158.983524 2076.82364,159.931076 C2078.38913,161.352405 2081.94834,162.820988 2087.052,162.456543 C2092.15567,162.092098 2099.56437,161.584376 2102.96469,158.064385 C2106.36501,154.544393 2107.60705,150.337371 2109.37252,141.230878 C2111.13799,132.124384 2113.54331,120.500028 2111.45791,114.255371 C2109.37252,108.010715 2098.89908,101.083302 2094.84716,98.5989473 C2090.79524,96.114593 2084.45443,96.114593 2082.76724,96.114593 C2081.08004,96.114593 2074.18645,97.3959247 2071.66323,98.5989473 C2069.14002,99.8019699 2063.01249,105.223403 2058.64701,109.022859 C2054.87355,112.30705 2048.27678,119.866704 2046.42962,122.434261 C2044.58246,125.001819 2040.55397,129.464159 2036.97906,134.852117 C2034.24324,138.975445 2030.21022,145.423837 2027.79903,150.814925 C2025.38783,156.206013 2020.02794,168.489473 2017.35249,177.160533 C2014.67704,185.831594 2012.62256,195.472613 2011.14278,204.29119 C2009.66299,213.109766 2009.23104,224.056881 2018.75449,234.25076 C2028.27794,244.444639 2034.924,246.037739 2039.71654,246.037739 C2044.50908,246.037739 2045.48812,245.931952 2048.27678,245.379943 C2052.24752,244.593944 2056.70739,243.33314 2058.64701,242.182487 C2060.58663,241.031833 2068.54447,237.577412 2077.80446,228.119652 C2080.55713,225.308192 2084.88739,219.837326 2090.79524,211.707056 C2092.67045,207.66272 2093.17659,204.408653 2092.31367,201.944855 C2091.01929,198.249158 2083.76566,185.145608 2079.41779,187.00349 C2075.06991,188.861372 2071.55904,196.443156 2061.60951,206.803931 Z"></path>
        </g>
    </g>
</svg>