<svg width="158" height="21" viewBox="0 0 158 21" fill="none" xmlns="http://www.w3.org/2000/svg">
<path d="M66.171 15H64.818L61.837 11.458V15H60.781V7.3H61.837V10.578L64.774 7.3H66.017L62.761 10.93L66.171 15ZM70.4212 7.3H71.4772L74.2492 15H73.1272L72.6102 13.504H69.2772L68.7712 15H67.6492L70.4212 7.3ZM72.2802 12.536L71.0922 9.071L70.9492 8.246L70.8062 9.071L69.6072 12.536H72.2802ZM69.3982 5.804C69.3982 5.63533 69.4605 5.49233 69.5852 5.375C69.7098 5.25033 69.8528 5.188 70.0142 5.188C70.1828 5.188 70.3258 5.25033 70.4432 5.375C70.5678 5.49233 70.6302 5.63533 70.6302 5.804C70.6302 5.96533 70.5678 6.10833 70.4432 6.233C70.3258 6.35767 70.1828 6.42 70.0142 6.42C69.8528 6.42 69.7098 6.35767 69.5852 6.233C69.4605 6.10833 69.3982 5.96533 69.3982 5.804ZM71.2682 5.804C71.2682 5.63533 71.3305 5.49233 71.4552 5.375C71.5798 5.25033 71.7228 5.188 71.8842 5.188C72.0528 5.188 72.1958 5.25033 72.3132 5.375C72.4378 5.49233 72.5002 5.63533 72.5002 5.804C72.5002 5.96533 72.4378 6.10833 72.3132 6.233C72.1958 6.35767 72.0528 6.42 71.8842 6.42C71.7228 6.42 71.5798 6.35767 71.4552 6.233C71.3305 6.10833 71.2682 5.96533 71.2682 5.804ZM76.845 12.228C76.845 12.844 76.988 13.317 77.274 13.647C77.56 13.977 77.9963 14.142 78.583 14.142C79.1697 14.142 79.606 13.977 79.892 13.647C80.178 13.317 80.321 12.844 80.321 12.228V7.3H81.377V12.272C81.377 12.822 81.2633 13.3133 81.036 13.746C80.816 14.1713 80.4933 14.505 80.068 14.747C79.65 14.989 79.155 15.11 78.583 15.11C78.011 15.11 77.5123 14.989 77.087 14.747C76.669 14.505 76.3463 14.1713 76.119 13.746C75.899 13.3133 75.789 12.822 75.789 12.272V7.3H76.845V12.228ZM84.839 10.776H88.238V11.744H84.839V15H83.783V7.3H88.524V8.268H84.839V10.776ZM91.6827 10.666H94.9387V11.634H91.6827V14.032H95.3567V15H90.6267V7.3H95.2357V8.268H91.6827V10.666ZM98.5909 12.206V15H97.5349V7.3H99.9659C100.545 7.3 101.048 7.40267 101.473 7.608C101.898 7.81333 102.225 8.103 102.452 8.477C102.679 8.851 102.793 9.28367 102.793 9.775C102.793 10.2663 102.676 10.688 102.441 11.04C102.214 11.392 101.873 11.6963 101.418 11.953L103.189 15H101.979L100.384 12.206H98.5909ZM100.142 11.238C100.641 11.238 101.029 11.106 101.308 10.842C101.594 10.5707 101.737 10.2077 101.737 9.753C101.737 9.291 101.598 8.928 101.319 8.664C101.048 8.4 100.655 8.268 100.142 8.268H98.5909V11.238H100.142ZM106.065 9.06C106.065 9.38267 106.215 9.63567 106.516 9.819C106.817 10.0023 107.326 10.1747 108.045 10.336C108.808 10.5047 109.391 10.7797 109.794 11.161C110.197 11.5423 110.399 12.0483 110.399 12.679C110.399 13.1557 110.278 13.581 110.036 13.955C109.794 14.3217 109.464 14.6077 109.046 14.813C108.635 15.011 108.173 15.11 107.66 15.11C107.161 15.11 106.696 15.0073 106.263 14.802C105.838 14.5967 105.489 14.3033 105.218 13.922C104.947 13.5407 104.796 13.1007 104.767 12.602H105.79C105.841 13.086 106.039 13.4637 106.384 13.735C106.736 14.0063 107.161 14.142 107.66 14.142C108.144 14.142 108.544 14.021 108.859 13.779C109.182 13.5297 109.343 13.174 109.343 12.712C109.343 12.4187 109.277 12.1767 109.145 11.986C109.02 11.788 108.815 11.623 108.529 11.491C108.243 11.359 107.847 11.238 107.341 11.128C106.608 10.9667 106.039 10.732 105.636 10.424C105.233 10.1087 105.031 9.665 105.031 9.093C105.031 8.719 105.137 8.389 105.35 8.103C105.563 7.80967 105.852 7.586 106.219 7.432C106.593 7.27067 107.004 7.19 107.451 7.19C108.214 7.19 108.826 7.38433 109.288 7.773C109.75 8.16167 110.007 8.70067 110.058 9.39H109.057C108.998 8.97933 108.833 8.67133 108.562 8.466C108.291 8.26067 107.92 8.158 107.451 8.158C107.04 8.158 106.707 8.24233 106.45 8.411C106.193 8.57233 106.065 8.78867 106.065 9.06ZM116.097 14.142C116.698 14.142 117.208 13.9953 117.626 13.702C118.044 13.4013 118.33 12.987 118.484 12.459H119.54C119.43 12.987 119.221 13.4527 118.913 13.856C118.605 14.252 118.209 14.56 117.725 14.78C117.248 15 116.709 15.11 116.108 15.11C115.411 15.11 114.769 14.945 114.183 14.615C113.603 14.2777 113.141 13.8083 112.797 13.207C112.452 12.6057 112.28 11.92 112.28 11.15C112.28 10.38 112.452 9.69433 112.797 9.093C113.141 8.49167 113.603 8.026 114.183 7.696C114.769 7.35867 115.411 7.19 116.108 7.19C117.017 7.19 117.776 7.432 118.385 7.916C118.993 8.4 119.378 9.04167 119.54 9.841H118.484C118.33 9.313 118.044 8.90233 117.626 8.609C117.208 8.30833 116.698 8.158 116.097 8.158C115.547 8.158 115.063 8.28633 114.645 8.543C114.234 8.79967 113.915 9.15533 113.688 9.61C113.468 10.0647 113.358 10.578 113.358 11.15C113.358 11.722 113.468 12.2353 113.688 12.69C113.915 13.1447 114.234 13.5003 114.645 13.757C115.063 14.0137 115.547 14.142 116.097 14.142ZM122.699 10.666H126.252V7.3H127.308V15H126.252V11.634H122.699V15H121.643V7.3H122.699V10.666ZM130.778 12.228C130.778 12.844 130.921 13.317 131.207 13.647C131.493 13.977 131.929 14.142 132.516 14.142C133.102 14.142 133.539 13.977 133.825 13.647C134.111 13.317 134.254 12.844 134.254 12.228V7.3H135.31V12.272C135.31 12.822 135.196 13.3133 134.969 13.746C134.749 14.1713 134.426 14.505 134.001 14.747C133.583 14.989 133.088 15.11 132.516 15.11C131.944 15.11 131.445 14.989 131.02 14.747C130.602 14.505 130.279 14.1713 130.052 13.746C129.832 13.3133 129.722 12.822 129.722 12.272V7.3H130.778V12.228ZM139.264 15V8.268H137.306V7.3H142.278V8.268H140.32V15H139.264ZM144.114 8.268V7.3H149.152V8.048L145.06 14.032H149.284V15H143.916V14.032L147.898 8.268H144.114Z" fill="#225179"/>
<mask id="mask0" mask-type="alpha" maskUnits="userSpaceOnUse" x="0" y="4" width="13" height="13">
<path fill-rule="evenodd" clip-rule="evenodd" d="M0 4.3418V16.0829H12.5734V4.3418H0Z" fill="white"/>
</mask>
<g mask="url(#mask0)">
<path fill-rule="evenodd" clip-rule="evenodd" d="M2.60404 9.16129C2.60404 9.16129 2.78216 5.99574 6.36094 5.99478C9.92665 5.99382 9.92665 9.16129 9.92665 9.16129H2.60404ZM6.42227 4.3418C0.200488 4.34065 -0.0412358 9.17547 -0.00953119 10.4304C-0.00953119 10.4304 -0.31428 16.0829 6.27009 16.0829C11.9277 16.0829 12.2063 12.5363 12.2063 12.5363L9.6033 12.5414C9.6033 12.5414 9.09641 14.4954 6.28085 14.443C2.66115 14.3759 2.52069 10.8754 2.52069 10.8754H12.5484C12.5484 10.8754 13.3093 4.34314 6.42227 4.3418Z" fill="#E53238"/>
</g>
<path fill-rule="evenodd" clip-rule="evenodd" d="M19.2442 14.5203C15.2329 14.57 15.2981 10.3173 15.2981 10.3173C15.2981 10.3173 15.152 6.2237 19.2378 6.11847C23.3232 6.01323 23.1903 10.4046 23.1903 10.4046C23.1903 10.4046 23.2555 14.4704 19.2442 14.5203ZM19.8276 4.41794C16.6513 4.4004 15.2849 6.27613 15.2849 6.27613V0H12.7384L12.7815 13.2644C12.7815 13.2644 12.7663 14.8094 12.6699 15.8305H15.1431L15.2492 14.3405C15.2492 14.3405 16.403 16.2162 19.7741 16.2162C23.1459 16.2162 25.8079 14.1651 25.8789 10.3608C25.9497 6.55676 23.0043 4.43529 19.8276 4.41794Z" fill="#0064D2"/>
<path fill-rule="evenodd" clip-rule="evenodd" d="M30.7431 14.6064C30.7431 14.6064 28.17 14.6095 28.0191 12.5882C27.8582 10.4309 31.9777 10.5607 31.9777 10.5607L34.8878 10.5578C34.8878 10.5578 35.3591 14.666 30.7431 14.6064ZM37.4523 13.2016C37.4586 11.4801 37.5099 9.94279 37.4523 8.85846C37.3848 7.60123 37.506 4.56674 31.9777 4.3426C31.9777 4.3426 26.6775 3.86764 26.1272 7.74627H28.8379C28.8379 7.74627 29.0484 5.96921 31.7989 6.02045C34.4018 6.0688 34.8761 7.3241 34.8627 8.86774C34.8627 8.86774 32.6317 8.87393 31.8872 8.8776C30.5454 8.88418 25.8499 9.03038 25.4116 11.8425C24.8902 15.1862 27.9255 16.2293 30.3003 16.216C32.6753 16.2028 34.0303 15.5037 35.0368 14.2504L35.1443 15.807L37.506 15.7938C37.506 15.7938 37.445 14.9234 37.4523 13.2016Z" fill="#F5AF02"/>
<path fill-rule="evenodd" clip-rule="evenodd" d="M36.4492 4.86523H39.4016L43.7199 13.3553L48.0472 4.86523H50.7163L42.904 20.0004H40.0493L42.3101 15.7946L36.4492 4.86523Z" fill="#86B817"/>
<path fill-rule="evenodd" clip-rule="evenodd" d="M51.5659 6.11803V5.45738H51.2441V5.21015H51.5659V4.86523H52.1475V5.21015H52.8294V5.45738H52.1475V6.07304C52.1475 6.1849 52.2624 6.2303 52.4591 6.2303C52.5887 6.2303 52.7055 6.21571 52.8204 6.18734V6.42241C52.6761 6.46294 52.5178 6.48686 52.2963 6.48686C51.8673 6.48686 51.5659 6.39404 51.5659 6.11803Z" fill="#1A1919"/>
<path fill-rule="evenodd" clip-rule="evenodd" d="M52.8291 4.89857H53.3068V5.13909C53.4411 4.99755 53.623 4.86523 53.9429 4.86523C54.2418 4.86523 54.4552 4.97703 54.5654 5.14525C54.7316 4.97703 54.9534 4.86523 55.2691 4.86523C55.7222 4.86523 55.9996 5.08473 55.9996 5.47296V6.48686H55.5218V5.58425C55.5218 5.33141 55.3677 5.19602 55.0997 5.19602C54.838 5.19602 54.6529 5.335 54.6529 5.5904V6.48686H54.1752V5.58168C54.1752 5.335 54.0174 5.19602 53.7536 5.19602C53.4893 5.19602 53.3068 5.3468 53.3068 5.5904V6.48686H52.8291V4.89857Z" fill="#1A1919"/>
</svg>
