<svg width="17" height="15" viewBox="0 0 17 15" fill="none" xmlns="http://www.w3.org/2000/svg">
<path d="M8.49387 15C8.25487 15 8.01586 14.9148 7.83814 14.7567C7.15177 14.1606 6.48991 13.601 5.90771 13.1083C4.19791 11.6606 2.71485 10.4075 1.69142 9.17883C0.533165 7.79805 0 6.49027 0 5.06691C0 3.68005 0.47801 2.40268 1.34823 1.46594C2.23071 0.517032 3.43187 0 4.74946 0C5.72999 0 6.63086 0.310219 7.42141 0.912409C7.81975 1.21654 8.18133 1.59367 8.5 2.03163C8.81867 1.59367 9.18025 1.21654 9.57859 0.912409C10.3691 0.304136 11.27 0 12.2505 0C13.562 0 14.7693 0.523114 15.6518 1.46594C16.522 2.40268 17 3.68005 17 5.06691C17 6.49027 16.4668 7.79805 15.3147 9.17275C14.2851 10.4075 12.8082 11.6545 11.0984 13.1022C10.5162 13.5949 9.84823 14.1545 9.16186 14.7567C8.97188 14.9148 8.73288 15 8.49387 15ZM4.74333 0.985401C3.71377 0.985401 2.76388 1.39294 2.07751 2.13504C1.37888 2.88929 0.99279 3.92944 0.99279 5.06691C0.99279 6.26521 1.44016 7.34185 2.45133 8.54623C3.42574 9.71411 4.87203 10.9367 6.55119 12.354H6.55732C7.14564 12.8528 7.8075 13.4124 8.5 14.0146C9.19863 13.4124 9.86049 12.8528 10.4488 12.354C12.128 10.9367 13.5743 9.71411 14.5487 8.54623C15.5537 7.34185 16.0072 6.26521 16.0072 5.06691C16.0072 3.92944 15.6211 2.88929 14.9225 2.13504C14.2361 1.39294 13.2862 0.985401 12.2567 0.985401C11.5029 0.985401 10.8104 1.22263 10.1975 1.691C9.65213 2.11071 9.27217 2.6399 9.05155 3.01095C8.93511 3.19951 8.73288 3.31508 8.51226 3.31508C8.29164 3.31508 8.0894 3.19951 7.97296 3.01095C7.75234 2.6399 7.37239 2.11071 6.82696 1.691C6.19575 1.22263 5.49712 0.985401 4.74333 0.985401Z" fill="black"/>
</svg>
