<svg width="14" height="13" viewBox="0 0 14 13" fill="none" xmlns="http://www.w3.org/2000/svg">
<path d="M3.29718 12.9029L6.76506 10.6414V9.99999L6.78047 4.492V8.06153e-06C6.54928 8.06153e-06 6.3335 0.139422 6.22561 0.356277L4.46855 4.2132L0.569113 4.492C0.322508 4.52298 0.106729 4.69337 0.0296651 4.92572C-0.0473988 5.17355 0.029667 5.43686 0.214621 5.59176L3.46672 8.34892L2.37241 12.2213C2.31076 12.4692 2.40324 12.7325 2.6036 12.8874C2.80397 13.0268 3.0814 13.0423 3.29718 12.9029Z" fill="#FFC82E"/>
<path d="M10.7074 12.3573L10.7072 12.3573L10.7111 12.3698C10.7173 12.3898 10.7164 12.4079 10.7106 12.4248C10.7066 12.4363 10.6994 12.4494 10.6874 12.4623C10.6223 12.4914 10.5914 12.4958 10.572 12.4958C10.5453 12.4958 10.5241 12.4919 10.4917 12.4747L7.03818 10.2226L6.76506 10.0445L6.49194 10.2226L3.02585 12.4829C3.02567 12.483 3.02548 12.4831 3.02529 12.4832C3.00783 12.4944 2.98603 12.5007 2.96055 12.4999C2.93834 12.4992 2.9171 12.4931 2.89957 12.4834C2.86356 12.4495 2.84616 12.3962 2.85651 12.3469L3.94788 8.48488L4.03532 8.17546L3.79006 7.96753L0.537959 5.21037L0.537965 5.21036L0.535652 5.20842C0.512807 5.18929 0.488571 5.1408 0.505612 5.07929C0.519836 5.0422 0.56348 5.00019 0.622665 4.98944L4.50421 4.71192L4.80044 4.69074L4.92356 4.42047L6.67595 0.573809C6.7056 0.518732 6.75303 0.5 6.78047 0.5C6.83663 0.5 6.86533 0.528762 6.87541 0.552402L6.87527 0.552461L6.88032 0.563553L8.63738 4.42047L8.7605 4.69074L9.05673 4.71192L12.9562 4.99072L12.9562 4.99074L12.9605 4.99101C12.9931 4.99306 13.0363 5.01768 13.0538 5.07417L13.0537 5.0742L13.0567 5.08312C13.0662 5.11185 13.0612 5.17084 13.0127 5.21913L9.77088 7.96753L9.52563 8.17546L9.61307 8.48488L10.7074 12.3573Z" stroke="#FFC82E"/>
</svg>
