<svg width="15" height="13" viewBox="0 0 15 13" fill="none" xmlns="http://www.w3.org/2000/svg">
<path d="M10.8208 12.9029C10.9287 12.9648 11.0366 12.9958 11.1599 12.9958C11.2986 12.9958 11.4219 12.9493 11.5452 12.8874C11.761 12.7325 11.8535 12.4692 11.7764 12.2213L10.6821 8.34891L13.9342 5.59175C14.1192 5.42137 14.1962 5.15805 14.1192 4.92571C14.0421 4.67787 13.8263 4.50748 13.5797 4.49199L9.68028 4.21319L7.92322 0.356269C7.83075 0.139414 7.61497 0 7.36836 0C7.13717 0 6.92139 0.139414 6.8135 0.356269L5.05644 4.21319L1.157 4.49199C0.910399 4.52297 0.69462 4.69336 0.617556 4.92571C0.540492 5.17354 0.617558 5.43685 0.802511 5.59175L4.05461 8.34891L2.9603 12.2213C2.89865 12.4692 2.99113 12.7325 3.19149 12.8874C3.39186 13.0268 3.66929 13.0423 3.88507 12.9029L7.35295 10.6414L10.8208 12.9029Z" fill="#FFC82E"/>
</svg>
