<svg width="1035" height="553" viewBox="0 0 1035 553" fill="none" xmlns="http://www.w3.org/2000/svg">
<mask id="mask0" mask-type="alpha" maskUnits="userSpaceOnUse" x="0" y="0" width="1035" height="553">
<rect width="1035" height="553" fill="#C4C4C4"/>
</mask>
<g mask="url(#mask0)">
<rect y="0.000976562" width="1172" height="553" fill="#21394D"/>
<path d="M748 315C859.221 171.497 1027.78 206.999 1050 117L1031.78 539.462L500.001 517C656 479 672.79 412.039 748 315Z" fill="#F9DE7D"/>
<path d="M1072 471C1246.12 457.071 1096 555 1096 555L-28.0001 555L-28.0001 435L-72 364.999C-72 364.999 -122.931 406.477 -81.4045 341.399C-58.5347 305.559 -62.6444 240.673 13.5133 247.452C108.71 255.925 146.726 305.559 222 320.999C297.274 336.44 440.509 312.134 568 364.999C695.491 417.864 871.999 486.999 1072 471Z" fill="#D2E0EB"/>
</g>
</svg>
