<svg width="14" height="12" viewBox="0 0 14 12" fill="none" xmlns="http://www.w3.org/2000/svg">
<path fill-rule="evenodd" clip-rule="evenodd" d="M13.4805 0.562499C13.125 0.187497 12.7012 0 12.209 0C11.7168 0 11.2975 0.187497 10.9512 0.562499L4.63476 7.35577L3.04883 5.65385C2.70247 5.27884 2.28321 5.09135 1.79102 5.09135C1.29883 5.09135 0.875002 5.27884 0.519531 5.65385C0.173175 6.02885 0 6.48317 0 7.01683C0 7.55048 0.173175 8.00481 0.519531 8.37981L3.36328 11.4375C3.71875 11.8125 4.14258 12 4.63476 12C5.12696 12 5.54622 11.8125 5.89258 11.4375L13.4805 3.28846C13.8268 2.90384 14 2.44712 14 1.91827C14 1.38942 13.8268 0.937501 13.4805 0.562499Z" fill="black"/>
</svg>
