<svg width="14" height="14" viewBox="0 0 14 14" fill="none" xmlns="http://www.w3.org/2000/svg">
<path d="M6.625 1.19416C8.39388 1.19416 8.60367 1.20078 9.3026 1.2328C11.098 1.31451 11.9366 2.16637 12.0183 3.9485C12.0503 4.64689 12.0564 4.85668 12.0564 6.62555C12.0564 8.39498 12.0498 8.60422 12.0183 9.3026C11.936 11.0831 11.0996 11.9366 9.3026 12.0183C8.60367 12.0503 8.39498 12.0569 6.625 12.0569C4.85612 12.0569 4.64633 12.0503 3.94795 12.0183C2.14816 11.936 1.31396 11.0803 1.23225 9.30205C1.20023 8.60367 1.1936 8.39443 1.1936 6.625C1.1936 4.85612 1.20078 4.64689 1.23225 3.94795C1.31451 2.16637 2.15092 1.31396 3.94795 1.23225C4.64689 1.20078 4.85612 1.19416 6.625 1.19416ZM6.625 0C4.82576 0 4.60051 0.00772917 3.89384 0.03975C1.48786 0.150167 0.150719 1.4851 0.0403021 3.89329C0.00772917 4.60051 0 4.82576 0 6.625C0 8.42424 0.00772917 8.65004 0.03975 9.35671C0.150167 11.7627 1.4851 13.0998 3.89329 13.2102C4.60051 13.2423 4.82576 13.25 6.625 13.25C8.42424 13.25 8.65004 13.2423 9.35671 13.2102C11.7605 13.0998 13.1009 11.7649 13.2097 9.35671C13.2423 8.65004 13.25 8.42424 13.25 6.625C13.25 4.82576 13.2423 4.60051 13.2102 3.89384C13.102 1.49007 11.7654 0.150719 9.35726 0.0403021C8.65004 0.00772917 8.42424 0 6.625 0V0ZM6.625 3.22306C4.74626 3.22306 3.22306 4.74626 3.22306 6.625C3.22306 8.50374 4.74626 10.0275 6.625 10.0275C8.50374 10.0275 10.0269 8.50429 10.0269 6.625C10.0269 4.74626 8.50374 3.22306 6.625 3.22306ZM6.625 8.83333C5.40545 8.83333 4.41667 7.8451 4.41667 6.625C4.41667 5.40545 5.40545 4.41667 6.625 4.41667C7.84455 4.41667 8.83333 5.40545 8.83333 6.625C8.83333 7.8451 7.84455 8.83333 6.625 8.83333ZM10.1616 2.29391C9.72219 2.29391 9.36609 2.65 9.36609 3.08891C9.36609 3.52781 9.72219 3.88391 10.1616 3.88391C10.6006 3.88391 10.9561 3.52781 10.9561 3.08891C10.9561 2.65 10.6006 2.29391 10.1616 2.29391Z" fill="#1E0339"/>
</svg>
