<?xml version="1.0" encoding="UTF-8"?>
<svg width="20px" height="20px" viewBox="0 0 20 20" version="1.1" xmlns="http://www.w3.org/2000/svg" xmlns:xlink="http://www.w3.org/1999/xlink">
    <!-- Generator: sketchtool 52.5 (67469) - http://www.bohemiancoding.com/sketch -->
    <title>B4528502-408C-446F-99BD-89201EA23FDC@2x</title>
    <desc>Created with sketchtool.</desc>
    <defs>
        <polygon id="path-1" points="0 0 19.9997 0 19.9997 19.9997 0 19.9997"></polygon>
    </defs>
    <g id="Page-1" stroke="none" stroke-width="1" fill="none" fill-rule="evenodd">
        <g id="desktop-registrierung" transform="translate(-1380.000000, -893.000000)">
            <g id="oder-anmelden-mit" transform="translate(1154.000000, 778.000000)">
                <g id="Group-8-Copy" transform="translate(226.000000, 115.000000)">
                    <g id="Group-3">
                        <mask id="mask-2" fill="white">
                            <use xlink:href="#path-1"></use>
                        </mask>
                        <g id="Clip-2"></g>
                        <path d="M18.2257,14.4807 C18.2257,16.5457 16.5457,18.2257 14.4807,18.2257 L5.5197,18.2257 C3.4547,18.2257 1.7747,16.5457 1.7747,14.4807 L1.7747,5.5197 C1.7747,3.4547 3.4547,1.7747 5.5197,1.7747 L14.4807,1.7747 C16.5457,1.7747 18.2257,3.4547 18.2257,5.5197 L18.2257,14.4807 Z M14.4807,-0.0003 L5.5197,-0.0003 C2.4757,-0.0003 -0.0003,2.4757 -0.0003,5.5197 L-0.0003,14.4807 C-0.0003,17.5237 2.4757,19.9997 5.5197,19.9997 L14.4807,19.9997 C17.5247,19.9997 19.9997,17.5237 19.9997,14.4807 L19.9997,5.5197 C19.9997,2.4757 17.5247,-0.0003 14.4807,-0.0003 Z" id="Fill-1" fill="#FEFEFE" mask="url(#mask-2)"></path>
                    </g>
                    <path d="M10.0001,13.3782 C8.1371,13.3782 6.6211,11.8632 6.6211,10.0002 C6.6211,8.1372 8.1371,6.6202 10.0001,6.6202 C11.8631,6.6202 13.3791,8.1372 13.3791,10.0002 C13.3791,11.8632 11.8631,13.3782 10.0001,13.3782 M10.0001,4.8462 C7.1581,4.8462 4.8471,7.1582 4.8471,10.0002 C4.8471,12.8412 7.1581,15.1532 10.0001,15.1532 C12.8421,15.1532 15.1531,12.8412 15.1531,10.0002 C15.1531,7.1582 12.8421,4.8462 10.0001,4.8462" id="Fill-4" fill="#FEFEFE"></path>
                    <path d="M15.3702,3.3421 C15.0272,3.3421 14.6922,3.4801 14.4502,3.7231 C14.2072,3.9641 14.0682,4.3001 14.0682,4.6431 C14.0682,4.9851 14.2082,5.3211 14.4502,5.5641 C14.6912,5.8051 15.0272,5.9451 15.3702,5.9451 C15.7132,5.9451 16.0472,5.8051 16.2902,5.5641 C16.5322,5.3211 16.6712,4.9851 16.6712,4.6431 C16.6712,4.3001 16.5322,3.9641 16.2902,3.7231 C16.0482,3.4801 15.7132,3.3421 15.3702,3.3421" id="Fill-6" fill="#FEFEFE"></path>
                </g>
            </g>
        </g>
    </g>
</svg>