<svg width="17" height="15" viewBox="0 0 17 15" fill="none" xmlns="http://www.w3.org/2000/svg">
<path d="M8.28797 11.9858C8.35052 12.0391 8.42803 12.0655 8.50522 12.0655C8.58273 12.0655 8.66024 12.0391 8.72279 11.9858C10.1616 10.7609 11.1803 10.1117 11.1344 8.98287C11.1011 8.1605 10.4391 7.50018 9.65363 7.50018C9.64631 7.50018 9.63932 7.50018 9.63201 7.50051C9.08608 7.50868 8.72844 7.79848 8.50522 8.09352C8.28199 7.79848 7.92435 7.50835 7.37876 7.50051C7.37144 7.50051 7.36445 7.50018 7.35713 7.50018C6.57167 7.50018 5.90931 8.16082 5.87604 8.98287C5.83013 10.1186 6.86743 10.7766 8.28797 11.9858ZM6.53974 9.009C6.5587 8.54211 6.93197 8.15266 7.35813 8.15266C7.36179 8.15266 7.36512 8.15266 7.36878 8.15266C7.96361 8.16148 8.17619 8.85969 8.18617 8.89269C8.22643 9.03318 8.35684 9.13055 8.50588 9.13055C8.65525 9.13055 8.786 9.03286 8.82592 8.89138C8.82792 8.88387 9.0385 8.16148 9.64265 8.15233C9.64631 8.15233 9.64964 8.15233 9.6533 8.15233C10.0791 8.15233 10.4524 8.54179 10.4714 9.00868C10.501 9.74022 9.71817 10.2921 8.50588 11.3092C7.29259 10.2917 6.51013 9.73989 6.53974 9.009Z" fill="black"/>
<path d="M16.9386 9.26779C15.1727 6.82159 11.785 3.91307 8.49979 3.91307C5.21557 3.91307 1.80226 6.85589 0.0610081 9.26779C-0.0204988 9.38083 -0.0204988 9.53211 0.0610081 9.64515C1.85116 12.125 5.26148 14.9999 8.49979 14.9999C11.8176 14.9999 15.2206 12.0247 16.9386 9.64515C17.0201 9.53211 17.0201 9.38083 16.9386 9.26779ZM8.49979 14.3477C5.54991 14.3477 2.54414 11.7633 0.745998 9.45631C2.54414 7.14897 5.54925 4.56489 8.49979 4.56489C11.4497 4.56489 14.4558 7.14962 16.2536 9.45631C14.4551 11.7636 11.4503 14.3477 8.49979 14.3477Z" fill="black"/>
<path d="M8.49994 4.23927C8.68324 4.23927 8.83195 4.09323 8.83195 3.9132V0.326073C8.83195 0.146047 8.68324 0 8.49994 0C8.31663 0 8.16792 0.146047 8.16792 0.326073V3.9132C8.16792 4.09323 8.31663 4.23927 8.49994 4.23927Z" fill="black"/>
<path d="M13.901 6.40053L16.5335 3.81514C16.6632 3.68804 16.6632 3.48155 16.5335 3.35413C16.4037 3.2267 16.1938 3.2267 16.0641 3.35413L13.4316 5.93951C13.3021 6.06694 13.3021 6.2731 13.4316 6.40053C13.5613 6.52795 13.7712 6.52795 13.901 6.40053Z" fill="black"/>
<path d="M5.47138 4.70929C5.56253 4.85893 5.75748 4.92297 5.91517 4.84292C6.0865 4.75569 6.14539 4.54626 6.04791 4.38583L4.17492 1.30872C4.0841 1.15974 3.89048 1.09668 3.73312 1.17575C3.56079 1.26266 3.50124 1.47274 3.59905 1.63349L5.47138 4.70929Z" fill="black"/>
<path d="M3.0131 6.33702C3.14284 6.46444 3.3531 6.46444 3.48284 6.33702C3.61226 6.20992 3.61226 6.00343 3.48284 5.87601L0.893587 3.3331C0.763842 3.20568 0.553587 3.20568 0.423842 3.3331C0.294429 3.4602 0.294429 3.66669 0.423842 3.79411L3.0131 6.33702Z" fill="black"/>
<path d="M8.50549 5.51819C6.28651 5.51819 4.48105 7.29133 4.48105 9.47059C4.48105 11.6499 6.28651 13.423 8.50549 13.423C10.7245 13.423 12.5299 11.6499 12.5299 9.47059C12.5299 7.29133 10.7245 5.51819 8.50549 5.51819ZM8.50549 6.20431C9.47592 6.20431 10.3505 6.61468 10.959 7.26813C11.494 7.84709 11.82 8.61522 11.82 9.45687C11.82 11.2548 10.3306 12.7176 8.49983 12.7176C6.67042 12.7176 5.18201 11.2571 5.17968 9.46112C5.185 7.66445 6.67475 6.20431 8.50549 6.20431Z" fill="black"/>
<path d="M11.5931 4.70946C11.502 4.8591 11.307 4.92314 11.1493 4.84309C10.978 4.75586 10.9191 4.54642 11.0166 4.386L12.8896 1.30889C12.9804 1.1599 13.174 1.09685 13.3314 1.17591C13.5037 1.26282 13.5633 1.47291 13.4655 1.63366L11.5931 4.70946Z" fill="black"/>
</svg>
