<svg width="17" height="15" viewBox="0 0 17 15" fill="none" xmlns="http://www.w3.org/2000/svg">
<g clip-path="url(#clip0)">
<path d="M8.2884 11.9856C8.35095 12.0389 8.42846 12.0653 8.50564 12.0653C8.58316 12.0653 8.66067 12.0389 8.72322 11.9856C10.1621 10.7607 11.1807 10.1115 11.1348 8.98268C11.1016 8.16031 10.4395 7.5 9.65406 7.5C9.64674 7.5 9.63975 7.5 9.63243 7.50033C9.0865 7.50849 8.72887 7.7983 8.50564 8.09333C8.28241 7.7983 7.92478 7.50817 7.37919 7.50033C7.37187 7.50033 7.36488 7.5 7.35756 7.5C6.5721 7.5 5.90973 8.16064 5.87647 8.98268C5.83056 10.1184 6.86785 10.7764 8.2884 11.9856ZM6.54016 9.00882C6.55913 8.54193 6.93239 8.15247 7.35856 8.15247C7.36222 8.15247 7.36555 8.15247 7.3692 8.15247C7.96404 8.16129 8.17662 8.85951 8.1866 8.89251C8.22686 9.033 8.35727 9.13036 8.50631 9.13036C8.65568 9.13036 8.78642 9.03267 8.82635 8.8912C8.82834 8.88368 9.03893 8.16129 9.64308 8.15214C9.64674 8.15214 9.65006 8.15214 9.65372 8.15214C10.0796 8.15214 10.4528 8.5416 10.4718 9.00849C10.5014 9.74003 9.7186 10.2919 8.50631 11.309C7.29302 10.2915 6.51056 9.73971 6.54016 9.00882Z" fill="white"/>
<path d="M16.9387 9.2678C15.1728 6.8216 11.7851 3.91309 8.49992 3.91309C5.21569 3.91309 1.80238 6.85591 0.0611301 9.2678C-0.0203767 9.38085 -0.0203767 9.53212 0.0611301 9.64517C1.85129 12.125 5.2616 14.9999 8.49992 14.9999C11.8177 14.9999 15.2207 12.0247 16.9387 9.64517C17.0202 9.53212 17.0202 9.38085 16.9387 9.2678ZM8.49992 14.3477C5.55003 14.3477 2.54426 11.7633 0.74612 9.45632C2.54426 7.14898 5.54937 4.5649 8.49992 4.5649C11.4498 4.5649 14.4559 7.14963 16.2537 9.45632C14.4552 11.7637 11.4505 14.3477 8.49992 14.3477Z" fill="white"/>
<path d="M8.49998 4.23927C8.68329 4.23927 8.832 4.09323 8.832 3.9132V0.326073C8.832 0.146047 8.68329 0 8.49998 0C8.31668 0 8.16797 0.146047 8.16797 0.326073V3.9132C8.16797 4.09323 8.31668 4.23927 8.49998 4.23927Z" fill="white"/>
<path d="M13.9014 6.40075L16.5339 3.81537C16.6637 3.68827 16.6637 3.48178 16.5339 3.35436C16.4042 3.22693 16.1943 3.22693 16.0645 3.35436L13.432 5.93974C13.3026 6.06717 13.3026 6.27333 13.432 6.40075C13.5618 6.52818 13.7717 6.52818 13.9014 6.40075Z" fill="white"/>
<path d="M5.47112 4.70946C5.56227 4.8591 5.75722 4.92314 5.91491 4.84309C6.08625 4.75586 6.14513 4.54642 6.04765 4.386L4.17466 1.30889C4.08384 1.1599 3.89022 1.09685 3.73286 1.17591C3.56053 1.26282 3.50098 1.47291 3.59879 1.63366L5.47112 4.70946Z" fill="white"/>
<path d="M3.01346 6.33679C3.14321 6.46422 3.35346 6.46422 3.48321 6.33679C3.61262 6.2097 3.61262 6.0032 3.48321 5.87578L0.893954 3.33287C0.764208 3.20545 0.553954 3.20545 0.424208 3.33287C0.294795 3.45997 0.294795 3.66646 0.424208 3.79388L3.01346 6.33679Z" fill="white"/>
<path d="M8.50588 5.51807C6.2869 5.51807 4.48145 7.29121 4.48145 9.47047C4.48145 11.6497 6.2869 13.4229 8.50588 13.4229C10.7249 13.4229 12.5303 11.6497 12.5303 9.47047C12.5303 7.29121 10.7249 5.51807 8.50588 5.51807ZM8.50588 6.20419C9.47631 6.20419 10.3509 6.61456 10.9594 7.26801C11.4944 7.84697 11.8204 8.6151 11.8204 9.45675C11.8204 11.2547 10.331 12.7175 8.50023 12.7175C6.67082 12.7175 5.1824 11.257 5.18007 9.461C5.1854 7.66433 6.67514 6.20419 8.50588 6.20419Z" fill="white"/>
<path d="M11.5933 4.70946C11.5021 4.8591 11.3072 4.92314 11.1495 4.84309C10.9781 4.75586 10.9193 4.54642 11.0167 4.386L12.8897 1.30889C12.9805 1.1599 13.1742 1.09685 13.3315 1.17591C13.5038 1.26282 13.5634 1.47291 13.4656 1.63366L11.5933 4.70946Z" fill="white"/>
</g>
<defs>
<clipPath id="clip0">
<rect width="17" height="15" fill="white"/>
</clipPath>
</defs>
</svg>
