<svg width="46" height="47" viewBox="0 0 46 47" fill="none" xmlns="http://www.w3.org/2000/svg">
<path d="M42.2352 25.9318C42.2352 37.3237 32.8322 46.5592 21.2341 46.5592C18.389 46.5592 15.677 46.0033 13.2032 44.9961C6.4414 42.2454 1.4616 36.1247 0.431722 28.7676C0.300648 27.8414 0.23407 26.8944 0.23407 25.9329C0.23407 14.5399 9.63609 5.30444 21.2341 5.30444C32.8322 5.30444 42.2352 14.5389 42.2352 25.9318Z" fill="#E3E3DB"/>
<path d="M42.0792 26.2554C41.8202 26.2554 41.6111 26.0469 41.6111 25.7886C41.6111 18.7998 38.071 12.3918 32.1425 8.64633C31.924 8.50837 31.8595 8.22002 31.9979 8.00221C32.1362 7.78439 32.4254 7.72008 32.6439 7.85803C38.845 11.7757 42.5473 18.4782 42.5473 25.7886C42.5473 26.0469 42.3382 26.2554 42.0792 26.2554Z" fill="black"/>
<path d="M44.1275 26.3974L31.3123 34.6569C30.3678 35.2813 29.856 35.5904 28.9093 36.0509C27.7879 35.8725 26.5375 36.5208 25.5908 37.1462L23.9201 37.9148L13.9834 23.3106L16.4208 12.8097C16.6101 11.9924 16.7048 11.1636 16.7048 10.339C16.7048 8.20442 16.0785 6.09677 14.877 4.2868C14.5816 3.84183 14.4411 3.33877 14.4411 2.84194C14.4411 1.99245 14.8541 1.15956 15.6177 0.655463C16.6465 -0.0249593 17.0751 0.101583 17.9614 0.958334L19.5572 2.50277C21.3631 4.2505 22.9485 6.56559 23.8234 8.91803L24.6795 11.2165L34.2272 5.19956C34.2272 5.19956 36.3972 4.46935 37.296 5.90695C38.1636 7.29269 38.0305 9.1234 36.6635 10.0258C36.6469 10.0372 37.4781 10.2612 37.4833 10.2747C37.4905 10.2892 37.5072 10.2986 37.5259 10.2913C37.8744 10.1575 37.3023 10.2996 37.6643 10.2996C38.2416 10.2996 38.8138 10.4656 39.3027 10.7809C39.6398 10.9987 39.9383 11.2871 40.1745 11.6418C40.6291 12.3274 40.8694 12.7174 40.7206 13.4642C40.4865 14.6425 39.0738 15.8706 38.9053 15.9847C38.8762 16.0044 38.9043 15.9847 38.9053 15.9847C38.924 16.0116 40.4377 15.7949 40.4657 15.7772C40.706 15.7191 42.2082 16.5655 42.4423 16.9182C43.3588 18.2987 42.3715 20.7756 40.9859 21.6894C40.9516 21.7122 42.6847 21.3565 42.6503 21.3783C42.6306 21.3938 43.5606 21.4104 44.3148 21.8969C44.6622 22.1188 45.0409 22.3896 45.2843 22.7567C46.2018 24.1414 45.5111 25.4826 44.1275 26.3974Z" fill="#FDD7BD"/>
<path d="M23.2148 41.206L15.9994 45.8611C15.9994 45.8611 9.15443 44.2005 5.61749 39.7404C2.08055 35.2803 0.595032 28.0363 0.595032 28.0363L5.00476 25.103L10.7096 21.3358C11.3661 20.9012 12.5645 21.1854 12.9993 21.842L24.1375 39.1284C24.5745 39.785 23.8733 40.7704 23.2148 41.206Z" fill="url(#paint0_linear)"/>
<path d="M39.4265 10.8866L35.8292 12.929C35.203 13.2619 34.4269 13.0887 34.0067 12.5203L37.4843 10.2768C37.4916 10.2913 37.5082 10.3006 37.5269 10.2933C37.8754 10.1585 38.9365 10.5713 39.4265 10.8866Z" fill="#FAC5AA"/>
<path d="M42.0272 16.5053L38.4736 18.3858C37.8473 18.7197 37.0713 18.5465 36.651 17.9781L40.1287 15.7346L40.2785 15.6641C40.2972 15.691 40.3357 15.6983 40.3627 15.6807C40.6041 15.6226 41.5226 16.1848 42.0272 16.5053Z" fill="#FAC5AA"/>
<path d="M44.94 21.7951L41.5227 23.5874C40.8985 23.9203 40.1214 23.7471 39.7001 23.1787L42.7127 21.235C42.7283 21.2474 42.7523 21.2474 42.772 21.2329C43.6323 20.9404 44.1858 21.3086 44.94 21.7951Z" fill="#FAC5AA"/>
<path d="M16.3948 0.933507C16.8525 0.933507 17.3081 1.10465 17.6514 1.43656L19.2306 2.96233C20.9387 4.6136 22.2786 6.66109 23.1056 8.88491L23.9659 11.1948C23.968 11.199 23.969 11.2031 23.9711 11.2073C23.9732 11.2125 23.9753 11.2187 23.9774 11.2239C23.9836 11.2384 23.9888 11.2508 23.995 11.2622C24.0117 11.2975 24.0304 11.3317 24.0523 11.3639C24.2114 11.6035 24.4746 11.7331 24.742 11.7331C24.899 11.7331 25.0572 11.6885 25.1976 11.5962L34.0129 5.7753C34.3822 5.53155 34.8004 5.41434 35.2134 5.41434C35.9208 5.41434 36.6157 5.75663 37.0349 6.38726C37.6986 7.38715 37.4229 8.73866 36.4211 9.40041L35.6555 9.90555C35.6555 9.90555 35.6555 9.90555 35.6545 9.90555L33.9474 11.033C33.9453 11.0351 33.9432 11.0361 33.9411 11.0372C33.9318 11.0444 33.9224 11.0506 33.9141 11.0569C33.5614 11.3151 33.4699 11.8068 33.7143 12.175C33.8735 12.4146 34.1357 12.5443 34.404 12.5443C34.5611 12.5443 34.7192 12.4997 34.8597 12.4073L36.5678 11.2788C36.9288 11.0413 37.3428 10.9179 37.7662 10.9179C37.9119 10.9179 38.0585 10.9324 38.2052 10.9625C38.7763 11.0776 39.2673 11.4085 39.5888 11.8929C39.9102 12.3773 40.0236 12.9571 39.9081 13.5265C39.7927 14.096 39.4608 14.5855 38.975 14.9071L36.5023 16.5407C36.1215 16.7917 36.0175 17.3031 36.2693 17.6827C36.4284 17.9223 36.6906 18.052 36.959 18.052C37.115 18.052 37.2742 18.0073 37.4146 17.915L37.7974 17.662L39.1217 16.7876C39.491 16.5438 39.9092 16.4266 40.3222 16.4266C41.0296 16.4266 41.7245 16.7689 42.1437 17.3995C42.8074 18.3994 42.5317 19.7509 41.5299 20.4137L40.2941 21.229C40.2878 21.2331 40.2816 21.2373 40.2743 21.2414L39.0562 22.0453C38.6754 22.2963 38.5714 22.8076 38.8231 23.1873C38.9823 23.4269 39.2444 23.5565 39.5128 23.5565C39.6689 23.5565 39.828 23.5119 39.9685 23.4196L40.3513 23.1665L41.6756 22.2921C42.0366 22.0536 42.4506 21.9302 42.874 21.9302C43.0196 21.9302 43.1673 21.9447 43.313 21.9748C43.8841 22.0899 44.3751 22.4208 44.6976 22.9051C45.019 23.3895 45.1324 23.9693 45.0159 24.5388C44.9004 25.1082 44.5686 25.5978 44.0828 25.9193L41.1814 27.8351C41.1804 27.8351 41.1794 27.8361 41.1783 27.8372C41.1783 27.8372 32.6283 33.3407 30.8234 34.4672C29.0185 35.5936 26.6311 35.5905 23.7183 37.3538L14.1988 23.039L16.5571 12.8834C17.1646 10.2675 16.8442 7.51162 15.6874 5.11043C15.677 5.08554 15.6655 5.06065 15.652 5.03679C15.4294 4.58352 15.1777 4.1427 14.8957 3.71847C14.3475 2.89283 14.5753 1.77574 15.4034 1.22912C15.704 1.03101 16.0504 0.933507 16.3948 0.933507ZM16.3948 0C15.8549 0 15.3327 0.155584 14.8864 0.451195C13.6276 1.28202 13.2812 2.97892 14.1145 4.23397C14.3714 4.62086 14.6055 5.02953 14.8104 5.44649L14.8198 5.46516L14.825 5.4745L14.8323 5.49213L14.8427 5.51391C15.9142 7.73877 16.1992 10.281 15.6437 12.6718L13.2854 22.8274L13.1949 23.2184L13.4175 23.5534L22.9371 37.8682L23.4343 38.6161L24.2031 38.1504C25.7094 37.2386 27.0992 36.8206 28.3257 36.4514C29.3972 36.1288 30.4094 35.8249 31.3238 35.2534C33.008 34.2016 40.6301 29.2976 41.5903 28.6804L41.6017 28.6763L41.7026 28.6078L44.6029 26.6931C45.2968 26.2347 45.7711 25.5345 45.9365 24.7203C46.102 23.9071 45.9407 23.0784 45.4819 22.3865C45.0211 21.6937 44.3189 21.2217 43.5023 21.0568C43.2974 21.0153 43.0862 20.9935 42.8771 20.9935C42.6555 20.9935 42.4371 21.0174 42.2228 21.063C43.5106 20.0797 43.8342 18.249 42.9249 16.8799C42.3466 16.0086 41.3739 15.489 40.3232 15.489C40.1006 15.489 39.8801 15.5128 39.6658 15.5584C40.266 15.1021 40.6748 14.4528 40.8257 13.7091C40.9911 12.8959 40.8298 12.0671 40.37 11.3743C39.9113 10.6824 39.2091 10.2105 38.3925 10.0445C38.1865 10.003 37.9764 9.98126 37.7673 9.98126C37.5457 9.98126 37.3272 10.0051 37.1129 10.0508C38.4018 9.06746 38.7243 7.23675 37.8161 5.86761C37.2378 4.99634 36.2651 4.47668 35.2144 4.47668C34.6017 4.47668 34.0077 4.65509 33.4969 4.99323L24.796 10.7374L23.9846 8.55715C23.1087 6.20471 21.6908 4.03794 19.8828 2.2902L18.3037 0.766513C17.7919 0.272791 17.1146 0 16.3948 0Z" fill="black"/>
<path d="M11.5471 20.5505L24.8626 39.843L20.3894 43.0584L7.07388 23.6622L11.5471 20.5505Z" fill="#BA644C"/>
<path d="M20.4113 43.5242C20.2625 43.5242 20.1169 43.4537 20.0253 43.323L6.89913 24.3593L0.848878 28.4118C0.634581 28.5559 0.343303 28.4989 0.198705 28.2842C0.0541062 28.0705 0.111321 27.7801 0.326659 27.6359L6.76077 23.3262C6.97299 23.1841 7.26114 23.2381 7.40678 23.4486L20.5299 42.4082L24.3706 39.7726L9.85872 18.3745C9.71412 18.1608 9.77029 17.8704 9.98459 17.7262C10.1989 17.5821 10.4902 17.6381 10.6348 17.8517L25.4067 39.6336C25.5503 39.8462 25.4962 40.1345 25.2839 40.2798L20.6766 43.4423C20.5954 43.4972 20.5028 43.5242 20.4113 43.5242Z" fill="black"/>
<path d="M30.8161 7.81768C30.7433 7.81768 30.6705 7.80108 30.6018 7.76581C27.8388 6.3417 24.8533 5.58452 21.7262 5.5171C21.4672 5.51191 21.2622 5.29824 21.2685 5.03997C21.2737 4.78274 21.49 4.57841 21.747 4.58359C25.0176 4.65516 28.1426 5.44657 31.0325 6.93603C31.2624 7.05427 31.3519 7.3364 31.2333 7.56459C31.149 7.72536 30.9857 7.81768 30.8161 7.81768Z" fill="black"/>
<path d="M21.2737 46.9999C9.5435 46.9999 0 37.4854 0 25.7885C0 21.1148 1.49488 16.6827 4.32235 12.9704C7.05828 9.37851 10.9427 6.70245 15.2588 5.43703C15.5064 5.36443 15.7675 5.50549 15.8403 5.75339C15.9131 6.00025 15.7716 6.26059 15.523 6.3332C11.3973 7.54365 7.68348 10.1015 5.06719 13.5357C2.36455 17.0841 0.936249 21.3212 0.936249 25.7885C0.936249 36.9699 10.0595 46.0664 21.2737 46.0664C26.3419 46.0664 31.1969 44.1962 34.945 40.8014C38.6671 37.4293 40.9973 32.8375 41.505 27.8713C41.531 27.6151 41.763 27.4294 42.0178 27.4543C42.2748 27.4802 42.462 27.7095 42.436 27.9657C41.9044 33.1611 39.4671 37.9646 35.5743 41.4922C31.6535 45.0447 26.5749 46.9999 21.2737 46.9999Z" fill="black"/>
<defs>
<linearGradient id="paint0_linear" x1="0.595417" y1="33.4946" x2="24.2734" y2="33.4946" gradientUnits="userSpaceOnUse">
<stop stop-color="#E37B5E"/>
<stop offset="1" stop-color="#E37B5E"/>
</linearGradient>
</defs>
</svg>
