<?xml version="1.0" encoding="UTF-8"?>
<svg width="18px" height="14px" viewBox="0 0 18 14" version="1.1" xmlns="http://www.w3.org/2000/svg" xmlns:xlink="http://www.w3.org/1999/xlink">
    <!-- Generator: sketchtool 51.2 (57519) - http://www.bohemiancoding.com/sketch -->
    <title>508BEF4E-1E2F-4870-84C6-471014B292F1</title>
    <desc>Created with sketchtool.</desc>
    <defs></defs>
    <g id="Page-1" stroke="none" stroke-width="1" fill="none" fill-rule="evenodd">
        <g id="CATCH-DESKTOP-Anmeldung" transform="translate(-662.000000, -663.000000)" fill="#FFFFFF" fill-rule="nonzero">
            <g id="social" transform="translate(532.000000, 629.000000)">
                <path d="M147.97898,35.667572 C147.95317,35.6385263 147.910584,35.6286684 147.874266,35.6445115 C147.336132,35.8724758 146.769975,36.0363636 146.186858,36.1331824 C146.805925,35.6885201 147.267183,35.0727524 147.503711,34.3666792 C147.515141,34.3328807 147.503342,34.2959135 147.474398,34.2739092 C147.44527,34.2519049 147.404896,34.2490884 147.373003,34.2672199 C146.67577,34.6620646 145.920649,34.9403747 145.12755,35.0947567 C144.424786,34.3983654 143.443461,34 142.427845,34 C140.362324,34 138.682106,35.6043757 138.682106,37.5764869 C138.682106,37.8150132 138.706256,38.0512511 138.754189,38.2806237 C135.893357,38.1119829 133.218356,36.8005281 131.399502,34.6703382 C131.380882,34.64851 131.352676,34.6363636 131.323179,34.6391802 C131.293866,34.6412926 131.267688,34.6571357 131.252939,34.6812524 C130.921099,35.224846 130.745777,35.8467748 130.745777,36.4794417 C130.745777,37.5759588 131.267503,38.6011819 132.155914,39.2776814 C131.698527,39.2252232 131.251833,39.0877405 130.849016,38.874211 C130.821916,38.8596002 130.788179,38.8597762 130.761078,38.8747391 C130.733978,38.889526 130.716833,38.9169873 130.716095,38.9469131 L130.715727,38.992682 C130.715727,40.567484 131.802504,41.9502326 133.348695,42.4093298 C132.941453,42.471998 132.51891,42.4677732 132.103557,42.3920785 C132.072953,42.3866214 132.040876,42.3966554 132.019859,42.4191877 C131.999027,42.4417201 131.992021,42.4732302 132.001608,42.5017478 C132.465262,43.8836162 133.75354,44.8526845 135.25309,44.973444 C134.002236,45.84851 132.523703,46.3095436 130.961473,46.3095436 C130.673694,46.3095436 130.383886,46.2931724 130.099979,46.2613102 C130.05942,46.2569093 130.019231,46.2799698 130.00522,46.317113 C129.991209,46.3546083 130.006142,46.3965045 130.041169,46.4178046 C131.731711,47.4530617 133.686435,48 135.694253,48 C142.261925,48 146.186489,42.9059223 146.186489,37.9811895 C146.186489,37.8440588 146.183724,37.7076323 146.178009,37.5715579 C146.886488,37.0767258 147.494678,36.4709921 147.985064,35.7698479 C148.007002,35.7385138 148.004606,35.6967937 147.97898,35.667572 Z" id="Shape"></path>
            </g>
        </g>
    </g>
</svg>