<svg width="1067" height="857" viewBox="0 0 1067 857" fill="none" xmlns="http://www.w3.org/2000/svg">
<path d="M235.522 543.069C148.609 564.595 59.627 633.361 26 665.053V740.397L185.082 857L798 799.595L755.94 783.45C878.049 783.45 520.317 508.626 464.445 507.191C394.604 505.397 344.163 516.16 235.522 543.069Z" fill="#FEA991"/>
<path d="M194.653 462.059C162.802 374.912 -1.11424e-05 75.8283 -1.11424e-05 75.8283C0.000281847 -56.959 260.986 12.1532 414.936 75.8283C607.374 155.422 969.921 16.1329 1045.52 75.8283C1106 123.585 1031.81 404.258 909.66 404.258C787.508 404.258 571.358 694.922 484.022 657.709C396.686 620.496 226.504 549.206 194.653 462.059Z" fill="#BFCFC4"/>
<path d="M725.531 510.122V508.247C725.531 506.308 723.954 504.731 722.016 504.731C720.077 504.731 718.5 506.308 718.5 508.247V510.122C718.5 512.06 720.077 513.637 722.016 513.637C723.954 513.637 725.531 512.06 725.531 510.122ZM720.844 510.122V508.247C720.844 507.601 721.369 507.075 722.016 507.075C722.662 507.075 723.188 507.601 723.188 508.247V510.122C723.188 510.768 722.662 511.294 722.016 511.294C721.369 511.294 720.844 510.768 720.844 510.122Z" fill="#BFCFC4"/>
<path d="M731.391 513.637C733.329 513.637 734.906 512.06 734.906 510.122V508.247C734.906 506.308 733.329 504.731 731.391 504.731C729.452 504.731 727.875 506.308 727.875 508.247V510.122C727.875 512.06 729.452 513.637 731.391 513.637ZM730.219 508.247C730.219 507.601 730.744 507.075 731.391 507.075C732.037 507.075 732.562 507.601 732.562 508.247V510.122C732.562 510.768 732.037 511.294 731.391 511.294C730.744 511.294 730.219 510.768 730.219 510.122V508.247Z" fill="#BFCFC4"/>
<path d="M741.938 548.219C744.005 548.219 745.688 546.537 745.688 544.469V530.172C745.688 527.975 743.9 526.188 741.703 526.188H740.355C739.854 524.561 738.336 523.375 736.547 523.375H732.562V521.031H735.609C737.806 521.031 739.594 519.244 739.594 517.047V514.469H740.766C743.221 514.469 745.219 512.471 745.219 510.016V500.172C745.219 499.525 744.694 499 744.047 499C743.4 499 742.875 499.525 742.875 500.172V506.095C742.247 505.756 741.528 505.562 740.766 505.562H739.594V502.984C739.594 500.787 737.806 499 735.609 499H717.797C715.6 499 713.812 500.787 713.812 502.984V505.562H712.641C711.878 505.562 711.159 505.756 710.531 506.095V500.172C710.531 499.525 710.006 499 709.359 499C708.712 499 708.188 499.525 708.188 500.172V510.114C708.188 510.148 708.19 510.181 708.193 510.214C708.297 512.578 710.252 514.469 712.641 514.469H713.812V517.047C713.812 519.244 715.6 521.031 717.797 521.031H720.844V523.375H716.859C715.07 523.375 713.553 524.561 713.051 526.188H711.703C709.506 526.188 707.719 527.975 707.719 530.172V544.469C707.719 546.537 709.401 548.219 711.469 548.219C711.966 548.219 712.44 548.121 712.875 547.944V552.087C710.204 552.631 708.188 554.998 708.188 557.828C708.188 558.475 708.712 559 709.359 559H718.734C719.381 559 719.906 558.475 719.906 557.828V548.219H721.445C722.092 548.219 722.616 547.694 722.616 547.047C722.616 546.4 722.092 545.875 721.445 545.875H716.859C715.955 545.875 715.219 545.139 715.219 544.234V527.359C715.219 526.455 715.955 525.719 716.859 525.719H736.547C737.452 525.719 738.188 526.455 738.188 527.359V532.984V544.234C738.188 545.139 737.452 545.875 736.547 545.875H731.991C731.344 545.875 730.82 546.4 730.82 547.047C730.82 547.694 731.344 548.219 731.991 548.219H733.5V557.828C733.5 558.475 734.025 559 734.672 559H744.047C744.694 559 745.219 558.475 745.219 557.828C745.219 554.999 743.203 552.631 740.531 552.087V547.944C740.966 548.121 741.44 548.219 741.938 548.219V548.219ZM711.469 540.719C710.972 540.719 710.497 540.817 710.062 540.993V533.801C710.563 534.029 711.118 534.156 711.703 534.156H712.875V540.993C712.44 540.817 711.966 540.719 711.469 540.719ZM711.703 528.531H712.875V531.812H711.703C710.798 531.812 710.062 531.077 710.062 530.172C710.062 529.267 710.798 528.531 711.703 528.531ZM711.469 545.875C710.693 545.875 710.062 545.244 710.062 544.469C710.062 543.693 710.693 543.062 711.469 543.062C712.244 543.062 712.875 543.693 712.875 544.469C712.875 545.244 712.244 545.875 711.469 545.875ZM710.732 556.656C711.216 555.292 712.519 554.312 714.047 554.312C715.575 554.312 716.878 555.292 717.362 556.656H710.732ZM716.859 548.219H717.562V553.144C716.881 552.631 716.084 552.263 715.219 552.087V547.864C715.719 548.091 716.275 548.219 716.859 548.219ZM740.766 507.906C741.929 507.906 742.875 508.853 742.875 510.016C742.875 511.179 741.929 512.125 740.766 512.125H739.594V507.906H740.766ZM712.641 512.125C711.478 512.125 710.531 511.179 710.531 510.016C710.531 508.853 711.478 507.906 712.641 507.906H713.812V512.125H712.641ZM716.156 517.047V513.297V506.734V502.984C716.156 502.08 716.892 501.344 717.797 501.344H735.609C736.514 501.344 737.25 502.08 737.25 502.984V506.734V513.297V517.047C737.25 517.952 736.514 518.688 735.609 518.688H717.797C716.892 518.688 716.156 517.952 716.156 517.047ZM723.188 523.375V521.031H730.219V523.375H723.188ZM741.938 545.875C741.162 545.875 740.531 545.244 740.531 544.469C740.531 543.693 741.162 543.062 741.938 543.062C742.713 543.062 743.344 543.693 743.344 544.469C743.344 545.244 742.713 545.875 741.938 545.875ZM740.531 534.156H741.703C742.288 534.156 742.843 534.029 743.344 533.801V540.993C742.909 540.817 742.435 540.719 741.938 540.719C741.44 540.719 740.966 540.817 740.531 540.993V534.156ZM743.344 530.172C743.344 531.077 742.608 531.812 741.703 531.812H740.531V528.531H741.703C742.608 528.531 743.344 529.267 743.344 530.172ZM736.547 548.219C737.132 548.219 737.687 548.091 738.188 547.864V552.087C737.322 552.263 736.525 552.631 735.844 553.144V548.219H736.547ZM742.674 556.656H736.045C736.528 555.292 737.832 554.312 739.359 554.312C740.887 554.312 742.191 555.292 742.674 556.656Z" fill="#BFCFC4"/>
<path d="M734.906 540.484V531.109C734.906 530.462 734.381 529.938 733.734 529.938H719.672C719.025 529.938 718.5 530.462 718.5 531.109V540.484C718.5 541.131 719.025 541.656 719.672 541.656H733.734C734.381 541.656 734.906 541.131 734.906 540.484ZM732.562 539.312H720.844V532.281H732.562V539.312Z" fill="#BFCFC4"/>
<path d="M729.047 536.969C729.355 536.969 729.657 536.843 729.875 536.625C730.093 536.407 730.219 536.105 730.219 535.797C730.219 535.489 730.093 535.186 729.875 534.968C729.657 534.75 729.355 534.625 729.047 534.625C728.739 534.625 728.436 534.75 728.218 534.968C728 535.186 727.875 535.489 727.875 535.797C727.875 536.105 728 536.407 728.218 536.625C728.436 536.843 728.739 536.969 729.047 536.969Z" fill="#BFCFC4"/>
<path d="M724.359 536.969C724.668 536.969 724.97 536.843 725.188 536.625C725.406 536.407 725.531 536.105 725.531 535.797C725.531 535.489 725.406 535.186 725.188 534.968C724.97 534.75 724.668 534.625 724.359 534.625C724.051 534.625 723.749 534.75 723.531 534.968C723.313 535.186 723.188 535.489 723.188 535.797C723.188 536.105 723.313 536.407 723.531 536.625C723.749 536.843 724.051 536.969 724.359 536.969Z" fill="#BFCFC4"/>
<path d="M726.703 545.875C726.395 545.875 726.093 546 725.875 546.218C725.657 546.436 725.531 546.739 725.531 547.047C725.531 547.355 725.657 547.657 725.875 547.875C726.093 548.093 726.395 548.219 726.703 548.219C727.011 548.219 727.314 548.093 727.532 547.875C727.75 547.657 727.875 547.355 727.875 547.047C727.875 546.739 727.75 546.436 727.532 546.218C727.314 546 727.011 545.875 726.703 545.875Z" fill="#BFCFC4"/>
<path d="M755.304 489.895C750.808 484.683 747.127 481.862 740.219 480.876C733.174 479.869 726.036 481.047 718.989 481.275C714.666 481.414 708.94 481.595 705.021 483.589C699.846 486.222 695.874 492.966 693.368 498.036C686.942 511.038 687.063 523.866 687.063 538.023C687.063 548.507 691.395 556.836 701.908 559.732C718.928 564.421 738.047 562.799 755.544 562.446C768.895 562.176 773.577 549.125 773.262 537.624C773.173 534.371 772.038 531.465 771.187 528.365C770.373 525.399 770.42 522.326 769.351 519.426C767.201 513.588 765.296 506.789 761.21 501.947C758.316 498.516 759.29 489.961 754.527 489.009" stroke="white" stroke-width="2" stroke-linecap="round" stroke-linejoin="round"/>
<path d="M689.936 500.67C713.119 511.504 736.393 525.485 752.79 545.526C755.11 548.361 760.96 550.054 762.487 553.108" stroke="white" stroke-width="2" stroke-linecap="round" stroke-linejoin="round"/>
<path d="M698.677 493.228C702.597 498.308 708.803 501.597 713.785 505.521C719.594 510.095 725.459 514.5 731.169 519.221C735.86 523.099 741.284 526.17 746.401 529.445C748.752 530.949 751.001 532.687 753.458 534.018C756.698 535.773 759.852 537.049 762.751 539.42C764.806 541.101 765.938 544.553 768.338 545.753" stroke="white" stroke-width="2" stroke-linecap="round" stroke-linejoin="round"/>
<path d="M146 366.581V349.681C145.994 349.07 145.712 348.495 145.234 348.115C144.756 347.735 144.131 347.591 143.535 347.724C133.335 349.975 125.312 344.015 121.435 340.259C120.635 339.487 119.367 339.487 118.567 340.259C114.691 344.011 106.667 349.972 96.467 347.72C95.8697 347.586 95.244 347.73 94.7649 348.111C94.2857 348.492 94.0046 349.069 94 349.681V366.581C94 382.639 104.682 392.167 119.065 399.457C119.653 399.754 120.348 399.754 120.936 399.457C135.26 392.195 146 382.69 146 366.581ZM144 366.581C144 381.69 133.61 390.987 119.969 397.673C106.394 390.797 96.017 381.928 96.017 366.581V349.681C107.125 352.131 115.792 345.732 120.044 341.699C124.208 345.731 132.852 352.13 144 349.693V366.581Z" fill="white"/>
<path d="M131.136 371.004C134.342 372.856 137.481 375.362 140.876 376.853C142.019 377.354 143.105 377.606 143.986 376.605C148.548 371.421 153.142 366.318 157.082 360.626" stroke="white" stroke-width="2" stroke-linecap="round" stroke-linejoin="round"/>
<path d="M135.955 379.53C139.038 380.71 144.196 383.27 146.704 380.353C147.996 378.85 149.629 377.609 151.152 376.358C155.281 372.968 159.141 369.413 162.663 365.383C164.468 363.317 168.049 360.342 168.943 357.661" stroke="white" stroke-width="2" stroke-linecap="round" stroke-linejoin="round"/>
<path d="M734.753 579.534C732.652 577.608 728.074 575.353 725.434 577.896C721.835 581.362 727.705 587.114 730.319 588.598C732.717 589.959 743.02 593.182 734.922 594.5C732.609 594.877 728.145 596.025 728.145 592.749" stroke="white" stroke-linecap="round" stroke-linejoin="round"/>
<path d="M738.819 582.584C737.033 584.871 735.672 588.593 739.44 590.208C741.824 591.23 743.338 590.269 743.789 587.667C744.516 583.465 739.744 577.474 737.294 583.6" stroke="white" stroke-linecap="round" stroke-linejoin="round"/>
<path d="M750.001 590.716C748.27 586.56 747.941 582.672 747.065 578.291C746.791 576.922 745.852 575.355 745.935 573.942C746.015 572.582 752.19 573.044 752.797 574.987C753.171 576.184 753.317 577.594 752.035 578.235C751.779 578.363 749.55 579.227 749.55 578.799C749.55 576.975 751.795 581.758 753.305 582.781C754.401 583.523 756.466 585.197 757.626 584.617" stroke="white" stroke-linecap="round" stroke-linejoin="round"/>
<path d="M766.267 586.142C765.615 583.026 764.929 580.141 762.991 577.557C762.154 576.44 760.868 575.239 761.212 573.688C761.501 572.387 764.525 572.926 765.42 572.926C767.349 572.926 767.811 573.829 768.808 575.354C770.637 578.151 766.569 577.939 765.053 578.545C763.866 579.02 767.439 579.471 768.582 580.042C769.65 580.576 770.749 581.197 771.858 581.567" stroke="white" stroke-linecap="round" stroke-linejoin="round"/>
<path d="M772.366 570.384C772.738 571.325 774.063 577.339 776.179 575.693C776.934 575.106 778.97 571.537 779.37 570.497C780.445 567.701 778.575 573.125 778.466 573.999C778.022 577.548 777.958 581.048 777.958 584.617" stroke="white" stroke-linecap="round" stroke-linejoin="round"/>
<path d="M786.09 561.235C786.185 565.213 786.363 570.185 787.615 573.942" stroke="white" stroke-linecap="round" stroke-linejoin="round"/>
<path d="M790.016 579.688C789.989 579.715 788.611 580.932 788.995 581.076C789.513 581.27 790.195 580.279 790.429 579.998" stroke="white" stroke-linecap="round" stroke-linejoin="round"/>
</svg>
