<?xml version="1.0" encoding="UTF-8"?>
<svg width="78px" height="29px" viewBox="0 0 78 29" version="1.1" xmlns="http://www.w3.org/2000/svg" xmlns:xlink="http://www.w3.org/1999/xlink">
    <!-- Generator: Sketch 47.1 (45422) - http://www.bohemiancoding.com/sketch -->
    <title>ebay_fashion_tm_rgb</title>
    <desc>Created with Sketch.</desc>
    <defs></defs>
    <g id="Page-1" stroke="none" stroke-width="1" fill="none" fill-rule="evenodd">
        <g id="Mashable-STEP-1" transform="translate(-835.000000, -502.000000)">
            <g id="Group-16" transform="translate(815.000000, 434.000000)">
                <g id="ebay_fashion_tm_rgb" transform="translate(20.000000, 68.000000)">
                    <path d="M54.8850945,19.330815 C54.8850945,20.3649298 54.9173441,21.3856294 55.0147059,22.3049185 L51.4495953,22.3049185 C51.3544407,21.5479773 51.3197387,20.7959247 51.3197387,20.0664963 C49.3922442,22.2631946 47.0997042,22.8947368 43.9193813,22.8947368 C39.2022375,22.8947368 36.6764706,20.5832127 36.6764706,17.909248 C36.6764706,14.0367743 40.1117245,12.6713697 46.0753205,12.5447202 C47.7060698,12.5101588 49.5379191,12.5051565 51.0523002,12.5051565 L51.0521776,12.1266859 C51.0521776,9.53423624 49.2590768,8.46828844 46.1522044,8.46828844 C43.8455629,8.46828844 42.1456548,9.3532434 41.970428,10.8824738 L37.9435232,10.8824738 C38.3697571,7.06957302 42.6904641,6.10526316 46.48966,6.10526316 C51.0408963,6.10526316 54.8850945,7.60663972 54.8850945,12.0697277 L54.8850945,19.330815 Z M46.3382219,14.9271863 C42.8629932,15.0328034 40.7037433,15.6142088 40.7037433,17.7365545 C40.7037433,19.1105994 41.8852058,20.6000386 44.8845387,20.6000386 C48.9056803,20.6000386 51.0521776,18.5678483 51.0521776,15.234715 L51.0523002,14.868068 C49.6425156,14.868068 47.9041042,14.8796643 46.3382219,14.9271863 L46.3382219,14.9271863 Z" id="Fill-1" fill="#EAA735"></path>
                    <path d="M3.70957808,15.3992229 C3.90606416,18.6244654 6.18604863,20.5321663 9.32085245,20.5321663 C11.4928045,20.5321663 13.4248012,19.6688123 14.0717136,17.7906704 L17.8284902,17.7906704 C17.0979023,21.6012974 12.9472211,22.8947368 9.37469384,22.8947368 C2.87888245,22.8947368 0,19.4048265 0,14.6984441 C0,9.51741027 2.97770819,6.10526316 9.43401259,6.10526316 C14.5729512,6.10526316 18.3382353,8.72886356 18.3382353,14.4552634 L18.3382353,15.3992229 L3.70957808,15.3992229 Z M14.5110686,13.0361976 C14.3698223,9.71215948 11.9103666,8.46828844 9.28181162,8.46828844 C6.44744738,8.46828844 4.18447772,9.86745862 3.78812589,13.0361976 L14.5110686,13.0361976 L14.5110686,13.0361976 Z" id="Fill-2" fill="#DB3C42"></path>
                    <path d="M18.4578239,0 L21.973482,0 L21.9731445,8.87026719 C23.6963233,6.80836025 26.0702081,6.20978583 28.4069677,6.20978583 C32.3248171,6.20978583 36.6764706,8.86484409 36.6764706,14.5973973 C36.6764706,19.3980816 33.2156005,22.8947368 28.3417171,22.8947368 C25.7905305,22.8947368 23.3890829,21.9756348 21.9081189,20.1547167 C21.9081189,20.8819767 21.8677311,21.6151117 21.7885303,22.3085904 L18.3382353,22.3085904 C18.3981984,21.1873649 18.4578239,19.7914822 18.4578239,18.6621221 L18.4578239,0 Z M27.4778214,20.4797636 C30.7457522,20.4797636 32.9819358,18.1175527 32.9819358,14.5526568 C32.9819358,10.9883258 30.7457522,8.62566289 27.4778214,8.62566289 C24.2282283,8.62566289 21.973482,10.9883258 21.973482,14.5526568 C21.973482,18.1175527 24.2282283,20.4797636 27.4778214,20.4797636 L27.4778214,20.4797636 Z" id="Fill-3" fill="#2C5E9C"></path>
                    <polyline id="Fill-4" fill="#78B542" points="71.8247549 7.63157895 60.9518887 29 57.0148315 29 60.1407159 23.0664667 51.9583333 7.63157895 56.0722509 7.63157895 62.093381 19.6910596 68.0975226 7.63157895 71.8247549 7.63157895"></polyline>
                    <path d="M73.8813218,7.63157895 L74.2724979,7.63157895 L74.2724979,7.94904195 L74.8680532,7.94904195 L74.8680532,8.11022232 L74.2724979,8.11022232 L74.2724979,8.79884542 C74.2724979,8.92654302 74.3326094,8.99582387 74.5787663,8.99582387 C74.6512007,8.99582387 74.7676669,8.99101517 74.8811275,8.98148683 L74.8811275,9.14364675 C74.7514367,9.15308604 74.6226477,9.15789474 74.5022743,9.15789474 C74.1065899,9.15789474 73.8813218,9.08157895 73.8813218,8.81549776 L73.8813218,8.11022232 L73.3529412,8.11022232 L73.3529412,7.94904195 L73.8813218,7.94904195 L73.8813218,7.63157895" id="Fill-5" fill="#000105"></path>
                    <path d="M74.8942882,8.02091278 C74.8942882,7.90943967 74.8875233,7.80344704 74.8811275,7.68747992 L75.1809961,7.68747992 C75.187269,7.76058962 75.1942799,7.84476991 75.1942799,7.94747425 L75.2011677,7.94747425 C75.3893544,7.72299348 75.6262482,7.63157895 75.8963514,7.63157895 C76.1735884,7.63157895 76.4013804,7.75225928 76.4968267,8.00030615 C76.6153966,7.79884343 76.872339,7.63157895 77.1787265,7.63157895 C77.6471022,7.63157895 77.9375,7.83578191 77.9375,8.31455731 L77.9375,9.15789474 L77.6143848,9.15789474 L77.6143848,8.42197487 C77.6143848,8.06508551 77.4987668,7.82986299 77.149576,7.82986299 C76.8661891,7.82986299 76.5762833,8.00348483 76.5762833,8.4864254 L76.5762833,9.15789474 L76.255628,9.15789474 L76.255628,8.4043277 C76.255628,8.00907493 76.1039717,7.82986299 75.807301,7.82986299 C75.524406,7.82986299 75.2144515,8.012144 75.2144515,8.44532174 L75.2144515,9.15789474 L74.8942882,9.15789474 L74.8942882,8.02091278" id="Fill-6" fill="#000105"></path>
                </g>
            </g>
        </g>
    </g>
</svg>