<?xml version="1.0" encoding="UTF-8"?>
<svg width="24px" height="22px" viewBox="0 0 24 22" version="1.1" xmlns="http://www.w3.org/2000/svg" xmlns:xlink="http://www.w3.org/1999/xlink">
    <!-- Generator: Sketch 47.1 (45422) - http://www.bohemiancoding.com/sketch -->
    <title>Star Copy 3</title>
    <desc>Created with Sketch.</desc>
    <defs></defs>
    <g id="Page-1" stroke="none" stroke-width="1" fill="none" fill-rule="evenodd">
        <g id="Mashable-Checkout-STEP-5" transform="translate(-264.000000, -290.000000)" fill="#FF9100">
            <g id="Group-4" transform="translate(184.000000, 290.000000)">
                <g id="Group-4-Copy-3">
                    <path d="M91.9381356,18.1147616 L85.8057712,21.3258346 C85.1574587,21.6653087 84.732249,21.3577548 84.859193,20.6205762 L86.0272649,13.8374484 L81.0660778,9.0208389 C80.541582,8.51162782 80.7038614,8.01380831 81.4288247,7.90888654 L88.2850166,6.9166104 L91.3430685,0.745116933 C91.671715,0.0818712496 92.2028344,0.0783962278 92.5305662,0.739796053 L95.3843802,6.49911445 L95.5912547,6.9166104 L102.447447,7.90888654 C103.172282,8.01378979 103.334782,8.51153791 102.810193,9.0208389 L97.8490064,13.8374484 L99.0170782,20.6205762 C99.14261,21.3495537 98.718927,21.6653686 98.0705001,21.3258346 L91.9381356,18.1147616 Z" id="Star-Copy-3"></path>
                </g>
            </g>
        </g>
    </g>
</svg>