<svg width="8" height="11" viewBox="0 0 8 11" fill="none" xmlns="http://www.w3.org/2000/svg">
<path d="M4.36133 0.718262C4.36133 0.442119 4.13747 0.218262 3.86133 0.218262C3.58519 0.218262 3.36133 0.442119 3.36133 0.718262L4.36133 0.718262ZM3.50777 10.0718C3.70304 10.2671 4.01962 10.2671 4.21488 10.0718L7.39686 6.88983C7.59212 6.69457 7.59212 6.37799 7.39686 6.18273C7.2016 5.98747 6.88502 5.98747 6.68975 6.18273L3.86133 9.01116L1.0329 6.18273C0.837639 5.98747 0.521056 5.98747 0.325794 6.18273C0.130532 6.37799 0.130532 6.69457 0.325794 6.88983L3.50777 10.0718ZM3.36133 0.718262L3.36133 9.71826L4.36133 9.71826L4.36133 0.718262L3.36133 0.718262Z" fill="#FDBE51"/>
</svg>
