<?xml version="1.0" encoding="UTF-8"?>
<svg width="174px" height="69px" viewBox="0 0 174 69" version="1.1" xmlns="http://www.w3.org/2000/svg" xmlns:xlink="http://www.w3.org/1999/xlink">
    <!-- Generator: Sketch 51.3 (57544) - http://www.bohemiancoding.com/sketch -->
    <title>3</title>
    <desc>Created with Sketch.</desc>
    <defs>
        <linearGradient x1="50%" y1="60.193274%" x2="-61.8233442%" y2="190.129769%" id="linearGradient-1">
            <stop stop-color="#FCCB16" offset="0%"></stop>
            <stop stop-color="#F76B1C" offset="100%"></stop>
        </linearGradient>
    </defs>
    <g id="Page-1" stroke="none" stroke-width="1" fill="none" fill-rule="evenodd">
        <g id="CATEGORY---TABLET" transform="translate(-40.000000, -10.000000)">
            <g id="3" transform="translate(40.000000, 10.000000)">
                <g id="CATCH-LOGO-1">
                    <path d="M4.72235629,52.7815121 C3.37507313,51.6587898 3.31160879,48.5539987 3.84547724,45.5835102 C4.37934569,42.6130216 5.96727526,40.7123024 7.064567,39.7492565 C7.79609483,39.1072259 9.37615832,38.7234707 11.8047575,38.597991 C11.2014435,36.7014632 10.9900316,35.132591 11.1705219,33.8913744 C11.3510122,32.6501578 11.9692393,31.4213958 13.0252032,30.2050885 C10.634693,30.4901212 8.70393391,30.4564197 7.23292586,30.103984 C5.02641378,29.5753304 5.11883814,30.0670824 4.15102062,28.0789418 C3.1832031,26.0908012 3.26372503,24.9364304 3.28929488,23.4715348 C3.30634145,22.4949378 3.63728842,21.5268789 4.28213579,20.5673583 C2.69045643,20.4370464 1.53748786,19.4594504 0.823230076,17.6345701 C-0.2481566,14.8972497 -0.162701512,14.0855192 0.444600308,11.8756468 C1.05190213,9.66577442 0.971580438,9.13558353 3.56534823,7.65644886 C5.29452676,6.67035907 9.12720286,5.93816434 15.0633765,5.45986466 C31.7999659,4.16244277 46.0868982,3.17476526 57.9241735,2.49683213 C69.7614488,1.81889901 81.6685598,1.30641629 93.6455065,0.959383982 C106.960486,-0.0907472188 114.644348,-0.277261168 116.697092,0.399842134 C118.749837,1.07694544 119.755077,2.62611258 119.712815,5.04734357 L118.569723,10.5675194 C122.337178,9.69964449 125.138267,9.4473171 126.972988,9.81053721 C129.725069,10.3553674 129.670622,11.6853345 130.08909,12.8480111 C130.368068,13.6231289 130.320898,16.3255243 129.947579,20.9551975 C131.445999,21.2488798 132.434866,21.5077002 132.91418,21.7316585 C133.211172,21.8704275 134.062716,22.5427108 134.443246,23.2184565 C134.983919,24.1785838 135.022201,25.2452534 135.022217,25.6540852 C135.022244,26.3506561 134.860017,33.8166356 134.200477,34.8115212 C133.760785,35.4747783 132.255848,35.8576259 129.685668,35.9600639 C130.514696,36.7267095 130.796521,38.2968108 130.531142,40.6703678 C130.133073,44.2307032 130.636258,45.9088068 128.366689,47.757036 C126.853643,48.9891888 123.706764,49.7771781 118.926051,50.121004 L61.6909747,52.6292678 L9.49663771,53.9640529 C7.2119722,53.924174 5.62054507,53.5299937 4.72235629,52.7815121 Z M28.669305,33.8747101 C27.2525017,35.3465936 26.3840226,36.0825354 26.0638678,36.0825354 C25.5486666,36.3313142 25.1248238,36.3313142 24.7923393,36.0825354 C24.4598548,35.8337565 24.2866814,35.2263065 24.2728192,34.2601852 C24.2866814,32.7793323 24.4052418,31.5942259 24.6285003,30.7048659 C24.963388,29.3708259 25.173698,28.4049117 26.0638678,26.4287623 C26.9540376,24.452613 28.5593824,21.7328706 28.9689799,21.0691359 C29.2420449,20.6266461 29.9072925,19.6507906 30.9647228,18.1415694 C31.6903843,17.1395864 32.139618,16.5577234 32.312424,16.3959805 C32.5716329,16.1533662 32.8484499,15.7701544 33.1885656,15.8959893 C33.4153094,15.9798792 33.4737536,16.2762167 33.3638984,16.7850016 L31.9190223,22.445624 C31.6960983,23.2041952 31.6960983,23.6844398 31.9190223,23.8863581 C32.2534083,24.1892354 33.0136498,24.5021826 34.1037861,24.4245213 C35.1939224,24.3468601 36.7764098,24.2386673 37.5027139,23.4885761 C38.2290181,22.738485 38.4943155,21.8419913 38.8714174,19.9014467 C39.2485193,17.9609022 39.762292,15.4838146 39.3168547,14.1531121 C38.8714174,12.8224095 36.6343045,11.3462151 35.7688208,10.8168127 C34.9033371,10.2874102 33.5489487,10.2874102 33.1885656,10.2874102 C32.8281825,10.2874102 31.3557212,10.560455 30.8167662,10.8168127 C30.2778111,11.0731703 28.9689799,12.2284483 28.0365187,13.038092 C27.2305137,13.7379354 25.821453,15.3488566 25.4269019,15.8959893 C25.0323509,16.4431219 24.1718709,17.3940226 23.4082759,18.5421673 C22.8239074,19.4208263 21.9624594,20.7949438 21.4474324,21.9437555 C20.9324053,23.0925672 19.7875393,25.7101061 19.2160664,27.5578623 C18.6445935,29.4056184 18.2057607,31.4600675 17.889681,33.3392585 C17.5736013,35.2184496 17.4813374,37.5512205 19.5155323,39.7234811 C21.5497272,41.8957417 22.9693169,42.2352226 23.9929972,42.2352226 C25.0166775,42.2352226 25.2257989,42.21268 25.821453,42.0950498 C26.6695967,41.9275578 27.6222191,41.6588873 28.0365187,41.4136892 C28.4508182,41.1684912 30.150603,40.4323728 32.1285231,38.416975 C32.7164892,37.8178681 33.6414272,36.6520562 34.9033371,34.9195395 C35.3038789,34.0577134 35.4119904,33.3642894 35.2276715,32.8392673 C34.9511932,32.0517342 33.4018279,29.2594386 32.4731283,29.6553432 C31.5444287,30.0512478 30.79451,31.6668849 28.669305,33.8747101 Z M37.3378489,37.3935483 C37.223366,38.4115309 37.128561,38.4413159 38.0699394,39.3357922 C38.6975249,39.9321098 40.4111559,40.6453891 43.2108323,41.4756301 C44.3414174,37.1391721 45.0313654,34.7793811 45.2806764,34.3962569 C45.6546429,33.8215707 49.5443905,34.0395717 49.8384192,34.0494276 C50.1324479,34.0592836 50.347047,34.0494276 50.347047,34.5660837 C50.347047,35.0827397 49.6707179,38.8976538 49.8384192,39.7983699 C50.0061204,40.6990861 53.9079308,42.6493013 54.6166021,42.9182735 C55.3252734,43.1872457 55.8678473,42.5603165 56.0616053,42.1603449 C56.2553633,41.7603733 56.925783,37.9631197 57.228114,32.9553815 C57.530445,27.9476432 57.4617322,26.2339682 57.228114,22.8385742 C56.9944958,19.4431801 56.9759889,13.5678848 56.0616053,12.3012039 C55.1472218,11.0345231 51.1121118,10.3557733 50.7117373,10.2670268 C50.4448209,10.2078625 50.2513409,10.4545775 50.1312971,11.0071719 L50.347047,13.1510657 L48.0382103,12.3012039 C47.4291911,12.2097145 47.0329895,12.2097145 46.8496055,12.3012039 C46.6662216,12.3926934 46.2974664,12.9699102 45.7433401,14.0328544 L42.8814749,20.9428168 L40.3149891,28.2172879 L37.3378489,28.5355181 C37.1858859,28.6339684 37.1858859,28.8705264 37.3378489,29.2451921 C37.4898119,29.6198579 38.0155329,30.478594 38.9150119,31.8214005 C37.9398918,34.8575106 37.4141708,36.7148932 37.3378489,37.3935483 Z M46.8988007,28.1120432 C46.7133808,27.8960418 47.7568409,24.7112043 48.3430743,23.1387089 C48.9293078,21.5662135 50.4318878,17.505619 50.6692127,18.379504 C50.8274293,18.962094 50.9242214,22.0667794 50.9595891,27.6935601 C50.9595891,27.9725488 50.7836887,28.1120432 50.4318878,28.1120432 C49.9041864,28.1120432 47.0842205,28.3280445 46.8988007,28.1120432 Z M60.6406104,39.1937326 C60.7902804,39.6318364 62.5437608,40.61627 65.9010517,42.1470333 C66.6413414,42.3462218 67.0571377,42.3462218 67.1484405,42.1470333 C67.2853948,41.8482506 67.5143815,41.9343599 67.63122,40.0277868 C67.7091123,38.7567381 68.0094946,36.2194939 68.5323667,32.4160541 C68.764356,30.6193255 69.1543734,28.5597732 69.7024191,26.2373971 C70.5244876,22.753833 71.7178567,20.2932529 71.5983084,19.4239437 C71.47876,18.5546346 68.7187246,17.9349178 68.957196,17.508115 C69.1161769,17.2235798 71.7594433,17.1830557 76.8869951,17.3865427 L78.5911067,11.7394133 C78.5911067,11.2249759 77.9130405,10.9677571 76.5569082,10.9677571 C74.5227097,10.9677571 71.7110886,10.9012109 68.1506874,11.1096088 C64.5902862,11.3180066 61.5556193,11.2543723 61.0024866,11.9692462 C60.4493539,12.6841201 59.7472435,15.7214845 59.5253814,16.5794237 C59.3035194,17.4373629 59.0051845,18.1892939 59.3316234,18.4304625 C59.6580624,18.671631 65.0607736,17.7255722 65.1906404,17.9349178 C65.3205073,18.1442633 64.4669848,20.4381376 64.0901074,21.8598604 C63.8388559,22.8076757 63.5041135,24.1460103 63.0858802,25.8748643 C62.3856418,28.6714777 61.9212063,30.7236809 61.6925736,32.031474 C61.3496246,33.9931637 60.4161055,38.5365769 60.6406104,39.1937326 Z M84.0857906,33.7256673 C82.7614938,35.2054193 81.9440708,35.9507176 81.6335217,35.9615623 C81.1422288,36.2210109 80.7311025,36.2353678 80.4001428,36.0046328 C80.0691831,35.7738978 79.8805711,35.1888725 79.8343067,34.2495569 C79.7974502,32.8086019 79.8721967,31.6517849 80.0585462,30.7791061 C80.3380706,29.4700878 80.5092596,28.5233802 81.3055942,26.5709472 C82.1019287,24.6185141 83.5667217,21.9185329 83.9414838,21.259017 C84.1913251,20.8193397 84.8034646,19.8475517 85.7779023,18.3436529 C86.4477556,17.3444031 86.8637457,16.7631846 87.0258727,16.5999973 C87.2690633,16.3552163 87.5245577,15.9730741 87.8587433,16.083958 C88.0815337,16.1578807 88.1482907,16.4441604 88.0590143,16.9427972 L86.8497737,22.4980557 C86.6593059,23.2434996 86.6756192,23.710653 86.8987138,23.8995159 C87.2333555,24.1828103 87.981418,24.4614749 89.0362088,24.3490045 C90.0909997,24.236534 91.6223325,24.0776868 92.3013656,23.3234407 C92.9803987,22.5691946 93.2072836,21.6881526 93.5071532,19.7877329 C93.8070228,17.8873132 94.221237,15.460347 93.7439617,14.1810072 C93.2666865,12.9016673 91.0465491,11.5414912 90.1890494,11.0558366 C89.3315496,10.570182 88.0177969,10.6160593 87.6682264,10.6282665 C87.3186558,10.6404738 85.8996479,10.9559523 85.3855713,11.2235778 C84.8714947,11.4912032 83.6411758,12.6593229 82.7641939,13.4784814 C82.0061444,14.1865491 80.6940809,15.8012865 80.329953,16.3468692 C79.9658252,16.8924519 79.1634632,17.8465785 78.4617795,18.9892905 C77.9247908,19.8637919 77.1358661,21.2296314 76.6753152,22.3645725 C76.2147643,23.4995136 75.1931625,26.0844795 74.7016016,27.9012241 C74.2100408,29.7179687 73.8541616,31.7312789 73.6113992,33.5699506 C73.3686368,35.4086222 73.3583826,37.680928 75.4053347,39.7250693 C77.4522868,41.7692106 78.8408163,42.0513515 79.8337831,42.0166764 C80.8267499,41.9820012 81.0288313,41.9529896 81.6026182,41.8183893 C82.4196255,41.6267338 83.3345399,41.3331189 83.7280801,41.0805713 C84.1216203,40.8280237 85.7454014,40.0543947 87.5955171,38.0269377 C88.1454915,37.424246 89.0030773,36.2588832 90.1682745,34.5308495 C90.5275236,33.6789489 90.6088366,33.0007652 90.4122134,32.4962984 C90.1172787,31.7395983 88.5195481,29.0759013 87.6321607,29.4924716 C86.7447732,29.9090419 86.0722357,31.5060393 84.0857906,33.7256673 Z M100.180064,40.6542635 C100.319687,39.9022876 101.320515,33.6116012 101.320515,33.1267682 C101.320515,32.6419351 105.391831,32.3922389 105.504813,32.6419351 C105.580134,32.8083993 105.457911,33.8738811 105.138142,35.8383803 L104.605959,39.6230313 C104.495548,40.6573834 104.495548,41.3383543 104.605959,41.6659442 C104.71637,41.9935341 105.52413,42.5430877 107.029237,43.3146052 C108.182686,43.9705476 109.082373,44.2985188 109.7283,44.2985188 C110.697189,44.2985188 110.960263,43.9307862 110.960263,43.5451661 C110.960263,43.288086 110.960263,42.7851576 110.960263,42.0363807 C111.062272,39.1173288 111.344102,36.2586652 111.805752,33.4603898 C112.498228,29.2629768 112.616332,29.3516872 113.705185,25.3981431 C114.431088,22.762447 115.26678,20.1166301 116.212262,17.4606924 C116.54155,16.5217401 116.706194,15.9394621 116.706194,15.7138584 C116.706194,15.4882547 115.241561,14.5400467 112.312296,12.8692344 C111.816457,12.5712641 111.402849,12.5274814 111.071473,12.7378864 C110.574409,13.0534939 109.279812,17.1577575 108.799012,18.6198406 C107.828378,21.5714767 106.739903,26.3273543 106.46933,26.5258842 C106.198756,26.7244141 102.80919,27.1204338 102.699647,26.8540981 C102.590105,26.5877623 103.098555,24.1955144 103.85344,21.7549277 C104.356697,20.1278699 105.22866,17.7650629 106.46933,14.6665068 C106.730827,13.9126252 106.730827,13.4024863 106.46933,13.1360901 C106.207832,12.8696939 104.833842,11.9801054 102.34736,10.4673246 C101.888471,10.135573 101.498905,10.070887 101.178663,10.2732666 C100.698298,10.576836 100.464281,11.045987 100.180064,11.8369623 C99.9905854,12.3642791 99.282745,14.6252385 98.0565425,18.6198406 C96.660526,24.1566988 95.8745154,27.029922 95.6985107,27.2395101 C95.4345037,27.5538924 93.9332179,27.7235112 93.5770742,27.9026976 C93.2209305,28.0818841 92.617304,28.1745714 92.7512837,28.5781568 C92.8298192,28.8147287 93.1013819,29.3348277 93.5770742,30.1286448 C93.9129004,30.6890586 94.4863444,31.5260587 94.5688984,31.8806787 C94.7683889,32.7376122 93.7657251,36.5191433 93.5770742,38.1500209 C93.451307,39.2372726 93.451307,39.8285983 93.5770742,39.923998 C94.8231064,40.6389328 96.0894645,41.2195815 97.3761486,41.6659442 C99.3061748,42.3354882 99.5166587,42.2681896 99.6662244,42.0363807 C99.8157902,41.8045719 100.040441,41.4062393 100.180064,40.6542635 Z" id="Combined-Shape" fill="url(#linearGradient-1)"></path>
                    <g id="Logo-eBay" transform="translate(85.880000, 54.480000)" fill="#BAB6BA">
                        <path d="M13.8650857,4.22152717 C15.3206548,4.22152717 16.3132576,5.11011481 16.3132576,6.4419084 L11.2912809,6.4419084 C11.2912809,5.02794957 12.5864047,4.22152717 13.8650857,4.22152717 Z M13.9279022,3.06430272 C11.4966869,3.06430272 9.47075976,4.09188015 9.47075976,7.19240212 C9.47075976,9.64852848 10.8330676,11.19495 13.9903333,11.19495 C17.7071664,11.19495 17.9452009,8.75584538 17.9452009,8.75584538 L16.1442055,8.75584538 C16.1442055,8.75584538 15.7584431,10.0690814 13.8807577,10.0690814 C12.3514532,10.0690814 11.2514586,9.03996817 11.2514586,7.59721311 L18.1339072,7.59721311 L18.1339072,6.69198765 C18.1336503,5.26459058 17.2242889,3.06430272 13.9279022,3.06430272 Z" id="Fill-1"></path>
                        <path d="M23.3338361,4.2098807 C24.9835068,4.2098807 26.0330169,5.43007291 26.0330169,7.06749048 C26.0330169,8.82342053 24.82152,9.97181414 23.3456543,9.97181414 C21.5844813,9.97181414 20.6343984,8.60162558 20.6343984,7.08297645 C20.6342699,5.66773778 21.4868524,4.2098807 23.3338361,4.2098807 Z M18.8765652,0 L18.8765652,9.575834 C18.8765652,10.1192508 18.8375137,10.8826709 18.8375137,10.8826709 L20.5552676,10.8826709 C20.5552676,10.8826709 20.6167995,10.3343907 20.6167995,9.83346426 C20.6167995,9.83346426 21.4655282,11.156171 23.7731659,11.156171 C26.2027113,11.156171 27.8532812,9.47549514 27.8532812,7.06749048 C27.8532812,4.82727185 26.3370794,3.02552379 23.7771482,3.02552379 C21.3792038,3.02552379 20.6341415,4.31546687 20.6341415,4.31546687 L20.6341415,0 L18.8765652,0 Z" id="Fill-4"></path>
                        <path d="M34.9064883,7.31744175 L34.9064883,7.81747227 C34.9064883,8.47018679 34.5029985,10.0926303 32.1229099,10.0926303 C30.8199501,10.0926303 30.2616672,9.44465118 30.2616672,8.69326158 C30.2616672,7.32627259 32.142821,7.31744175 34.9064883,7.31744175 Z M32.8982885,3.06430272 C29.2404181,3.06430272 29.0058519,5.05968941 29.0058519,5.37862364 L30.826373,5.37862364 C30.826373,5.37862364 30.9216896,4.21346423 32.7725271,4.21346423 C33.9749035,4.21346423 34.9063598,4.76200039 34.9063598,5.81619834 L34.9063598,6.1914452 L32.7725271,6.1914452 C29.9389782,6.1914452 28.4410176,7.01732105 28.4410176,8.69313359 C28.4410176,10.3423256 29.825035,11.2397441 31.6953983,11.2397441 C34.244539,11.2397441 35.0659059,9.83666384 35.0659059,9.83666384 C35.0659059,10.3946708 35.1088112,10.9447427 35.1088112,10.9447427 L36.7273948,10.9447427 C36.7273948,10.9447427 36.6645783,10.263104 36.6645783,9.82668115 L36.6645783,6.05655087 C36.6645783,3.58455459 34.6633153,3.06430272 32.8982885,3.06430272 Z" id="Fill-5"></path>
                        <polyline id="Fill-7" points="36.4440507 3.3774777 38.4925866 3.3774777 41.4318573 9.24410144 44.3641912 3.3774777 46.2193963 3.3774777 40.877942 13.8221899 38.9316595 13.8221899 40.4730392 10.9106992 36.4440507 3.3774777"></polyline>
                        <text id="by" font-family="Roboto-Medium, Roboto" font-size="6.43693856" font-weight="400">
                            <tspan x="0" y="7.2798324">by</tspan>
                        </text>
                    </g>
                </g>
                <text id="BETA" font-family="Roboto-Black, Roboto" font-size="7.6" font-weight="700" letter-spacing="0.760000011" fill="#FAB417">
                    <tspan x="147.44" y="10.8">BET</tspan>
                    <tspan x="163.294609" y="10.8" letter-spacing="0.804232737">A</tspan>
                </text>
                <rect id="Rectangle-4" stroke="#F5A623" x="141.86" y="2.02" width="31.4786" height="12.4868"></rect>
            </g>
        </g>
    </g>
</svg>