<svg width="55" height="51" viewBox="0 0 55 51" fill="none" xmlns="http://www.w3.org/2000/svg">
<path d="M28.4667 24.1539L19.7633 30.919L23.8338 7.77926C23.9463 7.15479 23.6467 6.5289 23.0928 6.2181C20.5338 4.77822 17.5055 4.11781 14.3533 4.54577C5.69379 5.72093 0.634255 13.9817 2.73231 22.465C5.85848 35.1097 21.49 44.2265 27.4026 47.2727C27.8087 47.4821 28.2941 47.2037 28.319 46.7471C28.522 42.9711 29.2637 29.1628 29.5034 24.6952C29.5319 24.1453 28.9016 23.8154 28.4667 24.1539Z" fill="url(#paint0_linear)"/>
<path d="M36.547 2.23503C33.3764 2.21307 30.5123 3.22414 28.1956 4.91156C27.7014 5.27116 27.3624 5.79885 27.2533 6.40046C26.7429 9.23258 25.1303 18.1808 24.46 21.8959C24.3554 22.4755 25.0215 22.8729 25.4872 22.5125L32.8231 16.8226L31.5072 45.5626C31.4771 46.1165 32.1216 46.441 32.5433 46.0804C38.361 41.1133 51.0163 28.7876 50.4621 15.9577C50.1338 8.37258 44.139 2.28744 36.547 2.23503Z" fill="url(#paint1_linear)"/>
<path d="M6.41733 22.4028C4.1246 14.6428 7.97828 6.80884 15.3868 4.44947C15.0438 4.47091 14.6997 4.49933 14.3536 4.54653C5.69415 5.7217 0.634615 13.9824 2.73267 22.4658C5.85884 35.1104 21.4904 44.2273 27.403 47.2735C27.8091 47.4829 28.2944 47.2045 28.3184 46.748C28.3509 46.1439 28.3975 45.2811 28.4533 44.2421C21.164 40.4049 9.49706 32.8272 6.41733 22.4028Z" fill="#BA644C"/>
<path d="M34.1375 15.9292L32.8227 16.8226L31.5067 45.5625C31.4768 46.1174 32.1238 46.4387 32.5465 46.078C32.713 45.9358 33.738 45.0571 33.738 45.0571L35.3545 16.6182C35.3913 15.9726 34.6723 15.5652 34.1375 15.9292Z" fill="#BA644C"/>
<path d="M29.9117 22.6436C29.6588 22.5115 29.3516 22.5379 29.126 22.7129L20.6986 29.2446L24.6304 7.42671C24.7405 6.81716 24.4645 6.19165 23.9437 5.87139C21.0078 4.06636 17.6543 3.35603 14.2475 3.81836C10.1487 4.3751 6.59167 6.59476 4.23157 10.069C1.74991 13.7217 0.941589 18.3037 2.01407 22.6402C5.37469 36.2317 22.7057 45.7693 27.9372 48.3687C28.0643 48.4313 28.2038 48.4553 28.3401 48.4406C28.4407 48.4297 28.5389 48.3976 28.6292 48.3457C28.8417 48.222 28.9772 48 28.9898 47.7551L29.1546 44.6845C29.1766 44.2821 28.8676 43.9389 28.4652 43.9169C28.0627 43.8949 27.7196 44.2039 27.6976 44.6063L27.5928 46.5593C24.673 45.0479 19.9119 42.3301 15.2874 38.5773C8.78767 33.3038 4.79803 27.8244 3.42965 22.2895C2.4564 18.355 3.18852 14.199 5.43817 10.8883C7.56293 7.76129 10.7605 5.76341 14.4439 5.26334C17.5132 4.84631 20.5345 5.48694 23.1813 7.11489C23.1907 7.12072 23.2011 7.14406 23.1969 7.16896L18.9778 30.581L17.7974 31.4961C17.4788 31.7428 17.4207 32.201 17.6674 32.5196C17.8288 32.7271 18.0799 32.8241 18.3235 32.7978C18.4531 32.7838 18.5808 32.7348 18.6909 32.6495L28.7608 24.8446L27.563 46.7718C27.541 47.1743 27.9318 47.1887 28.3343 47.2107C28.7367 47.2327 29.0001 47.9946 29.0211 47.5923L30.3017 23.3281C30.3169 23.0438 30.1647 22.7756 29.9117 22.6436Z" fill="black"/>
<path d="M46.7419 5.75131C44.0139 3.0376 40.394 1.52858 36.5489 1.50132C33.3608 1.47931 30.3223 2.4525 27.7608 4.318C27.108 4.79355 26.6705 5.48741 26.5295 6.27342L26.3338 7.35782C26.2622 7.75388 26.5262 8.1332 26.9223 8.20481C27.3184 8.27642 27.6977 8.01238 27.7693 7.61632L27.965 6.53192C28.0396 6.11794 28.2718 5.75048 28.62 5.49763C30.9267 3.81716 33.6654 2.93996 36.5395 2.96073C40.0008 2.98547 43.2592 4.34384 45.7143 6.7858C48.1551 9.21365 49.5826 12.4818 49.7339 15.9886C49.9807 21.7075 47.5466 27.9794 42.4968 34.63C38.9694 39.2762 34.9277 43.0741 32.2437 45.3803L33.7664 17.0151L36.2734 14.999C36.592 14.7523 36.6501 14.2941 36.4034 13.9755C36.1567 13.6569 35.6985 13.5989 35.3799 13.8456L25.2134 21.7979L27.9093 6.9028C27.9809 6.50673 27.7169 6.12741 27.3208 6.0558C26.9247 5.98419 26.5454 6.24823 26.4738 6.64429L23.4403 23.4099C23.3864 23.7072 23.5215 24.0065 23.78 24.1635C24.0386 24.3204 24.3662 24.3016 24.6054 24.1163L32.2421 18.1963L30.6962 46.9806C30.6804 47.2689 30.8368 47.5396 31.0945 47.6702C31.2229 47.7355 31.3653 47.7593 31.5026 47.7444C31.6409 47.7295 31.7748 47.6749 31.8862 47.5836C34.4632 45.4719 39.4184 41.0949 43.6574 35.512C48.9177 28.5833 51.4524 21.9934 51.1895 15.9261C51.0228 12.0511 49.4436 8.43851 46.7419 5.75131Z" fill="black"/>
<defs>
<linearGradient id="paint0_linear" x1="3.16808" y1="27.8747" x2="29.5468" y2="25.0219" gradientUnits="userSpaceOnUse">
<stop stop-color="#E37B5E"/>
<stop offset="1" stop-color="#E37B5E"/>
</linearGradient>
<linearGradient id="paint1_linear" x1="24.7921" y1="25.2208" x2="51.1863" y2="22.3663" gradientUnits="userSpaceOnUse">
<stop stop-color="#E37B5E"/>
<stop offset="1" stop-color="#E37B5E"/>
</linearGradient>
</defs>
</svg>
