<?xml version="1.0" encoding="UTF-8"?>
<svg width="14px" height="14px" viewBox="0 0 14 14" version="1.1" xmlns="http://www.w3.org/2000/svg" xmlns:xlink="http://www.w3.org/1999/xlink">
    <!-- Generator: sketchtool 51.2 (57519) - http://www.bohemiancoding.com/sketch -->
    <title>1130FCD3-4390-4068-B5A0-6CA735F48BA6</title>
    <desc>Created with sketchtool.</desc>
    <defs></defs>
    <g id="Page-1" stroke="none" stroke-width="1" fill="none" fill-rule="evenodd">
        <g id="CATCH-DESKTOP-Wunshliste" transform="translate(-1261.000000, -557.000000)" fill="#808080">
            <g id="Group-2---2" transform="translate(465.000000, 544.000000)">
                <path d="M802.656854,18.2426407 L807.606602,13.2928932 C807.997126,12.9023689 808.630291,12.9023689 809.020815,13.2928932 C809.41134,13.6834175 809.41134,14.3165825 809.020815,14.7071068 L804.071068,19.6568542 L809.020815,24.6066017 C809.41134,24.997126 809.41134,25.630291 809.020815,26.0208153 C808.630291,26.4113396 807.997126,26.4113396 807.606602,26.0208153 L802.656854,21.0710678 L797.707107,26.0208153 C797.316582,26.4113396 796.683418,26.4113396 796.292893,26.0208153 C795.902369,25.630291 795.902369,24.997126 796.292893,24.6066017 L801.242641,19.6568542 L796.292893,14.7071068 C795.902369,14.3165825 795.902369,13.6834175 796.292893,13.2928932 C796.683418,12.9023689 797.316582,12.9023689 797.707107,13.2928932 L802.656854,18.2426407 Z" id="cross-gray"></path>
            </g>
        </g>
    </g>
</svg>