<?xml version="1.0" encoding="UTF-8"?>
<svg width="20px" height="20px" viewBox="0 0 20 20" version="1.1" xmlns="http://www.w3.org/2000/svg" xmlns:xlink="http://www.w3.org/1999/xlink">
    <!-- Generator: sketchtool 51.2 (57519) - http://www.bohemiancoding.com/sketch -->
    <title>9ECE8CB5-EC04-4D26-B952-343FC837D789</title>
    <desc>Created with sketchtool.</desc>
    <defs></defs>
    <g id="Page-1" stroke="none" stroke-width="1" fill="none" fill-rule="evenodd">
        <g id="CATCH-DESKTOP-Anmeldung" transform="translate(-759.000000, -660.000000)" fill="#FFFFFF" fill-rule="nonzero">
            <g id="social" transform="translate(532.000000, 629.000000)">
                <g id="google-plus-social-logotype" transform="translate(227.000000, 31.000000)">
                    <path d="M10.5073684,11.3791753 L9.55305263,10.6529897 C9.26252632,10.4171134 8.86463158,10.1053608 8.86463158,9.53505155 C8.86463158,8.96226804 9.26231579,8.59814433 9.60715789,8.26082474 C10.7185263,7.40371134 11.8296842,6.49154639 11.8296842,4.56948454 C11.8296842,2.59298969 10.56,1.55319588 9.95115789,1.05979381 L11.5922105,1.05979381 L13.3145263,0 L8.09663158,0 C6.66484211,0 4.60126316,0.331546392 3.09052632,1.55319588 C1.952,2.51525773 1.39663158,3.84164948 1.39663158,5.03608247 C1.39663158,7.06309278 2.98568421,9.11814433 5.79242105,9.11814433 C6.05747368,9.11814433 6.34736842,9.09257732 6.63915789,9.06618557 C6.508,9.3785567 6.37557895,9.63876289 6.37557895,10.08 C6.37557895,10.8851546 6.79789474,11.3787629 7.17010526,11.8463918 C5.97789474,11.9268041 3.75178947,12.0562887 2.11052632,13.0441237 C0.547578947,13.954433 0.0717894737,15.2791753 0.0717894737,16.2146392 C0.0717894737,18.1391753 1.92442105,19.9317526 5.76547368,19.9317526 C10.3204211,19.9317526 12.7315789,17.4635052 12.7315789,15.0197938 C12.732,13.2245361 11.6730526,12.3410309 10.5073684,11.3791753 Z M7.03810526,8.38989691 C4.75936842,8.38989691 3.72715789,5.50494845 3.72715789,3.7643299 C3.72715789,3.08639175 3.85831579,2.38659794 4.30884211,1.84 C4.73389474,1.31958763 5.47368421,0.98185567 6.16442105,0.98185567 C8.36105263,0.98185567 9.50042105,3.89278351 9.50042105,5.76474227 C9.50042105,6.23298969 9.44757895,7.0628866 8.83852632,7.66309278 C8.41263158,8.07979381 7.69978947,8.38989691 7.03810526,8.38989691 Z M7.06421053,18.8426804 C4.23052632,18.8426804 2.40336842,17.5152577 2.40336842,15.6690722 C2.40336842,13.8239175 4.09768421,13.1993814 4.68042105,12.9929897 C5.79221053,12.6265979 7.22273684,12.5756701 7.46147368,12.5756701 C7.72631579,12.5756701 7.85873684,12.5756701 8.06968421,12.6016495 C10.084,14.0057732 10.9583158,14.7053608 10.9583158,16.0346392 C10.9585263,17.6439175 9.60736842,18.8426804 7.06421053,18.8426804 Z" id="Shape"></path>
                    <polygon id="Shape" points="17.1955789 8.35030928 17.1955789 5.75134021 15.8852632 5.75134021 15.8852632 8.35030928 13.2355789 8.35030928 13.2355789 9.64804124 15.8852632 9.64804124 15.8852632 12.263299 17.1955789 12.263299 17.1955789 9.64804124 19.8585263 9.64804124 19.8585263 8.35030928"></polygon>
                </g>
            </g>
        </g>
    </g>
</svg>