<svg width="14" height="13" viewBox="0 0 14 13" fill="none" xmlns="http://www.w3.org/2000/svg">
<path d="M6.9458 1.17163C8.6813 1.17163 8.88713 1.17813 9.57288 1.20954C11.3344 1.28971 12.1572 2.1255 12.2373 3.874C12.2688 4.55921 12.2747 4.76504 12.2747 6.50054C12.2747 8.23658 12.2682 8.44188 12.2373 9.12708C12.1566 10.874 11.336 11.7114 9.57288 11.7915C8.88713 11.823 8.68238 11.8295 6.9458 11.8295C5.2103 11.8295 5.00447 11.823 4.31926 11.7915C2.55343 11.7108 1.73497 10.8713 1.6548 9.12654C1.62338 8.44133 1.61688 8.23604 1.61688 6.5C1.61688 4.7645 1.62393 4.55921 1.6548 3.87346C1.73551 2.1255 2.55613 1.28917 4.31926 1.209C5.00501 1.17813 5.2103 1.17163 6.9458 1.17163ZM6.9458 0C5.18051 0 4.95951 0.00758333 4.26618 0.039C1.90559 0.147333 0.593676 1.45708 0.485342 3.81983C0.453384 4.51371 0.445801 4.73471 0.445801 6.5C0.445801 8.26529 0.453384 8.48683 0.484801 9.18017C0.593134 11.5408 1.90288 12.8527 4.26563 12.961C4.95951 12.9924 5.18051 13 6.9458 13C8.71109 13 8.93263 12.9924 9.62597 12.961C11.9844 12.8527 13.2996 11.5429 13.4063 9.18017C13.4382 8.48683 13.4458 8.26529 13.4458 6.5C13.4458 4.73471 13.4382 4.51371 13.4068 3.82038C13.3006 1.46196 11.9893 0.147875 9.62651 0.0395417C8.93263 0.00758333 8.71109 0 6.9458 0V0ZM6.9458 3.16225C5.10251 3.16225 3.60805 4.65671 3.60805 6.5C3.60805 8.34329 5.10251 9.83829 6.9458 9.83829C8.78909 9.83829 10.2836 8.34383 10.2836 6.5C10.2836 4.65671 8.78909 3.16225 6.9458 3.16225ZM6.9458 8.66667C5.74926 8.66667 4.77913 7.69708 4.77913 6.5C4.77913 5.30346 5.74926 4.33333 6.9458 4.33333C8.14234 4.33333 9.11247 5.30346 9.11247 6.5C9.11247 7.69708 8.14234 8.66667 6.9458 8.66667ZM10.4157 2.25063C9.98455 2.25063 9.63518 2.6 9.63518 3.03063C9.63518 3.46125 9.98455 3.81063 10.4157 3.81063C10.8463 3.81063 11.1952 3.46125 11.1952 3.03063C11.1952 2.6 10.8463 2.25063 10.4157 2.25063Z" fill="#DE326A"/>
</svg>
