<svg width="1087" height="625" viewBox="0 0 1087 625" fill="none" xmlns="http://www.w3.org/2000/svg">
<path d="M744.367 399.115C804.239 356.388 877.831 383.124 900.283 411.109C900.283 411.109 923.783 435.232 980.783 531.732C1006.37 575.057 1070.81 617.686 1125.78 623.732C1193.26 631.154 1250.28 596.232 1250.28 596.232L1264.28 -10.7676H0.282715C0.282715 -10.7676 37.2827 37.2324 116.283 67.2324C195.283 97.2324 216.283 175.232 216.283 175.232C216.283 175.232 225.199 234.214 298.282 263.232C350.277 283.878 395.665 246.537 479.934 280.178C585.282 322.232 657.055 461.426 744.367 399.115Z" fill="#E3E3DB"/>
</svg>
