<svg width="20" height="19" viewBox="0 0 20 19" fill="none" xmlns="http://www.w3.org/2000/svg">
<path d="M8.09051 15.2327C7.15599 15.2327 6.39502 15.9936 6.39502 16.9282C6.39502 17.8627 7.15599 18.6236 8.09051 18.6236C9.02502 18.6236 9.78599 17.8627 9.78599 16.9282C9.78599 15.9936 9.02502 15.2327 8.09051 15.2327ZM8.09051 17.6824C7.67665 17.6824 7.34289 17.3487 7.34289 16.9348C7.34289 16.521 7.67665 16.1872 8.09051 16.1872C8.50436 16.1872 8.83812 16.521 8.83812 16.9348C8.83812 17.342 8.50436 17.6824 8.09051 17.6824Z" fill="black"/>
<path d="M14.0446 15.2327C13.1101 15.2327 12.3491 15.9936 12.3491 16.9282C12.3491 17.8627 13.1101 18.6236 14.0446 18.6236C14.9791 18.6236 15.7401 17.8627 15.7401 16.9282C15.7401 15.9936 14.9791 15.2327 14.0446 15.2327ZM14.0446 17.6824C13.6307 17.6824 13.297 17.3487 13.297 16.9348C13.297 16.521 13.6307 16.1872 14.0446 16.1872C14.4585 16.1872 14.7922 16.521 14.7922 16.9348C14.7922 17.342 14.4585 17.6824 14.0446 17.6824Z" fill="black"/>
<path d="M19.0845 4.18516C18.9042 3.96488 18.6372 3.83805 18.3502 3.83805H3.59146L3.29108 2.38954C3.231 2.08916 3.02407 1.83551 2.74372 1.71535L0.661071 0.814209C0.420766 0.707407 0.147086 0.820884 0.0402833 1.06119C-0.0665189 1.30149 0.0469585 1.57518 0.287264 1.68198L2.36323 2.58312L4.65281 13.7106C4.74626 14.1511 5.13342 14.4649 5.58065 14.4649H16.9284C17.1887 14.4649 17.4023 14.2513 17.4023 13.9909C17.4023 13.7306 17.1887 13.517 16.9284 13.517H5.58065L5.30029 12.1619H17.0152C17.4624 12.1619 17.8496 11.8415 17.943 11.4077L19.2714 4.97282C19.3314 4.69914 19.2647 4.41211 19.0845 4.18516ZM17.0218 11.2208H5.11339L3.78504 4.78592H18.3435L17.0218 11.2208Z" fill="black"/>
</svg>
