<svg width="20" height="18" viewBox="0 0 20 18" fill="none" xmlns="http://www.w3.org/2000/svg">
<path d="M8.09002 14.459C7.1555 14.459 6.39453 15.22 6.39453 16.1545C6.39453 17.089 7.1555 17.85 8.09002 17.85C9.02454 17.85 9.7855 17.089 9.7855 16.1545C9.7855 15.22 9.02454 14.459 8.09002 14.459ZM8.09002 16.9088C7.67616 16.9088 7.3424 16.575 7.3424 16.1611C7.3424 15.7473 7.67616 15.4135 8.09002 15.4135C8.50388 15.4135 8.83763 15.7473 8.83763 16.1611C8.83763 16.5683 8.50388 16.9088 8.09002 16.9088Z" fill="white"/>
<path d="M14.0451 14.459C13.1106 14.459 12.3496 15.22 12.3496 16.1545C12.3496 17.089 13.1106 17.85 14.0451 17.85C14.9796 17.85 15.7406 17.089 15.7406 16.1545C15.7406 15.22 14.9796 14.459 14.0451 14.459ZM14.0451 16.9088C13.6312 16.9088 13.2975 16.575 13.2975 16.1611C13.2975 15.7473 13.6312 15.4135 14.0451 15.4135C14.459 15.4135 14.7927 15.7473 14.7927 16.1611C14.7927 16.5683 14.459 16.9088 14.0451 16.9088Z" fill="white"/>
<path d="M19.0845 3.41123C18.9042 3.19095 18.6372 3.06412 18.3502 3.06412H3.59146L3.29108 1.61562C3.231 1.31524 3.02407 1.06158 2.74372 0.941427L0.661071 0.0402833C0.420766 -0.0665189 0.147086 0.0469585 0.0402833 0.287264C-0.0665189 0.527569 0.0469585 0.801249 0.287264 0.908052L2.36323 1.8092L4.65281 12.9367C4.74626 13.3772 5.13342 13.6909 5.58065 13.6909H16.9284C17.1887 13.6909 17.4023 13.4773 17.4023 13.217C17.4023 12.9567 17.1887 12.7431 16.9284 12.7431H5.58065L5.30029 11.388H17.0152C17.4624 11.388 17.8496 11.0676 17.943 10.6337L19.2714 4.1989C19.3314 3.92522 19.2647 3.63818 19.0845 3.41123ZM17.0218 10.4468H5.11339L3.78504 4.01199H18.3435L17.0218 10.4468Z" fill="white"/>
</svg>
