<svg width="19" height="19" viewBox="0 0 19 19" fill="none" xmlns="http://www.w3.org/2000/svg">
<path d="M17.2579 6.54248L16.7002 6.46279L16.0129 6.40311L15.8239 5.93508L16.2719 5.40737L16.6006 4.9591C16.7232 4.79213 16.7799 4.6107 16.7799 4.40145C16.7799 4.37171 16.7799 4.35174 16.7699 4.32177C16.7599 4.08275 16.6607 3.89391 16.501 3.73434L14.3202 1.55337C14.1604 1.39383 13.9724 1.27465 13.7326 1.27465H13.6429C13.4339 1.27465 13.2512 1.32967 13.0953 1.44398L12.6472 1.77262L12.1192 2.22068L11.6412 2.04137L11.5816 1.34436L11.5019 0.796672C11.4384 0.360295 11.0139 0 10.5659 0H7.48875C7.04048 0 6.60626 0.360295 6.54274 0.796672L6.46306 1.34436L6.40314 2.04137L5.93511 2.22068L5.4074 1.77262L4.95934 1.44398C4.81001 1.33436 4.63067 1.27465 4.43139 1.27465H4.34174C4.10207 1.27465 3.90365 1.38406 3.73434 1.55337L1.55358 3.73434C1.40424 3.88368 1.31456 4.08275 1.29462 4.32177C1.28462 4.36171 1.28462 4.40145 1.28462 4.43139C1.28462 4.6207 1.32967 4.80319 1.44395 4.9591L1.77259 5.40737L2.24062 5.93508C2.17094 6.06447 2.11123 6.21404 2.04135 6.40311L1.34433 6.46279L0.796643 6.54248C0.370089 6.60452 0 7.04045 0 7.48851V10.5658C0 11.0139 0.367316 11.4394 0.796672 11.5018L1.34436 11.5815L2.04137 11.6412C2.12106 11.8502 2.19094 12.0096 2.24065 12.1192L1.77262 12.6469L1.44398 13.0952C1.33436 13.2445 1.28465 13.4138 1.28465 13.6029C1.28465 13.6329 1.28465 13.6726 1.29465 13.7125C1.31462 13.9515 1.39386 14.1604 1.55361 14.3199L3.73437 16.5009C3.89881 16.6653 4.1021 16.7696 4.34177 16.7696H4.43142C4.6307 16.7696 4.81001 16.71 4.95937 16.6005L5.40743 16.2719L5.93514 15.8039C6.11445 15.8933 6.27378 15.9632 6.40317 16.0129L6.46309 16.7L6.54277 17.2576C6.60372 17.6844 7.04054 18.0443 7.48878 18.0443H10.5659C11.0139 18.0443 11.4409 17.6844 11.5019 17.2576L11.5816 16.7L11.6412 16.0129C11.8006 15.9532 11.9599 15.8835 12.1192 15.8039L12.6472 16.2719L13.0953 16.6005C13.2512 16.7148 13.4339 16.7599 13.633 16.7599H13.7326C13.9725 16.7599 14.1707 16.6503 14.3202 16.5009L16.501 14.3199C16.6703 14.1506 16.76 13.9515 16.7699 13.7125C16.7799 13.6826 16.7799 13.6628 16.7799 13.6329C16.7799 13.4238 16.7137 13.2494 16.6006 13.0952L16.272 12.6469L15.8239 12.1192L16.013 11.6412L16.7003 11.5815L17.2579 11.5018C17.6945 11.4394 18.0546 11.0138 18.0546 10.5658V7.48851C18.0546 7.04045 17.6945 6.60493 17.2579 6.54248ZM17.0686 10.5458L16.5606 10.6255L16.3119 10.6454L15.2762 10.7251C15.2362 10.9342 15.1685 11.1298 15.0969 11.3025C15.0875 11.3327 15.0395 11.4629 14.9276 11.7109C14.9001 11.7718 14.8179 11.9499 14.6686 12.2388L15.3159 13.0355L15.4752 13.2145L15.7839 13.6429L13.6429 15.7839L13.2346 15.4752L13.0355 15.3159L12.2388 14.6386C12.0396 14.7682 11.8609 14.8587 11.7111 14.9275C11.6219 14.9683 11.3525 15.0669 11.3028 15.0968L10.7251 15.2759L10.6455 16.2916L10.6255 16.5606L10.5458 17.0685H7.50872L7.42904 16.5606L7.39907 16.2916L7.31941 15.2759L6.75176 15.0968L6.34343 14.9275C6.19109 14.8642 6.01476 14.7682 5.81572 14.6386L5.01905 15.3159L4.82977 15.4752L4.40168 15.7839L2.26063 13.6429L2.56932 13.2145L2.72866 13.0355L3.40573 12.2388C3.27634 12.0395 3.17692 11.8645 3.11701 11.7109L2.95767 11.3025L2.77837 10.7251L1.75268 10.6454L1.49372 10.6255L0.975979 10.5458V7.50845L1.49372 7.4188L1.75268 7.39903L2.77837 7.31938L2.95767 6.75173L3.11701 6.3434C3.17692 6.18979 3.27634 6.01473 3.40573 5.81569L2.72866 5.01902L2.56932 4.80977L2.26063 4.40145L4.40168 2.26042L4.82977 2.56932L5.01905 2.72866L5.81572 3.38576L6.03474 3.26637C6.16389 3.19583 6.27417 3.14784 6.34343 3.11704C6.54313 3.02824 6.68269 2.97936 6.75176 2.9577C6.93446 2.88631 7.12013 2.81813 7.31941 2.7784L7.39907 1.73274L7.42904 1.49372L7.50872 0.975979H10.5459L10.6255 1.49372L10.6455 1.73274L10.7251 2.7784C10.9342 2.81813 11.1284 2.88953 11.3028 2.9577C11.4413 3.00063 11.5796 3.05116 11.7111 3.11704L12.0098 3.26637L12.2389 3.38576L13.0355 2.72866L13.2346 2.56932L13.6429 2.26042L15.784 4.40145L15.4753 4.80977L15.3159 5.01902L14.6686 5.81569C14.818 6.10442 14.8987 6.28307 14.9276 6.3434C15.0083 6.51209 15.0627 6.64337 15.0969 6.75173C15.1719 6.93295 15.2363 7.1201 15.2762 7.31938L16.3119 7.39903L16.5607 7.4188L17.0686 7.50845V10.5458H17.0686Z" fill="white"/>
<path d="M9.03214 5.93555C8.17576 5.93555 7.45131 6.23681 6.85138 6.84184C6.25631 7.44177 5.95508 8.16623 5.95508 9.01261C5.95508 9.86899 6.25378 10.596 6.85138 11.1936C7.44877 11.791 8.17576 12.0897 9.03214 12.0897C9.87873 12.0897 10.6055 11.791 11.2131 11.1936C11.8205 10.596 12.1192 9.86902 12.1192 9.01261C12.1192 8.16623 11.8205 7.44924 11.2131 6.84184C10.6055 6.23424 9.87873 5.93555 9.03214 5.93555ZM10.5061 10.5163C10.0978 10.9247 9.59977 11.1339 9.03214 11.1339C8.44472 11.1339 7.94185 10.9298 7.52842 10.5163C7.11523 10.1031 6.91106 9.60024 6.91106 9.01261C6.91106 8.44495 7.1201 7.94721 7.52842 7.53886C7.94674 7.12057 8.44472 6.9115 9.03214 6.9115C9.59977 6.9115 10.0927 7.12544 10.5061 7.53886C10.9193 7.95208 11.1335 8.44495 11.1335 9.01261C11.1335 9.60024 10.9242 10.0982 10.5061 10.5163Z" fill="white"/>
</svg>
