<svg width="19" height="19" viewBox="0 0 19 19" fill="none" xmlns="http://www.w3.org/2000/svg">
<path d="M17.5147 6.54248L16.9571 6.46279L16.2698 6.40311L16.0807 5.93508L16.5288 5.40737L16.8574 4.9591C16.98 4.79213 17.0368 4.6107 17.0368 4.40145C17.0368 4.37171 17.0367 4.35174 17.0267 4.32177C17.0168 4.08275 16.9176 3.89391 16.7578 3.73434L14.577 1.55337C14.4173 1.39383 14.2293 1.27465 13.9894 1.27465H13.8998C13.6907 1.27465 13.508 1.32967 13.3521 1.44398L12.904 1.77262L12.3761 2.22068L11.8981 2.04137L11.8384 1.34436L11.7587 0.796672C11.6952 0.360295 11.2707 0 10.8227 0H7.74558C7.29732 0 6.86309 0.360295 6.79958 0.796672L6.7199 1.34436L6.65998 2.04137L6.19195 2.22068L5.66424 1.77262L5.21618 1.44398C5.06684 1.33436 4.88751 1.27465 4.68823 1.27465H4.59857C4.35891 1.27465 4.16049 1.38406 3.99118 1.55337L1.81041 3.73434C1.66108 3.88368 1.5714 4.08275 1.55145 4.32177C1.54145 4.36171 1.54145 4.40145 1.54145 4.43139C1.54145 4.6207 1.5865 4.80319 1.70079 4.9591L2.02943 5.40737L2.49746 5.93508C2.42778 6.06447 2.36807 6.21404 2.29818 6.40311L1.60116 6.46279L1.05348 6.54248C0.626925 6.60452 0.256836 7.04045 0.256836 7.48851V10.5658C0.256836 11.0139 0.624152 11.4394 1.05351 11.5018L1.60119 11.5815L2.29821 11.6412C2.37789 11.8502 2.44778 12.0096 2.49749 12.1192L2.02946 12.6469L1.70082 13.0952C1.59119 13.2445 1.54148 13.4138 1.54148 13.6029C1.54148 13.6329 1.54148 13.6726 1.55148 13.7125C1.57146 13.9515 1.6507 14.1604 1.81044 14.3199L3.99121 16.5009C4.15565 16.6653 4.35894 16.7696 4.5986 16.7696H4.68826C4.88754 16.7696 5.06684 16.71 5.21621 16.6005L5.66427 16.2719L6.19198 15.8039C6.37128 15.8933 6.53062 15.9632 6.66001 16.0129L6.71993 16.7L6.79961 17.2576C6.86056 17.6844 7.29738 18.0443 7.74561 18.0443H10.8227C11.2708 18.0443 11.6978 17.6844 11.7587 17.2576L11.8384 16.7L11.8981 16.0129C12.0574 15.9532 12.2167 15.8835 12.3761 15.8039L12.904 16.2719L13.3521 16.6005C13.508 16.7148 13.6907 16.7599 13.8898 16.7599H13.9895C14.2293 16.7599 14.4275 16.6503 14.5771 16.5009L16.7578 14.3199C16.9272 14.1506 17.0168 13.9515 17.0268 13.7125C17.0368 13.6826 17.0368 13.6628 17.0368 13.6329C17.0368 13.4238 16.9705 13.2494 16.8575 13.0952L16.5288 12.6469L16.0807 12.1192L16.2698 11.6412L16.9571 11.5815L17.5148 11.5018C17.9513 11.4394 18.3114 11.0138 18.3114 10.5658V7.48851C18.3114 7.04045 17.9513 6.60493 17.5147 6.54248ZM17.3254 10.5458L16.8175 10.6255L16.5687 10.6454L15.533 10.7251C15.4931 10.9342 15.4253 11.1298 15.3537 11.3025C15.3444 11.3327 15.2964 11.4629 15.1844 11.7109C15.157 11.7718 15.0748 11.9499 14.9254 12.2388L15.5727 13.0355L15.7321 13.2145L16.0408 13.6429L13.8997 15.7839L13.4914 15.4752L13.2923 15.3159L12.4957 14.6386C12.2964 14.7682 12.1177 14.8587 11.9679 14.9275C11.8787 14.9683 11.6093 15.0669 11.5596 15.0968L10.982 15.2759L10.9023 16.2916L10.8823 16.5606L10.8027 17.0685H7.76556L7.68587 16.5606L7.6559 16.2916L7.57625 15.2759L7.00859 15.0968L6.60027 14.9275C6.44793 14.8642 6.2716 14.7682 6.07256 14.6386L5.27589 15.3159L5.08661 15.4752L4.65852 15.7839L2.51746 13.6429L2.82616 13.2145L2.98549 13.0355L3.66257 12.2388C3.53318 12.0395 3.43376 11.8645 3.37384 11.7109L3.21451 11.3025L3.0352 10.7251L2.00951 10.6454L1.75056 10.6255L1.23281 10.5458V7.50845L1.75056 7.4188L2.00951 7.39903L3.0352 7.31938L3.21451 6.75173L3.37384 6.3434C3.43376 6.18979 3.53318 6.01473 3.66257 5.81569L2.98549 5.01902L2.82616 4.80977L2.51746 4.40145L4.65852 2.26042L5.08661 2.56932L5.27589 2.72866L6.07256 3.38576L6.29157 3.26637C6.42073 3.19583 6.531 3.14784 6.60027 3.11704C6.79996 3.02824 6.93953 2.97936 7.00859 2.9577C7.19129 2.88631 7.37697 2.81813 7.57625 2.7784L7.6559 1.73274L7.68587 1.49372L7.76556 0.975979H10.8027L10.8824 1.49372L10.9023 1.73274L10.982 2.7784C11.1911 2.81813 11.3852 2.88953 11.5596 2.9577C11.6981 3.00063 11.8365 3.05116 11.968 3.11704L12.2667 3.26637L12.4957 3.38576L13.2924 2.72866L13.4914 2.56932L13.8998 2.26042L16.0408 4.40145L15.7321 4.80977L15.5728 5.01902L14.9255 5.81569C15.0748 6.10442 15.1555 6.28307 15.1844 6.3434C15.2652 6.51209 15.3195 6.64337 15.3538 6.75173C15.4287 6.93295 15.4931 7.1201 15.533 7.31938L16.5687 7.39903L16.8175 7.4188L17.3254 7.50845V10.5458H17.3254Z" fill="black"/>
<path d="M9.28922 5.93579C8.43284 5.93579 7.70839 6.23705 7.10846 6.84209C6.51339 7.44202 6.21216 8.16647 6.21216 9.01285C6.21216 9.86924 6.51086 10.5962 7.10846 11.1939C7.70585 11.7912 8.43284 12.0899 9.28922 12.0899C10.1358 12.0899 10.8626 11.7912 11.4702 11.1939C12.0776 10.5962 12.3763 9.86927 12.3763 9.01285C12.3763 8.16647 12.0776 7.44948 11.4702 6.84209C10.8626 6.23449 10.1358 5.93579 9.28922 5.93579ZM10.7632 10.5166C10.3549 10.9249 9.85685 11.1342 9.28922 11.1342C8.7018 11.1342 8.19893 10.93 7.7855 10.5166C7.37231 10.1034 7.16814 9.60048 7.16814 9.01285C7.16814 8.4452 7.37718 7.94746 7.7855 7.53911C8.20382 7.12081 8.7018 6.91174 9.28922 6.91174C9.85685 6.91174 10.3498 7.12568 10.7632 7.53911C11.1764 7.95233 11.3905 8.4452 11.3905 9.01285C11.3905 9.60048 11.1813 10.0985 10.7632 10.5166Z" fill="black"/>
</svg>
