<svg width="1167" height="858" viewBox="0 0 1167 858" fill="none" xmlns="http://www.w3.org/2000/svg">
<path d="M311.744 542.864C196.59 564.435 78.694 633.344 34.1404 665.102V740.603L244.913 857.448L1056.99 799.924L1001.26 783.746C1163.05 783.746 689.078 508.349 615.051 506.911C522.516 505.113 455.686 515.899 311.744 542.864Z" fill="#FEA991"/>
<path d="M212.896 462.059C178.06 374.912 -1.21866e-05 75.8283 -1.21866e-05 75.8283C0.000308262 -56.959 285.446 12.1532 453.825 75.8283C664.298 155.422 1060.82 16.1329 1143.51 75.8283C1209.66 123.585 1128.51 404.258 994.914 404.258C861.314 404.258 624.906 694.922 529.385 657.709C433.864 620.496 247.733 549.206 212.896 462.059Z" fill="#BFCFC4"/>
<path d="M925.828 510.122V508.247C925.828 506.308 924.251 504.731 922.312 504.731C920.374 504.731 918.797 506.308 918.797 508.247V510.122C918.797 512.06 920.374 513.637 922.312 513.637C924.251 513.637 925.828 512.06 925.828 510.122ZM921.141 510.122V508.247C921.141 507.601 921.666 507.075 922.312 507.075C922.959 507.075 923.484 507.601 923.484 508.247V510.122C923.484 510.768 922.959 511.294 922.312 511.294C921.666 511.294 921.141 510.768 921.141 510.122Z" fill="#BFCFC4"/>
<path d="M931.688 513.637C933.626 513.637 935.203 512.06 935.203 510.122V508.247C935.203 506.308 933.626 504.731 931.688 504.731C929.749 504.731 928.172 506.308 928.172 508.247V510.122C928.172 512.06 929.749 513.637 931.688 513.637ZM930.516 508.247C930.516 507.601 931.041 507.075 931.688 507.075C932.334 507.075 932.859 507.601 932.859 508.247V510.122C932.859 510.768 932.334 511.294 931.688 511.294C931.041 511.294 930.516 510.768 930.516 510.122V508.247Z" fill="#BFCFC4"/>
<path d="M942.234 548.219C944.302 548.219 945.984 546.537 945.984 544.469V530.172C945.984 527.975 944.197 526.188 942 526.188H940.652C940.15 524.561 938.633 523.375 936.844 523.375H932.859V521.031H935.906C938.103 521.031 939.891 519.244 939.891 517.047V514.469H941.062C943.518 514.469 945.516 512.471 945.516 510.016V500.172C945.516 499.525 944.991 499 944.344 499C943.697 499 943.172 499.525 943.172 500.172V506.095C942.544 505.756 941.825 505.562 941.062 505.562H939.891V502.984C939.891 500.787 938.103 499 935.906 499H918.094C915.897 499 914.109 500.787 914.109 502.984V505.562H912.938C912.175 505.562 911.456 505.756 910.828 506.095V500.172C910.828 499.525 910.303 499 909.656 499C909.009 499 908.484 499.525 908.484 500.172V510.114C908.484 510.148 908.487 510.181 908.489 510.214C908.594 512.578 910.549 514.469 912.938 514.469H914.109V517.047C914.109 519.244 915.897 521.031 918.094 521.031H921.141V523.375H917.156C915.367 523.375 913.85 524.561 913.348 526.188H912C909.803 526.188 908.016 527.975 908.016 530.172V544.469C908.016 546.537 909.698 548.219 911.766 548.219C912.263 548.219 912.737 548.121 913.172 547.944V552.087C910.501 552.631 908.484 554.998 908.484 557.828C908.484 558.475 909.009 559 909.656 559H919.031C919.678 559 920.203 558.475 920.203 557.828V548.219H921.741C922.389 548.219 922.913 547.694 922.913 547.047C922.913 546.4 922.389 545.875 921.741 545.875H917.156C916.252 545.875 915.516 545.139 915.516 544.234V527.359C915.516 526.455 916.252 525.719 917.156 525.719H936.844C937.748 525.719 938.484 526.455 938.484 527.359V532.984V544.234C938.484 545.139 937.748 545.875 936.844 545.875H932.288C931.641 545.875 931.116 546.4 931.116 547.047C931.116 547.694 931.641 548.219 932.288 548.219H933.797V557.828C933.797 558.475 934.322 559 934.969 559H944.344C944.991 559 945.516 558.475 945.516 557.828C945.516 554.999 943.499 552.631 940.828 552.087V547.944C941.263 548.121 941.737 548.219 942.234 548.219V548.219ZM911.766 540.719C911.268 540.719 910.794 540.817 910.359 540.993V533.801C910.86 534.029 911.415 534.156 912 534.156H913.172V540.993C912.737 540.817 912.263 540.719 911.766 540.719ZM912 528.531H913.172V531.812H912C911.095 531.812 910.359 531.077 910.359 530.172C910.359 529.267 911.095 528.531 912 528.531ZM911.766 545.875C910.99 545.875 910.359 545.244 910.359 544.469C910.359 543.693 910.99 543.062 911.766 543.062C912.541 543.062 913.172 543.693 913.172 544.469C913.172 545.244 912.541 545.875 911.766 545.875ZM911.029 556.656C911.513 555.292 912.816 554.312 914.344 554.312C915.872 554.312 917.175 555.292 917.659 556.656H911.029ZM917.156 548.219H917.859V553.144C917.178 552.631 916.381 552.263 915.516 552.087V547.864C916.016 548.091 916.571 548.219 917.156 548.219ZM941.062 507.906C942.226 507.906 943.172 508.853 943.172 510.016C943.172 511.179 942.226 512.125 941.062 512.125H939.891V507.906H941.062ZM912.938 512.125C911.774 512.125 910.828 511.179 910.828 510.016C910.828 508.853 911.774 507.906 912.938 507.906H914.109V512.125H912.938ZM916.453 517.047V513.297V506.734V502.984C916.453 502.08 917.189 501.344 918.094 501.344H935.906C936.811 501.344 937.547 502.08 937.547 502.984V506.734V513.297V517.047C937.547 517.952 936.811 518.688 935.906 518.688H918.094C917.189 518.688 916.453 517.952 916.453 517.047ZM923.484 523.375V521.031H930.516V523.375H923.484ZM942.234 545.875C941.459 545.875 940.828 545.244 940.828 544.469C940.828 543.693 941.459 543.062 942.234 543.062C943.01 543.062 943.641 543.693 943.641 544.469C943.641 545.244 943.01 545.875 942.234 545.875ZM940.828 534.156H942C942.585 534.156 943.14 534.029 943.641 533.801V540.993C943.206 540.817 942.732 540.719 942.234 540.719C941.737 540.719 941.263 540.817 940.828 540.993V534.156ZM943.641 530.172C943.641 531.077 942.905 531.812 942 531.812H940.828V528.531H942C942.905 528.531 943.641 529.267 943.641 530.172ZM936.844 548.219C937.429 548.219 937.984 548.091 938.484 547.864V552.087C937.619 552.263 936.822 552.631 936.141 553.144V548.219H936.844ZM942.971 556.656H936.341C936.825 555.292 938.128 554.312 939.656 554.312C941.184 554.312 942.487 555.292 942.971 556.656Z" fill="#BFCFC4"/>
<path d="M935.203 540.484V531.109C935.203 530.462 934.678 529.938 934.031 529.938H919.969C919.322 529.938 918.797 530.462 918.797 531.109V540.484C918.797 541.131 919.322 541.656 919.969 541.656H934.031C934.678 541.656 935.203 541.131 935.203 540.484ZM932.859 539.312H921.141V532.281H932.859V539.312Z" fill="#BFCFC4"/>
<path d="M929.344 536.969C929.652 536.969 929.954 536.843 930.172 536.625C930.39 536.407 930.516 536.105 930.516 535.797C930.516 535.489 930.39 535.186 930.172 534.968C929.954 534.75 929.652 534.625 929.344 534.625C929.036 534.625 928.733 534.75 928.515 534.968C928.297 535.186 928.172 535.489 928.172 535.797C928.172 536.105 928.297 536.407 928.515 536.625C928.733 536.843 929.036 536.969 929.344 536.969Z" fill="#BFCFC4"/>
<path d="M924.656 536.969C924.964 536.969 925.267 536.843 925.485 536.625C925.703 536.407 925.828 536.105 925.828 535.797C925.828 535.489 925.703 535.186 925.485 534.968C925.267 534.75 924.964 534.625 924.656 534.625C924.348 534.625 924.046 534.75 923.828 534.968C923.61 535.186 923.484 535.489 923.484 535.797C923.484 536.105 923.61 536.407 923.828 536.625C924.046 536.843 924.348 536.969 924.656 536.969Z" fill="#BFCFC4"/>
<path d="M927 545.875C926.692 545.875 926.389 546 926.171 546.218C925.954 546.436 925.828 546.739 925.828 547.047C925.828 547.355 925.953 547.657 926.171 547.875C926.389 548.093 926.692 548.219 927 548.219C927.308 548.219 927.611 548.093 927.828 547.875C928.046 547.657 928.172 547.355 928.172 547.047C928.172 546.739 928.046 546.436 927.828 546.218C927.611 546 927.308 545.875 927 545.875Z" fill="#BFCFC4"/>
<path d="M955.601 489.895C951.105 484.683 947.424 481.862 940.516 480.876C933.471 479.869 926.333 481.047 919.286 481.275C914.963 481.414 909.237 481.595 905.318 483.589C900.143 486.222 896.171 492.966 893.665 498.036C887.238 511.038 887.36 523.866 887.36 538.023C887.36 548.507 891.692 556.836 902.205 559.732C919.225 564.421 938.343 562.799 955.841 562.446C969.192 562.176 973.874 549.125 973.559 537.624C973.47 534.371 972.335 531.465 971.484 528.365C970.67 525.399 970.717 522.326 969.648 519.426C967.498 513.588 965.593 506.789 961.507 501.947C958.613 498.516 959.586 489.961 954.824 489.009" stroke="white" stroke-width="2" stroke-linecap="round" stroke-linejoin="round"/>
<path d="M890.233 500.67C913.416 511.504 936.69 525.485 953.087 545.526C955.407 548.361 961.257 550.054 962.784 553.108" stroke="white" stroke-width="2" stroke-linecap="round" stroke-linejoin="round"/>
<path d="M898.974 493.228C902.894 498.308 909.1 501.597 914.082 505.521C919.891 510.095 925.756 514.5 931.466 519.221C936.157 523.099 941.581 526.17 946.698 529.445C949.049 530.949 951.298 532.687 953.755 534.018C956.995 535.773 960.149 537.049 963.047 539.42C965.103 541.101 966.235 544.553 968.635 545.753" stroke="white" stroke-width="2" stroke-linecap="round" stroke-linejoin="round"/>
<path d="M184 504.901V488.001C183.994 487.39 183.712 486.815 183.234 486.435C182.756 486.055 182.131 485.912 181.535 486.044C171.335 488.295 163.312 482.335 159.435 478.579C158.635 477.807 157.367 477.807 156.567 478.579C152.691 482.331 144.667 488.292 134.467 486.04C133.87 485.907 133.244 486.05 132.765 486.431C132.286 486.812 132.005 487.389 132 488.001V504.901C132 520.959 142.682 530.487 157.065 537.777C157.653 538.074 158.348 538.074 158.936 537.777C173.26 530.515 184 521.01 184 504.901ZM182 504.901C182 520.01 171.61 529.307 157.969 535.993C144.394 529.117 134.017 520.248 134.017 504.901V488.001C145.125 490.451 153.792 484.052 158.044 480.019C162.208 484.051 170.852 490.45 182 488.013V504.901Z" fill="#BFCFC4"/>
<path d="M169.136 509.325C172.342 511.176 175.481 513.682 178.876 515.173C180.019 515.675 181.105 515.927 181.986 514.926C186.548 509.741 191.142 504.638 195.082 498.946" stroke="white" stroke-width="2" stroke-linecap="round" stroke-linejoin="round"/>
<path d="M173.955 517.85C177.038 519.031 182.196 521.59 184.704 518.674C185.996 517.171 187.629 515.929 189.152 514.679C193.281 511.288 197.141 507.734 200.663 503.703C202.468 501.637 206.049 498.662 206.943 495.981" stroke="white" stroke-width="2" stroke-linecap="round" stroke-linejoin="round"/>
<path d="M935.049 579.534C932.949 577.608 928.371 575.353 925.731 577.896C922.132 581.362 928.002 587.114 930.616 588.598C933.014 589.959 943.317 593.182 935.219 594.5C932.906 594.877 928.442 596.025 928.442 592.749" stroke="white" stroke-linecap="round" stroke-linejoin="round"/>
<path d="M939.116 582.584C937.33 584.871 935.969 588.593 939.737 590.208C942.12 591.23 943.635 590.269 944.086 587.667C944.813 583.465 940.041 577.474 937.591 583.6" stroke="white" stroke-linecap="round" stroke-linejoin="round"/>
<path d="M950.298 590.716C948.566 586.56 948.238 582.672 947.361 578.291C947.087 576.922 946.149 575.355 946.232 573.942C946.312 572.582 952.486 573.044 953.094 574.987C953.468 576.184 953.614 577.594 952.331 578.235C952.075 578.363 949.846 579.227 949.846 578.799C949.846 576.975 952.092 581.758 953.602 582.781C954.698 583.523 956.763 585.197 957.923 584.617" stroke="white" stroke-linecap="round" stroke-linejoin="round"/>
<path d="M966.564 586.142C965.912 583.026 965.226 580.141 963.288 577.557C962.451 576.44 961.164 575.239 961.509 573.688C961.798 572.387 964.821 572.926 965.717 572.926C967.645 572.926 968.107 573.829 969.105 575.354C970.933 578.151 966.866 577.939 965.349 578.545C964.163 579.02 967.736 579.471 968.879 580.042C969.947 580.576 971.046 581.197 972.155 581.567" stroke="white" stroke-linecap="round" stroke-linejoin="round"/>
<path d="M972.663 570.384C973.035 571.325 974.36 577.339 976.475 575.693C977.23 575.106 979.267 571.537 979.666 570.497C980.742 567.701 978.872 573.125 978.763 573.999C978.319 577.548 978.255 581.048 978.255 584.617" stroke="white" stroke-linecap="round" stroke-linejoin="round"/>
<path d="M986.387 561.235C986.482 565.213 986.66 570.185 987.912 573.942" stroke="white" stroke-linecap="round" stroke-linejoin="round"/>
<path d="M990.313 579.688C990.286 579.715 988.908 580.932 989.292 581.076C989.81 581.27 990.492 580.279 990.726 579.998" stroke="white" stroke-linecap="round" stroke-linejoin="round"/>
</svg>
