<svg width="168" height="59" viewBox="0 0 168 59" fill="none" xmlns="http://www.w3.org/2000/svg">
<path d="M1.76196 58.0002C10.3512 51.533 18.9355 45.1401 27.8178 39.0733C40.4264 30.4614 52.9961 20.4926 67.293 14.8347C78.4428 10.4222 90.8122 6.90226 102.631 4.82607C109.163 3.67855 116.237 3.07045 122.871 3.45618C131.017 3.92977 139.054 5.16155 147.222 5.16155C150.653 5.16155 152.207 5.39996 154.854 7.56585C155.893 8.41568 157.172 8.11508 158.097 8.68413C159.179 9.35014 160.684 9.64187 161.787 10.1938" stroke="#193D3B" stroke-width="2" stroke-linecap="round" stroke-linejoin="round"/>
<path d="M158.512 1.49263C159.417 2.5629 167.988 10.536 166.414 12.7285C165.357 14.2019 155.166 16.0528 152.706 16.0528" stroke="#193D3B" stroke-width="2" stroke-linecap="round" stroke-linejoin="round"/>
</svg>
