<svg width="9" height="8" viewBox="0 0 9 8" fill="none" xmlns="http://www.w3.org/2000/svg">
<g clip-path="url(#clip0)">
<path d="M5.03419 3.99966L8.88907 0.573099C9.03678 0.441802 9.03678 0.229283 8.88907 0.097985C8.74136 -0.0333127 8.50228 -0.0333127 8.35457 0.097985L4.49968 3.52455L0.644798 0.097985C0.497088 -0.0333127 0.258004 -0.0333127 0.110294 0.097985C-0.0374158 0.229283 -0.0374158 0.441802 0.110294 0.573099L3.96518 3.99966L0.110294 7.42623C-0.0374158 7.55752 -0.0374158 7.77004 0.110294 7.90134C0.183806 7.96668 0.280676 7.99966 0.377546 7.99966C0.474416 7.99966 0.571286 7.96668 0.644798 7.90134L4.49968 4.47478L8.35457 7.90134C8.42808 7.96668 8.52495 7.99966 8.62182 7.99966C8.71869 7.99966 8.81556 7.96668 8.88907 7.90134C9.03678 7.77004 9.03678 7.55752 8.88907 7.42623L5.03419 3.99966Z" fill="black"/>
</g>
<defs>
<clipPath id="clip0">
<rect width="9" height="8" fill="white"/>
</clipPath>
</defs>
</svg>
