<?xml version="1.0" encoding="UTF-8"?>
<svg width="40px" height="40px" viewBox="0 0 40 40" version="1.1" xmlns="http://www.w3.org/2000/svg" xmlns:xlink="http://www.w3.org/1999/xlink">
    <!-- Generator: sketchtool 53.2 (72643) - https://sketchapp.com -->
    <title>0101EB7C-ED26-4A58-BC27-60FAFAEFA841@2x</title>
    <desc>Created with sketchtool.</desc>
    <defs>
        <polygon id="path-1" points="0 0 39.9994 0 39.9994 39.9994 0 39.9994"></polygon>
    </defs>
    <g id="Page-1" stroke="none" stroke-width="1" fill="none" fill-rule="evenodd">
        <g id="hile-und-kontakt-copy" transform="translate(-1056.000000, -501.000000)">
            <g id="Group-Copy-2" transform="translate(1056.000000, 501.000000)">
                <g id="Group-3">
                    <mask id="mask-2" fill="white">
                        <use xlink:href="#path-1"></use>
                    </mask>
                    <g id="Clip-2"></g>
                    <path d="M36.4514,28.9614 C36.4514,33.0914 33.0914,36.4514 28.9614,36.4514 L11.0394,36.4514 C6.9094,36.4514 3.5494,33.0914 3.5494,28.9614 L3.5494,11.0394 C3.5494,6.9094 6.9094,3.5494 11.0394,3.5494 L28.9614,3.5494 C33.0914,3.5494 36.4514,6.9094 36.4514,11.0394 L36.4514,28.9614 Z M28.9614,-0.0006 L11.0394,-0.0006 C4.9514,-0.0006 -0.0006,4.9514 -0.0006,11.0394 L-0.0006,28.9614 C-0.0006,35.0474 4.9514,39.9994 11.0394,39.9994 L28.9614,39.9994 C35.0494,39.9994 39.9994,35.0474 39.9994,28.9614 L39.9994,11.0394 C39.9994,4.9514 35.0494,-0.0006 28.9614,-0.0006 L28.9614,-0.0006 Z" id="Fill-1" fill="#F9B500" mask="url(#mask-2)"></path>
                </g>
                <path d="M27.0995538,12.8149999 C24.8256859,12.8149999 24.3854481,13.8321261 24.3854481,15.3248153 L24.3854481,18.6160849 L29.8085366,18.6160849 L29.8066156,23.7713324 L24.3854481,23.7713324 L24.3854481,37 L18.7289536,37 L18.7289536,23.7713324 L14,23.7713324 L14,18.6160849 L18.7289536,18.6160849 L18.7289536,14.8145947 C18.7289536,10.4025274 21.5922598,8 25.7737178,8 L30,8.00632879 L29.9996798,12.8137945 L27.0995538,12.8149999 Z" id="facebook" fill="#F9B500"></path>
            </g>
        </g>
    </g>
</svg>