<svg width="41" height="16" viewBox="0 0 41 16" fill="none" xmlns="http://www.w3.org/2000/svg">
<g id="Ebay_Logo">
<g id="Group">
<mask id="mask0" mask-type="alpha" maskUnits="userSpaceOnUse" x="0" y="3" width="11" height="10">
<path id="Clip" fill-rule="evenodd" clip-rule="evenodd" d="M0 3.47412V12.867H10.0587V3.47412H0Z" fill="white"/>
</mask>
<g mask="url(#mask0)">
<path id="e" fill-rule="evenodd" clip-rule="evenodd" d="M2.08333 7.32904C2.08333 7.32904 2.22583 4.7966 5.08885 4.79583C7.94142 4.79507 7.94142 7.32904 7.94142 7.32904H2.08333ZM5.13792 3.47412C0.160488 3.4732 -0.032891 7.34106 -0.0075273 8.34504C-0.0075273 8.34504 -0.251326 12.867 5.01617 12.867C9.54228 12.867 9.76517 10.0297 9.76517 10.0297L7.68274 10.0338C7.68274 10.0338 7.27723 11.597 5.02478 11.5551C2.12902 11.5014 2.01665 8.70103 2.01665 8.70103H10.0388C10.0388 8.70103 10.6475 3.4752 5.13792 3.47412Z" fill="#E53238"/>
</g>
</g>
<path id="b" fill-rule="evenodd" clip-rule="evenodd" d="M15.3959 11.6162C12.1869 11.656 12.2391 8.25376 12.2391 8.25376C12.2391 8.25376 12.1222 4.97891 15.3908 4.89472C18.6591 4.81053 18.5528 8.32361 18.5528 8.32361C18.5528 8.32361 18.6049 11.5763 15.3959 11.6162ZM15.8624 3.53435C13.3214 3.52032 12.2282 5.02091 12.2282 5.02091V0H10.191L10.2255 10.6115C10.2255 10.6115 10.2133 11.8475 10.1362 12.6644H12.1148L12.1997 11.4724C12.1997 11.4724 13.1227 12.973 15.8196 12.973C18.517 12.973 20.6466 11.3321 20.7034 8.28866C20.7601 5.24541 18.4037 3.54823 15.8624 3.53435Z" fill="#0064D2"/>
<path id="a" fill-rule="evenodd" clip-rule="evenodd" d="M24.5943 11.6847C24.5943 11.6847 22.5358 11.6872 22.4151 10.0702C22.2864 8.34434 25.582 8.44815 25.582 8.44815L27.9101 8.44583C27.9101 8.44583 28.2871 11.7324 24.5943 11.6847ZM29.9615 10.5614C29.9666 9.18414 30.0076 7.95433 29.9615 7.08686C29.9076 6.08108 30.0045 3.65349 25.5818 3.47418C25.5818 3.47418 21.3417 3.09421 20.9015 6.19711H23.0701C23.0701 6.19711 23.2384 4.77546 25.4388 4.81646C27.5212 4.85514 27.9006 5.85938 27.8899 7.09429C27.8899 7.09429 26.105 7.09924 25.5095 7.10218C24.436 7.10744 20.6796 7.2244 20.329 9.47407C19.9119 12.149 22.3401 12.9836 24.24 12.9729C26.14 12.9624 27.2239 12.4031 28.0291 11.4004L28.1152 12.6457L30.0045 12.6351C30.0045 12.6351 29.9557 11.9388 29.9615 10.5614Z" fill="#F5AF02"/>
<path id="y" fill-rule="evenodd" clip-rule="evenodd" d="M29.1587 3.8916H31.5206L34.9752 10.6837L38.4371 3.8916H40.5723L34.3225 15.9997H32.0387L33.8474 12.6351L29.1587 3.8916Z" fill="#86B817"/>
</g>
</svg>
