<svg width="16" height="16" viewBox="0 0 16 16" fill="none" xmlns="http://www.w3.org/2000/svg">
<path d="M15.6837 8.18409C15.6837 7.6403 15.6396 7.09357 15.5455 6.55859H8V9.63911H12.321C12.1416 10.6326 11.5655 11.5115 10.7219 12.07V14.0688H13.2998C14.8136 12.6755 15.6837 10.6179 15.6837 8.18409Z" fill="#4285F4"/>
<path d="M7.99927 15.9999C10.1568 15.9999 11.9763 15.2915 13.302 14.0687L10.7241 12.0699C10.0069 12.5579 9.08097 12.8342 8.0022 12.8342C5.91521 12.8342 4.14568 11.4262 3.51076 9.5332H0.850586V11.5937C2.2086 14.2951 4.9746 15.9999 7.99927 15.9999Z" fill="#34A853"/>
<path d="M3.5082 9.53308C3.17311 8.53956 3.17311 7.46373 3.5082 6.4702V4.40967H0.850963C-0.283654 6.67008 -0.283654 9.3332 0.850963 11.5936L3.5082 9.53308Z" fill="#FBBC04"/>
<path d="M7.99927 3.1663C9.13976 3.14866 10.242 3.57782 11.068 4.36558L13.352 2.08165C11.9058 0.723637 9.98632 -0.0229763 7.99927 0.000539087C4.9746 0.000539087 2.2086 1.7054 0.850586 4.40968L3.50783 6.47021C4.1398 4.57428 5.91227 3.1663 7.99927 3.1663Z" fill="#EA4335"/>
</svg>
