<svg width="17" height="17" viewBox="0 0 17 17" fill="none" xmlns="http://www.w3.org/2000/svg">
<path d="M8.54563 2.01979C10.6088 2.01979 10.8535 2.02752 11.6687 2.06487C13.7628 2.16017 14.741 3.15377 14.8363 5.23241C14.8736 6.04699 14.8807 6.29169 14.8807 8.35487C14.8807 10.4187 14.873 10.6627 14.8363 11.4773C14.7403 13.554 13.7648 14.5496 11.6687 14.6449C10.8535 14.6822 10.6101 14.6899 8.54563 14.6899C6.48245 14.6899 6.23775 14.6822 5.42317 14.6449C3.32393 14.5489 2.35093 13.5508 2.25563 11.4767C2.21828 10.6621 2.21056 10.4181 2.21056 8.35423C2.21056 6.29104 2.21893 6.04699 2.25563 5.23176C2.35158 3.15377 3.32715 2.15953 5.42317 2.06423C6.2384 2.02752 6.48245 2.01979 8.54563 2.01979ZM8.54563 0.626953C6.44703 0.626953 6.18431 0.635968 5.36006 0.673317C2.55378 0.802105 0.994155 2.35915 0.865367 5.16801C0.827375 5.9929 0.818359 6.25563 0.818359 8.35423C0.818359 10.4528 0.827375 10.7162 0.864723 11.5404C0.993511 14.3467 2.55056 15.9063 5.35942 16.0351C6.18431 16.0725 6.44703 16.0815 8.54563 16.0815C10.6442 16.0815 10.9076 16.0725 11.7318 16.0351C14.5356 15.9063 16.099 14.3493 16.2259 11.5404C16.2639 10.7162 16.2729 10.4528 16.2729 8.35423C16.2729 6.25563 16.2639 5.9929 16.2265 5.16866C16.1003 2.36495 14.5413 0.802749 11.7325 0.673961C10.9076 0.635968 10.6442 0.626953 8.54563 0.626953V0.626953ZM8.54563 4.38627C6.35431 4.38627 4.57768 6.1629 4.57768 8.35423C4.57768 10.5456 6.35431 12.3228 8.54563 12.3228C10.737 12.3228 12.5136 10.5462 12.5136 8.35423C12.5136 6.1629 10.737 4.38627 8.54563 4.38627ZM8.54563 10.93C7.12317 10.93 5.96987 9.77733 5.96987 8.35423C5.96987 6.93176 7.12317 5.77847 8.54563 5.77847C9.96809 5.77847 11.1214 6.93176 11.1214 8.35423C11.1214 9.77733 9.96809 10.93 8.54563 10.93ZM12.6707 3.30252C12.1581 3.30252 11.7428 3.71786 11.7428 4.22979C11.7428 4.74173 12.1581 5.15707 12.6707 5.15707C13.1826 5.15707 13.5973 4.74173 13.5973 4.22979C13.5973 3.71786 13.1826 3.30252 12.6707 3.30252Z" fill="#DE326A"/>
</svg>
