<svg width="18" height="16" viewBox="0 0 18 16" fill="none" xmlns="http://www.w3.org/2000/svg">
<path id="Twitter" fill-rule="evenodd" clip-rule="evenodd" d="M18 2.35604C17.3379 2.64961 16.6258 2.84813 15.8788 2.93756C16.6416 2.48033 17.2271 1.75709 17.5028 0.894948C16.7895 1.31787 15.9986 1.62493 15.1577 1.79084C14.4838 1.07323 13.5242 0.625 12.4622 0.625C10.4226 0.625 8.76937 2.27787 8.76937 4.3171C8.76937 4.60617 8.802 4.88793 8.865 5.15844C5.79544 5.00434 3.07463 3.53425 1.25325 1.30043C0.935438 1.84595 0.753187 2.48033 0.753187 3.15689C0.753187 4.43745 1.40512 5.56786 2.39569 6.2298C1.79044 6.21068 1.22119 6.04477 0.723375 5.76807C0.722812 5.78382 0.722812 5.79901 0.722812 5.81475C0.722812 7.60372 1.99575 9.09575 3.6855 9.43487C3.37556 9.51923 3.04931 9.56422 2.71237 9.56422C2.47444 9.56422 2.24325 9.54116 2.01769 9.49842C2.48738 10.9651 3.85144 12.0326 5.4675 12.0624C4.20356 13.0527 2.61112 13.6427 0.880875 13.6427C0.58275 13.6427 0.289125 13.6252 0 13.5915C1.63406 14.6387 3.57525 15.25 5.661 15.25C12.4537 15.25 16.1679 9.62383 16.1679 4.74508C16.1679 4.5848 16.1646 4.42564 16.1572 4.26705C16.8789 3.74684 17.505 3.09671 18 2.35604Z" fill="#1DA1F2"/>
</svg>
