<?xml version="1.0" encoding="UTF-8"?>
<svg width="18px" height="15px" viewBox="0 0 18 15" version="1.1" xmlns="http://www.w3.org/2000/svg" xmlns:xlink="http://www.w3.org/1999/xlink">
    <!-- Generator: Sketch 50.2 (55047) - http://www.bohemiancoding.com/sketch -->
    <title>car</title>
    <desc>Created with Sketch.</desc>
    <defs></defs>
    <g id="Page-1" stroke="none" stroke-width="1" fill="none" fill-rule="evenodd">
        <g id="car" fill="#EFA833" fill-rule="nonzero">
            <path d="M11.5714286,3.3333333 L11.5714286,2.4991305 C11.5714286,2.0393734 11.9518841,1.6666667 12.4285714,1.6666667 C12.9019584,1.6666667 13.2857143,2.0409419 13.2857143,2.4991305 L13.2857143,3.3333333 L14.1428571,3.3333333 C14.5051056,3.3333333 14.8282436,3.5547354 14.950072,3.8864069 L16.2774047,7.5 L17.144083,7.5 C17.6167929,7.5 18,7.8737751 18,8.3357744 L18,12.4975589 C18,12.9591444 17.615717,13.3333333 17.1439319,13.3333333 L16.1393951,13.3333333 C15.7863925,14.304327 14.8339019,15 13.7142857,15 C12.5946696,15 11.642179,14.304327 11.2891763,13.3333333 L6.7108237,13.3333333 C6.357821,14.304327 5.4053304,15 4.2857143,15 C3.1660981,15 2.2136075,14.304327 1.8606049,13.3333333 L0.8560681,13.3333333 C0.3832747,13.3333333 0,12.9628076 0,12.4992736 L0,0.8340597 C0,0.3734213 0.3864117,0 0.8575132,0 L8.9996296,0 C9.4732211,0 9.8571999,0.3719262 9.8572704,0.8312872 L9.8576544,3.3333333 L11.5714286,3.3333333 Z M9.8579102,5 L9.8582938,7.5 L14.4572245,7.5 L13.5392369,5 L9.8579102,5 Z M13.7142857,10 C14.8339019,10 15.7863925,10.695673 16.1393951,11.6666667 L16.2857143,11.6666667 L16.2857143,9.1666667 L8.9988951,9.1666667 C8.5261184,9.1666667 8.1428571,8.7947405 8.1428571,8.3353795 L8.1428571,1.6666667 L1.7142857,1.6666667 L1.7142857,11.6666667 L1.8606049,11.6666667 C2.2136075,10.695673 3.1660981,10 4.2857143,10 C5.4053304,10 6.357821,10.695673 6.7108237,11.6666667 L11.2891763,11.6666667 C11.642179,10.695673 12.5946696,10 13.7142857,10 Z M14.5714286,12.5 C14.5714286,12.0397627 14.1876726,11.6666667 13.7142857,11.6666667 C13.2408988,11.6666667 12.8571429,12.0397627 12.8571429,12.5 C12.8571429,12.9602373 13.2408988,13.3333333 13.7142857,13.3333333 C14.1876726,13.3333333 14.5714286,12.9602373 14.5714286,12.5 Z M5.1428571,12.5 C5.1428571,12.0397627 4.7591012,11.6666667 4.2857143,11.6666667 C3.8123274,11.6666667 3.4285714,12.0397627 3.4285714,12.5 C3.4285714,12.9602373 3.8123274,13.3333333 4.2857143,13.3333333 C4.7591012,13.3333333 5.1428571,12.9602373 5.1428571,12.5 Z" id="Combined-Shape"></path>
        </g>
    </g>
</svg>