<svg width="1440" height="561" viewBox="0 0 1440 561" fill="none" xmlns="http://www.w3.org/2000/svg">
<path d="M695.915 334.115C636.044 291.387 562.452 318.123 540 346.109C540 346.109 516.5 370.232 459.5 466.732C433.909 510.057 369.475 552.685 314.5 558.732C247.025 566.154 123 546 41 490C-41 434 -41 396 -41 396V-75.7681H1440C1440 -75.7681 1403 -27.7681 1324 2.23193C1245 32.2319 1224 110.232 1224 110.232C1224 110.232 1215.08 169.213 1142 198.232C1090.01 218.877 1044.62 181.537 960.348 215.177C855 257.232 783.228 396.426 695.915 334.115Z" fill="#E3E3DB"/>
</svg>
