<svg width="320" height="340" viewBox="0 0 320 340" fill="none" xmlns="http://www.w3.org/2000/svg">
<path d="M234 231.5C168.5 224 140.994 299.55 129 314.5C129 314.5 69.4731 338.405 -18.1301 339.698C-19.5909 339.746 -21.0393 339.76 -22.4734 339.743C-68.9057 340.025 -56.56 339.01 -37.7741 338.406C-60.9831 334.682 -77.599 324.507 -77.599 324.507L-85.0777 0.25H590.145C590.145 0.25 570.38 25.8914 528.179 41.9173C485.977 57.9431 474.759 99.6104 474.759 99.6104C474.759 99.6104 469.996 131.118 430.955 146.62C403.18 157.648 378.934 137.701 333.918 155.672C277.641 178.137 298.114 238.841 234 231.5Z" fill="#E3E3DB"/>
</svg>
