<?xml version="1.0" encoding="UTF-8"?>
<svg width="18px" height="18px" viewBox="0 0 18 18" version="1.1" xmlns="http://www.w3.org/2000/svg" xmlns:xlink="http://www.w3.org/1999/xlink">
    <!-- Generator: Sketch 50.2 (55047) - http://www.bohemiancoding.com/sketch -->
    <title>like</title>
    <desc>Created with Sketch.</desc>
    <defs></defs>
    <g id="Page-1" stroke="none" stroke-width="1" fill="none" fill-rule="evenodd">
        <g id="like" fill="#D83E79" fill-rule="nonzero">
            <path d="M11.2720755,15.4136122 C13.1224683,15.4335927 14.0393263,15.0598629 14.506408,14.163525 L14.1691329,14.163525 C13.7075336,14.163525 13.3333333,13.7936376 13.3333333,13.3301917 C13.3333333,12.8699544 13.7027312,12.4968583 14.1691329,12.4968583 L15.0039178,12.4968583 C15.0727423,12.232599 15.1464541,11.9486934 15.2203538,11.663525 L14.5857996,11.663525 C14.1242002,11.663525 13.75,11.2936376 13.75,10.8301917 C13.75,10.3699544 14.1193978,9.9968583 14.5857996,9.9968583 L15.6509791,9.9968583 C15.7478859,9.620791 15.8121085,9.3708266 15.8152809,9.3579265 C15.8942909,8.992087 15.6935839,8.7466038 15.30191,8.7466038 L12.2944368,8.7464044 C11.0137102,8.7463195 10.0694817,7.6041571 10.3224675,6.3412696 C10.3311066,6.2983724 10.5711804,5.0858505 10.5869693,4.9964364 C10.7592122,4.0210088 10.8400793,3.3240886 10.8334497,2.9274519 L10.833488,2.8695388 C10.837976,2.6207404 10.6866071,2.3555561 10.2881182,2.0450188 C10.2433265,2.0101132 9.95031,1.8327667 9.95031,1.8327667 L7.5477412,7.0258651 C7.1024796,7.988288 6.0611415,8.6833898 5,8.7427397 L5,15.4169243 C7.6440028,15.4162271 10.9485541,15.4150746 11.2720755,15.4136122 Z M3.3333333,8.7468583 L1.6663458,8.7468583 L1.6666667,15.4176696 C1.6666667,15.4176696 2.3412403,15.4175514 3.3333333,15.4173295 L3.3333333,8.7468583 Z M1.6663458,17.0801917 C0.7460484,17.0801917 0,16.3367361 0,15.4176696 L0,8.7427137 C0,7.8245281 0.7468615,7.0801917 1.6663458,7.0801917 L4.8532951,7.0801917 C5.3152403,7.0801917 5.8361732,6.7234959 6.0351139,6.3260534 C6.2340546,5.928611 8.6270374,0.7236692 8.6270374,0.7236692 C8.9203218,0.0897415 9.6772155,-0.1854771 10.3090677,0.1331905 C10.3090677,0.1331905 10.9158253,0.4212015 11.3125885,0.730394 C12.0492762,1.3044853 12.5155311,2.0321481 12.4998836,2.8995981 C12.5090601,3.4486081 12.4099056,4.257489 12.2282439,5.286256 C12.1796973,5.5611799 11.9563309,6.6703111 11.9563309,6.6703111 C11.910955,6.896825 12.0624143,7.0797223 12.2945473,7.0797377 L15.3020205,7.0799371 C16.7521046,7.079937 17.746474,8.3010337 17.4474326,9.6990835 C17.4383344,9.7462411 16.3881798,13.9629006 16.1983635,14.4523061 C15.4913003,16.3662439 13.852003,17.1082341 11.2540798,17.0801817 C10.0617932,17.0860189 1.6663458,17.0801917 1.6663458,17.0801917 Z" id="Combined-Shape"></path>
        </g>
    </g>
</svg>