<?xml version="1.0" encoding="UTF-8"?>
<svg width="8px" height="8px" viewBox="0 0 8 8" version="1.1" xmlns="http://www.w3.org/2000/svg" xmlns:xlink="http://www.w3.org/1999/xlink">
    <!-- Generator: Sketch 47.1 (45422) - http://www.bohemiancoding.com/sketch -->
    <title>Star Copy 3</title>
    <desc>Created with Sketch.</desc>
    <defs></defs>
    <g id="Page-1" stroke="none" stroke-width="1" fill="none" fill-rule="evenodd">
        <g id="Mashable-Checkout-STEP-5" transform="translate(-482.000000, -2335.000000)" fill="#999999">
            <g id="Group-28" transform="translate(184.000000, 2244.000000)">
                <g id="Group-29" transform="translate(270.000000, 88.000000)">
                    <g id="Group-4-Copy-3" transform="translate(0.000000, 3.000000)">
                        <path d="M31.9999993,6.73734421 L30.2868818,7.68264417 L30.2868818,7.68264417 C30.0451056,7.81605655 29.7409551,7.72821027 29.6075428,7.48643404 C29.5533975,7.38830939 29.5337883,7.27483904 29.5518623,7.16423395 L29.885155,5.12462688 L28.4514403,3.65780004 L28.4514403,3.65780004 C28.2584198,3.46032168 28.2620336,3.14375981 28.459512,2.95073933 C28.5343283,2.87761191 28.6301983,2.82979459 28.7336212,2.81402114 L30.6929537,2.51519541 L31.5475245,0.697781819 L31.5475245,0.697781819 C31.6650283,0.447886886 31.9628638,0.340562633 32.2127587,0.458066393 C32.3181409,0.507618417 32.4029221,0.59239966 32.4524741,0.697781819 L33.2330276,2.35778282 L33.307045,2.51519541 L35.2663775,2.81402114 L35.2663775,2.81402114 C35.5393632,2.8556553 35.7269107,3.11070511 35.6852765,3.38369084 C35.6695031,3.48711375 35.6216858,3.58298372 35.5485584,3.65780004 L34.1148436,5.12462688 L34.4481364,7.16423395 L34.4481364,7.16423395 C34.4926702,7.43676165 34.3078446,7.6937908 34.0353169,7.73832463 C33.9247118,7.75639863 33.8112415,7.73678945 33.7131168,7.68264417 L31.9999993,6.73734421 Z" id="Star-Copy-3"></path>
                    </g>
                </g>
            </g>
        </g>
    </g>
</svg>