<svg width="1143" height="1292" viewBox="0 0 1143 1292" fill="none" xmlns="http://www.w3.org/2000/svg">
<path d="M208.493 358.508C73.0917 318.221 168.318 221.387 4.64519 351.429L591.952 1285.19C645.704 1195.53 771.606 1002.73 845.198 948.786C918.79 894.843 981.212 821.432 983.038 757.245C984.044 721.895 973.04 641.087 920.979 600.651C855.903 550.106 763.267 559.861 710.579 521.394C639.5 469.5 616 472.5 514 449C403.352 423.508 388.597 412.095 208.493 358.508Z" fill="#D1DE80"/>
<path d="M526.753 566.197C611.764 501.688 709.732 523.344 830.332 462.964L678.567 950.098L238.344 754.833C300.635 725.124 441.742 630.706 526.753 566.197Z" fill="#9B3376"/>
<path d="M409.964 695.26C482.733 641.377 796.878 569.798 944.854 540.744L617.445 1054.78L165.762 808.292C216.843 793.066 337.196 749.142 409.964 695.26Z" fill="#D3E5F3"/>
</svg>
