<svg width="1440" height="867" viewBox="0 0 1440 867" fill="none" xmlns="http://www.w3.org/2000/svg">
<path d="M667.351 251.864C531.95 211.577 251.348 170.864 113.35 170.864L-70.0001 170.864L-16 715L113.353 828.864C167.105 739.204 1235.96 910.593 1309.55 856.65C1383.14 802.707 1445.57 729.296 1447.39 665.109C1448.4 629.759 1437.39 548.951 1385.33 508.515C1320.26 457.97 1227.62 467.725 1174.93 429.258C1103.85 377.364 1080.35 380.364 978.353 356.864C867.706 331.372 847.455 305.451 667.351 251.864Z" fill="#D1DE80"/>
<path d="M991.098 474.062C1076.11 409.554 1174.08 431.21 1294.68 370.83C1294.68 370.83 1431.5 311.001 1458 264.001C1484.5 217.002 1498 849.001 1498 849.001L471.346 758.866C533.636 729.157 906.087 538.571 991.098 474.062Z" fill="#9B3376"/>
<path d="M874.317 603.125C947.085 549.242 1261.23 477.663 1409.21 448.609L1475.5 436.5L1600 871L630.114 716.157C681.195 700.931 801.549 657.007 874.317 603.125Z" fill="#D3E5F3"/>
</svg>
