<svg width="1335" height="736" viewBox="0 0 1335 736" fill="none" xmlns="http://www.w3.org/2000/svg">
<path d="M554.351 81.863C418.949 41.577 138.348 0.864014 0.348999 0.864014L0.35199 658.86C54.104 569.2 1122.96 740.59 1196.55 686.65C1270.14 632.71 1332.56 559.3 1334.39 495.108C1335.4 459.759 1324.39 378.95 1272.33 338.515C1207.25 287.97 1114.62 297.724 1061.93 259.258C990.853 207.364 967.353 210.364 865.353 186.864C754.705 161.371 734.455 135.451 554.351 81.863Z" fill="#D1DE80"/>
<path d="M878.097 304.061C963.108 239.552 1078.4 252.38 1199 192L1218 689L318 643L358.345 588.86C420.635 559.16 793.086 368.57 878.097 304.061Z" fill="#9B3376"/>
<path d="M761.317 433.123C834.085 379.241 1148.23 307.662 1296.21 278.607L1247 736C1247 736 363 661 390 616C417 571 517.114 546.16 517.114 546.16C568.195 530.93 688.549 487.006 761.317 433.123Z" fill="#D3E5F3"/>
</svg>
