<svg width="14" height="14" viewBox="0 0 14 14" fill="none" xmlns="http://www.w3.org/2000/svg">
<path d="M7.35693 1.50421C9.12581 1.50421 9.3356 1.51084 10.0345 1.54286C11.8299 1.62457 12.6685 2.47643 12.7502 4.25856C12.7823 4.95694 12.7883 5.16674 12.7883 6.93561C12.7883 8.70504 12.7817 8.91428 12.7502 9.61266C12.668 11.3931 11.8316 12.2467 10.0345 12.3284C9.3356 12.3604 9.12691 12.367 7.35693 12.367C5.58806 12.367 5.37827 12.3604 4.67988 12.3284C2.88009 12.2461 2.04589 11.3904 1.96418 9.61211C1.93216 8.91373 1.92554 8.70448 1.92554 6.93506C1.92554 5.16618 1.93271 4.95694 1.96418 4.25801C2.04644 2.47643 2.88285 1.62402 4.67988 1.54231C5.37882 1.51084 5.58806 1.50421 7.35693 1.50421ZM7.35693 0.310059C5.55769 0.310059 5.33244 0.317788 4.62578 0.349809C2.2198 0.460225 0.882652 1.79516 0.772236 4.20335C0.739663 4.91057 0.731934 5.13582 0.731934 6.93506C0.731934 8.7343 0.739663 8.9601 0.771684 9.66677C0.8821 12.0727 2.21704 13.4099 4.62523 13.5203C5.33244 13.5523 5.55769 13.5601 7.35693 13.5601C9.15617 13.5601 9.38198 13.5523 10.0886 13.5203C12.4924 13.4099 13.8329 12.075 13.9416 9.66677C13.9742 8.9601 13.9819 8.7343 13.9819 6.93506C13.9819 5.13582 13.9742 4.91057 13.9422 4.2039C13.834 1.80013 12.4974 0.460777 10.0892 0.350361C9.38197 0.317788 9.15617 0.310059 7.35693 0.310059V0.310059ZM7.35693 3.53312C5.47819 3.53312 3.955 5.05632 3.955 6.93506C3.955 8.8138 5.47819 10.3375 7.35693 10.3375C9.23567 10.3375 10.7589 8.81435 10.7589 6.93506C10.7589 5.05632 9.23567 3.53312 7.35693 3.53312ZM7.35693 9.14339C6.13738 9.14339 5.1486 8.15516 5.1486 6.93506C5.1486 5.71551 6.13738 4.72673 7.35693 4.72673C8.57649 4.72673 9.56527 5.71551 9.56527 6.93506C9.56527 8.15516 8.57649 9.14339 7.35693 9.14339ZM10.8936 2.60396C10.4541 2.60396 10.098 2.96006 10.098 3.39896C10.098 3.83787 10.4541 4.19396 10.8936 4.19396C11.3325 4.19396 11.688 3.83787 11.688 3.39896C11.688 2.96006 11.3325 2.60396 10.8936 2.60396Z" fill="#DE326A"/>
</svg>
