<svg width="127" height="47" viewBox="0 0 127 47" fill="none" xmlns="http://www.w3.org/2000/svg">
<path d="M21.6061 1.75769H30.0909V29.485H35.2424V37.6668H30.0909V45.2425H21.303V37.6668H1V29.485L21.6061 1.75769ZM21.303 29.485V15.091L10.697 29.6365H21.303V29.485Z" stroke="black"/>
<path d="M79.9394 35.2424C78.4243 38.5758 76.1515 41.303 73.2727 43.1212C70.394 44.9394 67.0606 45.8485 63.4243 45.8485C59.6364 45.8485 56.303 44.9394 53.5758 43.1212C50.697 41.303 48.5758 38.7273 46.9091 35.2424C45.394 31.9091 44.4849 27.9697 44.4849 23.4242C44.4849 18.8788 45.2424 15.0909 46.9091 11.6061C48.4243 8.27273 50.697 5.69697 53.5758 3.72727C56.4546 1.90909 59.7879 1 63.4243 1C67.2121 1 70.5455 1.90909 73.2727 3.72727C76.1515 5.54545 78.2727 8.12121 79.9394 11.6061C81.4546 14.9394 82.3637 18.8788 82.3637 23.4242C82.2121 27.9697 81.4546 31.9091 79.9394 35.2424ZM70.697 13.1212C69.0303 10.697 66.4546 9.48485 63.2727 9.48485C60.0909 9.48485 57.6667 10.697 55.8485 13.1212C54.1818 15.5455 53.2727 19.0303 53.2727 23.5758C53.2727 28.1212 54.1818 31.6061 55.8485 34.0303C57.5152 36.4545 60.0909 37.6667 63.2727 37.6667C66.4546 37.6667 68.8788 36.4545 70.697 34.0303C72.3636 31.6061 73.2727 28.1212 73.2727 23.5758C73.4243 19.0303 72.5152 15.5455 70.697 13.1212Z" stroke="black"/>
<path d="M112.364 1.75769H120.848V29.485H126V37.6668H120.848V45.2425H112.061V37.6668H91.7576V29.485L112.364 1.75769ZM112.061 29.485V15.091L101.455 29.6365H112.061V29.485Z" stroke="black"/>
</svg>
