<svg width="103" height="38" viewBox="0 0 103 38" fill="none" xmlns="http://www.w3.org/2000/svg">
<path d="M17.6497 1.6123H24.5055V24.0159H28.6679V30.6269H24.5055V36.7481H17.4048V30.6269H1V24.0159L17.6497 1.6123ZM17.4048 24.0159V12.3856L8.83515 24.1384H17.4048V24.0159Z" stroke="black"/>
<path d="M64.783 28.6679C63.5588 31.3612 61.7224 33.5649 59.3964 35.0339C57.0703 36.503 54.377 37.2376 51.4388 37.2376C48.3782 37.2376 45.6849 36.503 43.4812 35.0339C41.1552 33.5649 39.4412 31.4836 38.0946 28.6679C36.8703 25.9745 36.1358 22.7915 36.1358 19.1188C36.1358 15.4461 36.7479 12.3855 38.0946 9.5697C39.3188 6.87636 41.1552 4.79515 43.4812 3.20364C45.8073 1.73455 48.5006 1 51.4388 1C54.4994 1 57.1927 1.73455 59.3964 3.20364C61.7224 4.67273 63.4364 6.75394 64.783 9.5697C66.0073 12.263 66.7418 15.4461 66.7418 19.1188C66.6194 22.7915 66.0073 25.9745 64.783 28.6679ZM57.3152 10.7939C55.9685 8.83515 53.8873 7.85576 51.3164 7.85576C48.7455 7.85576 46.7867 8.83515 45.3176 10.7939C43.9709 12.7527 43.2364 15.5685 43.2364 19.2412C43.2364 22.9139 43.9709 25.7297 45.3176 27.6885C46.6643 29.6473 48.7455 30.6267 51.3164 30.6267C53.8873 30.6267 55.8461 29.6473 57.3152 27.6885C58.6618 25.7297 59.3964 22.9139 59.3964 19.2412C59.5188 15.5685 58.7843 12.7527 57.3152 10.7939Z" stroke="black"/>
<path d="M90.9818 1.6123H97.8376V24.0159H102V30.6269H97.8376V36.7481H90.737V30.6269H74.3321V24.0159L90.9818 1.6123ZM90.737 24.0159V12.3856L82.1673 24.1384H90.737V24.0159Z" stroke="black"/>
</svg>
