<?xml version="1.0" encoding="UTF-8"?>
<svg width="28px" height="28px" viewBox="0 0 28 28" version="1.1" xmlns="http://www.w3.org/2000/svg" xmlns:xlink="http://www.w3.org/1999/xlink">
    <!-- Generator: sketchtool 52.5 (67469) - http://www.bohemiancoding.com/sketch -->
    <title>169F5983-3539-4CC7-995C-8FD4E7EFCA54</title>
    <desc>Created with sketchtool.</desc>
    <g id="Page-1" stroke="none" stroke-width="1" fill="none" fill-rule="evenodd">
        <g id="tablet-menu-angemeldet" transform="translate(-481.000000, -350.000000)" fill="#000000" stroke="#000000" stroke-width="0.5">
            <path d="M500.6875,359.9375 L489.3125,359.9375 C489.092446,359.9375 488.902018,360.017902 488.741212,360.178712 C488.580402,360.339518 488.5,360.529946 488.5,360.75 C488.5,360.970054 488.580402,361.160482 488.741212,361.321288 C488.902018,361.482098 489.092446,361.5625 489.3125,361.5625 L500.6875,361.5625 C500.907554,361.5625 501.097982,361.482098 501.258788,361.321288 C501.419598,361.160482 501.5,360.970054 501.5,360.75 C501.5,360.529946 501.419598,360.339518 501.258788,360.178712 C501.097982,360.017902 500.907554,359.9375 500.6875,359.9375 Z M499.0625,364.8125 L490.9375,364.8125 C490.717446,364.8125 490.527018,364.892902 490.366212,365.053712 C490.205402,365.214518 490.125,365.404946 490.125,365.625 C490.125,365.845054 490.205402,366.035482 490.366212,366.196288 C490.527018,366.357098 490.717446,366.4375 490.9375,366.4375 L499.0625,366.4375 C499.282554,366.4375 499.472982,366.357098 499.633788,366.196288 C499.794598,366.035482 499.875,365.845054 499.875,365.625 C499.875,365.404946 499.794598,365.214518 499.633788,365.053712 C499.472982,364.892902 499.282554,364.8125 499.0625,364.8125 Z M495,351 C493.20572,351 491.517261,351.296221 489.93457,351.888673 C488.351881,352.481123 486.972337,353.293616 485.795899,354.326173 C484.61946,355.358728 483.692712,356.56477 483.015625,357.944337 C482.338538,359.3239 482,360.800775 482,362.375 C482,363.27214 482.114257,364.139643 482.342774,364.977538 C482.57129,365.815434 482.897133,366.615229 483.320312,367.376952 C483.743492,368.138677 484.255531,368.845373 484.856445,369.49707 C485.45736,370.148766 486.130204,370.728514 486.875,371.236327 L486.875,377 L492.5625,373.546875 C492.968753,373.614582 493.370765,373.665364 493.768555,373.699219 C494.166342,373.733074 494.576821,373.75 495,373.75 C496.79428,373.75 498.482739,373.453779 500.06543,372.861327 C501.648119,372.268877 503.027663,371.456384 504.204101,370.423827 C505.380539,369.391272 506.30729,368.18523 506.984375,366.805663 C507.66146,365.4261 508,363.949225 508,362.375 C508,360.800775 507.66146,359.3239 506.984375,357.944337 C506.30729,356.56477 505.380539,355.358728 504.204101,354.326173 C503.027663,353.293616 501.648119,352.481123 500.06543,351.888673 C498.482739,351.296221 496.79428,351 495,351 Z M495,372.125 C494.52604,372.125 494.060548,372.099611 493.603514,372.048827 C493.146483,371.998045 492.697918,371.921875 492.257812,371.820312 L488.423827,374.130859 L488.474611,370.347656 C487.746741,369.907551 487.08236,369.399742 486.481445,368.824219 C485.880529,368.248696 485.368492,367.622398 484.945312,366.945312 C484.522133,366.268227 484.19629,365.544601 483.967774,364.774413 C483.739257,364.004228 483.625,363.204432 483.625,362.375 C483.625,361.020826 483.921221,359.755539 484.513672,358.579101 C485.106123,357.402663 485.918616,356.370121 486.951173,355.481445 C487.983728,354.592768 489.18977,353.894535 490.569337,353.386719 C491.9489,352.878903 493.425775,352.625 495,352.625 C496.574225,352.625 498.0511,352.878903 499.430663,353.386719 C500.81023,353.894535 502.016272,354.592768 503.048827,355.481445 C504.081384,356.370121 504.893878,357.402663 505.486327,358.579101 C506.078779,359.755539 506.375,361.020826 506.375,362.375 C506.375,363.729174 506.078779,364.994461 505.486327,366.170899 C504.893878,367.347337 504.081384,368.379879 503.048827,369.268555 C502.016272,370.157232 500.81023,370.855465 499.430663,371.363281 C498.0511,371.871097 496.574225,372.125 495,372.125 Z" id="Fill-1"></path>
        </g>
    </g>
</svg>