<?xml version="1.0" encoding="UTF-8"?>
<svg width="116px" height="116px" viewBox="0 0 116 116" version="1.1" xmlns="http://www.w3.org/2000/svg" xmlns:xlink="http://www.w3.org/1999/xlink">
    <!-- Generator: Sketch 50.2 (55047) - http://www.bohemiancoding.com/sketch -->
    <title>arrow-right</title>
    <desc>Created with Sketch.</desc>
    <defs></defs>
    <g id="Page-1" stroke="none" stroke-width="1" fill="none" fill-rule="evenodd">
        <g id="arrow-right">
            <circle id="Oval" stroke="#000000" stroke-width="8" cx="58" cy="58" r="54"></circle>
            <path d="M69.4246212,58.0814755 L46.1715729,34.8284271 C44.6094757,33.26633 44.6094757,30.73367 46.1715729,29.1715729 C47.73367,27.6094757 50.26633,27.6094757 51.8284271,29.1715729 L77.2331494,54.5762952 C77.5032245,54.7398907 77.7581217,54.9383166 77.991378,55.1715729 C78.793149,55.9733438 79.1833984,57.0308015 79.1621262,58.0814755 C79.1833984,59.1321494 78.793149,60.1896071 77.991378,60.991378 C77.7581217,61.2246343 77.5032245,61.4230602 77.2331494,61.5866557 L51.8284271,86.991378 C50.26633,88.5534752 47.73367,88.5534752 46.1715729,86.991378 C44.6094757,85.4292809 44.6094757,82.8966209 46.1715729,81.3345238 L69.4246212,58.0814755 Z" id="Combined-Shape" fill="#000000"></path>
        </g>
    </g>
</svg>