<?xml version="1.0" encoding="UTF-8"?>
<svg width="17px" height="22px" viewBox="0 0 17 22" version="1.1" xmlns="http://www.w3.org/2000/svg" xmlns:xlink="http://www.w3.org/1999/xlink">
    <!-- Generator: sketchtool 52.2 (67145) - http://www.bohemiancoding.com/sketch -->
    <title>0F39386A-39BA-4AFB-92B9-9D34B89113B5</title>
    <desc>Created with sketchtool.</desc>
    <g id="Page-1" stroke="none" stroke-width="1" fill="none" fill-rule="evenodd">
        <g id="HOMEPAGE---DESKTOP---ACCOUNT---LOGGED-IN" transform="translate(-1079.000000, -119.000000)" fill="#F9B500" fill-rule="nonzero" stroke="#F9B500" stroke-width="0.5">
            <g id="menu">
                <g id="Group-3" transform="translate(1024.000000, 78.000000)">
                    <g id="avatar" transform="translate(56.000000, 42.000000)">
                        <path d="M7.62797732,10.375278 C7.64670087,10.375278 7.66542443,10.375278 7.6878927,10.375278 C7.69538212,10.375278 7.70287155,10.375278 7.71036097,10.375278 C7.7215951,10.375278 7.73657395,10.375278 7.74780808,10.375278 C8.84500855,10.3553408 9.73250518,9.94463615 10.3878297,9.15911356 C11.8295436,7.42857143 11.5898821,4.46192777 11.5636691,4.17882064 C11.4700513,2.0535235 10.526384,1.03673031 9.74748402,0.562226823 C9.16705374,0.207346062 8.48926096,0.0159496971 7.73282924,0 L7.70661626,0 C7.70287155,0 7.69538212,0 7.69163741,0 L7.66916914,0 C7.25350617,0 6.43715906,0.071773637 5.65451436,0.546277126 C4.86812494,1.02078061 3.9094788,2.03757381 3.81586101,4.17882064 C3.78964803,4.46192777 3.5499865,7.42857143 4.99170042,9.15911356 C5.64328022,9.94463615 6.53077685,10.3553408 7.62797732,10.375278 Z M4.81569898,4.27850625 C4.81569898,4.26654398 4.81944369,4.2545817 4.81944369,4.24660686 C4.94301917,1.38762365 6.84907732,1.08059198 7.66542443,1.08059198 L7.68040328,1.08059198 C7.6878927,1.08059198 7.69912683,1.08059198 7.71036097,1.08059198 C8.72143307,1.10451652 10.4402556,1.5431332 10.5563417,4.24660686 C10.5563417,4.25856913 10.5563417,4.2705314 10.5600864,4.27850625 C10.5638311,4.30641822 10.8259609,7.01786673 9.63514268,8.44536462 C9.16330903,9.01157887 8.5341975,9.29069857 7.70661626,9.29867341 C7.69912683,9.29867341 7.69538212,9.29867341 7.6878927,9.29867341 C7.68040328,9.29867341 7.67665857,9.29867341 7.66916914,9.29867341 C6.84533261,9.29069857 6.21247637,9.01157887 5.74438743,8.44536462 C4.55731389,7.02584158 4.81195427,4.3024308 4.81569898,4.27850625 Z M15.3832748,16.0365003 C15.3870195,16.2438463 15.3907642,17.3084886 15.2035287,17.838816 C15.1660816,17.9424891 15.094932,18.0302124 15.0088037,18.0900238 C14.8964623,18.1657848 12.2040148,19.9960126 7.69912683,19.9960126 C3.19423891,19.9960126 0.50179134,18.1697723 0.389449995,18.0900238 C0.29957692,18.0302124 0.232172113,17.9424891 0.194724998,17.838816 C-0.0037447115,17.3045012 1.55877915e-14,16.2398589 0.0037447115,16.0325128 C0.0037447115,16.0285254 0.0037447115,16.024538 0.0037447115,16.0205506 C0.00748942299,15.9886512 0.00748942299,15.9567518 0.00748942299,15.920865 C0.029957692,15.1353424 0.0786389414,13.2891649 1.70384373,12.6950387 C1.71507786,12.6910513 1.726312,12.6870639 1.74129085,12.6830765 C3.43764515,12.2245227 4.83442254,11.1877923 4.84940139,11.1758301 C5.07782879,11.0043708 5.39238455,11.0641822 5.55340715,11.3074151 C5.71442974,11.550648 5.65825907,11.8855916 5.42983167,12.0570508 C5.36617157,12.1009125 3.8757764,13.2094165 2.01091007,13.7198068 C1.13839229,14.050763 1.0410298,15.0436316 1.01481682,15.9527644 C1.01481682,15.9886512 1.0110721,16.0205506 1.0110721,16.05245 C1.00358268,16.4113182 1.02979566,16.9655701 1.08971105,17.2845641 C1.70009902,17.6514071 4.09296966,18.9233954 7.69538212,18.9233954 C11.3127734,18.9233954 13.6906652,17.6553945 14.2973085,17.2885515 C14.3572239,16.9695575 14.3796921,16.4153056 14.3759474,16.0564374 C14.3722027,16.024538 14.3722027,15.9926386 14.3722027,15.9567518 C14.3459897,15.047619 14.2486272,14.0547504 13.3761095,13.7237942 C11.5112431,13.2134039 10.020848,12.1088874 9.95718787,12.0610383 C9.72876046,11.889579 9.67258979,11.5546354 9.83361239,11.3114025 C9.99463498,11.0681696 10.3091907,11.0083583 10.5376181,11.1798175 C10.552597,11.1917798 11.9568638,12.2285101 13.6457287,12.6870639 C13.6569628,12.6910513 13.6719417,12.6950387 13.6831758,12.6990261 C15.3083806,13.2891649 15.3570618,15.1353424 15.3795301,15.9248524 C15.3795301,15.9607392 15.3832748,15.9926386 15.3832748,16.024538 C15.3832748,16.0285254 15.3832748,16.0325128 15.3832748,16.0365003 Z" id="Shape"></path>
                    </g>
                </g>
            </g>
        </g>
    </g>
</svg>