<svg width="48" height="48" viewBox="0 0 48 48" fill="none" xmlns="http://www.w3.org/2000/svg">
<path d="M24 0C10.7317 0 0 10.7317 0 24C0 37.2683 10.7317 48 24 48C37.2683 48 48 37.2683 48 24C48 10.7317 37.2195 0 24 0ZM36.6829 29.9512C36.3902 30.2439 36 30.3902 35.6585 30.3902C35.2683 30.3902 34.9268 30.2439 34.6341 29.9512L24 19.3659L13.3659 29.9512C13.0732 30.2439 12.6829 30.3902 12.3415 30.3902C11.9512 30.3902 11.6098 30.2439 11.3171 29.9512C10.7317 29.3659 10.7317 28.439 11.3171 27.9024L22.9268 16.2927C22.9268 16.2927 22.9268 16.2439 22.9756 16.2439C23.2683 15.9512 23.6585 15.8049 24 15.8049C24.3902 15.8049 24.7317 15.9512 25.0244 16.2439C25.0244 16.2439 25.0244 16.2927 25.0732 16.2927L36.6829 27.9024C37.2195 28.4878 37.2195 29.4146 36.6829 29.9512Z" fill="#7BC6B9"/>
</svg>
