<?xml version="1.0" encoding="UTF-8"?>
<svg width="51px" height="45px" viewBox="0 0 51 45" version="1.1" xmlns="http://www.w3.org/2000/svg" xmlns:xlink="http://www.w3.org/1999/xlink">
    <!-- Generator: Sketch 51.2 (57519) - http://www.bohemiancoding.com/sketch -->
    <title>boxes</title>
    <desc>Created with Sketch.</desc>
    <defs></defs>
    <g id="Page-1" stroke="none" stroke-width="1" fill="none" fill-rule="evenodd">
        <g id="page" transform="translate(-1128.000000, -97.000000)" fill="#FFFFFF" fill-rule="nonzero">
            <g id="boxes" transform="translate(1128.000000, 97.000000)">
                <path d="M27.5878187,35.9107924 C27.2674035,35.0210379 26.4225731,34.4233817 25.485883,34.4233817 C25.2250175,34.4233817 24.967731,34.4693862 24.7209825,34.5599888 C23.5620994,34.9862835 22.9625263,36.2857589 23.3841462,37.4567634 C23.7046608,38.3464174 24.5494912,38.9440737 25.4861813,38.9440737 C25.7470468,38.9440737 26.0043333,38.8980692 26.2509825,38.8074665 C27.4099649,38.3812723 28.0096374,37.0817969 27.5878187,35.9107924 Z M25.7410819,37.3916741 C25.6584678,37.4221094 25.5726725,37.4374777 25.4862807,37.4374777 C25.1739181,37.4374777 24.8922749,37.238192 24.7854035,36.9414732 C24.6448304,36.5511384 24.8447544,36.1179129 25.2309825,35.9758817 C25.3135965,35.9454464 25.3993918,35.9300781 25.4857836,35.9300781 C25.7980468,35.9300781 26.0796901,36.1293638 26.1865614,36.426183 C26.3272339,36.8164174 26.1274094,37.2495424 25.7410819,37.3916741 Z" id="Shape"></path>
                <path d="M50.8556491,30.9639174 L49.8354503,28.1323326 C49.7656608,27.9385714 49.6252865,27.7916183 49.4544912,27.709654 C49.453,27.7089509 49.4515088,27.7080469 49.4500175,27.7073437 C49.438883,27.7020201 49.4272515,27.6979018 49.4158187,27.6931808 C49.4050819,27.6887612 49.3945439,27.6837388 49.3836082,27.6798214 C49.3810234,27.678817 49.3782398,27.6782143 49.3755556,27.6774107 C49.2201696,27.6236719 49.0462924,27.6207589 48.8799708,27.6820312 L46.4418129,28.5779129 L41.2552222,14.1791183 C41.2551228,14.1787165 41.2548246,14.1784152 41.2547251,14.1781138 L39.2153216,8.51614955 C39.1079532,8.21983259 38.8266082,8.02084821 38.5144444,8.02084821 C38.4279532,8.02084821 38.341462,8.03591518 38.2599415,8.06604911 C37.8732164,8.20767857 37.6733918,8.64160714 37.8135673,9.03133929 L39.5991637,13.9865625 L30.0239883,17.5076116 C30.0238889,17.5076116 30.0236901,17.5076116 30.0234912,17.5077121 C30.023193,17.5078125 30.0229942,17.5080134 30.0226959,17.5080134 L24.1852339,19.6545536 L20.2746374,8.80081473 L25.4131111,6.91141741 L26.5182105,9.97844866 C26.6245848,10.2747656 26.9059298,10.4747545 27.2180936,10.4747545 C27.3055789,10.4747545 27.391076,10.4596875 27.4735906,10.4284487 L31.2105088,9.05434152 C31.3974094,8.98603795 31.5465322,8.84742187 31.6310351,8.66561384 C31.6934678,8.53041295 31.713848,8.38305804 31.6930702,8.2391183 C31.6929708,8.23831473 31.6929708,8.23751116 31.6928713,8.23680804 C31.6899883,8.21722098 31.6858129,8.19753348 31.6813392,8.17814732 C31.6800468,8.17262277 31.6793509,8.16739955 31.6780585,8.161875 C31.6719942,8.13746652 31.6646374,8.11325893 31.6559883,8.08915179 L30.5512865,5.02202009 L35.6886667,3.13292411 L36.7935673,6.19965402 C36.9009357,6.49597098 37.1822807,6.69585937 37.4944444,6.69585937 C37.5809357,6.69585937 37.6674269,6.68079241 37.7499415,6.64965402 C38.1356725,6.50802455 38.3354971,6.075 38.1953216,5.68436384 L36.8353216,1.90868304 C36.7413743,1.6494308 36.5143099,1.46470982 36.2497661,1.42252232 C36.2119883,1.41649554 36.1734152,1.4133817 36.1344444,1.4133817 C36.0479532,1.4133817 35.961462,1.42844866 35.8799415,1.45858259 L29.3439883,3.86236607 C29.3428947,3.86276786 29.3417018,3.8628683 29.3406082,3.86327009 C29.3386199,3.86397321 29.3368304,3.86497768 29.3348421,3.8656808 L25.6102515,5.2355692 C25.6080643,5.23637277 25.6058772,5.23657366 25.6036901,5.23737723 C25.6000117,5.23878348 25.5965322,5.24059152 25.5928538,5.24199777 L19.0643567,7.64296875 C18.8774561,7.71127232 18.7283333,7.84988839 18.6438304,8.03169643 C18.5593275,8.21450893 18.5503801,8.4193192 18.6189766,8.60825893 L23.0387778,20.8782924 L27.289076,32.6779353 C26.7502456,32.511596 26.1844737,32.4181808 25.6050819,32.4068304 L14.8375205,2.51578125 C14.1344561,0.564207589 11.9910643,-0.445580357 10.0593275,0.264575893 C10.0590292,0.264676339 10.058731,0.264877232 10.0584327,0.264977679 L0.492403509,3.75087054 C0.492304094,3.75097098 0.492105263,3.75097098 0.491906433,3.75107143 C0.491409357,3.75127232 0.490912281,3.75137277 0.490315789,3.75157366 C0.473116959,3.75790179 0.456812865,3.76543527 0.440409357,3.7728683 C0.434146199,3.7756808 0.427584795,3.77799107 0.421421053,3.78100446 C0.405315789,3.78873884 0.390005848,3.79777902 0.374695906,3.8066183 C0.368432749,3.81023437 0.36177193,3.81334821 0.355608187,3.81726562 C0.340894737,3.8263058 0.327175439,3.83635045 0.31325731,3.84629464 C0.307093567,3.85071429 0.300532164,3.85473214 0.294567251,3.85925223 C0.281643275,3.86919643 0.269614035,3.8799442 0.257385965,3.89069196 C0.251222222,3.89621652 0.244561404,3.90113839 0.238596491,3.90676339 C0.227064327,3.91741071 0.216526316,3.92916295 0.205789474,3.94051339 C0.199923977,3.94684152 0.193660819,3.95256696 0.187994152,3.95899554 C0.177853801,3.97054687 0.168608187,3.98290179 0.159163743,3.9950558 C0.153795322,4.00188616 0.147929825,4.00851562 0.142859649,4.01564732 C0.134309942,4.0275 0.126754386,4.03995536 0.118900585,4.05231027 C0.113830409,4.06034598 0.108263158,4.06797991 0.103491228,4.07611607 C0.0963333333,4.08837054 0.0901695906,4.10122768 0.0837076023,4.11388393 C0.0792339181,4.12262277 0.0742631579,4.13116071 0.0700877193,4.14010045 C0.0643216374,4.1525558 0.0596491228,4.16541295 0.0544795322,4.17816964 C0.0506023392,4.18791295 0.0462280702,4.19715402 0.0428479532,4.20699777 C0.0384736842,4.21945312 0.0350935673,4.23231027 0.0314152047,4.24496652 C0.0283333333,4.25541295 0.024754386,4.26575893 0.0220701754,4.27640625 C0.0189883041,4.28886161 0.0169005848,4.30171875 0.0144152047,4.314375 C0.0122280702,4.32542411 0.00954385965,4.33647321 0.00785380117,4.34762277 C0.00586549708,4.36047991 0.00516959064,4.37353795 0.00387719298,4.38649554 C0.00278362573,4.39774554 0.00109356725,4.40899554 0.000497076023,4.42034598 C-0.000198830409,4.43360491 0.000298245614,4.44686384 0.000298245614,4.46012277 C0.000298245614,4.47147321 -0.000298245614,4.48282366 0.000198830409,4.49417411 C0.000795321637,4.50763393 0.00268421053,4.5211942 0.00397660819,4.53465402 C0.00507017544,4.54580357 0.00566666667,4.55705357 0.00725730994,4.56830357 C0.00924561404,4.58166295 0.0124269006,4.59502232 0.0151111111,4.6083817 C0.0173976608,4.61973214 0.0190877193,4.63118304 0.021871345,4.64253348 C0.0251520468,4.65589286 0.0298245614,4.66905134 0.0339005848,4.68231027 C0.0372807018,4.69325893 0.0399649123,4.70440848 0.0438421053,4.71535714 C0.0439415205,4.71555804 0.0440409357,4.71585937 0.0441403509,4.71606027 C0.0442397661,4.7165625 0.0443391813,4.71696429 0.0445380117,4.71746652 L1.06463743,7.54905134 C1.0722924,7.57034598 1.08283041,7.58973214 1.09207602,7.60992187 C1.09933333,7.62559152 1.10519883,7.64226562 1.11345029,7.65723214 C1.12508187,7.67842634 1.13909942,7.69731027 1.15252047,7.71709821 C1.16097076,7.72945312 1.16812865,7.74301339 1.17727485,7.75476562 C1.1932807,7.77555804 1.2115731,7.79404018 1.22946784,7.81272321 C1.23781871,7.82146205 1.24517544,7.83140625 1.25392398,7.8397433 C1.27410526,7.85892857 1.29627485,7.87560268 1.31824561,7.89227679 C1.32619883,7.89840402 1.33335673,7.90553571 1.34150877,7.91116071 C1.36526901,7.92773437 1.3907193,7.94169643 1.41616959,7.9552567 C1.42372515,7.95927455 1.43068421,7.96449777 1.43833918,7.96831473 C1.46438596,7.98117187 1.49172515,7.99111607 1.51906433,8.00075893 C1.52701754,8.00357143 1.53447368,8.00758929 1.54252632,8.01020089 C1.5705614,8.01914062 1.59939181,8.02486607 1.62842105,8.03049107 C1.63637427,8.03199777 1.64412865,8.03481027 1.65218129,8.03601562 C1.68936257,8.04194196 1.72723977,8.04485491 1.7654152,8.04485491 C1.78649123,8.04485491 1.80766667,8.04385045 1.82894152,8.04214286 C1.83331579,8.04174107 1.83759064,8.04083705 1.84196491,8.04043527 C1.8588655,8.03862723 1.87566667,8.03671875 1.89256725,8.0338058 C1.90032164,8.03239955 1.90807602,8.03029018 1.91583041,8.02868304 C1.92925146,8.02587054 1.94267251,8.02325893 1.95599415,8.01964286 C1.97021053,8.01592634 1.98422807,8.01100446 1.99834503,8.00628348 C2.00500585,8.00417411 2.01166667,8.00236607 2.01822807,7.99995536 L2.01902339,7.99965402 C2.01942105,7.99955357 2.01981871,7.99935268 2.02021637,7.99925223 C2.02051462,7.99915179 2.02081287,7.99895089 2.02111111,7.99885045 L10.887655,4.76768973 L21.4021053,33.9547098 C19.526538,35.6122768 18.7454327,38.3267411 19.6476257,40.830971 C20.5379883,43.3024554 22.8844854,44.9631362 25.4866784,44.9631362 C26.2106199,44.9631362 26.9254152,44.8352679 27.6112807,44.5830469 C29.170807,44.0094978 30.415883,42.856875 31.1173567,41.3371205 C31.4901637,40.5292299 31.6837251,39.669308 31.6998304,38.8040625 L50.4098713,31.9296094 C50.4098713,31.9296094 50.4099708,31.9296094 50.4100702,31.9295089 L50.4101696,31.9295089 C50.4151404,31.9277009 50.4197135,31.9252902 50.4245848,31.9233817 C50.4435731,31.9159487 50.4623626,31.9084152 50.4803567,31.8995759 C50.4880117,31.8958594 50.4950702,31.8913393 50.5026257,31.8873214 C50.5173392,31.8795871 50.5320526,31.8720536 50.5460702,31.8634152 C50.5540234,31.8583929 50.5613801,31.852567 50.5691345,31.8474442 C50.5818596,31.8388058 50.594883,31.8304687 50.6070117,31.8212277 C50.6108889,31.8182143 50.614269,31.8147991 50.6180468,31.8117857 C50.6333567,31.7994308 50.6485673,31.7870759 50.6627836,31.7737165 C50.6651696,31.7711049 50.6673567,31.7685937 50.6697427,31.7662835 C50.6847544,31.7516183 50.6994678,31.7368527 50.7132865,31.721183 C50.7160702,31.7180692 50.7183567,31.7145536 50.7211404,31.7113393 C50.7340643,31.6960714 50.7466901,31.6806027 50.7583216,31.6644308 C50.759614,31.6627232 50.7606082,31.6608147 50.7618012,31.6590067 C50.7744269,31.6410268 50.7865556,31.6227455 50.7975906,31.6037612 C50.7995789,31.600346 50.8011696,31.5966295 50.8031579,31.5931138 C50.813,31.5756362 50.8224444,31.558058 50.8308947,31.5398772 C50.8341754,31.5327455 50.8367602,31.5252121 50.8397427,31.5179799 C50.8461053,31.5031138 50.8525673,31.4882478 50.8580351,31.4729799 C50.8617135,31.462433 50.8643977,31.4515848 50.8675789,31.4409375 C50.8713567,31.4285826 50.8756316,31.4163281 50.8787135,31.4037723 C50.8832865,31.3851897 50.8866667,31.3663058 50.889848,31.3474219 C50.8906433,31.3423996 50.8920351,31.3375781 50.892731,31.3326562 C50.9105263,31.2125223 50.8996901,31.0861607 50.8556491,30.9639174 Z M29.1502281,5.53731027 L29.999731,7.89679687 L27.664269,8.75561384 L26.814269,6.39622768 L29.1502281,5.53731027 Z M33.5702281,17.8072433 L34.4203275,20.166529 L32.0841696,21.0255469 L31.2343684,18.6661607 L33.5702281,17.8072433 Z M24.6956316,21.0704464 L29.8333099,19.1813504 L30.9384094,22.2483817 C31.0447836,22.5446987 31.3261287,22.7444866 31.6392865,22.7444866 C31.7257778,22.7444866 31.8112749,22.7285156 31.8937895,22.6982812 L35.6307076,21.3241741 C36.0174327,21.1825446 36.2172573,20.7496205 36.0760877,20.3588839 L34.9710877,17.2920536 L40.1095614,15.4025558 L45.0410526,29.0920982 L30.1646608,34.5580915 C29.8853041,34.2357589 29.5756257,33.943058 29.2396023,33.6856138 L24.6956316,21.0704464 Z M12.0349064,3.54626116 C12.0305322,3.53420759 12.0250643,3.52285714 12.020193,3.51100446 C12.0153216,3.49945312 12.0109474,3.4875 12.0055789,3.47614955 C12.0007076,3.46580357 11.9949415,3.45636161 11.9896725,3.44641741 C11.9831111,3.4340625 11.976848,3.42140625 11.9696901,3.40955357 C11.9647193,3.40141741 11.9590526,3.39398437 11.9537836,3.38604911 C11.9453333,3.37319196 11.9371813,3.36013393 11.9279357,3.34797991 C11.9231637,3.34155134 11.9176959,3.33582589 11.9127251,3.32949777 C11.902386,3.31654018 11.8921462,3.30358259 11.8809123,3.29142857 C11.8764386,3.2865067 11.8713684,3.28208705 11.8666959,3.27726562 C11.8543684,3.26460937 11.8421404,3.25195312 11.8290175,3.24020089 C11.8252398,3.23688616 11.8211637,3.23397321 11.817386,3.23075893 C11.8028713,3.21820312 11.7881579,3.20584821 11.7727485,3.19459821 C11.7705614,3.19299107 11.7681754,3.19178571 11.7659883,3.19007812 C11.7486901,3.17762277 11.7309942,3.16577009 11.7127018,3.15482143 C11.7113099,3.15401786 11.7098187,3.15331473 11.7084269,3.15261161 C11.6066257,3.09284598 11.4913041,3.05758929 11.3720058,3.05126116 C11.3709123,3.05126116 11.3699181,3.05136161 11.3688246,3.05126116 C11.3457602,3.05015625 11.3225965,3.0500558 11.2992339,3.05116071 C11.2949591,3.05136161 11.2906842,3.05216518 11.2864094,3.05246652 C11.2663275,3.05377232 11.2462456,3.05537946 11.2261637,3.05839286 C11.2165205,3.05989955 11.2069766,3.06231027 11.1973333,3.06421875 C11.1826199,3.0669308 11.167807,3.06944196 11.1530936,3.07315848 C11.1363918,3.07737723 11.1197895,3.08310268 11.1031871,3.08842634 C11.0958304,3.09083705 11.0883743,3.09264509 11.0810175,3.0952567 L11.0800234,3.09565848 C11.0797251,3.09575893 11.0793275,3.09585937 11.0789298,3.09595982 C11.0786316,3.09606027 11.0783333,3.09626116 11.0780351,3.09636161 L2.21149123,6.32752232 L1.70139181,4.91162946 L10.5668421,1.68087054 C10.5670409,1.68077009 10.5671404,1.68066964 10.5673392,1.68066964 C10.5678363,1.68046875 10.5683333,1.6803683 10.5689298,1.68016741 C11.7281111,1.25397321 13.0140468,1.85986607 13.4358655,3.03097098 L24.0766725,32.5699554 C23.8350936,32.6270089 23.596,32.6978237 23.3604854,32.7845089 C23.1231813,32.8717969 22.8955205,32.97375 22.675614,33.08625 L12.0349064,3.54626116 Z M29.7656082,40.7000893 C29.2325439,41.8551228 28.2863099,42.7312165 27.1010819,43.1670536 C26.579152,43.3590067 26.035848,43.4563393 25.4864795,43.4563393 C23.5088129,43.4563393 21.7254035,42.1941295 21.0487836,40.3154799 C20.1582222,37.8434933 21.4242749,35.1002009 23.8709825,34.2003013 C24.3929123,34.0083482 24.936117,33.9110156 25.4855848,33.9110156 C27.463152,33.9110156 29.2466608,35.1732254 29.9232807,37.0519754 C30.3547427,38.2494978 30.2987719,39.5451562 29.7656082,40.7000893 Z M31.5365906,37.2606027 C31.479924,37.0171205 31.4105322,36.7754464 31.324538,36.5367857 C31.2386433,36.2982254 31.138731,36.0673996 31.0267895,35.8446094 L48.6890936,29.3551674 L49.199193,30.7710603 L31.5365906,37.2606027 Z" id="Shape"></path>
            </g>
        </g>
    </g>
</svg>