<?xml version="1.0" encoding="UTF-8"?>
<svg width="18px" height="15px" viewBox="0 0 18 15" version="1.1" xmlns="http://www.w3.org/2000/svg" xmlns:xlink="http://www.w3.org/1999/xlink">
    <!-- Generator: Sketch 50.2 (55047) - http://www.bohemiancoding.com/sketch -->
    <title>Combined Shape</title>
    <desc>Created with Sketch.</desc>
    <defs></defs>
    <g id="Page-1" stroke="none" stroke-width="1" fill="none" fill-rule="evenodd">
        <g id="POP-DESKTOP-POP-FILTERS-Expanded" transform="translate(-1366.000000, -490.000000)" fill="#F7F7F7">
            <g id="Group-8" transform="translate(1339.000000, 474.000000)">
                <g id="Group-6" transform="translate(12.000000, 0.000000)">
                    <path d="M26.5714286,19.3333333 L26.5714286,18.4991305 C26.5714286,18.0393734 26.9518841,17.6666667 27.4285714,17.6666667 C27.9019584,17.6666667 28.2857143,18.0409419 28.2857143,18.4991305 L28.2857143,19.3333333 L29.1428571,19.3333333 C29.5051056,19.3333333 29.8282436,19.5547354 29.950072,19.8864069 L31.2774047,23.5 L32.144083,23.5 C32.6167929,23.5 33,23.8737751 33,24.3357744 L33,28.4975589 C33,28.9591444 32.615717,29.3333333 32.1439319,29.3333333 L31.1393951,29.3333333 C30.7863925,30.304327 29.8339019,31 28.7142857,31 C27.5946696,31 26.642179,30.304327 26.2891763,29.3333333 L21.7108237,29.3333333 C21.357821,30.304327 20.4053304,31 19.2857143,31 C18.1660981,31 17.2136075,30.304327 16.8606049,29.3333333 L15.8560681,29.3333333 C15.3832747,29.3333333 15,28.9628076 15,28.4992736 L15,16.8340597 C15,16.3734213 15.3864117,16 15.8575132,16 L23.9996296,16 C24.4732211,16 24.8571999,16.3719262 24.8572704,16.8312872 L24.8576544,19.3333333 L26.5714286,19.3333333 Z M24.8579102,21 L24.8582938,23.5 L29.4572245,23.5 L28.5392369,21 L24.8579102,21 Z M28.7142857,26 C29.8339019,26 30.7863925,26.695673 31.1393951,27.6666667 L31.2857143,27.6666667 L31.2857143,25.1666667 L23.9988951,25.1666667 C23.5261184,25.1666667 23.1428571,24.7947405 23.1428571,24.3353795 L23.1428571,17.6666667 L16.7142857,17.6666667 L16.7142857,27.6666667 L16.8606049,27.6666667 C17.2136075,26.695673 18.1660981,26 19.2857143,26 C20.4053304,26 21.357821,26.695673 21.7108237,27.6666667 L26.2891763,27.6666667 C26.642179,26.695673 27.5946696,26 28.7142857,26 Z M29.5714286,28.5 C29.5714286,28.0397627 29.1876726,27.6666667 28.7142857,27.6666667 C28.2408988,27.6666667 27.8571429,28.0397627 27.8571429,28.5 C27.8571429,28.9602373 28.2408988,29.3333333 28.7142857,29.3333333 C29.1876726,29.3333333 29.5714286,28.9602373 29.5714286,28.5 Z M20.1428571,28.5 C20.1428571,28.0397627 19.7591012,27.6666667 19.2857143,27.6666667 C18.8123274,27.6666667 18.4285714,28.0397627 18.4285714,28.5 C18.4285714,28.9602373 18.8123274,29.3333333 19.2857143,29.3333333 C19.7591012,29.3333333 20.1428571,28.9602373 20.1428571,28.5 Z" id="Combined-Shape"></path>
                </g>
            </g>
        </g>
    </g>
</svg>