<?xml version="1.0" encoding="UTF-8"?>
<svg width="17px" height="17px" viewBox="0 0 17 17" version="1.1" xmlns="http://www.w3.org/2000/svg" xmlns:xlink="http://www.w3.org/1999/xlink">
    <!-- Generator: sketchtool 52.2 (67145) - http://www.bohemiancoding.com/sketch -->
    <title>AF091039-2E7C-4AAF-A7A1-50CCEAE56134</title>
    <desc>Created with sketchtool.</desc>
    <g id="Page-1" stroke="none" stroke-width="0" fill="none" fill-rule="evenodd">
        <g id="HOMEPAGE---DESKTOP---ACCOUNT" transform="translate(-1399.000000, -20.000000)" fill="#000000" fill-rule="nonzero" stroke="#000000">
            <g id="menu">
                <path d="M1414.29527,22.9922747 C1414.6507,22.6368588 1414.65071,22.0606057 1414.29529,21.7051773 C1413.93987,21.349749 1413.36362,21.3497389 1413.00819,21.7051549 L1407.28092,27.4322248 L1401.55365,21.7051549 C1401.19822,21.3497389 1400.62197,21.349749 1400.26656,21.7051773 C1399.91114,22.0606057 1399.91115,22.6368588 1400.26658,22.9922747 L1405.9938,28.7192997 L1400.26658,34.4463248 C1399.91115,34.8017407 1399.91114,35.3779938 1400.26656,35.7334222 C1400.62197,36.0888505 1401.19822,36.0888606 1401.55365,35.7334446 L1407.28092,30.0063747 L1413.00819,35.7334446 C1413.36362,36.0888606 1413.93987,36.0888505 1414.29529,35.7334222 C1414.65071,35.3779938 1414.6507,34.8017407 1414.29527,34.4463248 L1408.56804,28.7192997 L1414.29527,22.9922747 Z" id="Combined-Shape"></path>
            </g>
        </g>
    </g>
</svg>