<?xml version="1.0" encoding="UTF-8"?>
<svg width="90px" height="31px" viewBox="0 0 90 31" version="1.1" xmlns="http://www.w3.org/2000/svg" xmlns:xlink="http://www.w3.org/1999/xlink">
    <!-- Generator: sketchtool 51.2 (57519) - http://www.bohemiancoding.com/sketch -->
    <title>828BA81B-C44E-4090-A633-6B76E7D61882</title>
    <desc>Created with sketchtool.</desc>
    <defs>
        <polygon id="path-1" points="0.0185248714 0.0276483303 0.0185248714 18.2264054 20.221658 18.2264054 20.221658 0.0276483303"></polygon>
    </defs>
    <g id="Page-1" stroke="none" stroke-width="1" fill="none" fill-rule="evenodd">
        <g id="CATCH-DESKTOP-Anmeldung" transform="translate(-739.000000, -770.000000)">
            <g id="Group-11-Copy" transform="translate(534.000000, 760.000000)">
                <g id="Group-4" transform="translate(46.000000, 10.000000)">
                    <g id="Group-2" transform="translate(159.000000, 0.000000)">
                        <g id="Group-3" transform="translate(0.000000, 6.702703)">
                            <mask id="mask-2" fill="white">
                                <use xlink:href="#path-1"></use>
                            </mask>
                            <g id="Clip-2"></g>
                            <path d="M4.20298456,7.49783784 C4.20298456,7.49783784 4.48919383,2.59124324 10.2396226,2.58975676 C15.9690566,2.58827027 15.9690566,7.49783784 15.9690566,7.49783784 L4.20298456,7.49783784 Z M10.3381132,0.0276486486 C0.340857633,0.0258648649 -0.0475471698,7.51983784 0.00339622642,9.46505405 C0.00339622642,9.46505405 -0.486277873,18.2264054 10.0935849,18.2264054 C19.1843568,18.2264054 19.6320412,12.7290811 19.6320412,12.7290811 L15.449434,12.7371081 C15.449434,12.7371081 14.6349571,15.7656757 10.1108748,15.6845135 C4.29468268,15.5804595 4.06898799,10.1547838 4.06898799,10.1547838 L20.1816123,10.1547838 C20.1816123,10.1547838 21.4042539,0.0297297297 10.3381132,0.0276486486 Z" id="Fill-1" fill="#FFFFFF" mask="url(#mask-2)"></path>
                        </g>
                        <path d="M30.9411287,22.5064856 C24.4957838,22.5835616 24.6004842,15.9917727 24.6004842,15.9917727 C24.6004842,15.9917727 24.3656919,9.64674632 30.9307841,9.48363203 C37.4952493,9.32051775 37.2817733,16.1271037 37.2817733,16.1271037 C37.2817733,16.1271037 37.3864737,22.4291109 30.9411287,22.5064856 Z M31.8784169,6.84781268 C26.7747419,6.82062696 24.5791679,9.72800472 24.5791679,9.72800472 L24.5791679,0 L20.487388,0 L20.5566658,20.559869 C20.5566658,20.559869 20.5322148,22.9546018 20.3773585,24.5373482 L24.3512721,24.5373482 L24.5218021,22.2277574 C24.5218021,22.2277574 26.3756891,25.1351351 31.7925249,25.1351351 C37.2103012,25.1351351 41.4876579,21.9559002 41.6017626,16.0592888 C41.7155537,10.1629762 36.9827188,6.87469965 31.8784169,6.84781268 Z" id="Fill-4" fill="#FFFFFF"></path>
                        <path d="M49.4162867,22.6400808 C49.4162867,22.6400808 45.2818465,22.6448768 45.0394436,19.51184 C44.7809225,16.1680756 51.4000721,16.3692111 51.4000721,16.3692111 L56.0762055,16.3647147 C56.0762055,16.3647147 56.8334382,22.7324052 49.4162867,22.6400808 Z M60.1967398,20.4626621 C60.2068531,17.7942452 60.2893397,15.4114946 60.1967398,13.7307696 C60.088338,11.7820639 60.2830189,7.07861184 51.4000721,6.73119606 C51.4000721,6.73119606 42.8837322,5.99499836 41.9994512,12.0068799 L46.3551196,12.0068799 C46.3551196,12.0068799 46.6932828,9.2524334 51.1127914,9.33186841 C55.2952697,9.40680711 56.057243,11.3525153 56.0357523,13.7451578 C56.0357523,13.7451578 52.4509064,13.75475 51.2546935,13.7604453 C49.0986661,13.770637 41.5538343,13.9972516 40.8496963,18.3559857 C40.0118733,23.5387456 44.8890084,25.1556228 48.7048798,25.1349397 C52.5210673,25.1145564 54.6982694,24.0309429 56.315448,22.0882322 L56.4883221,24.5009584 L60.2830189,24.480575 C60.2830189,24.480575 60.1850464,23.1313788 60.1967398,20.4626621 Z" id="Fill-5" fill="#FFFFFF"></path>
                        <polyline id="Fill-6" fill="#FFFFFF" points="58.5849057 7.54054054 63.3288297 7.54054054 70.2675588 20.7001873 77.2206985 7.54054054 81.509434 7.54054054 68.9565027 31 64.3695295 31 68.0022669 24.4811161 58.5849057 7.54054054"></polyline>
                        <g id="Group" transform="translate(82.358491, 7.540541)" fill="#FFFFFF">
                            <path d="M0.517025205,1.94183211 L0.517025205,0.917831353 L0,0.917831353 L0,0.534616346 L0.517025205,0.534616346 L0.517025205,0 L1.45156878,0 L1.45156878,0.534616346 L2.54716981,0.534616346 L2.54716981,0.917831353 L1.45156878,0.917831353 L1.45156878,1.87209954 C1.45156878,2.04548863 1.63622064,2.11584942 1.95218049,2.11584942 C2.16042675,2.11584942 2.34815614,2.09323345 2.532808,2.04925796 L2.532808,2.41362632 C2.30096733,2.47644846 2.0465581,2.51351351 1.69059035,2.51351351 C1.00122341,2.51351351 0.517025205,2.36965083 0.517025205,1.94183211" id="Fill-7"></path>
                            <path d="M2.54716981,0.0516693164 L3.3147754,0.0516693164 L3.3147754,0.424483307 C3.53048016,0.20508744 3.82286121,0 4.33684519,0 C4.81712531,0 5.16006216,0.173290938 5.33700747,0.434022258 C5.60411062,0.173290938 5.96052903,0 6.46777224,0 C7.19577578,0 7.64150943,0.340222576 7.64150943,0.941971383 L7.64150943,2.51351351 L6.87390384,2.51351351 L6.87390384,1.11446741 C6.87390384,0.722575517 6.62618042,0.512718601 6.1956135,0.512718601 C5.77515775,0.512718601 5.47772112,0.728139905 5.47772112,1.12400636 L5.47772112,2.51351351 L4.71011553,2.51351351 L4.71011553,1.11049285 C4.71011553,0.728139905 4.45649392,0.512718601 4.03266779,0.512718601 C3.60799905,0.512718601 3.3147754,0.746422893 3.3147754,1.12400636 L3.3147754,2.51351351 L2.54716981,2.51351351 L2.54716981,0.0516693164" id="Fill-8"></path>
                        </g>
                    </g>
                </g>
            </g>
        </g>
    </g>
</svg>