<svg width="27" height="23" viewBox="0 0 27 23" fill="none" xmlns="http://www.w3.org/2000/svg">
<path d="M13.1748 18.3783C13.2707 18.46 13.3896 18.5006 13.5079 18.5006C13.6268 18.5006 13.7456 18.46 13.8415 18.3783C16.0478 16.5002 17.6097 15.5047 17.5393 13.7738C17.4883 12.5128 16.4732 11.5004 15.2688 11.5004C15.2576 11.5004 15.2469 11.5004 15.2357 11.5009C14.3986 11.5134 13.8502 11.9578 13.5079 12.4101C13.1656 11.9578 12.6173 11.5129 11.7807 11.5009C11.7694 11.5009 11.7587 11.5004 11.7475 11.5004C10.5431 11.5004 9.5275 12.5134 9.47649 13.7738C9.4061 15.5152 10.9966 16.5242 13.1748 18.3783ZM10.4942 13.8139C10.5232 13.098 11.0956 12.5008 11.749 12.5008C11.7547 12.5008 11.7598 12.5008 11.7654 12.5008C12.6774 12.5144 13.0034 13.585 13.0187 13.6356C13.0804 13.851 13.2804 14.0003 13.5089 14.0003C13.738 14.0003 13.9384 13.8505 13.9997 13.6335C14.0027 13.622 14.3256 12.5144 15.252 12.5003C15.2576 12.5003 15.2627 12.5003 15.2683 12.5003C15.9212 12.5003 16.4936 13.0975 16.5227 13.8134C16.5681 14.9351 15.3678 15.7813 13.5089 17.3408C11.6485 15.7808 10.4488 14.9346 10.4942 13.8139Z" fill="white"/>
<path d="M26.4394 14.2107C23.7318 10.4599 18.5373 6.00012 13.4999 6.00012C8.46409 6.00012 3.23034 10.5125 0.560408 14.2107C0.43543 14.384 0.43543 14.616 0.560408 14.7893C3.30532 18.5918 8.53449 22.9999 13.4999 22.9999C18.5873 22.9999 23.8052 18.438 26.4394 14.7893C26.5644 14.616 26.5644 14.384 26.4394 14.2107ZM13.4999 22C8.97675 22 4.36789 18.0372 1.61073 14.4998C4.36789 10.9618 8.97573 6.99958 13.4999 6.99958C18.0231 6.99958 22.6325 10.9628 25.3891 14.4998C22.6314 18.0377 18.0241 22 13.4999 22Z" fill="white"/>
<path d="M13.5001 6.50024C13.7811 6.50024 14.0091 6.2763 14.0091 6.00026V0.49998C14.0091 0.223939 13.7811 0 13.5001 0C13.219 0 12.991 0.223939 12.991 0.49998V6.00026C12.991 6.2763 13.219 6.50024 13.5001 6.50024Z" fill="white"/>
<path d="M21.7816 9.81416L25.8181 5.84988C26.017 5.655 26.017 5.33838 25.8181 5.143C25.6191 4.94761 25.2973 4.94761 25.0983 5.143L21.0618 9.10727C20.8634 9.30265 20.8634 9.61877 21.0618 9.81416C21.2607 10.0095 21.5826 10.0095 21.7816 9.81416Z" fill="white"/>
<path d="M8.85611 7.22086C8.99588 7.45031 9.29481 7.5485 9.5366 7.42576C9.79931 7.292 9.8896 6.97087 9.74014 6.72488L6.86821 2.00663C6.72894 1.77819 6.43206 1.6815 6.19078 1.80273C5.92654 1.936 5.83523 2.25813 5.9852 2.50461L8.85611 7.22086Z" fill="white"/>
<path d="M5.08693 9.7168C5.28587 9.91218 5.60826 9.91218 5.8072 9.7168C6.00564 9.52191 6.00564 9.20529 5.8072 9.00991L1.837 5.11077C1.63806 4.91539 1.31566 4.91539 1.11672 5.11077C0.918287 5.30565 0.918287 5.62227 1.11672 5.81766L5.08693 9.7168Z" fill="white"/>
<path d="M13.5087 8.46106C10.1063 8.46106 7.33789 11.1799 7.33789 14.5214C7.33789 17.863 10.1063 20.5818 13.5087 20.5818C16.9112 20.5818 19.6795 17.863 19.6795 14.5214C19.6795 11.1799 16.9112 8.46106 13.5087 8.46106ZM13.5087 9.51312C14.9967 9.51312 16.3378 10.1424 17.2708 11.1443C18.0911 12.0321 18.591 13.2099 18.591 14.5004C18.591 17.2573 16.3072 19.5002 13.5 19.5002C10.6949 19.5002 8.4127 17.2608 8.40913 14.5069C8.41729 11.752 10.7016 9.51312 13.5087 9.51312Z" fill="white"/>
<path d="M18.2431 7.22122C18.1033 7.45067 17.8044 7.54886 17.5626 7.42612C17.2999 7.29236 17.2096 6.97123 17.3591 6.72525L20.231 2.007C20.3702 1.77855 20.6671 1.68186 20.9084 1.8031C21.1727 1.93636 21.264 2.25849 21.114 2.50498L18.2431 7.22122Z" fill="white"/>
</svg>
