<?xml version="1.0" encoding="UTF-8"?>
<svg width="19px" height="17px" viewBox="0 0 19 17" version="1.1" xmlns="http://www.w3.org/2000/svg" xmlns:xlink="http://www.w3.org/1999/xlink">
    <!-- Generator: Sketch 50.2 (55047) - http://www.bohemiancoding.com/sketch -->
    <title>Filter 1</title>
    <desc>Created with Sketch.</desc>
    <defs></defs>
    <g id="Page-1" stroke="none" stroke-width="1" fill="none" fill-rule="evenodd" opacity="1">
        <g id="Main-page-expand-Copy" transform="translate(-1220.000000, -27.000000)" fill="#000000">
            <g id="Group-5" transform="translate(1219.000000, 23.000000)">
                <g id="Filter-1" transform="translate(0.000000, 2.000000)">
                    <path d="M9.28256895,10.7862951 C9.4716884,10.9368542 9.625,11.2534049 9.625,11.4968836 L9.625,16.5237975 L11.375,15.576618 L11.375,11.4920837 C11.375,11.2528465 11.5264051,10.9383718 11.7174304,10.7862951 L15.3743434,7.875 L5.62564949,7.875 L9.28256895,10.7862951 Z M17.4999895,6.125 L17.5,4.37317398 L3.50001117,4.375 L3.50002487,6.12500001 L17.4999895,6.125 Z M13.125,15.7523794 C13.125,16.2343144 12.7805328,16.8110643 12.3559824,17.0403856 L9.41469985,18.6291222 C8.56434711,19.088441 7.875,18.6811748 7.875,17.7125026 L7.875,11.9 L2.43659782,7.54927826 C2.05740032,7.24592025 1.75,6.60539672 1.75,6.12126804 L1.75,4.37317398 C1.75,3.40768415 2.53593583,2.625 3.50001117,2.625 L17.4999888,2.625 C18.4664933,2.625 19.25,3.41097805 19.25,4.37317398 L19.25,6.12126804 C19.25,6.6065783 18.9437134,7.24502925 18.5634022,7.54927826 L13.125,11.9 L13.125,15.7523794 Z" id="Combined-Shape"></path>
                </g>
            </g>
        </g>
    </g>
</svg>
