<?xml version="1.0" encoding="UTF-8"?>
<svg width="22px" height="20px" viewBox="0 0 22 20" version="1.1" xmlns="http://www.w3.org/2000/svg" xmlns:xlink="http://www.w3.org/1999/xlink">
    <!-- Generator: Sketch 50.2 (55047) - http://www.bohemiancoding.com/sketch -->
    <title>Settings 2</title>
    <desc>Created with Sketch.</desc>
    <defs></defs>
    <g id="Page-1" stroke="none" stroke-width="1" fill="none" fill-rule="evenodd">
        <g id="Fast-shipping-(1)" transform="translate(-1411.000000, -489.000000)" fill="#FFFFFF">
            <g id="Group-5" transform="translate(1402.000000, 454.000000)">
                <g id="Settings-2" transform="translate(7.000000, 32.000000)">
                    <path d="M16.25,17.3333333 C16.25,18.7484037 15.3456251,19.952246 14.0833333,20.3984021 L14.0833333,21.6668252 C14.0833333,22.2650461 13.6024798,22.75 13,22.75 C12.4016915,22.75 11.9166667,22.2679749 11.9166667,21.6668252 L11.9166667,20.3984021 C10.6543749,19.952246 9.75,18.7484037 9.75,17.3333333 C9.75,15.9182629 10.6543749,14.7144206 11.9166667,14.2682645 L11.9166667,4.33317478 C11.9166667,3.73495387 12.3975202,3.25 13,3.25 C13.5983085,3.25 14.0833333,3.73202515 14.0833333,4.33317478 L14.0833333,14.2682645 C15.3456251,14.7144206 16.25,15.9182629 16.25,17.3333333 Z M23.8333333,10.8333333 C23.8333333,12.2484037 22.9289584,13.452246 21.6666667,13.8984021 L21.6666667,21.6668252 C21.6666667,22.2650461 21.1858131,22.75 20.5833333,22.75 C19.9850249,22.75 19.5,22.2679749 19.5,21.6668252 L19.5,13.8984021 C18.2377083,13.452246 17.3333333,12.2484037 17.3333333,10.8333333 C17.3333333,9.41826294 18.2377083,8.21442063 19.5,7.76826452 L19.5,4.33317478 C19.5,3.73495387 19.9808536,3.25 20.5833333,3.25 C21.1816418,3.25 21.6666667,3.73202515 21.6666667,4.33317478 L21.6666667,7.76826452 C22.9289584,8.21442063 23.8333333,9.41826294 23.8333333,10.8333333 Z M8.66666667,8.66666667 C8.66666667,10.0817371 7.76229174,11.2855794 6.5,11.7317355 L6.5,21.6668252 C6.5,22.2650461 6.01914644,22.75 5.41666667,22.75 C4.81835819,22.75 4.33333333,22.2679749 4.33333333,21.6668252 L4.33333333,11.7317355 C3.0710416,11.2855794 2.16666667,10.0817371 2.16666667,8.66666667 C2.16666667,7.25159627 3.0710416,6.04775396 4.33333333,5.60159785 L4.33333333,4.33317478 C4.33333333,3.73495387 4.81418689,3.25 5.41666667,3.25 C6.01497515,3.25 6.5,3.73202515 6.5,4.33317478 L6.5,5.60159785 C7.76229174,6.04775396 8.66666667,7.25159627 8.66666667,8.66666667 Z M5.41666667,9.75 C6.01497515,9.75 6.5,9.26497515 6.5,8.66666667 C6.5,8.06835819 6.01497515,7.58333333 5.41666667,7.58333333 C4.81835819,7.58333333 4.33333333,8.06835819 4.33333333,8.66666667 C4.33333333,9.26497515 4.81835819,9.75 5.41666667,9.75 Z M13,18.4166667 C13.5983085,18.4166667 14.0833333,17.9316418 14.0833333,17.3333333 C14.0833333,16.7350249 13.5983085,16.25 13,16.25 C12.4016915,16.25 11.9166667,16.7350249 11.9166667,17.3333333 C11.9166667,17.9316418 12.4016915,18.4166667 13,18.4166667 Z M20.5833333,11.9166667 C21.1816418,11.9166667 21.6666667,11.4316418 21.6666667,10.8333333 C21.6666667,10.2350249 21.1816418,9.75 20.5833333,9.75 C19.9850249,9.75 19.5,10.2350249 19.5,10.8333333 C19.5,11.4316418 19.9850249,11.9166667 20.5833333,11.9166667 Z" id="Combined-Shape"></path>
                </g>
            </g>
        </g>
    </g>
</svg>