<?xml version="1.0" encoding="UTF-8"?>
<svg width="19px" height="19px" viewBox="0 0 19 19" version="1.1" xmlns="http://www.w3.org/2000/svg" xmlns:xlink="http://www.w3.org/1999/xlink">
    <!-- Generator: Sketch 50.2 (55047) - http://www.bohemiancoding.com/sketch -->
    <title>Combined Shape</title>
    <desc>Created with Sketch.</desc>
    <defs></defs>
    <g id="Page-1" stroke="none" stroke-width="1" fill="none" fill-rule="evenodd">
        <g id="POP-DESKTOP-POP-FILTERS-Expanded" transform="translate(-1365.000000, -599.000000)" fill="#FFFFFF">
            <g id="Group-8" transform="translate(1339.000000, 474.000000)">
                <g id="Group-6" transform="translate(12.000000, 0.000000)">
                    <path d="M23.8956839,136.173715 L21.3217007,138.744492 L20.614969,141.754492 C20.4050277,142.64864 19.8197276,142.75644 19.29669,141.996239 C19.29669,141.996239 18.2779832,140.418611 17.4867627,139.628376 C16.8042449,138.946708 15.3485732,138.036831 15.3485732,138.036831 C14.5834477,137.530595 14.6813137,136.904866 15.5610146,136.64107 L18.3717484,135.798214 L20.923893,133.249248 L19.3461043,132.468049 L18.666128,133.147178 C18.3406253,133.472276 17.8148772,133.474269 17.4867627,133.146564 C17.16092,132.821127 17.1617549,132.292655 17.4861471,131.968667 L17.7683156,131.68685 L16.5849741,131.100951 L16.011171,131.674039 C15.6856682,131.999137 15.1599201,132.00113 14.8318057,131.673424 C14.505963,131.347988 14.5067978,130.819516 14.8311901,130.495528 L15.0071855,130.319752 L14.3775896,130.008025 C13.9657294,129.804103 13.8761908,129.359179 14.181444,129.016161 L15.4590767,127.580467 C15.7657338,127.235872 16.3750935,127.047641 16.8232552,127.156518 L25.0283799,129.149873 L27.8116193,126.3701 C28.137449,126.044676 28.7610373,125.687148 29.2072257,125.570812 L31.1833794,125.055566 C32.07291,124.823637 32.5460461,125.33898 32.2404425,126.20581 L31.6296629,127.938259 C31.476059,128.373949 31.0884201,128.989937 30.7615715,129.316378 L28.0171683,132.057364 L30.2067587,140.180622 C30.3260879,140.623326 30.1666829,141.249948 29.8475084,141.583575 L28.3765669,143.12112 C28.0588292,143.453244 27.62805,143.387716 27.4198365,142.985277 L26.9107282,142.00126 L26.6309992,142.280641 C26.3054965,142.605738 25.7797484,142.607732 25.4516339,142.280026 C25.1257912,141.954589 25.1266261,141.426118 25.4510183,141.10213 L26.1067164,140.447248 L25.5037075,139.281739 L25.1560231,139.628991 C24.8305204,139.954088 24.3047722,139.956082 23.9766578,139.628376 C23.6508151,139.302939 23.6516499,138.774467 23.9760422,138.450479 L24.6996957,137.727727 L23.8956839,136.173715 Z M22.1677338,132.006956 L16.3193322,129.122595 L16.5876065,128.814533 L23.6469904,130.529542 L22.1677338,132.006956 Z M25.1341135,134.936828 L28.214051,140.889801 L28.5705891,140.521893 L26.6555673,133.417269 L25.1341135,134.936828 Z M17.8085228,137.714114 C17.8085228,137.714114 18.4321244,138.215537 18.6667437,138.449864 C18.928054,138.710849 19.4603259,139.372107 19.4603259,139.372107 L19.8055658,137.901716 L29.5815906,128.137867 C29.7313745,127.98827 29.9846665,127.586041 30.0556441,127.384716 L30.1787848,127.040019 L29.6287368,127.183434 C29.4701691,127.224777 29.1082089,127.432148 28.9916002,127.548611 L19.2543761,137.273708 L17.8085228,137.714114 Z" id="Combined-Shape"></path>
                </g>
            </g>
        </g>
    </g>
</svg>