<?xml version="1.0" encoding="UTF-8"?>
<svg width="18px" height="18px" viewBox="0 0 18 18" version="1.1" xmlns="http://www.w3.org/2000/svg" xmlns:xlink="http://www.w3.org/1999/xlink">
    <!-- Generator: Sketch 50.2 (55047) - http://www.bohemiancoding.com/sketch -->
    <title>Group 6</title>
    <desc>Created with Sketch.</desc>
    <defs></defs>
    <g id="Page-1" stroke="none" stroke-width="1" fill="none" fill-rule="evenodd">
        <g id="Main-page-expand-Filters-(2)" transform="translate(-179.000000, -314.000000)" fill="#000000">
            <g id="Group-2" transform="translate(0.000000, 58.000000)">
                <g id="Group-36" transform="translate(0.000000, 47.000000)">
                    <g id="Group-16-Copy" transform="translate(164.000000, 196.000000)">
                        <g id="Group-6" transform="translate(14.000000, 12.000000)">
                            <g id="Like">
                                <path d="M12.5220755,16.6667538 C14.3724683,16.6867344 15.2893263,16.3130046 15.756408,15.4166667 L15.4191329,15.4166667 C14.9575336,15.4166667 14.5833333,15.0467793 14.5833333,14.5833333 C14.5833333,14.123096 14.9527312,13.75 15.4191329,13.75 L16.2539178,13.75 C16.3227423,13.4857406 16.3964541,13.2018351 16.4703538,12.9166667 L15.8357996,12.9166667 C15.3742002,12.9166667 15,12.5467793 15,12.0833333 C15,11.623096 15.3693978,11.25 15.8357996,11.25 L16.9009791,11.25 C16.9978859,10.8739327 17.0621085,10.6239683 17.0652809,10.6110682 C17.1442909,10.2452286 16.9435839,9.99974543 16.55191,9.99974545 L13.5444368,9.99954605 C12.2637102,9.99946113 11.3194817,8.85729875 11.5724675,7.59441124 C11.5811066,7.55151412 11.8211804,6.33899214 11.8369693,6.24957808 C12.0092122,5.27415049 12.0900793,4.57723028 12.0834497,4.18059357 L12.083488,4.12268045 C12.087976,3.87388207 11.9366071,3.60869777 11.5381182,3.29816048 C11.4933265,3.26325487 11.20031,3.08590841 11.20031,3.08590841 L8.79774119,8.27900683 C8.35247961,9.2414297 7.31114151,9.9365315 6.25,9.99588133 L6.25,16.670066 C8.89400277,16.6693688 12.1985541,16.6682163 12.5220755,16.6667538 Z M4.58333333,10 L2.91634582,10 L2.91666667,16.6708112 C2.91666667,16.6708112 3.59124028,16.6706931 4.58333333,16.6704711 L4.58333333,10 Z M2.91634582,18.3333333 C1.99604844,18.3333333 1.25,17.5898778 1.25,16.6708112 L1.25,9.99585542 C1.25,9.07766983 1.99686152,8.33333333 2.91634582,8.33333333 L6.10329509,8.33333333 C6.56524027,8.33333333 7.08617324,7.97663754 7.2851139,7.57919509 C7.48405457,7.18175264 9.87703741,1.97681085 9.87703741,1.97681085 C10.1703218,1.34288318 10.9272155,1.06766458 11.5590677,1.38633221 C11.5590677,1.38633221 12.1658253,1.67434322 12.5625885,1.98353563 C13.2992762,2.55762696 13.7655311,3.28528983 13.7498836,4.15273977 C13.7590601,4.70174982 13.6599056,5.51063072 13.4782439,6.53939764 C13.4296973,6.81432154 13.2063309,7.92345276 13.2063309,7.92345276 C13.160955,8.14996668 13.3124143,8.33286399 13.5445473,8.33287938 L16.5520205,8.33307879 C18.0021046,8.33307871 18.996474,9.5541754 18.6974326,10.9522251 C18.6883344,10.9993828 17.6381798,15.2160423 17.4483635,15.7054478 C16.7413003,17.6193856 15.102003,18.3613758 12.5040798,18.3333233 C11.3117932,18.3391606 2.91634582,18.3333333 2.91634582,18.3333333 Z" id="Combined-Shape"></path>
                            </g>
                        </g>
                    </g>
                </g>
            </g>
        </g>
    </g>
</svg>