<?xml version="1.0" encoding="UTF-8"?>
<svg width="19px" height="17px" viewBox="0 0 19 17" version="1.1" xmlns="http://www.w3.org/2000/svg" xmlns:xlink="http://www.w3.org/1999/xlink">
    <!-- Generator: sketchtool 51.3 (57544) - http://www.bohemiancoding.com/sketch -->
    <title>C0435856-6351-4526-83FC-68595DD62308</title>
    <desc>Created with sketchtool.</desc>
    <defs></defs>
    <g id="Page-1" stroke="none" stroke-width="1" fill="none" fill-rule="evenodd">
        <g id="VIP---DESKTOP---Kaufen" transform="translate(-1338.000000, -146.000000)" fill="#FF001F" fill-rule="nonzero">
            <path d="M1355.45624,147.514098 C1354.45931,146.537444 1353.13402,146 1351.72409,146 C1350.31396,146 1348.98851,146.537444 1347.99123,147.514098 L1347.49997,147.99545 L1347.0087,147.514098 C1346.01172,146.537444 1344.68597,146 1343.27614,146 C1341.86636,146 1340.54052,146.537444 1339.54364,147.514098 C1337.48545,149.530521 1337.48545,152.811329 1339.54364,154.826967 L1346.9187,162.051718 C1347.03928,162.170288 1347.1894,162.242884 1347.34624,162.270832 C1347.39883,162.280999 1347.45173,162.285714 1347.50473,162.285714 C1347.71336,162.285714 1347.92234,162.207765 1348.08124,162.051718 L1355.45629,154.826967 C1357.51458,152.811329 1357.51458,149.530521 1355.45624,147.514098 Z" id="wunsch"></path>
        </g>
    </g>
</svg>