<?xml version="1.0" encoding="UTF-8"?>
<svg width="23px" height="20px" viewBox="0 0 23 20" version="1.1" xmlns="http://www.w3.org/2000/svg" xmlns:xlink="http://www.w3.org/1999/xlink">
    <!-- Generator: sketchtool 51.3 (57544) - http://www.bohemiancoding.com/sketch -->
    <title>BC5C79D8-A4B2-4FD0-9854-7E3803E5769C</title>
    <desc>Created with sketchtool.</desc>
    <defs></defs>
    <g id="Page-1" stroke="none" stroke-width="1" fill="none" fill-rule="evenodd">
        <g id="HOMEPAGE---DESKTOP---COMPRESSED" transform="translate(-1282.000000, -36.000000)" fill="#FFFFFF" fill-rule="nonzero">
            <path d="M1303.13124,37.8594186 C1301.92443,36.6600194 1300.32013,36 1298.61337,36 C1296.90637,36 1295.30189,36.6600194 1294.09465,37.8594186 L1293.49996,38.4505528 L1292.90526,37.8594186 C1291.69839,36.6600194 1290.09355,36 1288.38691,36 C1286.68034,36 1285.07536,36.6600194 1283.86862,37.8594186 C1281.37713,40.335728 1281.37713,44.3647901 1283.86862,46.8401344 L1292.79632,55.7126364 C1292.94229,55.8582484 1293.12401,55.9474011 1293.31387,55.9817231 C1293.37754,55.9942093 1293.44157,56 1293.50572,56 C1293.75828,56 1294.01126,55.9042725 1294.2036,55.7126364 L1303.1313,46.8401344 C1305.62291,44.3647901 1305.62291,40.335728 1303.13124,37.8594186 Z M1301.73549,45.4530802 L1293.50002,53.6376951 L1285.26437,45.4530802 C1283.54256,43.742169 1283.54256,40.9584095 1285.26437,39.2465934 C1286.09839,38.4178595 1287.20766,37.9620226 1288.38691,37.9620226 C1289.56628,37.9620226 1290.67525,38.4178595 1291.50896,39.2465934 L1292.80208,40.5321293 C1293.17275,40.8999596 1293.82765,40.8999596 1294.19826,40.5321293 L1295.49089,39.2465934 C1296.32467,38.4178595 1297.43369,37.9620226 1298.61343,37.9620226 C1299.79281,37.9620226 1300.90171,38.4178595 1301.73549,39.2465934 C1303.45748,40.9584095 1303.45748,43.7421087 1301.73549,45.4530802 Z" id="heart"></path>
        </g>
    </g>
</svg>