<?xml version="1.0" encoding="UTF-8"?>
<svg width="20px" height="20px" viewBox="0 0 20 20" version="1.1" xmlns="http://www.w3.org/2000/svg" xmlns:xlink="http://www.w3.org/1999/xlink">
    <!-- Generator: sketchtool 51.2 (57519) - http://www.bohemiancoding.com/sketch -->
    <title>7E3D232A-7E35-4270-9403-FBC51BE2339A</title>
    <desc>Created with sketchtool.</desc>
    <defs></defs>
    <g id="Page-1" stroke="none" stroke-width="1" fill="none" fill-rule="evenodd">
        <g id="CATCH-MOBILE-Anmeldung-Mobile" transform="translate(-259.000000, -565.000000)" fill="#FFFFFF" fill-rule="nonzero">
            <g id="Group-3" transform="translate(15.000000, 486.000000)">
                <g id="Social-networks" transform="translate(0.000000, 62.000000)">
                    <path d="M247.134693,17.7142857 L261.151215,17.7142857 C262.482332,17.7142857 263.571429,18.6997866 263.571429,20.1344745 L263.571429,34.1512398 C263.571429,35.5859277 262.482332,36.5714286 261.151215,36.5714286 L247.134693,36.5714286 C245.803188,36.5714286 244.714286,35.5859277 244.714286,34.1512398 L244.714286,20.1344745 C244.714286,18.6997866 245.803188,17.7142857 247.134693,17.7142857 Z M258.451031,19.8093947 C257.984027,19.8093947 257.602407,20.1912037 257.602407,20.658397 L257.602407,22.6903875 C257.602407,23.1573871 257.984027,23.5393897 258.451031,23.5393897 L260.582368,23.5393897 C261.049372,23.5393897 261.431379,23.1573871 261.431379,22.6903875 L261.431379,20.658397 C261.431379,20.1912037 261.049372,19.8093947 260.582368,19.8093947 L258.451031,19.8093947 Z M261.440285,25.6889045 L259.7806,25.6889045 C259.937623,26.2015973 260.022621,26.7446877 260.022621,27.3065587 C260.022621,30.4431234 257.397948,32.9856769 254.160864,32.9856769 C250.923973,32.9856769 248.299687,30.4431234 248.299687,27.3065587 C248.299687,26.7443005 248.384491,26.2014037 248.541708,25.6889045 L246.809803,25.6889045 L246.809803,33.6544234 C246.809803,34.06663 247.147084,34.4041011 247.559489,34.4041011 L260.690987,34.4041011 C261.103392,34.4041011 261.440672,34.0668236 261.440672,33.6544234 L261.440672,25.6889045 L261.440285,25.6889045 Z M254.16067,23.4323205 C252.069218,23.4323205 250.37352,25.0751447 250.37352,27.1019075 C250.37352,29.1286704 252.069218,30.7714946 254.16067,30.7714946 C256.252315,30.7714946 257.948207,29.1286704 257.948207,27.1019075 C257.948207,25.0751447 256.252509,23.4323205 254.16067,23.4323205 Z" id="instagramm"></path>
                </g>
            </g>
        </g>
    </g>
</svg>