<svg width="63" height="63" viewBox="0 0 63 63" fill="none" xmlns="http://www.w3.org/2000/svg">
<mask id="mask0" mask-type="alpha" maskUnits="userSpaceOnUse" x="0" y="0" width="63" height="63">
<path fill-rule="evenodd" clip-rule="evenodd" d="M0 0H62.9991V62.9991H0V0Z" fill="white"/>
</mask>
<g mask="url(#mask0)">
<path fill-rule="evenodd" clip-rule="evenodd" d="M57.4109 45.6142C57.4109 52.1189 52.1189 57.4109 45.6142 57.4109H17.387C10.8823 57.4109 5.59027 52.1189 5.59027 45.6142V17.387C5.59027 10.8823 10.8823 5.59027 17.387 5.59027H45.6142C52.1189 5.59027 57.4109 10.8823 57.4109 17.387V45.6142ZM45.6142 -0.000976562H17.387C7.79842 -0.000976562 -0.000976562 7.79842 -0.000976562 17.387V45.6142C-0.000976562 55.1996 7.79842 62.999 17.387 62.999H45.6142C55.2028 62.999 62.999 55.1996 62.999 45.6142V17.387C62.999 7.79842 55.2028 -0.000976562 45.6142 -0.000976562Z" fill="black"/>
</g>
<path fill-rule="evenodd" clip-rule="evenodd" d="M31.5003 42.1414C25.6318 42.1414 20.8564 37.3692 20.8564 31.5007C20.8564 25.6323 25.6318 20.8537 31.5003 20.8537C37.3687 20.8537 42.1441 25.6323 42.1441 31.5007C42.1441 37.3692 37.3687 42.1414 31.5003 42.1414ZM31.5003 15.2656C22.548 15.2656 15.2683 22.5484 15.2683 31.5007C15.2683 40.4499 22.548 47.7327 31.5003 47.7327C40.4526 47.7327 47.7322 40.4499 47.7322 31.5007C47.7322 22.5484 40.4526 15.2656 31.5003 15.2656Z" fill="black"/>
<path fill-rule="evenodd" clip-rule="evenodd" d="M48.4162 10.5276C47.3358 10.5276 46.2805 10.9623 45.5182 11.7277C44.7528 12.4869 44.3149 13.5453 44.3149 14.6257C44.3149 15.703 44.7559 16.7614 45.5182 17.5269C46.2774 18.286 47.3358 18.727 48.4162 18.727C49.4967 18.727 50.5488 18.286 51.3142 17.5269C52.0765 16.7614 52.5144 15.703 52.5144 14.6257C52.5144 13.5453 52.0765 12.4869 51.3142 11.7277C50.5519 10.9623 49.4967 10.5276 48.4162 10.5276Z" fill="black"/>
</svg>
