<svg width="19" height="17" viewBox="0 0 19 17" fill="none" xmlns="http://www.w3.org/2000/svg">
<path fill-rule="evenodd" clip-rule="evenodd" d="M13.7241 0C15.134 0 16.4593 0.561016 17.4562 1.58051C19.5146 3.68537 19.5146 7.11007 17.4563 9.21412L10.0812 16.7557C9.92234 16.9186 9.71336 17 9.50473 17C9.45173 17 9.39883 16.9951 9.34624 16.9845C9.1894 16.9553 9.03928 16.8795 8.9187 16.7557L1.54364 9.21412C-0.514547 7.11007 -0.514547 3.68537 1.54364 1.58051C2.54052 0.561016 3.86636 0 5.27614 0C6.68597 0 8.01172 0.561016 9.0087 1.58051L9.49996 2.08297L9.99123 1.58051C10.9885 0.561016 12.314 0 13.7241 0ZM9.46516 14.9923L16.2436 8.03535C17.6609 6.58103 17.6609 4.21488 16.2436 2.75984C15.5573 2.05541 14.6446 1.66795 13.6739 1.66795C12.7029 1.66795 11.7901 2.05541 11.1038 2.75984L10.0399 3.85254C9.73483 4.1652 9.19579 4.1652 8.8907 3.85254L7.82637 2.75984C7.14016 2.05541 6.22739 1.66795 5.25667 1.66795C4.28605 1.66795 3.37304 2.05541 2.68658 2.75984C1.26939 4.21488 1.26939 6.58108 2.68658 8.03535L9.46516 14.9923Z" fill="white"/>
</svg>
