<?xml version="1.0" encoding="UTF-8"?>
<svg width="24px" height="24px" viewBox="0 0 24 24" version="1.1" xmlns="http://www.w3.org/2000/svg" xmlns:xlink="http://www.w3.org/1999/xlink">
    <!-- Generator: Sketch 52.2 (67145) - http://www.bohemiancoding.com/sketch -->
    <title>key</title>
    <desc>Created with Sketch.</desc>
    <g id="Page-1" stroke="none" stroke-width="1" fill="none" fill-rule="evenodd" opacity="0.6">
        <g id="key" fill="#000000" fill-rule="nonzero">
            <path d="M16.8,8.4 C16.137258,8.4 15.6,7.59411255 15.6,6.6 C15.6,5.60588745 16.137258,4.8 16.8,4.8 C17.462742,4.8 18,5.60588745 18,6.6 C18,7.59411255 17.462742,8.4 16.8,8.4 Z M23.741055,7.7771471 C24.285881,9.16486145 23.955085,10.7413428 22.898293,11.7934401 L19.172403,15.5028108 C18.091001,16.5793831 16.479305,16.8953545 15.066405,16.3074385 C14.390189,16.0261165 13.734692,15.6915778 13.118194,15.313106 C12.676915,15.042193 12.538775,14.4647328 12.809617,14.0233386 C13.08046,13.5819445 13.65777,13.4437216 14.099002,13.7146347 C14.632438,14.0421403 15.200232,14.3319019 15.786495,14.5758081 C16.497352,14.8715243 17.307161,14.7136089 17.849736,14.1735177 L21.575627,10.4641 C22.102359,9.93971591 22.267311,9.15412433 21.995859,8.46263495 C21.560861,7.35469529 20.76938,5.76227233 19.469308,4.46800376 C18.177157,3.18151843 16.608351,2.41547872 15.519825,1.99930977 C14.826687,1.73439826 14.039284,1.90126907 13.513677,2.42448103 L9.8322706,6.08959043 C9.2883823,6.63108832 9.1307892,7.46234783 9.440116,8.1581977 C9.7037868,8.75145883 10.002239,9.32385525 10.327128,9.85949226 C10.551143,10.228868 10.493908,10.703505 10.188472,11.0090207 L1.874992,19.3246165 L1.874992,22.1245203 L4.1249824,22.1245203 L4.1249824,20.4365885 C4.1249824,19.9186748 4.5446994,19.4988486 5.0624784,19.4988486 L6.7499713,19.4988017 L6.7499713,17.8109168 C6.7499713,17.2930031 7.1696882,16.873177 7.6874673,16.873177 L10.312456,16.873177 C10.830235,16.873177 11.249952,17.2930031 11.249952,17.8109168 C11.249952,18.3288306 10.830235,18.7486567 10.312456,18.7486567 L8.6249633,18.7486567 L8.6249633,20.4365416 C8.6249633,20.9544553 8.2052463,21.3742815 7.6874673,21.3742815 L5.9999744,21.3743284 L5.9999744,23.0622601 C5.9999744,23.5801739 5.5802575,24 5.0624784,24 L0.937496,24 C0.419717,24 0,23.5801739 0,23.0622601 L0,18.9362047 C0,18.6874692 0.0987652,18.4489551 0.2745926,18.2730819 L8.3546363,10.1909833 C8.130106,9.78015947 7.9199663,9.35494132 7.7267483,8.92020512 C7.1036416,7.51851845 7.4181715,5.84680958 8.5094638,4.76039105 L12.190917,1.09523476 C13.238569,0.0522335865 14.807984,-0.280570294 16.189103,0.247424141 C17.447129,0.728390921 19.266855,1.62036909 20.791927,3.13875749 C22.322436,4.66239723 23.240432,6.5021022 23.741055,7.7771471 Z"></path>
        </g>
    </g>
</svg>