<?xml version="1.0" encoding="UTF-8"?>
<svg width="24px" height="24px" viewBox="0 0 24 24" version="1.1" xmlns="http://www.w3.org/2000/svg" xmlns:xlink="http://www.w3.org/1999/xlink">
    <!-- Generator: Sketch 51.2 (57519) - http://www.bohemiancoding.com/sketch -->
    <title>key yellow</title>
    <desc>Created with Sketch.</desc>
    <defs></defs>
    <g id="Page-1" stroke="none" stroke-width="1" fill="none" fill-rule="evenodd">
        <g id="key-yellow" fill="#FFD903" fill-rule="nonzero">
            <path d="M23.6948772,7.77829687 C24.2386433,9.16565625 23.9084912,10.7417344 22.8537544,11.7935625 L19.1351111,15.5019844 C18.0558129,16.5782812 16.4472515,16.8941719 15.0370994,16.3064062 C14.3621988,16.0251562 13.7079766,15.6907031 13.0926784,15.3123281 C12.6522573,15.0414844 12.514386,14.4641719 12.7847018,14.0228906 C13.0550175,13.5816094 13.6312047,13.4434219 14.0715789,13.7142656 C14.6039766,14.0416875 15.1706667,14.331375 15.7557895,14.5752187 C16.4652632,14.8708594 17.2734971,14.7129844 17.8150175,14.1730312 L21.5336608,10.4645625 C22.0593684,9.9403125 22.224,9.15492187 21.953076,8.46360937 C21.518924,7.35595313 20.7289825,5.7639375 19.4314386,4.47 C18.1418012,3.18384375 16.5760468,2.418 15.4896374,2.0019375 C14.797848,1.73709375 14.0119766,1.90392188 13.4873918,2.427 L9.8131462,6.09117187 C9.27031579,6.63253125 9.11302924,7.46357812 9.42175439,8.15925 C9.68491228,8.75235937 9.98278363,9.32460937 10.3070409,9.86010937 C10.5306199,10.2293906 10.4734971,10.7039062 10.168655,11.0093437 L1.87134503,19.3228125 L1.87134503,22.122 L4.11695906,22.122 L4.11695906,20.4345 C4.11695906,19.9167187 4.53585965,19.497 5.05263158,19.497 L6.73684211,19.4969531 L6.73684211,17.8095 C6.73684211,17.2917187 7.15574269,16.872 7.67251462,16.872 L10.2923977,16.872 C10.8091696,16.872 11.2280702,17.2917187 11.2280702,17.8095 C11.2280702,18.3272812 10.8091696,18.747 10.2923977,18.747 L8.60818713,18.747 L8.60818713,20.4344531 C8.60818713,20.9522344 8.18928655,21.3719531 7.67251462,21.3719531 L5.98830409,21.372 L5.98830409,23.0595 C5.98830409,23.5772812 5.56940351,23.997 5.05263158,23.997 L0.935672515,23.997 C0.418900585,23.997 0,23.5772812 0,23.0595 L0,18.9345 C0,18.6858281 0.0985730994,18.447375 0.27405848,18.2715469 L8.33838596,10.1915156 C8.1142924,9.78079687 7.9045614,9.3556875 7.7117193,8.9210625 C7.08982456,7.51973437 7.40374269,5.84845312 8.49291228,4.7623125 L12.1672047,1.09809375 C13.2128187,0.055359375 14.7791813,-0.277359375 16.157614,0.2505 C17.413193,0.73134375 19.2293801,1.62309375 20.7514854,3.14109375 C22.2790175,4.66434375 23.1952281,6.50357812 23.6948772,7.77829687 Z M17.0292398,8.06540625 C16.2024275,8.06540625 15.5321637,7.39383337 15.5321637,6.56540625 C15.5321637,5.73697913 16.2024275,5.06540625 17.0292398,5.06540625 C17.856052,5.06540625 18.5263158,5.73697913 18.5263158,6.56540625 C18.5263158,7.39383337 17.856052,8.06540625 17.0292398,8.06540625 Z" id="Shape-Copy"></path>
        </g>
    </g>
</svg>