<?xml version="1.0" encoding="UTF-8"?>
<svg width="26px" height="26px" viewBox="0 0 26 26" version="1.1" xmlns="http://www.w3.org/2000/svg" xmlns:xlink="http://www.w3.org/1999/xlink">
    <!-- Generator: Sketch 51.2 (57519) - http://www.bohemiancoding.com/sketch -->
    <title>key white</title>
    <desc>Created with Sketch.</desc>
    <defs></defs>
    <g id="Page-1" stroke="none" stroke-width="1" fill="none" fill-rule="evenodd">
        <g id="key-white" fill="#FFFFFF" fill-rule="nonzero">
            <path d="M25.6694503,8.42648828 C26.2585302,9.92946094 25.9008655,11.6368789 24.7582339,12.7763594 L20.7297037,16.7938164 C19.5604639,17.9598047 17.8178558,18.3020195 16.290191,17.6652734 C15.5590487,17.3605859 14.850308,16.9982617 14.1837349,16.5883555 C13.7066121,16.2949414 13.5572515,15.6695195 13.8500936,15.1914648 C14.1429357,14.7134102 14.7671384,14.563707 15.2442105,14.8571211 C15.8209747,15.2118281 16.4348889,15.5256563 17.0687719,15.7898203 C17.8373684,16.1100977 18.7129552,15.9390664 19.2996023,15.3541172 L23.3281326,11.3366094 C23.8976491,10.7686719 24.076,9.91783203 23.782499,9.16891016 C23.3121676,7.96894922 22.4563977,6.24426563 21.0507251,4.8425 C19.6536179,3.44916406 17.957384,2.6195 16.7804405,2.16876563 C16.0310019,1.88185156 15.1796413,2.06258203 14.6113411,2.62925 L10.6309084,6.59876953 C10.0428421,7.18524219 9.87244834,8.08554297 10.2069006,8.8391875 C10.4919883,9.48172266 10.8146823,10.1016602 11.165961,10.6817852 C11.4081715,11.0818398 11.3462885,11.5958984 11.0160429,11.9267891 L2.02729045,20.9330469 L2.02729045,23.9655 L4.46003899,23.9655 L4.46003899,22.137375 C4.46003899,21.5764453 4.91384795,21.12175 5.47368421,21.12175 L7.29824561,21.1216992 L7.29824561,19.293625 C7.29824561,18.7326953 7.75205458,18.278 8.31189084,18.278 L11.1500975,18.278 C11.7099337,18.278 12.1637427,18.7326953 12.1637427,19.293625 C12.1637427,19.8545547 11.7099337,20.30925 11.1500975,20.30925 L9.32553606,20.30925 L9.32553606,22.1373242 C9.32553606,22.6982539 8.8717271,23.1529492 8.31189084,23.1529492 L6.48732943,23.153 L6.48732943,24.981125 C6.48732943,25.5420547 6.03352047,25.99675 5.47368421,25.99675 L1.01364522,25.99675 C0.453808967,25.99675 0,25.5420547 0,24.981125 L0,20.512375 C0,20.2429805 0.106787524,19.9846562 0.296896686,19.7941758 L9.03325146,11.0408086 C8.79048343,10.5958633 8.56327485,10.1353281 8.35436257,9.66448437 C7.68064327,8.14637891 8.02072125,6.33582422 9.20065497,5.15917187 L13.1811384,1.18960156 C14.3138869,0.0599726562 16.0107797,-0.300472656 17.5040819,0.271375 C18.8642924,0.792289062 20.8318285,1.75835156 22.4807758,3.40285156 C24.1356023,5.05303906 25.1281637,7.04554297 25.6694503,8.42648828 Z M18.4483431,8.73752344 C17.5526298,8.73752344 16.8265107,8.00998616 16.8265107,7.11252344 C16.8265107,6.21506072 17.5526298,5.48752344 18.4483431,5.48752344 C19.3440564,5.48752344 20.0701754,6.21506072 20.0701754,7.11252344 C20.0701754,8.00998616 19.3440564,8.73752344 18.4483431,8.73752344 Z" id="Shape"></path>
        </g>
    </g>
</svg>