<?xml version="1.0" encoding="UTF-8"?>
<svg width="17px" height="14px" viewBox="0 0 17 14" version="1.1" xmlns="http://www.w3.org/2000/svg" xmlns:xlink="http://www.w3.org/1999/xlink">
    <!-- Generator: Sketch 50.2 (55047) - http://www.bohemiancoding.com/sketch -->
    <title>Group 6 Copy 2</title>
    <desc>Created with Sketch.</desc>
    <defs></defs>
    <g id="Page-1" stroke="none" stroke-width="1" fill="none" fill-rule="evenodd">
        <g id="Main-page-expand-Filters-(2)" transform="translate(-24.000000, -426.000000)" fill="#000000" fill-rule="nonzero">
            <g id="Group-6-Copy-2" transform="translate(22.000000, 423.000000)">
                <g id="Arrow-3">
                    <path d="M13.3360951,8.33333333 C15.1755856,8.33333333 16.6666667,9.82527827 16.6666667,11.6666667 C16.6666667,13.5063327 15.1730637,15 13.3360951,15 L3.33333333,15 C2.87309604,15 2.5,15.373096 2.5,15.8333333 C2.5,16.2935706 2.87309604,16.6666667 3.33333333,16.6666667 L13.3360951,16.6666667 C16.0935543,16.6666667 18.3333333,14.4267912 18.3333333,11.6666667 C18.3333333,8.90501971 16.0962763,6.66666667 13.3360951,6.66666667 L5.34517797,6.66666667 L7.25592232,4.75592232 C7.58135923,4.43048541 7.58135923,3.90284793 7.25592232,3.57741102 C6.93048541,3.25197411 6.40284793,3.25197411 6.07741102,3.57741102 L2.74407768,6.91074435 C2.41864077,7.23618126 2.41864077,7.76381874 2.74407768,8.08925565 L6.07741102,11.422589 C6.40284793,11.7480259 6.93048541,11.7480259 7.25592232,11.422589 C7.58135923,11.0971521 7.58135923,10.5695146 7.25592232,10.2440777 L5.34517797,8.33333333 L13.3360951,8.33333333 Z" id="Combined-Shape"></path>
                </g>
            </g>
        </g>
    </g>
</svg>