<?xml version="1.0" encoding="UTF-8"?>
<svg width="18px" height="18px" viewBox="0 0 18 18" version="1.1" xmlns="http://www.w3.org/2000/svg" xmlns:xlink="http://www.w3.org/1999/xlink">
    <!-- Generator: Sketch 50.2 (55047) - http://www.bohemiancoding.com/sketch -->
    <title>Combined Shape</title>
    <desc>Created with Sketch.</desc>
    <defs></defs>
    <g id="Page-1" stroke="none" stroke-width="1" fill="none" fill-rule="evenodd">
        <g id="POP-DESKTOP-POP-FILTERS-Expanded" transform="translate(-1365.000000, -543.000000)" fill="#FFFFFF">
            <g id="Group-8" transform="translate(1339.000000, 474.000000)">
                <g id="Group-6" transform="translate(12.000000, 0.000000)">
                    <path d="M25.2720755,84.4136122 C27.1224683,84.4335927 28.0393263,84.0598629 28.506408,83.163525 L28.1691329,83.163525 C27.7075336,83.163525 27.3333333,82.7936376 27.3333333,82.3301917 C27.3333333,81.8699544 27.7027312,81.4968583 28.1691329,81.4968583 L29.0039178,81.4968583 C29.0727423,81.232599 29.1464541,80.9486934 29.2203538,80.663525 L28.5857996,80.663525 C28.1242002,80.663525 27.75,80.2936376 27.75,79.8301917 C27.75,79.3699544 28.1193978,78.9968583 28.5857996,78.9968583 L29.6509791,78.9968583 C29.7478859,78.620791 29.8121085,78.3708266 29.8152809,78.3579265 C29.8942909,77.992087 29.6935839,77.7466038 29.30191,77.7466038 L26.2944368,77.7464044 C25.0137102,77.7463195 24.0694817,76.6041571 24.3224675,75.3412696 C24.3311066,75.2983724 24.5711804,74.0858505 24.5869693,73.9964364 C24.7592122,73.0210088 24.8400793,72.3240886 24.8334497,71.9274519 L24.833488,71.8695388 C24.837976,71.6207404 24.6866071,71.3555561 24.2881182,71.0450188 C24.2433265,71.0101132 23.95031,70.8327667 23.95031,70.8327667 L21.5477412,76.0258651 C21.1024796,76.988288 20.0611415,77.6833898 19,77.7427397 L19,84.4169243 C21.6440028,84.4162271 24.9485541,84.4150746 25.2720755,84.4136122 Z M17.3333333,77.7468583 L15.6663458,77.7468583 L15.6666667,84.4176696 C15.6666667,84.4176696 16.3412403,84.4175514 17.3333333,84.4173295 L17.3333333,77.7468583 Z M15.6663458,86.0801917 C14.7460484,86.0801917 14,85.3367361 14,84.4176696 L14,77.7427137 C14,76.8245281 14.7468615,76.0801917 15.6663458,76.0801917 L18.8532951,76.0801917 C19.3152403,76.0801917 19.8361732,75.7234959 20.0351139,75.3260534 C20.2340546,74.928611 22.6270374,69.7236692 22.6270374,69.7236692 C22.9203218,69.0897415 23.6772155,68.8145229 24.3090677,69.1331905 C24.3090677,69.1331905 24.9158253,69.4212015 25.3125885,69.730394 C26.0492762,70.3044853 26.5155311,71.0321481 26.4998836,71.8995981 C26.5090601,72.4486081 26.4099056,73.257489 26.2282439,74.286256 C26.1796973,74.5611799 25.9563309,75.6703111 25.9563309,75.6703111 C25.910955,75.896825 26.0624143,76.0797223 26.2945473,76.0797377 L29.3020205,76.0799371 C30.7521046,76.079937 31.746474,77.3010337 31.4474326,78.6990835 C31.4383344,78.7462411 30.3881798,82.9629006 30.1983635,83.4523061 C29.4913003,85.3662439 27.852003,86.1082341 25.2540798,86.0801817 C24.0617932,86.0860189 15.6663458,86.0801917 15.6663458,86.0801917 Z" id="Combined-Shape"></path>
                </g>
            </g>
        </g>
    </g>
</svg>