<?xml version="1.0" encoding="UTF-8"?>
<svg width="17px" height="16px" viewBox="0 0 17 16" version="1.1" xmlns="http://www.w3.org/2000/svg" xmlns:xlink="http://www.w3.org/1999/xlink">
    <!-- Generator: Sketch 51.2 (57519) - http://www.bohemiancoding.com/sketch -->
    <title>1</title>
    <desc>Created with Sketch.</desc>
    <defs></defs>
    <g id="Page-1" stroke="none" stroke-width="1" fill="none" fill-rule="evenodd">
        <g id="1" transform="translate(-7.000000, -8.000000)" stroke="#000000" stroke-width="0.75">
            <path d="M7.37841797,8.47705078 L22.9460449,8.47705078 L22.9460449,20.0229492 L20.067627,20.0229492 L20.067627,23.0170898 L16.1213379,20.0229492 L7.37841797,20.0229492 L7.37841797,8.47705078 Z M15,18 L14.475,17.486413 C12.525,15.798913 11.25,14.6616848 11.25,13.267663 C11.25,12.1304348 12.15,11.25 13.3125,11.25 C13.95,11.25 14.5875,11.5434783 15,12.0203804 C15.4125,11.5434783 16.05,11.25 16.6875,11.25 C17.85,11.25 18.75,12.1304348 18.75,13.267663 C18.75,14.6616848 17.475,15.798913 15.525,17.486413 L15,18 Z" id="Path-2"></path>
        </g>
    </g>
</svg>