<?xml version="1.0" encoding="UTF-8"?>
<svg width="27px" height="27px" viewBox="0 0 27 27" version="1.1" xmlns="http://www.w3.org/2000/svg" xmlns:xlink="http://www.w3.org/1999/xlink">
    <!-- Generator: sketchtool 52.5 (67469) - http://www.bohemiancoding.com/sketch -->
    <title>DCEE2422-165C-47E4-8403-65A117835CA5</title>
    <desc>Created with sketchtool.</desc>
    <g id="Page-1" stroke="none" stroke-width="1" fill="none" fill-rule="evenodd">
        <g id="desktop-menu-abgemeldet" transform="translate(-1156.000000, -100.000000)" fill="#F9B500">
            <path d="M1169.06351,100 C1172.67184,100 1175.74664,101.271972 1178.28799,103.815962 C1180.82934,106.359947 1182.1,109.437928 1182.1,113.05 C1182.1,116.662072 1180.82934,119.740053 1178.28799,122.284038 C1175.74664,124.828026 1172.67184,126.1 1169.06351,126.1 C1166.30876,126.1 1163.82565,125.323222 1161.61409,123.769643 C1159.40253,122.216063 1157.83118,120.196441 1156.9,117.710714 L1158.87875,117.710714 C1159.42194,118.914737 1160.17852,120.002227 1161.1485,120.973214 C1163.32126,123.148225 1165.95957,124.235714 1169.06351,124.235714 C1172.16745,124.235714 1174.80576,123.148225 1176.97852,120.973214 C1179.15128,118.798204 1180.23764,116.15716 1180.23764,113.05 C1180.23764,109.94284 1179.15128,107.301796 1176.97852,105.126786 C1174.80576,102.951776 1172.16745,101.864286 1169.06351,101.864286 C1165.95957,101.864286 1163.32126,102.951776 1161.1485,105.126786 C1160.17852,106.097773 1159.42194,107.185263 1158.87875,108.389286 L1156.9,108.389286 C1157.83118,105.903559 1159.40253,103.883937 1161.61409,102.330357 C1163.82565,100.776777 1166.30876,100 1169.06351,100 Z M1166.39063,116.635165 L1169.47813,113.549451 L1156,113.549451 L1156,111.650549 L1169.47813,111.650549 L1166.39063,108.564835 L1167.69688,107.2 L1173.1,112.6 L1167.69688,118 L1166.39063,116.635165 Z" id="Fill-1"></path>
        </g>
    </g>
</svg>