<?xml version="1.0" encoding="UTF-8"?>
<svg width="18px" height="18px" viewBox="0 0 18 18" version="1.1" xmlns="http://www.w3.org/2000/svg" xmlns:xlink="http://www.w3.org/1999/xlink">
    <!-- Generator: sketchtool 50.2 (55047) - http://www.bohemiancoding.com/sketch -->
    <title>666E217C-8D46-490D-B4E7-B3D29859D912</title>
    <desc>Created with sketchtool.</desc>
    <defs></defs>
    <g id="Page-1" stroke="none" stroke-width="1" fill="none" fill-rule="evenodd" opacity="0.5">
        <g id="Main-page-expand-Copy" transform="translate(-1287.000000, -26.000000)" fill="#007AFF">
            <g id="Group-5" transform="translate(1219.000000, 23.000000)">
                <g id="Group-2" transform="translate(67.000000, 2.000000)">
                    <g id="Shopping-Cart">
                        <path d="M4.80496538,3.78171001 L18.0595404,4.59447983 C18.518345,4.62006621 18.8213354,5.00988405 18.7375184,5.45857817 L17.6527612,11.2655632 C17.5683935,11.7172052 17.1273593,12.0833333 16.6674109,12.0833333 L6.72155377,12.0833333 L6.91394469,12.9166667 L16.25,12.9166667 C16.7102373,12.9166667 17.0833333,13.2897627 17.0833333,13.75 C17.0833333,14.2102373 16.7102373,14.5833333 16.25,14.5833333 L6.25,14.5833333 C5.86195335,14.5833333 5.52526332,14.3154922 5.43800734,13.9373829 L3.02757814,3.49218975 L1.72453543,2.83758717 C1.31269177,2.63215308 1.14536375,2.13175059 1.35079784,1.71990693 C1.55623193,1.30806327 2.05663442,1.14073526 2.46847808,1.34616934 L4.12197132,2.17095776 C4.34465005,2.2820334 4.5060376,2.48681179 4.56199266,2.72928374 L4.80496538,3.78171001 Z M16.1159075,10.4163075 L16.9050909,6.19160482 L5.19597848,5.4753671 L6.33677118,10.4166635 L16.1159075,10.4163075 Z M14.5833333,18.75 C13.6628588,18.75 12.9166667,18.0038079 12.9166667,17.0833333 C12.9166667,16.1628588 13.6628588,15.4166667 14.5833333,15.4166667 C15.5038079,15.4166667 16.25,16.1628588 16.25,17.0833333 C16.25,18.0038079 15.5038079,18.75 14.5833333,18.75 Z M7.08333333,18.75 C6.16285875,18.75 5.41666667,18.0038079 5.41666667,17.0833333 C5.41666667,16.1628588 6.16285875,15.4166667 7.08333333,15.4166667 C8.00380792,15.4166667 8.75,16.1628588 8.75,17.0833333 C8.75,18.0038079 8.00380792,18.75 7.08333333,18.75 Z" id="Combined-Shape"></path>
                    </g>
                </g>
            </g>
        </g>
    </g>
</svg>