<?xml version="1.0" encoding="UTF-8"?>
<svg width="16px" height="20px" viewBox="0 0 16 20" version="1.1" xmlns="http://www.w3.org/2000/svg" xmlns:xlink="http://www.w3.org/1999/xlink">
    <!-- Generator: Sketch 51.2 (57519) - http://www.bohemiancoding.com/sketch -->
    <title>return-black</title>
    <desc>Created with Sketch.</desc>
    <defs></defs>
    <g id="Page-1" stroke="none" stroke-width="1" fill="none" fill-rule="evenodd">
        <g id="return-black">
            <path d="M2.6660767,19.1329346 L0.77423096,17.2813721 L2.6660767,15.5198975 M0.78613281,17.2626953 C4.5302734,17.2626953 7.6003418,17.2626953 9.9963379,17.2626953 C13.9029944,17.2626953 15.161377,12.0159912 15.161377,9.7469482 C15.161377,7.4779053 13.899764,2.23120117 9.9963379,2.23120117 C7.505127,2.23120117 4.4350586,2.23120117 0.78613281,2.23120117 M2.7563477,4.09008789 L0.86450195,2.23852539 L2.7563477,0.47705078" id="Path-10" stroke="#919194" stroke-width="0.75"></path>
            <path d="M5.1132812,11.2567694 C5.1132812,12.0678086 4.9454362,12.6881637 4.6097412,13.1178533 C4.2740462,13.547543 3.782596,13.7623846 3.135376,13.7623846 C2.4962126,13.7623846 2.007448,13.5515713 1.6690674,13.1299383 C1.3306868,12.7083053 1.1574707,12.1040633 1.1494141,11.3171942 L1.1494141,10.2376043 C1.1494141,9.4185084 1.3192732,8.7968105 1.6589966,8.372492 C1.99872,7.9481735 2.488156,7.7360174 3.1273193,7.7360174 C3.7664827,7.7360174 4.2552473,7.9461593 4.5936279,8.3664495 C4.9320085,8.7867397 5.1052246,9.3903103 5.1132812,10.1771795 L5.1132812,11.2567694 Z M3.9490967,10.0724432 C3.9490967,9.5863568 3.8826301,9.2325395 3.7496948,9.0109808 C3.6167596,8.7894221 3.4093032,8.6786444 3.1273193,8.6786444 C2.8533922,8.6786444 2.6513068,8.784051 2.5210571,8.9948675 C2.3908075,9.205684 2.3216553,9.5353316 2.3135986,9.9838201 L2.3135986,11.4098455 C2.3135986,11.8878753 2.3787225,12.2430353 2.5089722,12.4753362 C2.6392218,12.7076372 2.848021,12.823786 3.135376,12.823786 C3.4200454,12.823786 3.6254877,12.7123369 3.751709,12.4894354 C3.8779303,12.2665339 3.9437256,11.9254728 3.9490967,11.466242 L3.9490967,10.0724432 Z M9.1013184,11.6032049 L7.7518311,11.6032049 C7.7652589,11.9979823 7.8706655,12.2947322 8.0680542,12.4934637 C8.2654429,12.6921952 8.5722635,12.7915594 8.9885254,12.7915594 C9.2705092,12.7915594 9.5256336,12.7499338 9.7539062,12.6666815 L9.8989258,13.641535 C9.5659163,13.7194162 9.2221697,13.7583563 8.8676758,13.7583563 C8.1613734,13.7583563 7.6021139,13.5683557 7.1898804,13.1883489 C6.7776469,12.8083422 6.5607911,12.2799661 6.5393066,11.6032049 L5.8585205,11.6032049 L5.8585205,10.9909002 L6.5393066,10.9909002 L6.5393066,10.4913885 L5.8585205,10.4913885 L5.8585205,9.8790838 L6.5473633,9.8790838 C6.5930178,9.2023226 6.8286722,8.6766321 7.2543335,8.3019964 C7.6799948,7.9273607 8.2446254,7.7400457 8.9482422,7.7400457 C9.230226,7.7400457 9.5471174,7.7816713 9.8989258,7.8649237 L9.7539062,8.8438055 C9.5014636,8.7578676 9.253053,8.7148992 9.008667,8.7148992 C8.2486534,8.7148992 7.8323978,9.1029569 7.7598877,9.8790838 L9.1013184,9.8790838 L9.1013184,10.4913885 L7.7518311,10.4913885 L7.7518311,10.9909002 L9.1013184,10.9909002 L9.1013184,11.6032049 Z" id="0€" fill="#919194" fill-rule="nonzero"></path>
        </g>
    </g>
</svg>