<?xml version="1.0" encoding="UTF-8"?>
<svg width="17px" height="14px" viewBox="0 0 17 14" version="1.1" xmlns="http://www.w3.org/2000/svg" xmlns:xlink="http://www.w3.org/1999/xlink">
    <!-- Generator: Sketch 50.2 (55047) - http://www.bohemiancoding.com/sketch -->
    <title>Combined Shape</title>
    <desc>Created with Sketch.</desc>
    <defs></defs>
    <g id="Page-1" stroke="none" stroke-width="1" fill="none" fill-rule="evenodd">
        <g id="POP-DESKTOP-POP-FILTERS-Expanded" transform="translate(-1366.000000, -715.000000)" fill="#FFFFFF" fill-rule="nonzero">
            <g id="Group-8" transform="translate(1339.000000, 474.000000)">
                <g id="Group-6" transform="translate(12.000000, 0.000000)">
                    <path d="M26.2521108,246.242188 C28.0916012,246.242188 29.5826823,247.734132 29.5826823,249.575521 C29.5826823,251.415187 28.0890793,252.908854 26.2521108,252.908854 L16.249349,252.908854 C15.7891117,252.908854 15.4160156,253.28195 15.4160156,253.742188 C15.4160156,254.202425 15.7891117,254.575521 16.249349,254.575521 L26.2521108,254.575521 C29.00957,254.575521 31.249349,252.335645 31.249349,249.575521 C31.249349,246.813874 29.0122919,244.575521 26.2521108,244.575521 L18.2611936,244.575521 L20.1719379,242.664776 C20.4973749,242.33934 20.4973749,241.811702 20.1719379,241.486265 C19.846501,241.160828 19.3188636,241.160828 18.9934266,241.486265 L15.6600933,244.819599 C15.3346564,245.145035 15.3346564,245.672673 15.6600933,245.99811 L18.9934266,249.331443 C19.3188636,249.65688 19.846501,249.65688 20.1719379,249.331443 C20.4973749,249.006006 20.4973749,248.478369 20.1719379,248.152932 L18.2611936,246.242188 L26.2521108,246.242188 Z" id="Combined-Shape"></path>
                </g>
            </g>
        </g>
    </g>
</svg>