<?xml version="1.0" encoding="UTF-8"?>
<svg width="14px" height="14px" viewBox="0 0 14 14" version="1.1" xmlns="http://www.w3.org/2000/svg" xmlns:xlink="http://www.w3.org/1999/xlink">
    <!-- Generator: Sketch 52.5 (67469) - http://www.bohemiancoding.com/sketch -->
    <title>schneller-versand-grey</title>
    <desc>Created with Sketch.</desc>
    <g id="Page-1" stroke="none" stroke-width="1" fill="none" fill-rule="evenodd">
        <g id="schneller-versand-grey" transform="translate(-5.000000, -5.000000)" fill="#919194">
            <path d="M14.7473,7.08363 L14.7473,7.08362 L14.7473,7.08361 L14.7473,7.08359 C15.2507,6.576 15.4011,6.42436 15.6877,6.2025 C16.7101,5.41348 17.7424,5.22911 18.2568,5.74317 C18.771,6.25764 18.5865,7.28986 17.7978,8.31189 L17.7965,8.31359 C17.5747,8.59996 17.4243,8.74916 16.9179,9.25133 L16.9179,9.25137 L16.9177,9.25153 L16.9175,9.25173 C16.6481,9.51893 16.278,9.88603 15.7428,10.4268 L15.8946,11.3596 L16.3228,10.9316 C16.6226,10.6317 17.1077,10.6317 17.4074,10.9316 C17.7072,11.2313 17.7072,11.7167 17.4074,12.0165 L16.1984,13.2255 L16.8869,17.4538 C16.9311,17.7271 16.8407,18.0069 16.6453,18.2024 C16.2696,18.578 15.6475,18.5281 15.3366,18.0984 L12.2851,13.8845 L11.4961,14.6735 C11.2258,14.9437 10.8542,15.2282 10.3896,15.5209 L10.9673,17.4859 C11.0526,17.776 10.9728,18.0892 10.7591,18.3032 C10.3948,18.6676 9.78901,18.6138 9.49508,18.1895 L8.37977,16.5784 C7.76084,16.8588 7.3133,17.0294 7.29262,17.0372 C7.19904,17.0728 7.09257,17.0505 7.02106,16.979 C6.94995,16.9079 6.92708,16.8015 6.96284,16.7074 L6.963,16.707 C6.97289,16.6811 7.14299,16.2353 7.42166,15.6203 L5.81067,14.505 C5.387,14.2116 5.33187,13.6058 5.69661,13.2411 C5.91085,13.0273 6.22406,12.9475 6.51409,13.0327 L8.47925,13.6105 C8.77168,13.1462 9.05623,12.7744 9.32659,12.504 L10.1155,11.715 L5.90166,8.66336 C5.47269,8.35294 5.42166,7.73081 5.79769,7.35478 C5.99324,7.15922 6.2728,7.06883 6.54605,7.11318 L10.7746,7.80163 L11.9837,6.59252 C12.2834,6.29269 12.7688,6.29279 13.0685,6.59252 C13.3685,6.89235 13.3684,7.37745 13.0685,7.67728 L12.6405,8.10535 L13.5733,8.25726 C14.1129,7.72322 14.4798,7.35332 14.7471,7.08377 L14.7471,7.08376 L14.7472,7.08367 L14.7473,7.08363 Z M11.6221,12.378 C11.5221,12.278 11.5221,12.1161 11.6221,12.0164 C11.7221,11.9164 11.8839,11.9164 11.9837,12.0164 C12.0837,12.1161 12.0837,12.278 11.9837,12.378 C11.8839,12.4779 11.7221,12.4779 11.6221,12.378 Z M12.3452,6.95417 C12.4451,6.8542 12.607,6.8542 12.707,6.95417 C12.8069,7.05415 12.8068,7.21565 12.707,7.31563 L12.0184,8.00408 L11.3965,7.9028 L12.3452,6.95417 Z M6.15934,7.71633 C6.00643,7.86914 6.0265,8.12253 6.20148,8.24907 L10.4818,11.3487 L13.1278,8.70281 L6.46406,7.61785 C6.35299,7.59978 6.23894,7.63663 6.15934,7.71633 Z M6.05818,13.6028 C6.13988,13.5212 6.25933,13.4907 6.36989,13.5232 L8.2079,14.0638 C8.01993,14.393 7.83027,14.7566 7.64111,15.1502 L6.10182,14.0847 C5.94032,13.9728 5.91915,13.7418 6.05818,13.6028 Z M9.91545,17.8983 C10.0282,18.0611 10.2595,18.0797 10.3974,17.9419 C10.4788,17.8603 10.5093,17.7408 10.4768,17.6302 L9.93633,15.7922 C9.60754,15.9798 9.24379,16.1696 8.84988,16.3589 L9.91545,17.8983 Z M16.6844,11.2931 C16.7843,11.1932 16.9459,11.1931 17.0459,11.2931 C17.1458,11.3931 17.1457,11.5549 17.0459,11.6549 L16.0971,12.6035 L15.996,11.9816 L16.6844,11.2931 Z M16.2837,17.8408 C16.3633,17.7612 16.4002,17.6471 16.3821,17.5358 L15.2972,10.8723 L12.6512,13.5184 L15.7509,17.7986 C15.878,17.9743 16.1316,17.9929 16.2837,17.8408 Z M11.1346,14.3119 C10.8532,14.5933 10.4414,14.8971 9.91068,15.2151 C9.22074,15.6282 8.40426,16.0196 7.66778,16.3324 C7.98908,15.5759 8.38778,14.7462 8.80985,14.0484 C9.11857,13.5376 9.4141,13.1396 9.68826,12.8656 C12.1372,10.4225 13.569,8.9868 14.4276,8.12579 L14.4283,8.12505 L14.4284,8.12503 C15.5505,6.99983 15.6933,6.85668 15.8486,6.72891 C15.8713,6.71032 15.8942,6.69205 15.9204,6.67113 L15.9204,6.67106 L15.9205,6.67103 L15.9429,6.65315 C16.3633,6.62628 16.7335,6.75113 16.9912,7.00881 C17.2488,7.26649 17.3738,7.63673 17.3469,8.05711 L17.3296,8.07879 L17.3296,8.07883 L17.3294,8.07902 C17.3083,8.10549 17.2898,8.12859 17.2711,8.15142 C17.1427,8.30749 16.9989,8.45088 15.8748,9.5719 L15.8748,9.57196 L15.8747,9.5721 L15.8741,9.57265 C15.0132,10.4312 13.5777,11.8628 11.1346,14.3119 Z M17.3528,6.64725 C17.5576,6.8521 17.7027,7.10339 17.7844,7.38524 C18.0656,6.83083 18.1219,6.33154 17.8952,6.10473 C17.6081,5.81778 16.9849,6.02792 16.6149,6.21559 C16.8967,6.29729 17.1479,6.44251 17.3528,6.64725 Z M13.0685,10.57 L12.3454,11.293 C12.2455,11.3929 12.2455,11.5548 12.3454,11.6547 C12.4453,11.7545 12.6071,11.7544 12.7071,11.6547 L13.4301,10.9316 C13.5299,10.8318 13.5299,10.6699 13.4301,10.57 C13.3302,10.4701 13.1684,10.4701 13.0685,10.57 Z M13.7915,9.8469 L14.5149,9.12359 C14.6148,9.02372 14.7766,9.02372 14.8765,9.12359 C14.9764,9.22347 14.9764,9.38537 14.8765,9.48524 L14.1532,10.2085 C14.0533,10.3083 13.8915,10.3083 13.7915,10.2085 C13.6917,10.1087 13.6917,9.94677 13.7915,9.8469 Z" id="Shape"></path>
        </g>
    </g>
</svg>