<?xml version="1.0" encoding="UTF-8"?>
<svg width="14px" height="14px" viewBox="0 0 14 14" version="1.1" xmlns="http://www.w3.org/2000/svg" xmlns:xlink="http://www.w3.org/1999/xlink">
    <!-- Generator: Sketch 52.5 (67469) - http://www.bohemiancoding.com/sketch -->
    <title>schneller_versand</title>
    <desc>Created with Sketch.</desc>
    <g id="Page-1" stroke="none" stroke-width="1" fill="none" fill-rule="evenodd">
        <g id="schneller_versand" fill="#000000">
            <path d="M9.7473,2.08363 L9.7473,2.08362 L9.7473,2.08361 L9.7473,2.08359 C10.2507,1.576 10.4011,1.42436 10.6877,1.2025 C11.7101,0.41348 12.7424,0.22911 13.2568,0.74317 C13.771,1.25764 13.5865,2.28986 12.7978,3.31189 L12.7965,3.31359 C12.5747,3.59996 12.4243,3.74916 11.9179,4.25133 L11.9179,4.25137 L11.9177,4.25153 L11.9175,4.25173 C11.6481,4.51893 11.278,4.88603 10.7428,5.4268 L10.8946,6.3596 L11.3228,5.9316 C11.6226,5.6317 12.1077,5.6317 12.4074,5.9316 C12.7072,6.2313 12.7072,6.7167 12.4074,7.0165 L11.1984,8.2255 L11.8869,12.4538 C11.9311,12.7271 11.8407,13.0069 11.6453,13.2024 C11.2696,13.578 10.6475,13.5281 10.3366,13.0984 L7.2851,8.8845 L6.4961,9.6735 C6.2258,9.9437 5.8542,10.2282 5.3896,10.5209 L5.9673,12.4859 C6.0526,12.776 5.9728,13.0892 5.7591,13.3032 C5.3948,13.6676 4.78901,13.6138 4.49508,13.1895 L3.37977,11.5784 C2.76084,11.8588 2.3133,12.0294 2.29262,12.0372 C2.19904,12.0728 2.09257,12.0505 2.02106,11.979 C1.94995,11.9079 1.92708,11.8015 1.96284,11.7074 L1.963,11.707 C1.97289,11.6811 2.14299,11.2353 2.42166,10.6203 L0.81067,9.505 C0.387,9.2116 0.33187,8.6058 0.69661,8.2411 C0.91085,8.0273 1.22406,7.9475 1.51409,8.0327 L3.47925,8.6105 C3.77168,8.1462 4.05623,7.7744 4.32659,7.504 L5.1155,6.715 L0.90166,3.66336 C0.47269,3.35294 0.42166,2.73081 0.79769,2.35478 C0.99324,2.15922 1.2728,2.06883 1.54605,2.11318 L5.7746,2.80163 L6.9837,1.59252 C7.2834,1.29269 7.7688,1.29279 8.0685,1.59252 C8.3685,1.89235 8.3684,2.37745 8.0685,2.67728 L7.6405,3.10535 L8.5733,3.25726 C9.1129,2.72322 9.4798,2.35332 9.7471,2.08377 L9.7471,2.08376 L9.7472,2.08367 L9.7473,2.08363 Z M6.6221,7.378 C6.5221,7.278 6.5221,7.1161 6.6221,7.0164 C6.7221,6.9164 6.8839,6.9164 6.9837,7.0164 C7.0837,7.1161 7.0837,7.278 6.9837,7.378 C6.8839,7.4779 6.7221,7.4779 6.6221,7.378 Z M7.3452,1.95417 C7.4451,1.8542 7.607,1.8542 7.707,1.95417 C7.8069,2.05415 7.8068,2.21565 7.707,2.31563 L7.0184,3.00408 L6.3965,2.9028 L7.3452,1.95417 Z M1.15934,2.71633 C1.00643,2.86914 1.0265,3.12253 1.20148,3.24907 L5.4818,6.3487 L8.1278,3.70281 L1.46406,2.61785 C1.35299,2.59978 1.23894,2.63663 1.15934,2.71633 Z M1.05818,8.6028 C1.13988,8.5212 1.25933,8.4907 1.36989,8.5232 L3.2079,9.0638 C3.01993,9.393 2.83027,9.7566 2.64111,10.1502 L1.10182,9.0847 C0.94032,8.9728 0.91915,8.7418 1.05818,8.6028 Z M4.91545,12.8983 C5.0282,13.0611 5.2595,13.0797 5.3974,12.9419 C5.4788,12.8603 5.5093,12.7408 5.4768,12.6302 L4.93633,10.7922 C4.60754,10.9798 4.24379,11.1696 3.84988,11.3589 L4.91545,12.8983 Z M11.6844,6.2931 C11.7843,6.1932 11.9459,6.1931 12.0459,6.2931 C12.1458,6.3931 12.1457,6.5549 12.0459,6.6549 L11.0971,7.6035 L10.996,6.9816 L11.6844,6.2931 Z M11.2837,12.8408 C11.3633,12.7612 11.4002,12.6471 11.3821,12.5358 L10.2972,5.8723 L7.6512,8.5184 L10.7509,12.7986 C10.878,12.9743 11.1316,12.9929 11.2837,12.8408 Z M6.1346,9.3119 C5.8532,9.5933 5.4414,9.8971 4.91068,10.2151 C4.22074,10.6282 3.40426,11.0196 2.66778,11.3324 C2.98908,10.5759 3.38778,9.7462 3.80985,9.0484 C4.11857,8.5376 4.4141,8.1396 4.68826,7.8656 C7.1372,5.4225 8.569,3.9868 9.4276,3.12579 L9.4283,3.12505 L9.4284,3.12503 C10.5505,1.99983 10.6933,1.85668 10.8486,1.72891 C10.8713,1.71032 10.8942,1.69205 10.9204,1.67113 L10.9204,1.67106 L10.9205,1.67103 L10.9429,1.65315 C11.3633,1.62628 11.7335,1.75113 11.9912,2.00881 C12.2488,2.26649 12.3738,2.63673 12.3469,3.05711 L12.3296,3.07879 L12.3296,3.07883 L12.3294,3.07902 C12.3083,3.10549 12.2898,3.12859 12.2711,3.15142 C12.1427,3.30749 11.9989,3.45088 10.8748,4.5719 L10.8748,4.57196 L10.8747,4.5721 L10.8741,4.57265 C10.0132,5.4312 8.5777,6.8628 6.1346,9.3119 Z M12.3528,1.64725 C12.5576,1.8521 12.7027,2.10339 12.7844,2.38524 C13.0656,1.83083 13.1219,1.33154 12.8952,1.10473 C12.6081,0.81778 11.9849,1.02792 11.6149,1.21559 C11.8967,1.29729 12.1479,1.44251 12.3528,1.64725 Z M8.0685,5.57 L7.3454,6.293 C7.2455,6.3929 7.2455,6.5548 7.3454,6.6547 C7.4453,6.7545 7.6071,6.7544 7.7071,6.6547 L8.4301,5.9316 C8.5299,5.8318 8.5299,5.6699 8.4301,5.57 C8.3302,5.4701 8.1684,5.4701 8.0685,5.57 Z M8.7915,4.8469 L9.5149,4.12359 C9.6148,4.02372 9.7766,4.02372 9.8765,4.12359 C9.9764,4.22347 9.9764,4.38537 9.8765,4.48524 L9.1532,5.2085 C9.0533,5.3083 8.8915,5.3083 8.7915,5.2085 C8.6917,5.1087 8.6917,4.94677 8.7915,4.8469 Z" id="Shape"></path>
        </g>
    </g>
</svg>