<?xml version="1.0" encoding="utf-8"?>
<!-- Generator: Adobe Illustrator 23.0.2, SVG Export Plug-In . SVG Version: 6.00 Build 0)  -->
<svg version="1.1" id="Ebene_1" xmlns="http://www.w3.org/2000/svg" xmlns:xlink="http://www.w3.org/1999/xlink" x="0px" y="0px"
	 viewBox="0 0 30 30" style="enable-background:new 0 0 30 30;" xml:space="preserve">
<style type="text/css">
	.st0{fill:#F9B500;}
	.st1{fill:#B3B3B3;}
</style>
<g>
	<path d="M12.58,23.41c-1.4,0-2.54,1.14-2.54,2.54c0,1.4,1.14,2.54,2.54,2.54c1.4,0,2.54-1.14,2.54-2.54
		C15.12,24.55,13.98,23.41,12.58,23.41z M12.58,27.08c-0.62,0-1.12-0.5-1.12-1.12c0-0.62,0.5-1.12,1.12-1.12s1.12,0.5,1.12,1.12
		C13.7,26.57,13.2,27.08,12.58,27.08z"/>
	<path d="M21.5,23.41c-1.4,0-2.54,1.14-2.54,2.54c0,1.4,1.14,2.54,2.54,2.54c1.4,0,2.54-1.14,2.54-2.54
		C24.04,24.55,22.9,23.41,21.5,23.41z M21.5,27.08c-0.62,0-1.12-0.5-1.12-1.12c0-0.62,0.5-1.12,1.12-1.12s1.12,0.5,1.12,1.12
		C22.62,26.57,22.12,27.08,21.5,27.08z"/>
	<path d="M29.05,6.86c-0.27-0.33-0.67-0.52-1.1-0.52H5.84L5.39,4.17C5.3,3.72,4.99,3.34,4.57,3.16L1.45,1.81
		C1.09,1.65,0.68,1.82,0.52,2.18C0.36,2.54,0.53,2.95,0.89,3.11L4,4.46l3.43,16.67c0.14,0.66,0.72,1.13,1.39,1.13h17
		c0.39,0,0.71-0.32,0.71-0.71s-0.32-0.71-0.71-0.71h-17l-0.42-2.03h17.55c0.67,0,1.25-0.48,1.39-1.13l1.99-9.64
		C29.42,7.63,29.32,7.2,29.05,6.86z M25.96,17.4H8.12L6.13,7.76l21.81,0L25.96,17.4z"/>
</g>
</svg>
