<?xml version="1.0" encoding="UTF-8"?>
<svg width="25px" height="19px" viewBox="0 0 25 19" version="1.1" xmlns="http://www.w3.org/2000/svg" xmlns:xlink="http://www.w3.org/1999/xlink">
    <!-- Generator: sketchtool 52.5 (67469) - http://www.bohemiancoding.com/sketch -->
    <title>D36B138A-2E67-4E29-970B-1BF7674C1621</title>
    <desc>Created with sketchtool.</desc>
    <g id="Page-1" stroke="none" stroke-width="1" fill="none" fill-rule="evenodd">
        <g id="desktop-menu-angemeldet" transform="translate(-1265.000000, -591.000000)" fill="#000000">
            <path d="M1288.4375,591 L1266.5625,591 C1266.13932,591 1265.77311,591.156683 1265.46387,591.470054 C1265.15462,591.783421 1265,592.154513 1265,592.583333 L1265,608.416667 C1265,608.845488 1265.15462,609.216578 1265.46387,609.529948 C1265.77311,609.843318 1266.13932,610 1266.5625,610 L1288.4375,610 C1288.86068,610 1289.22689,609.843318 1289.53613,609.529948 C1289.84538,609.216578 1290,608.845488 1290,608.416667 L1290,592.583333 C1290,592.154513 1289.84538,591.783421 1289.53613,591.470054 C1289.22689,591.156683 1288.86068,591 1288.4375,591 Z M1273.88672,602.132812 L1277.5,604.606771 L1281.11328,602.132812 L1287.31445,608.416667 L1267.68555,608.416667 L1273.88672,602.132812 Z M1266.5625,607.278646 L1266.5625,597.085938 L1272.56836,601.242188 L1266.5625,607.278646 Z M1282.43164,601.192708 L1288.4375,596.986979 L1288.4375,607.278646 L1282.43164,601.192708 Z M1288.4375,592.583333 L1288.4375,595.15625 L1288.38867,595.106771 L1277.5,602.726562 L1266.5625,595.15625 L1266.5625,592.583333 L1288.4375,592.583333 Z" id="Fill-1-Copy"></path>
        </g>
    </g>
</svg>