<?xml version="1.0" encoding="UTF-8"?>
<svg width="64px" height="63px" viewBox="0 0 64 63" version="1.1" xmlns="http://www.w3.org/2000/svg" xmlns:xlink="http://www.w3.org/1999/xlink">
    <!-- Generator: sketchtool 52.5 (67469) - http://www.bohemiancoding.com/sketch -->
    <title>0ADB3203-8341-4BDA-908F-835F0BC93E42@2x</title>
    <desc>Created with sketchtool.</desc>
    <g id="Page-1" stroke="none" stroke-width="1" fill="none" fill-rule="evenodd">
        <g id="Artboard" transform="translate(-689.000000, -4483.000000)" fill="#FBB603">
            <g id="Group-2" transform="translate(689.000000, 4483.000000)">
                <path d="M11.99925,0 L11.99925,3.9414375 L0,3.9414375 L0,63 L64,63 L64,3.9414375 L35.9977501,3.9414375 L35.9977501,0 L11.99925,0 Z M35.9977501,7.8789375 L60.0042497,7.8789375 L60.0042497,59.0625 L3.99975002,59.0625 L3.99975002,7.8789375 L11.99925,7.8789375 L11.99925,31.5 L24.0064996,19.6875 L35.9977501,31.5 L35.9977501,7.8789375 Z" id="Fill-1"></path>
                <polygon id="Fill-2" points="12.039604 54.81 43.7227723 54.81 43.7227723 51.03 12.039604 51.03"></polygon>
                <polygon id="Fill-3" points="12.039604 47.25 51.960396 47.25 51.960396 43.47 12.039604 43.47"></polygon>
                <polygon id="Fill-4" points="12.039604 39.06 51.960396 39.06 51.960396 35.28 12.039604 35.28"></polygon>
                <polygon id="Fill-5" points="43.7227723 31.5 51.960396 31.5 51.960396 27.72 43.7227723 27.72"></polygon>
                <polygon id="Fill-6" points="43.7227723 23.31 51.960396 23.31 51.960396 19.53 43.7227723 19.53"></polygon>
            </g>
        </g>
    </g>
</svg>