<?xml version="1.0" encoding="UTF-8"?>
<svg width="66px" height="66px" viewBox="0 0 66 66" version="1.1" xmlns="http://www.w3.org/2000/svg" xmlns:xlink="http://www.w3.org/1999/xlink">
    <!-- Generator: sketchtool 52.5 (67469) - http://www.bohemiancoding.com/sketch -->
    <title>040FF9BA-B510-4FB5-9BDA-0C2B76545051@2x</title>
    <desc>Created with sketchtool.</desc>
    <g id="Page-1" stroke="none" stroke-width="1" fill="none" fill-rule="evenodd">
        <g id="Artboard" transform="translate(-267.000000, -4482.000000)" fill="#FBB603">
            <g id="Group" transform="translate(267.000000, 4482.000000)">
                <polygon id="Fill-1" points="20.4787234 49.6170213 28.6702128 49.6170213 28.6702128 24.964539 32.7659574 24.964539 24.5744681 12.6382979 16.3829787 24.964539 20.4787234 24.964539"></polygon>
                <polygon id="Fill-2" points="37.3297872 49.6170213 45.5212766 49.6170213 45.5212766 24.964539 49.6170213 24.964539 41.4255319 12.6382979 33.2340426 24.964539 37.3297872 24.964539"></polygon>
                <polygon id="Fill-3" points="12.6382979 57.5744681 53.8297872 57.5744681 53.8297872 53.3617021 12.6382979 53.3617021"></polygon>
                <path d="M61.875,59.8125 C61.875,60.946875 60.946875,61.875 59.8125,61.875 L6.1875,61.875 C5.053125,61.875 4.125,60.946875 4.125,59.8125 L4.125,6.1875 C4.125,5.053125 5.053125,4.125 6.1875,4.125 L59.8125,4.125 C60.946875,4.125 61.875,5.053125 61.875,6.1875 L61.875,59.8125 Z M59.8125,0 L6.1875,0 C2.78025,0 0,2.776125 0,6.1875 L0,59.8125 C0,63.223875 2.78025,66 6.1875,66 L59.8125,66 C63.228,66 66,63.223875 66,59.8125 L66,6.1875 C66,2.776125 63.228,0 59.8125,0 Z" id="Fill-4"></path>
            </g>
        </g>
    </g>
</svg>