<?xml version="1.0" encoding="UTF-8"?>
<svg width="18px" height="14px" viewBox="0 0 18 14" version="1.1" xmlns="http://www.w3.org/2000/svg" xmlns:xlink="http://www.w3.org/1999/xlink">
    <!-- Generator: Sketch 51.3 (57544) - http://www.bohemiancoding.com/sketch -->
    <title>twitter</title>
    <desc>Created with Sketch.</desc>
    <defs></defs>
    <g id="Page-1" stroke="none" stroke-width="1" fill="none" fill-rule="evenodd">
        <g id="about_1" transform="translate(-166.000000, -4671.000000)" fill="#00C2D3" fill-rule="nonzero">
            <g id="Group-5" transform="translate(166.000000, 4592.000000)">
                <path d="M17.9789801,80.667572 C17.9531703,80.6385263 17.9105841,80.6286684 17.874266,80.6445115 C17.3361317,80.8724758 16.7699753,81.0363636 16.1868582,81.1331824 C16.8059247,80.6885201 17.2671827,80.0727524 17.503711,79.3666792 C17.5151411,79.3328807 17.5033423,79.2959135 17.4743985,79.2739092 C17.4452703,79.2519049 17.4048964,79.2490884 17.3730028,79.2672199 C16.6757695,79.6620646 15.9206485,79.9403747 15.1275502,80.0947567 C14.4247863,79.3983654 13.4434608,79 12.4278452,79 C10.3623238,79 8.6821058,80.6043757 8.6821058,82.5764869 C8.6821058,82.8150132 8.7062564,83.0512511 8.75418889,83.2806237 C5.89335693,83.1119829 3.21835553,81.8005281 1.39950207,79.6703382 C1.38088214,79.64851 1.35267572,79.6363636 1.3231788,79.6391802 C1.29386624,79.6412926 1.26768773,79.6571357 1.25293928,79.6812524 C0.921098992,80.224846 0.745776709,80.8467748 0.745776709,81.4794417 C0.745776709,82.5759588 1.26750338,83.6011819 2.15591356,84.2776814 C1.69852703,84.2252232 1.25183314,84.0877405 0.849015909,83.874211 C0.821915619,83.8596002 0.788178523,83.8597762 0.761078233,83.8747391 C0.733977944,83.889526 0.716832862,83.9169873 0.716095439,83.9469131 L0.715726728,83.992682 C0.715726728,85.567484 1.80250366,86.9502326 3.34869502,87.4093298 C2.94145325,87.471998 2.51890996,87.4677732 2.10355654,87.3920785 C2.07295349,87.3866214 2.04087559,87.3966554 2.01985904,87.4191877 C1.99902685,87.4417201 1.99202133,87.4732302 2.00160783,87.5017478 C2.46526245,88.8836162 3.75354017,89.8526845 5.25308954,89.973444 C4.00223603,90.84851 2.52370321,91.3095436 0.961472894,91.3095436 C0.673693625,91.3095436 0.383886444,91.2931724 0.0999786461,91.2613102 C0.0594203892,91.2569093 0.0192308438,91.2799698 0.00521980956,91.317113 C-0.00879122463,91.3546083 0.00614158813,91.3965045 0.0411691736,91.4178046 C1.73171106,92.4530617 3.68643469,93 5.69425276,93 C12.261925,93 16.1864895,87.9059223 16.1864895,82.9811895 C16.1864895,82.8440588 16.1837241,82.7076323 16.1780091,82.5715579 C16.8864881,82.0767258 17.4946776,81.4709921 17.9850638,80.7698479 C18.0070021,80.7385138 18.0046055,80.6967937 17.9789801,80.667572 Z" id="twitter"></path>
            </g>
        </g>
    </g>
</svg>