<svg width="18" height="19" viewBox="0 0 18 19" fill="none" xmlns="http://www.w3.org/2000/svg">
<path d="M9.00306 8.96315C11.4752 8.96315 13.4846 6.95371 13.4846 4.48158C13.4846 2.00944 11.4752 0 9.00306 0C6.53092 0 4.52148 2.00944 4.52148 4.48158C4.52148 6.95371 6.53092 8.96315 9.00306 8.96315ZM9.00306 0.998109C10.9266 0.998109 12.4931 2.56468 12.4931 4.48819C12.4931 6.4117 10.9266 7.97826 9.00306 7.97826C7.07955 7.97826 5.51298 6.4117 5.51298 4.48819C5.51298 2.56468 7.07955 0.998109 9.00306 0.998109Z" fill="white"/>
<path d="M15.9697 12.3472C14.4032 10.6881 12.05 9.84863 8.97637 9.84863C0.10576 9.84863 0 17.5228 0 17.5955V18.0913H17.9263L17.9527 17.622C17.9527 17.503 18.0916 14.5946 15.9697 12.3472ZM1.02455 17.0998C1.19641 15.5266 2.26062 10.8401 8.97637 10.8401C11.7592 10.8401 13.8678 11.5738 15.236 13.0148C16.6043 14.4558 16.8885 16.2603 16.9414 17.0998H1.02455Z" fill="white"/>
</svg>
