<svg width="18" height="19" viewBox="0 0 18 19" fill="none" xmlns="http://www.w3.org/2000/svg">
<path d="M9.00111 8.96315C11.4732 8.96315 13.4827 6.95371 13.4827 4.48158C13.4827 2.00944 11.4732 0 9.00111 0C6.52897 0 4.51953 2.00944 4.51953 4.48158C4.51953 6.95371 6.52897 8.96315 9.00111 8.96315ZM9.00111 0.998109C10.9246 0.998109 12.4912 2.56468 12.4912 4.48819C12.4912 6.4117 10.9246 7.97826 9.00111 7.97826C7.0776 7.97826 5.51103 6.4117 5.51103 4.48819C5.51103 2.56468 7.0776 0.998109 9.00111 0.998109Z" fill="black"/>
<path d="M15.9697 12.3475C14.4032 10.6883 12.05 9.84888 8.97637 9.84888C0.10576 9.84888 0 17.5231 0 17.5958V18.0915H17.9263L17.9527 17.6222C17.9527 17.5033 18.0916 14.5949 15.9697 12.3475ZM1.02455 17.1C1.19641 15.5269 2.26062 10.8404 8.97637 10.8404C11.7592 10.8404 13.8678 11.5741 15.236 13.0151C16.6043 14.456 16.8885 16.2606 16.9414 17.1H1.02455Z" fill="black"/>
</svg>
