<svg width="106" height="95" viewBox="0 0 106 95" fill="none" xmlns="http://www.w3.org/2000/svg">
<path d="M27.0139 4.77251C26.7794 4.91832 26.7075 5.22663 26.8533 5.46113L29.2295 9.28264C29.3753 9.51715 29.6836 9.58905 29.9181 9.44324C30.1526 9.29742 30.2245 8.98911 30.0787 8.75461L27.9666 5.35771L31.3634 3.24558C31.598 3.09977 31.6699 2.79146 31.524 2.55695C31.3782 2.32245 31.0699 2.25054 30.8354 2.39636L27.0139 4.77251ZM27.1644 5.68405C44.7559 9.78659 61.9894 19.569 72.2924 34.4946C82.5781 49.3949 85.9996 69.4811 75.879 94.3196L76.8051 94.697C87.0406 69.5764 83.6106 49.1303 73.1154 33.9265C62.6376 18.7478 45.1609 8.85421 27.3915 4.71018L27.1644 5.68405Z" fill="black"/>
</svg>
