<svg width="37" height="38" viewBox="0 0 37 38" fill="none" xmlns="http://www.w3.org/2000/svg">
<circle cx="18.6545" cy="18.7552" r="18.2751" fill="white"/>
<path d="M18.6477 28.3737C18.3772 28.3737 18.1068 28.2754 17.9057 28.0929C17.129 27.4048 16.38 26.7589 15.7212 26.1902C13.7864 24.5193 12.1082 23.073 10.9501 21.6548C9.63946 20.0611 9.03613 18.5516 9.03613 16.9087C9.03613 15.308 9.57704 13.8336 10.5618 12.7524C11.5604 11.6572 12.9196 11.0604 14.4106 11.0604C15.5201 11.0604 16.5395 11.4185 17.4341 12.1135C17.8849 12.4646 18.294 12.8999 18.6546 13.4054C19.0152 12.8999 19.4244 12.4646 19.8751 12.1135C20.7697 11.4115 21.7891 11.0604 22.8987 11.0604C24.3827 11.0604 25.7489 11.6642 26.7475 12.7524C27.7322 13.8336 28.2731 15.308 28.2731 16.9087C28.2731 18.5516 27.6698 20.0611 26.3661 21.6478C25.201 23.073 23.5297 24.5123 21.595 26.1832C20.9362 26.7519 20.1803 27.3978 19.4036 28.0929C19.1886 28.2754 18.9181 28.3737 18.6477 28.3737ZM14.4036 12.1978C13.2386 12.1978 12.1637 12.6682 11.387 13.5247C10.5965 14.3953 10.1596 15.5959 10.1596 16.9087C10.1596 18.2918 10.6658 19.5345 11.81 20.9246C12.9127 22.2726 14.5493 23.6838 16.4494 25.3197H16.4563C17.122 25.8954 17.871 26.5413 18.6546 27.2363C19.4452 26.5413 20.1941 25.8954 20.8599 25.3197C22.76 23.6838 24.3966 22.2726 25.4992 20.9246C26.6365 19.5345 27.1497 18.2918 27.1497 16.9087C27.1497 15.5959 26.7128 14.3953 25.9222 13.5247C25.1455 12.6682 24.0707 12.1978 22.9056 12.1978C22.0526 12.1978 21.269 12.4716 20.5755 13.0122C19.9584 13.4966 19.5284 14.1074 19.2787 14.5357C19.147 14.7534 18.9181 14.8868 18.6685 14.8868C18.4188 14.8868 18.19 14.7534 18.0582 14.5357C17.8086 14.1074 17.3786 13.4966 16.7614 13.0122C16.0472 12.4716 15.2566 12.1978 14.4036 12.1978Z" fill="black"/>
</svg>