<?xml version="1.0" encoding="UTF-8"?>
<svg width="27px" height="26px" viewBox="0 0 27 26" version="1.1" xmlns="http://www.w3.org/2000/svg" xmlns:xlink="http://www.w3.org/1999/xlink">
    <!-- Generator: Sketch 52.2 (67145) - http://www.bohemiancoding.com/sketch -->
    <title>heart</title>
    <desc>Created with Sketch.</desc>
    <defs>
        <polygon id="path-1" points="0 0 27 0 27 26 0 26"></polygon>
    </defs>
    <g id="Page-1" stroke="none" stroke-width="1" fill="none" fill-rule="evenodd">
        <g id="heart">
            <mask id="mask-2" fill="white">
                <use xlink:href="#path-1"></use>
            </mask>
            <g id="path-1"></g>
            <path d="M2.13081015,7.56175807 C2.20080249,15.2331993 11.2036428,21.8339547 13.5103467,23.3994898 C15.8194851,21.8824193 24.8010234,15.4755224 24.8697985,7.56303345 C24.8351066,4.61689395 22.5369235,2.23192387 19.7177539,2.23192387 C16.8766737,2.23192387 14.5651008,4.65324242 14.5651008,7.62999117 L12.4348992,7.62999117 C12.4348992,4.65324242 10.1239349,2.23192387 7.2828547,2.23192387 C4.46368514,2.23192387 2.16611064,4.61625625 2.13081015,7.56175807 Z M13.4890447,26 L12.9583202,25.670313 C12.4318561,25.3450898 0.130246607,17.6079663 0.00121725801,7.62999117 L0,7.62999117 C0,7.60639655 0.000608629007,7.58280192 0.000608629007,7.55856961 C0.000608629007,7.52923575 0,7.50053959 0,7.47120573 L0.00182588702,7.47120573 C0.0827735449,3.33704503 3.31763672,0 7.2828547,0 C9.91152338,0 12.2194446,1.46669283 13.5,3.66099284 C14.7805554,1.46669283 17.0884766,0 19.7177539,0 C23.6823633,0 26.9178351,3.33704503 26.9987827,7.47120573 L27,7.47120573 L26.9993914,7.62999117 C26.8727965,17.9293633 14.5529282,25.3680467 14.0258555,25.6811537 L13.4890447,26 Z" id="Fill-1" fill="#000000" fill-rule="nonzero" opacity="0.6" mask="url(#mask-2)"></path>
        </g>
    </g>
</svg>