<?xml version="1.0" encoding="UTF-8"?>
<svg width="24px" height="22px" viewBox="0 0 24 22" version="1.1" xmlns="http://www.w3.org/2000/svg" xmlns:xlink="http://www.w3.org/1999/xlink">
    <!-- Generator: sketchtool 52.5 (67469) - http://www.bohemiancoding.com/sketch -->
    <title>4DD9BB08-48D5-400B-B5BA-8181B9915E59</title>
    <desc>Created with sketchtool.</desc>
    <g id="Page-1" stroke="none" stroke-width="1" fill="none" fill-rule="evenodd">
        <g id="desktop-menu-angemeldet" transform="translate(-1155.000000, -159.000000)" fill="#F9B500" fill-rule="nonzero">
            <path d="M1177.04999,161.928684 C1175.79071,160.669315 1174.11666,159.976294 1172.33569,159.976294 C1170.55447,159.976294 1168.88023,160.669315 1167.62051,161.928684 L1166.99996,162.549375 L1166.37941,161.928684 C1165.12006,160.669315 1163.44544,159.976294 1161.6646,159.976294 C1159.88383,159.976294 1158.20908,160.669315 1156.94986,161.928684 C1154.35005,164.528809 1154.35005,168.759324 1156.94986,171.358436 L1166.26572,180.674563 C1166.41804,180.827455 1166.60766,180.921066 1166.80577,180.957104 C1166.87221,180.970214 1166.93903,180.976294 1167.00597,180.976294 C1167.26951,180.976294 1167.53349,180.875781 1167.73419,180.674563 L1177.05005,171.358436 C1179.64999,168.759324 1179.64999,164.528809 1177.04999,161.928684 Z M1175.59355,169.902029 L1167.00002,178.495874 L1158.4063,169.902029 C1156.60963,168.105572 1156.60963,165.182624 1158.4063,163.385218 C1159.27658,162.515047 1160.43408,162.036418 1161.6646,162.036418 C1162.89525,162.036418 1164.05244,162.515047 1164.9224,163.385218 L1166.27174,164.73503 C1166.65852,165.121252 1167.3419,165.121252 1167.72862,164.73503 L1169.07745,163.385218 C1169.94748,162.515047 1171.10472,162.036418 1172.33575,162.036418 C1173.56641,162.036418 1174.72353,162.515047 1175.59355,163.385218 C1177.39041,165.182624 1177.39041,168.105509 1175.59355,169.902029 Z" id="heart"></path>
        </g>
    </g>
</svg>