<?xml version="1.0" encoding="UTF-8"?>
<svg width="24px" height="29px" viewBox="0 0 24 29" version="1.1" xmlns="http://www.w3.org/2000/svg" xmlns:xlink="http://www.w3.org/1999/xlink">
    <!-- Generator: sketchtool 52.2 (67145) - http://www.bohemiancoding.com/sketch -->
    <title>60756A12-78C7-49E9-8C2D-7B40C96995F2</title>
    <desc>Created with sketchtool.</desc>
    <defs>
        <polygon id="path-1" points="0 5.47169811e-05 23.7409091 5.47169811e-05 23.7409091 28.7039811 0 28.7039811"></polygon>
    </defs>
    <g id="Page-1" stroke="none" stroke-width="1" fill="none" fill-rule="evenodd">
        <g id="HOMEPAGE---DESKTOP---ACCOUNT" transform="translate(-1077.000000, -212.000000)">
            <g id="Group-8" transform="translate(1025.000000, 78.000000)">
                <g id="welt" transform="translate(52.000000, 134.000000)">
                    <mask id="mask-2" fill="white">
                        <use xlink:href="#path-1"></use>
                    </mask>
                    <g id="Clip-2"></g>
                    <path d="M4.97727273,18.8232434 C2.95472727,16.7937906 1.84090909,14.0962434 1.84090909,11.2279792 C1.84090909,8.66886604 2.73218182,6.25037547 4.35763636,4.31722453 L5.99890909,5.96365849 C4.84309091,7.40763962 4.14763636,9.2368283 4.14763636,11.2279792 C4.14763636,15.8750925 7.91618182,19.6554887 12.5481818,19.6554887 C14.5336364,19.6554887 16.3570909,18.9573 17.7965455,17.7983943 L19.4361818,19.4431868 C15.234,22.9926774 8.93236364,22.7913189 4.97727273,18.8232434 Z M12.5481818,4.64716792 C16.1656364,4.64716792 19.1083636,7.59914906 19.1083636,11.2279792 C19.1083636,12.7097151 18.612,14.0738094 17.7850909,15.1752623 C17.4136364,15.6693566 16.9761818,16.108734 16.4830909,16.4808094 C15.3856364,17.3103189 14.0252727,17.8087906 12.5481818,17.8087906 C8.93127273,17.8087906 5.98854545,14.8568094 5.98854545,11.2279792 C5.98854545,9.7462434 6.48545455,8.38214906 7.31181818,7.28069623 C7.68327273,6.78660189 8.12072727,6.34722453 8.61381818,5.97514906 C9.71127273,5.14509245 11.0710909,4.64716792 12.5481818,4.64716792 Z M19.098,16.4923 C20.2538182,15.048866 20.9498182,13.2196774 20.9498182,11.2279792 C20.9498182,6.58141321 17.1807273,2.80046981 12.5481818,2.80046981 C10.5632727,2.80046981 8.73927273,3.49811132 7.30036364,4.65756415 L2.65745455,5.47169811e-05 L1.35545455,1.30560189 L3.05618182,3.01167736 C1.08545455,5.29665849 0,8.17586604 0,11.2279792 C0,14.5903377 1.30527273,17.7518849 3.67527273,20.1287906 C5.92036364,22.3814887 8.81127273,23.5869038 11.7556364,23.7723943 L11.7556364,26.8573377 L7.14654545,26.8573377 L7.14654545,28.7040358 L17.9503636,28.7040358 L17.9503636,26.8573377 L13.5970909,26.8573377 L13.5970909,23.7592623 C16.164,23.545866 18.672,22.5379792 20.7376364,20.748734 L22.4394545,22.4559038 L23.7409091,21.1498094 L19.098,16.4923 Z" id="Fill-1" fill="#F9B500" mask="url(#mask-2)"></path>
                </g>
            </g>
        </g>
    </g>
</svg>