<svg width="320" height="412" viewBox="0 0 320 412" fill="none" xmlns="http://www.w3.org/2000/svg">
<rect width="320" height="412" fill="white"/>
<rect width="320" height="412" fill="#0D1D29"/>
<path opacity="0.24" d="M224.837 176.675C224.837 177.986 223.034 179.056 220.822 179.056C218.611 179.056 216.808 177.986 216.808 176.675C216.808 175.363 218.611 174.293 220.822 174.293C223.034 174.293 224.837 175.363 224.837 176.675Z" fill="url(#paint0_linear)"/>
<ellipse cx="54.6175" cy="235.096" rx="1.34797" ry="1.31817" fill="white" fill-opacity="0.8"/>
<ellipse cx="161.321" cy="272.806" rx="1.34797" ry="1.31817" fill="white" fill-opacity="0.8"/>
<ellipse cx="187.295" cy="242.18" rx="1.34797" ry="1.31817" fill="white" fill-opacity="0.8"/>
<ellipse cx="40.8616" cy="169.001" rx="1.34797" ry="1.31817" fill="white" fill-opacity="0.8"/>
<ellipse cx="28.3753" cy="67.4246" rx="1.34797" ry="1.31817" fill="white" fill-opacity="0.8"/>
<ellipse cx="170.268" cy="188.661" rx="1.34797" ry="1.31817" fill="white" fill-opacity="0.8"/>
<ellipse cx="82.4281" cy="281.686" rx="1.34797" ry="1.31817" fill="white" fill-opacity="0.8"/>
<ellipse cx="148.873" cy="225.44" rx="1.34797" ry="1.31817" fill="white" fill-opacity="0.8"/>
<ellipse cx="89.5628" cy="191.053" rx="1.34797" ry="1.31817" fill="white" fill-opacity="0.8"/>
<ellipse cx="112.157" cy="120.207" rx="1.34797" ry="1.31817" fill="white" fill-opacity="0.8"/>
<ellipse cx="187.348" cy="75.3182" rx="1.34797" ry="1.31817" fill="white" fill-opacity="0.8"/>
<ellipse cx="225.012" cy="236.206" rx="1.34797" ry="1.31817" fill="white" fill-opacity="0.8"/>
<ellipse cx="271.348" cy="75.3182" rx="1.34797" ry="1.31817" fill="white" fill-opacity="0.8"/>
<ellipse cx="313.295" cy="105.106" rx="1.34797" ry="1.31817" fill="white" fill-opacity="0.8"/>
<ellipse cx="208.862" cy="165.724" rx="1.34797" ry="1.31817" fill="white" fill-opacity="0.8"/>
<ellipse cx="285.348" cy="147.318" rx="1.34797" ry="1.31817" fill="white" fill-opacity="0.8"/>
<ellipse cx="251.348" cy="168.318" rx="1.34797" ry="1.31817" fill="white" fill-opacity="0.8"/>
<ellipse cx="282.348" cy="207.318" rx="1.34797" ry="1.31817" fill="white" fill-opacity="0.8"/>
<ellipse cx="168.565" cy="138.419" rx="1.34797" ry="1.31817" fill="white" fill-opacity="0.8"/>
<ellipse cx="248.348" cy="12.3182" rx="1.34797" ry="1.31817" fill="white" fill-opacity="0.8"/>
<ellipse cx="43.6995" cy="104.014" rx="1.34797" ry="1.31817" fill="white" fill-opacity="0.8"/>
<ellipse cx="8.34797" cy="144.764" rx="1.34797" ry="1.31817" fill="white" fill-opacity="0.8"/>
<ellipse cx="66.348" cy="361.257" rx="1.34797" ry="1.31817" fill="white" fill-opacity="0.8"/>
<ellipse cx="139.348" cy="390.318" rx="1.34797" ry="1.31817" fill="white" fill-opacity="0.8"/>
<ellipse cx="131.348" cy="321.318" rx="1.34797" ry="1.31817" fill="white" fill-opacity="0.8"/>
<ellipse cx="38.348" cy="295.318" rx="1.34797" ry="1.31817" fill="white" fill-opacity="0.8"/>
<ellipse cx="206.348" cy="356.446" rx="1.34797" ry="1.31817" fill="white" fill-opacity="0.8"/>
<ellipse cx="254.348" cy="393.318" rx="1.34797" ry="1.31817" fill="white" fill-opacity="0.8"/>
<ellipse cx="297.348" cy="371.841" rx="1.34797" ry="1.31817" fill="white" fill-opacity="0.8"/>
<ellipse cx="274.348" cy="318.921" rx="1.34797" ry="1.31817" fill="white" fill-opacity="0.8"/>
<ellipse cx="310.348" cy="252.53" rx="1.34797" ry="1.31817" fill="white" fill-opacity="0.8"/>
<ellipse cx="28.348" cy="225.588" rx="1.34797" ry="1.31817" fill="white" fill-opacity="0.8"/>
<ellipse cx="114.647" cy="64.6941" rx="1.34797" ry="1.31817" fill="white" fill-opacity="0.8"/>
<ellipse cx="82.348" cy="78.3182" rx="1.34797" ry="1.31817" fill="white" fill-opacity="0.8"/>
<ellipse cx="230.998" cy="112.752" rx="1.34797" ry="1.31817" fill="white" fill-opacity="0.8"/>
<defs>
<linearGradient id="paint0_linear" x1="217.261" y1="174.188" x2="221.003" y2="181.655" gradientUnits="userSpaceOnUse">
<stop stop-color="#311F5C"/>
<stop offset="1" stop-color="#2D1A53" stop-opacity="0"/>
</linearGradient>
</defs>
</svg>
