<svg width="1024" height="454" viewBox="0 0 1024 454" fill="none" xmlns="http://www.w3.org/2000/svg">
<rect width="1024" height="454" fill="#0D1D29"/>
<ellipse cx="68.6094" cy="352.443" rx="2.375" ry="2.41375" fill="white" fill-opacity="0.8"/>
<ellipse cx="293.375" cy="83.4089" rx="2.375" ry="2.41375" fill="white" fill-opacity="0.8"/>
<ellipse cx="760.375" cy="203.335" rx="2.375" ry="2.41375" fill="white" fill-opacity="0.8"/>
<ellipse cx="992.375" cy="306.999" rx="2.375" ry="2.41375" fill="white" fill-opacity="0.8"/>
<ellipse cx="706.375" cy="415.745" rx="2.375" ry="2.41375" fill="white" fill-opacity="0.8"/>
<ellipse cx="256.609" cy="421.495" rx="2.375" ry="2.41375" fill="white" fill-opacity="0.8"/>
<ellipse cx="44.375" cy="231.414" rx="2.375" ry="2.41375" fill="white" fill-opacity="0.8"/>
<ellipse cx="272.375" cy="267.414" rx="2.375" ry="2.41375" fill="white" fill-opacity="0.8"/>
<ellipse cx="117.609" cy="437.756" rx="2.375" ry="2.41375" fill="white" fill-opacity="0.8"/>
<ellipse cx="852.859" cy="97.9665" rx="2.375" ry="2.41375" fill="white" fill-opacity="0.8"/>
<ellipse cx="976.859" cy="159.892" rx="2.375" ry="2.41375" fill="white" fill-opacity="0.8"/>
<ellipse cx="886.375" cy="159.414" rx="2.375" ry="2.41375" fill="white" fill-opacity="0.8"/>
<ellipse cx="928.375" cy="229.414" rx="2.375" ry="2.41375" fill="white" fill-opacity="0.8"/>
<ellipse cx="852.375" cy="208.414" rx="2.375" ry="2.41375" fill="white" fill-opacity="0.8"/>
<ellipse cx="928.375" cy="299.414" rx="2.375" ry="2.41375" fill="white" fill-opacity="0.8"/>
<ellipse cx="776.375" cy="109.414" rx="2.375" ry="2.41375" fill="white" fill-opacity="0.8"/>
<ellipse cx="697.375" cy="92.4137" rx="2.375" ry="2.41375" fill="white" fill-opacity="0.8"/>
<ellipse cx="600.375" cy="116.414" rx="2.375" ry="2.41375" fill="white" fill-opacity="0.8"/>
<ellipse cx="625.375" cy="203.414" rx="2.375" ry="2.41375" fill="white" fill-opacity="0.8"/>
<ellipse cx="655.375" cy="234.414" rx="2.375" ry="2.41375" fill="white" fill-opacity="0.8"/>
<ellipse cx="588.375" cy="262.414" rx="2.375" ry="2.41375" fill="white" fill-opacity="0.8"/>
<ellipse cx="539.375" cy="175.414" rx="2.375" ry="2.41375" fill="white" fill-opacity="0.8"/>
<ellipse cx="435.375" cy="230.414" rx="2.375" ry="2.41375" fill="white" fill-opacity="0.8"/>
<ellipse cx="512.375" cy="282.414" rx="2.375" ry="2.41375" fill="white" fill-opacity="0.8"/>
<ellipse cx="529.375" cy="365.414" rx="2.375" ry="2.41375" fill="white" fill-opacity="0.8"/>
<ellipse cx="573.375" cy="349.414" rx="2.375" ry="2.41375" fill="white" fill-opacity="0.8"/>
<ellipse cx="451.375" cy="344.414" rx="2.375" ry="2.41375" fill="white" fill-opacity="0.8"/>
<ellipse cx="358.375" cy="425.352" rx="2.375" ry="2.41375" fill="white" fill-opacity="0.8"/>
<ellipse cx="320.375" cy="335.414" rx="2.375" ry="2.41375" fill="white" fill-opacity="0.8"/>
<ellipse cx="692.375" cy="164.414" rx="2.375" ry="2.41375" fill="white" fill-opacity="0.8"/>
<ellipse cx="234.68" cy="334.761" rx="2.375" ry="2.41375" fill="white" fill-opacity="0.8"/>
<ellipse cx="130.18" cy="271.793" rx="2.375" ry="2.41375" fill="white" fill-opacity="0.8"/>
<ellipse cx="169.988" cy="142.065" rx="2.375" ry="2.41375" fill="white" fill-opacity="0.8"/>
<ellipse cx="371.83" cy="400.414" rx="2.375" ry="2.41375" fill="white" fill-opacity="0.8"/>
<ellipse cx="702.031" cy="287.398" rx="2.375" ry="2.41375" fill="white" fill-opacity="0.8"/>
<ellipse cx="781.375" cy="334.414" rx="2.375" ry="2.41375" fill="white" fill-opacity="0.8"/>
<ellipse cx="825.375" cy="270.414" rx="2.375" ry="2.41375" fill="white" fill-opacity="0.8"/>
<ellipse cx="815.375" cy="390.414" rx="2.375" ry="2.41375" fill="white" fill-opacity="0.8"/>
<ellipse cx="789.375" cy="412.414" rx="2.375" ry="2.41375" fill="white" fill-opacity="0.8"/>
<ellipse cx="940.375" cy="365.414" rx="2.375" ry="2.41375" fill="white" fill-opacity="0.8"/>
<ellipse cx="848.375" cy="304.414" rx="2.375" ry="2.41375" fill="white" fill-opacity="0.8"/>
<ellipse cx="1000.38" cy="404.414" rx="2.375" ry="2.41375" fill="white" fill-opacity="0.8"/>
<ellipse cx="946.375" cy="79.4137" rx="2.375" ry="2.41375" fill="white" fill-opacity="0.8"/>
<ellipse cx="1006.38" cy="62.4138" rx="2.375" ry="2.41375" fill="white" fill-opacity="0.8"/>
<ellipse cx="997.375" cy="139.414" rx="2.375" ry="2.41375" fill="white" fill-opacity="0.8"/>
<ellipse cx="676.375" cy="32.4138" rx="2.375" ry="2.41375" fill="white" fill-opacity="0.8"/>
<ellipse cx="620.375" cy="97.4137" rx="2.375" ry="2.41375" fill="white" fill-opacity="0.8"/>
<ellipse cx="583.375" cy="67.4137" rx="2.375" ry="2.41375" fill="white" fill-opacity="0.8"/>
<ellipse cx="433.375" cy="40.4138" rx="2.375" ry="2.41375" fill="white" fill-opacity="0.8"/>
<ellipse cx="524.375" cy="114.414" rx="2.375" ry="2.41375" fill="white" fill-opacity="0.8"/>
<ellipse cx="340.375" cy="225.414" rx="2.375" ry="2.41375" fill="white" fill-opacity="0.8"/>
<ellipse cx="371.375" cy="273.414" rx="2.375" ry="2.41375" fill="white" fill-opacity="0.8"/>
<ellipse cx="213.375" cy="223.414" rx="2.375" ry="2.41375" fill="white" fill-opacity="0.8"/>
<ellipse cx="151.375" cy="374.414" rx="2.375" ry="2.41375" fill="white" fill-opacity="0.8"/>
<ellipse cx="456.375" cy="164.414" rx="2.375" ry="2.41375" fill="white" fill-opacity="0.8"/>
<ellipse cx="494.375" cy="418.414" rx="2.375" ry="2.41375" fill="white" fill-opacity="0.8"/>
<ellipse cx="665.375" cy="335.414" rx="2.375" ry="2.41375" fill="white" fill-opacity="0.8"/>
<ellipse cx="605.375" cy="407.414" rx="2.375" ry="2.41375" fill="white" fill-opacity="0.8"/>
<ellipse cx="269.375" cy="175.414" rx="2.375" ry="2.41375" fill="white" fill-opacity="0.8"/>
<ellipse cx="218.375" cy="97.4137" rx="2.375" ry="2.41375" fill="white" fill-opacity="0.8"/>
<ellipse cx="98.375" cy="198.414" rx="2.375" ry="2.41375" fill="white" fill-opacity="0.8"/>
<ellipse cx="49.375" cy="112.414" rx="2.375" ry="2.41375" fill="white" fill-opacity="0.8"/>
<ellipse cx="174.375" cy="40.4138" rx="2.375" ry="2.41375" fill="white" fill-opacity="0.8"/>
<ellipse cx="30.375" cy="424.414" rx="2.375" ry="2.41375" fill="white" fill-opacity="0.8"/>
<ellipse cx="379.375" cy="128.414" rx="2.375" ry="2.41375" fill="white" fill-opacity="0.8"/>
<ellipse cx="897.375" cy="438.414" rx="2.375" ry="2.41375" fill="white" fill-opacity="0.8"/>
</svg>
