<svg width="16" height="16" viewBox="0 0 16 16" fill="none" xmlns="http://www.w3.org/2000/svg">
<path d="M14.4353 3.85297C13.7435 2.66776 12.8051 1.72934 11.6198 1.03756C10.4346 0.345805 9.14022 0 7.73653 0C6.33295 0 5.0385 0.345805 3.85329 1.03756C2.6679 1.72924 1.72949 2.66765 1.03773 3.85297C0.345805 5.03836 0 6.33271 0 7.73632C0 9.30111 0.426391 10.7216 1.27928 11.9973C2.13213 13.2735 3.25027 14.217 4.63371 14.8281C4.60682 14.1096 4.6505 13.5153 4.76457 13.0452L5.7619 8.83428C5.59396 8.50513 5.51002 8.09582 5.51002 7.60535C5.51002 7.03466 5.65429 6.55785 5.94312 6.17496C6.23194 5.79214 6.58445 5.60077 7.00085 5.60077C7.33653 5.60077 7.59505 5.71156 7.77644 5.93313C7.95786 6.15481 8.04829 6.43348 8.04829 6.76933C8.04829 6.97736 8.00951 7.23097 7.93225 7.52981C7.85505 7.82869 7.75439 8.17453 7.63016 8.56744C7.50593 8.96021 7.41687 9.27436 7.36321 9.50921C7.26925 9.91877 7.34641 10.2697 7.59491 10.562C7.84337 10.854 8.17256 11.0003 8.58222 11.0003C9.30075 11.0003 9.88997 10.6007 10.3501 9.80166C10.8101 9.00233 11.04 8.03192 11.04 6.89035C11.04 6.01047 10.7563 5.29522 10.1887 4.74471C9.62119 4.19398 8.83047 3.91849 7.81634 3.91849C6.68162 3.91849 5.76317 4.28286 5.0614 5.01148C4.3596 5.74021 4.00871 6.61162 4.00871 7.62561C4.00871 8.23007 4.17997 8.73719 4.52242 9.14671C4.63656 9.281 4.67354 9.42537 4.63321 9.57995C4.61977 9.62027 4.59295 9.72097 4.55263 9.88204C4.51248 10.0431 4.48548 10.1474 4.47215 10.1943C4.41848 10.4092 4.29079 10.4764 4.08933 10.3957C3.5723 10.181 3.17936 9.80819 2.91082 9.27765C2.64218 8.7471 2.50782 8.13251 2.50782 7.43427C2.50782 6.98431 2.58004 6.53438 2.72446 6.08449C2.86873 5.63443 3.09379 5.19968 3.39927 4.77992C3.70493 4.36005 4.07091 3.98899 4.49737 3.66679C4.92366 3.34448 5.44249 3.08596 6.05362 2.8912C6.66475 2.69644 7.32281 2.59906 8.028 2.59906C8.98176 2.59906 9.83783 2.81058 10.5966 3.23366C11.3556 3.65677 11.9347 4.204 12.3343 4.8756C12.734 5.54725 12.9337 6.26585 12.9337 7.03141C12.9337 8.03869 12.7591 8.94525 12.41 9.75121C12.0608 10.557 11.5672 11.19 10.9291 11.6499C10.2911 12.11 9.56587 12.34 8.75303 12.34C8.3435 12.34 7.96072 12.2443 7.60465 12.053C7.24882 11.8615 7.00364 11.635 6.86939 11.373C6.56716 12.5615 6.38581 13.2702 6.32533 13.4984C6.19775 13.975 5.93588 14.5258 5.53959 15.1503C6.25819 15.3652 6.99013 15.4725 7.73558 15.4725C9.13916 15.4725 10.4336 15.1267 11.6189 14.4348C12.8042 13.7432 13.7426 12.8048 14.4342 11.6196C15.126 10.4341 15.4718 9.13966 15.4718 7.73618C15.4721 6.33271 15.1268 5.03819 14.4353 3.85297Z" fill="#1E0339"/>
</svg>
