<svg width="11" height="8" viewBox="0 0 11 8" fill="none" xmlns="http://www.w3.org/2000/svg">
<path d="M0.519531 3.47852C0.243389 3.47852 0.0195312 3.70237 0.0195312 3.97852C0.0195312 4.25466 0.243389 4.47852 0.519531 4.47852V3.47852ZM9.87309 4.33207C10.0683 4.13681 10.0683 3.82022 9.87309 3.62496L6.6911 0.442982C6.49584 0.24772 6.17926 0.24772 5.984 0.442982C5.78874 0.638244 5.78874 0.954826 5.984 1.15009L8.81242 3.97852L5.984 6.80694C5.78874 7.0022 5.78874 7.31879 5.984 7.51405C6.17926 7.70931 6.49584 7.70931 6.6911 7.51405L9.87309 4.33207ZM0.519531 4.47852H9.51953V3.47852H0.519531V4.47852Z" fill="white"/>
</svg>
