<?xml version="1.0" encoding="UTF-8"?>
<svg width="588px" height="588px" viewBox="0 0 588 588" version="1.1" xmlns="http://www.w3.org/2000/svg" xmlns:xlink="http://www.w3.org/1999/xlink">
    <!-- Generator: Sketch 51.2 (57519) - http://www.bohemiancoding.com/sketch -->
    <title>yes</title>
    <desc>Created with Sketch.</desc>
    <defs></defs>
    <g id="Page-1" stroke="none" stroke-width="1" fill="none" fill-rule="evenodd">
        <g id="shutterstock_761438497" transform="translate(-661.000000, -346.000000)" fill="#85BF43">
            <path d="M954.99,933.224 C876.667,933.224 803.032,902.724 747.649,847.341 C692.266,791.958 661.766,718.323 661.766,640 C661.766,561.677 692.266,488.042 747.649,432.659 C803.032,377.277 876.667,346.776 954.99,346.776 C1033.31,346.776 1106.95,377.277 1162.33,432.659 C1217.71,488.042 1248.21,561.677 1248.21,640 C1248.21,718.324 1217.71,791.958 1162.33,847.341 C1106.95,902.724 1033.31,933.224 954.99,933.224 Z M954.99,402.475 C824.018,402.475 717.465,509.028 717.465,640 C717.465,770.972 824.018,877.525 954.99,877.525 C1085.96,877.525 1192.52,770.972 1192.52,640 C1192.52,509.028 1085.96,402.475 954.99,402.475 Z M1065.23,522.484 C1078.62,509.087 1100.35,509.087 1113.74,522.484 C1127.14,535.882 1127.14,557.603 1113.74,571 L921.745,762.998 C911.375,773.368 894.562,773.368 884.193,762.998 L796.237,675.043 C782.84,661.646 782.84,639.924 796.237,626.527 C809.635,613.13 831.356,613.13 844.753,626.527 L902.969,684.743 L1065.23,522.484 Z" id="yes"></path>
        </g>
    </g>
</svg>