<?xml version="1.0" encoding="UTF-8"?>
<svg width="106px" height="37px" viewBox="0 0 106 37" version="1.1" xmlns="http://www.w3.org/2000/svg" xmlns:xlink="http://www.w3.org/1999/xlink">
    <!-- Generator: Sketch 46.2 (44496) - http://www.bohemiancoding.com/sketch -->
    <title>Group 2</title>
    <desc>Created with Sketch.</desc>
    <defs>
        <polygon id="path-1" points="0.0218181818 0.03299962 0.0218181818 21.7540968 23.8166194 21.7540968 23.8166194 0.03299962"></polygon>
    </defs>
    <g id="Page-1" stroke="none" stroke-width="1" fill="none" fill-rule="evenodd">
        <g id="Main" transform="translate(-134.000000, -22.000000)">
            <g id="Group-2" transform="translate(134.000000, 22.000000)">
                <g id="Group-3" transform="translate(0.000000, 8.000000)">
                    <mask id="mask-2" fill="white">
                        <use xlink:href="#path-1"></use>
                    </mask>
                    <g id="Clip-2"></g>
                    <path d="M4.95018182,8.94903226 C4.95018182,8.94903226 5.28727273,3.09277419 12.06,3.091 C18.808,3.08922581 18.808,8.94903226 18.808,8.94903226 L4.95018182,8.94903226 Z M12.176,0.033 C0.401454545,0.0308709677 -0.056,8.97529032 0.004,11.297 C0.004,11.297 -0.572727273,21.7540968 11.888,21.7540968 C22.5949091,21.7540968 23.1221818,15.1927742 23.1221818,15.1927742 L18.196,15.2023548 C18.196,15.2023548 17.2367273,18.8170968 11.9083636,18.7202258 C5.05818182,18.5960323 4.79236364,12.1202258 4.79236364,12.1202258 L23.7694545,12.1202258 C23.7694545,12.1202258 25.2094545,0.035483871 12.176,0.033 L12.176,0.033 Z" id="Fill-1" fill="#E53238" mask="url(#mask-2)"></path>
                </g>
                <path d="M36.4417739,26.8625796 C28.8505898,26.9545735 28.9739036,19.0869545 28.9739036,19.0869545 C28.9739036,19.0869545 28.6973705,11.5138585 36.4295902,11.3191737 C44.1610714,11.1244889 43.9096441,19.2484787 43.9096441,19.2484787 C43.9096441,19.2484787 44.0329579,26.7702292 36.4417739,26.8625796 Z M37.545691,8.17319578 C31.534696,8.14074831 28.9487978,11.6108443 28.9487978,11.6108443 L28.9487978,0 L24.1295903,0 L24.2111841,24.5391984 C24.2111841,24.5391984 24.1823863,27.397428 24,29.2865123 L28.6803872,29.2865123 L28.8812336,26.529904 C28.8812336,26.529904 31.0647005,30 37.4445294,30 C43.8254658,30 48.8632415,26.2054293 48.9976315,19.1675383 C49.1316522,12.1300038 43.5574244,8.20528668 37.545691,8.17319578 L37.545691,8.17319578 Z" id="Fill-4" fill="#0064D2"></path>
                <path d="M58.2014043,27.0220319 C58.2014043,27.0220319 53.3319526,27.0277562 53.0464558,23.2883252 C52.7419754,19.2973806 60.5378627,19.5374455 60.5378627,19.5374455 L66.0453087,19.5320789 C66.0453087,19.5320789 66.9371605,27.1322256 58.2014043,27.0220319 Z M70.8983825,24.4231774 C70.9102937,21.2382927 71.0074445,18.3943645 70.8983825,16.3883379 C70.7707092,14.0624633 71,8.44866574 60.5378627,8.0340082 C60.5378627,8.0340082 50.5075068,7.15532062 49.4660203,14.3307922 L54.5960298,14.3307922 C54.5960298,14.3307922 54.9943109,11.043227 60.1995099,11.1380365 C65.1255399,11.2274794 66.0229751,13.5497763 65.9976638,16.405511 C65.9976638,16.405511 61.7755119,16.4169597 60.3666391,16.4237573 C57.8273179,16.4359216 48.9411826,16.7063971 48.1118646,21.9087571 C47.1250952,28.0946318 52.8692765,30.024453 57.3635251,29.9997667 C61.8581459,29.9754382 64.4224062,28.6820931 66.3270832,26.363374 L66.5306905,29.2430793 L71,29.2187508 C71,29.2187508 70.8846101,27.6084199 70.8983825,24.4231774 L70.8983825,24.4231774 Z" id="Fill-5" fill="#F5AF02"></path>
                <polyline id="Fill-6" fill="#86B817" points="69 9 74.5872884 9 82.7595693 24.7066751 90.9488227 9 96 9 81.2154365 37 75.8130014 37 80.0915588 29.2193966 69 9"></polyline>
                <g id="Group" transform="translate(97.000000, 9.000000)" fill="#1A1919">
                    <path d="M0.608940797,2.31767058 L0.608940797,1.09547613 L0,1.09547613 L0,0.638090477 L0.608940797,0.638090477 L0.608940797,0 L1.70962545,0 L1.70962545,0.638090477 L3,0.638090477 L3,1.09547613 L1.70962545,1.09547613 L1.70962545,2.23444139 C1.70962545,2.44138965 1.92710431,2.52536866 2.2992348,2.52536866 C2.54450262,2.52536866 2.76560612,2.49837541 2.98308498,2.44588853 L2.98308498,2.88077981 C2.71002819,2.95576106 2.41039066,3 1.99113975,3 C1.17921869,3 0.608940797,2.82829293 0.608940797,2.31767058" id="Fill-7"></path>
                    <path d="M3,0.0616698292 L3.90406881,0.0616698292 L3.90406881,0.506641366 C4.15812107,0.244781784 4.50248098,0 5.10783989,0 C5.67350314,0 6.07740655,0.20683112 6.2858088,0.518026565 C6.60039696,0.20683112 7.02017863,0 7.61759841,0 C8.47502481,0 9,0.406072106 9,1.12428843 L9,3 L8.09593119,3 L8.09593119,1.33017078 C8.09593119,0.862428843 7.80416804,0.611954459 7.2970559,0.611954459 C6.80185246,0.611954459 6.45153821,0.869070209 6.45153821,1.34155598 L6.45153821,3 L5.5474694,3 L5.5474694,1.32542694 C5.5474694,0.869070209 5.24875951,0.611954459 4.7495865,0.611954459 C4.2494211,0.611954459 3.90406881,0.890891841 3.90406881,1.34155598 L3.90406881,3 L3,3 L3,0.0616698292" id="Fill-8"></path>
                </g>
            </g>
        </g>
    </g>
</svg>